<?xml version="1.0" encoding="utf-8"?><!-- Generator: Adobe Illustrator 17.1.0, SVG Export Plug-In . SVG Version: 6.00 Build 0)  --><!DOCTYPE svg PUBLIC "-//W3C//DTD SVG 1.0//EN" "http://www.w3.org/TR/2001/REC-SVG-20010904/DTD/svg10.dtd"><svg xmlns="http://www.w3.org/2000/svg" xmlns:xlink="http://www.w3.org/1999/xlink" version="1.0" viewBox="0 0 128 128" preserveAspectRatio="none"><style> svg * { background-size: cover; background-repeat: no-repeat; } @media all and (max-width: 32px) { #group_1 { opacity: 1; } #group_2, #group_3 { opacity: 0; } } @media all and (min-width: 33px) and (max-width: 127px) { #group_2 { opacity: 1; } #group_1, #group_3 { opacity: 0; } } @media all and (min-width: 128px) { #group_3 { opacity: 1; } #group_1, #group_2 { opacity: 0; } } </style><g id="group_3"><path d="M120,18H8c-4.4,0-8,3.6-8,8v76c0,4.4,3.6,8,8,8h112c4.4,0,8-3.6,8-8V26C128,21.6,124.4,18,120,18z M124,95.1l-36.7-29L124,35.2V95.1z M8,22h112c2.2,0,4,1.8,4,4v6.7L70.2,75.2c-3.6,2.9-8.7,2.9-12.4,0L4,32.7V26C4,23.8,5.8,22,8,22z M40.7,66.1L4,95.1V35.2L40.7,66.1z M120,106H8c-2.2,0-4-1.8-4-4v-4.4l38.3-30.2l13,11c2.6,2,5.6,3,8.7,3s6.1-1,8.7-3l13-11L124,97.6v4.4C124,104.2,122.2,106,120,106z"></path></g><g transform="scale(8)" id="group_1"><path d="M16,3.5C16,2.7,15.3,2,14.5,2h-13C0.7,2,0,2.7,0,3.5v9C0,13.3,0.7,14,1.5,14h13c0.8,0,1.5-0.7,1.5-1.5V3.5z M15,11l-3.7-2.9L15,5.2V11z M1.5,3h13C14.8,3,15,3.2,15,3.5v0.4L8.9,8.7c-0.5,0.4-1.3,0.4-1.9,0L1,3.9V3.5C1,3.2,1.2,3,1.5,3z M1,5.2l3.7,2.9L1,11V5.2z M14.5,13h-13C1.2,13,1,12.8,1,12.5v-0.2l4.5-3.6l0.9,0.7C6.9,9.8,7.5,10,8,10c0.5,0,1.1-0.2,1.5-0.5l0.9-0.7l4.5,3.6v0.2C15,12.8,14.8,13,14.5,13z"></path></g><g transform="scale(4)" id="group_2"><path d="M29,4H3C1.3,4,0,5.3,0,7v18c0,1.7,1.3,3,3,3h26c1.7,0,3-1.3,3-3V7C32,5.3,30.7,4,29,4z M30,22.7l-7.9-6.3L30,9.1V22.7z M3,6h26c0.6,0,1,0.4,1,1v1l-12.5,9.8c-0.9,0.7-2.2,0.7-3.1,0L2,8V7C2,6.4,2.4,6,3,6z M9.9,16.4L2,22.7V9.1L9.9,16.4z M29,26H3c-0.6,0-1-0.4-1-1v-1.1l8.7-6.9l3.1,2.9c0.6,0.5,1.4,0.8,2.2,0.8s1.5-0.3,2.2-0.8l3.1-2.9l8.7,6.9V25C30,25.6,29.6,26,29,26z"></path></g></svg>