<?xml version="1.0" encoding="utf-8"?><!-- Generator: Adobe Illustrator 17.1.0, SVG Export Plug-In . SVG Version: 6.00 Build 0)  --><!DOCTYPE svg PUBLIC "-//W3C//DTD SVG 1.0//EN" "http://www.w3.org/TR/2001/REC-SVG-20010904/DTD/svg10.dtd"><svg xmlns="http://www.w3.org/2000/svg" xmlns:xlink="http://www.w3.org/1999/xlink" version="1.0" viewBox="0 0 128 128" preserveAspectRatio="none"><style> svg * { background-size: cover; background-repeat: no-repeat; } @media all and (max-width: 32px) { #group_1 { opacity: 1; } #group_2, #group_3 { opacity: 0; } } @media all and (min-width: 33px) and (max-width: 127px) { #group_2 { opacity: 1; } #group_1, #group_3 { opacity: 0; } } @media all and (min-width: 128px) { #group_3 { opacity: 1; } #group_1, #group_2 { opacity: 0; } } </style><g id="group_3"><path d="M28.6,77.1c0.2,0,0.5,0,0.7,0c0.5,0,0.8,0,1.1-0.1c0.3-0.1,0.5-0.2,0.5-0.4c0-0.1-0.1-0.2-0.3-0.3c-0.2,0-0.4-0.1-0.7-0.1v-0.2h6.5v0.2c-0.3,0-0.6,0.1-0.8,0.1c-0.2,0-0.3,0.1-0.3,0.2v6.5c0,0.2,0.1,0.3,0.3,0.3c0.2,0.1,0.5,0.1,0.7,0.1v0.2h-6.7v-0.2c0.3,0,0.5,0,0.7-0.1c0.2-0.1,0.3-0.2,0.3-0.3v-4.7c-0.2,0-0.4,0-0.7,0c-0.3,0-0.5,0-0.7,0c-0.2,0-0.5,0.1-0.7,0.1c-0.2,0-0.3,0.1-0.4,0.2h-0.5v-1.8h0.5C28.3,77,28.4,77,28.6,77.1z M39.6,79.9c0-0.6,0.3-1.1,0.9-1.5c0.6-0.5,1.4-0.9,2.4-1.2c1-0.3,2.2-0.6,3.6-0.8c1.4-0.2,2.8-0.3,4.4-0.3c1.6,0,3,0.1,4.4,0.3c1.4,0.2,2.5,0.5,3.5,0.8c1,0.3,1.8,0.7,2.4,1.2c0.6,0.5,0.9,1,0.9,1.5c0,0.6-0.3,1.1-0.9,1.5c-0.6,0.5-1.4,0.9-2.4,1.2c-1,0.3-2.2,0.6-3.5,0.8c-1.4,0.2-2.8,0.3-4.4,0.3c-1.6,0-3-0.1-4.4-0.3c-1.4-0.2-2.5-0.4-3.6-0.8s-1.8-0.7-2.4-1.2C39.8,81,39.6,80.5,39.6,79.9z M44.2,79.9c0,0.4,0.2,0.7,0.5,1c0.3,0.3,0.8,0.6,1.4,0.8c0.6,0.2,1.3,0.4,2.1,0.5c0.8,0.1,1.7,0.2,2.6,0.2c0.9,0,1.8-0.1,2.6-0.2c0.8-0.1,1.5-0.3,2.1-0.5s1-0.5,1.4-0.8c0.3-0.3,0.5-0.7,0.5-1c0-0.4-0.2-0.7-0.5-1c-0.3-0.3-0.8-0.6-1.4-0.8s-1.3-0.4-2.1-0.5c-0.8-0.1-1.7-0.2-2.6-0.2c-0.9,0-1.8,0.1-2.6,0.2c-0.8,0.1-1.5,0.3-2.1,0.5c-0.6,0.2-1,0.5-1.4,0.8C44.3,79.2,44.2,79.6,44.2,79.9z M48,16c0-5.8,13-12,37-12s37,6.2,37,12s-13,12-37,12S48,21.8,48,16z M50,16c0,4.7,14.4,10,35,10s35-5.3,35-10S105.6,6,85,6S50,11.3,50,16z M74.1,25l0.3,0c0,0,0,0,0,0c0.3,0,0.5-0.2,0.5-0.5c0-0.3-0.2-0.5-0.5-0.5l-0.2,0c-0.3,0-0.5,0.2-0.5,0.4S73.8,25,74.1,25z M69.7,24.4l0.2,0c0,0,0,0,0.1,0c0.2,0,0.5-0.2,0.5-0.4c0-0.3-0.1-0.5-0.4-0.6l-0.2,0c-0.3,0-0.5,0.1-0.6,0.4C69.2,24.1,69.4,24.4,69.7,24.4z M69.9,9.5C69.9,9.5,70,9.5,69.9,9.5l0.3,0c0.3,0,0.5-0.3,0.4-0.6c0-0.3-0.3-0.5-0.6-0.4l-0.2,0c-0.3,0-0.5,0.3-0.4,0.6C69.4,9.4,69.7,9.5,69.9,9.5z M71.9,24.7l0.3,0c0,0,0,0,0.1,0c0.2,0,0.5-0.2,0.5-0.4c0-0.3-0.2-0.5-0.4-0.6l-0.2,0c-0.3,0-0.5,0.2-0.6,0.4C71.4,24.4,71.6,24.7,71.9,24.7z M72.1,9.2C72.1,9.2,72.2,9.2,72.1,9.2l0.3,0c0.3,0,0.5-0.3,0.4-0.6c0-0.3-0.3-0.5-0.6-0.4l-0.2,0c-0.3,0-0.5,0.3-0.4,0.6C71.7,9.1,71.9,9.2,72.1,9.2z M74.3,9C74.4,9,74.4,9,74.3,9l0.3,0c0.3,0,0.5-0.3,0.5-0.5c0-0.3-0.3-0.5-0.5-0.5l-0.2,0c-0.3,0-0.5,0.3-0.5,0.5C73.9,8.8,74.1,9,74.3,9z M87.7,8.5l0.2,0c0,0,0,0,0,0c0.3,0,0.5-0.2,0.5-0.5c0-0.3-0.2-0.5-0.5-0.5l-0.3,0c-0.3,0-0.5,0.2-0.5,0.5S87.4,8.5,87.7,8.5z M76.6,8.8C76.6,8.8,76.6,8.8,76.6,8.8l0.3,0c0.3,0,0.5-0.3,0.5-0.5c0-0.3-0.3-0.5-0.5-0.5l-0.2,0c-0.3,0-0.5,0.3-0.5,0.5C76.1,8.6,76.3,8.8,76.6,8.8z M85.5,8.5l0.2,0c0,0,0,0,0,0c0.3,0,0.5-0.2,0.5-0.5c0-0.3-0.2-0.5-0.5-0.5l-0.2,0c0,0,0,0,0,0C85.2,7.5,85,7.7,85,8C85,8.3,85.2,8.5,85.5,8.5z M89.9,8.6l0.2,0c0,0,0,0,0,0c0.3,0,0.5-0.2,0.5-0.5c0-0.3-0.2-0.5-0.5-0.5l-0.3,0c-0.3,0-0.5,0.2-0.5,0.5C89.5,8.4,89.7,8.6,89.9,8.6z M78.8,8.7C78.8,8.7,78.8,8.7,78.8,8.7l0.3,0c0.3,0,0.5-0.2,0.5-0.5c0-0.3-0.2-0.5-0.5-0.5l-0.2,0c-0.3,0-0.5,0.3-0.5,0.5C78.3,8.5,78.5,8.7,78.8,8.7z M83.3,8.5C83.3,8.5,83.3,8.5,83.3,8.5l0.3,0C83.8,8.5,84,8.3,84,8c0-0.3-0.2-0.5-0.5-0.5c0,0,0,0,0,0l-0.2,0c-0.3,0-0.5,0.2-0.5,0.5C82.8,8.3,83,8.5,83.3,8.5z M81,8.6C81,8.6,81,8.6,81,8.6l0.3,0c0.3,0,0.5-0.2,0.5-0.5c0-0.3-0.2-0.5-0.5-0.5l-0.3,0c-0.3,0-0.5,0.2-0.5,0.5C80.5,8.4,80.8,8.6,81,8.6z M65.5,10.3c0,0,0.1,0,0.1,0l0.2-0.1c0.3-0.1,0.4-0.3,0.4-0.6c-0.1-0.3-0.3-0.4-0.6-0.4l-0.2,0.1C65.1,9.4,65,9.7,65,9.9C65.1,10.2,65.3,10.3,65.5,10.3z M57,13.1c0.1,0,0.2,0,0.2-0.1l0.2-0.1c0.2-0.1,0.3-0.4,0.2-0.7C57.6,12,57.3,11.9,57,12l-0.2,0.1c-0.2,0.1-0.3,0.4-0.2,0.7C56.7,13,56.9,13.1,57,13.1z M56.6,20.8l0.2,0.1c0.1,0,0.2,0.1,0.2,0.1c0.2,0,0.4-0.1,0.4-0.3c0.1-0.2,0-0.5-0.2-0.7l-0.2-0.1c-0.2-0.1-0.5,0-0.7,0.2C56.3,20.3,56.4,20.6,56.6,20.8z M58.7,21.7l0.2,0.1c0.1,0,0.1,0,0.2,0c0.2,0,0.4-0.1,0.5-0.3c0.1-0.3,0-0.5-0.3-0.6l-0.2-0.1c-0.3-0.1-0.5,0-0.6,0.3C58.3,21.3,58.5,21.6,58.7,21.7z M55.1,14.3c0.1,0,0.2,0,0.3-0.1l0.2-0.1c0.2-0.2,0.3-0.5,0.1-0.7c-0.2-0.2-0.5-0.3-0.7-0.1l-0.2,0.2c-0.2,0.2-0.3,0.5-0.1,0.7C54.9,14.2,55,14.3,55.1,14.3z M54.9,19.7c0.1,0.1,0.2,0.1,0.3,0.1c0.1,0,0.3-0.1,0.4-0.2c0.2-0.2,0.1-0.5-0.1-0.7l-0.2-0.1c-0.2-0.2-0.5-0.1-0.7,0.1c-0.2,0.2-0.1,0.5,0.1,0.7L54.9,19.7z M59.1,12.2c0.1,0,0.1,0,0.2,0l0.2-0.1c0.3-0.1,0.4-0.4,0.3-0.6s-0.4-0.4-0.6-0.3l-0.2,0.1c-0.3,0.1-0.4,0.4-0.3,0.6C58.7,12.1,58.9,12.2,59.1,12.2z M53.3,17.8c0.1,0.2,0.3,0.3,0.5,0.3c0.1,0,0.1,0,0.2,0c0.2-0.1,0.4-0.4,0.2-0.7c0-0.1-0.1-0.1-0.1-0.2c-0.1-0.3-0.4-0.4-0.6-0.3c-0.3,0.1-0.4,0.4-0.3,0.6C53.2,17.6,53.3,17.7,53.3,17.8z M67.4,24.1l0.2,0c0,0,0.1,0,0.1,0c0.2,0,0.4-0.2,0.5-0.4c0-0.3-0.1-0.5-0.4-0.6l-0.2,0c-0.3,0-0.5,0.1-0.6,0.4C67,23.8,67.2,24,67.4,24.1z M65.2,23.6l0.2,0.1c0,0,0.1,0,0.1,0c0.2,0,0.4-0.2,0.5-0.4c0.1-0.3-0.1-0.5-0.4-0.6l-0.2-0.1c-0.3-0.1-0.5,0.1-0.6,0.4C64.8,23.3,65,23.6,65.2,23.6z M92.2,8.7l0.2,0c0,0,0,0,0,0c0.3,0,0.5-0.2,0.5-0.5c0-0.3-0.2-0.5-0.5-0.5l-0.2,0c-0.3,0-0.5,0.2-0.5,0.5C91.7,8.5,91.9,8.7,92.2,8.7z M67.7,9.9C67.7,9.9,67.8,9.9,67.7,9.9L68,9.8c0.3,0,0.5-0.3,0.4-0.6c0-0.3-0.3-0.5-0.6-0.4l-0.2,0c-0.3,0-0.5,0.3-0.4,0.6C67.3,9.7,67.5,9.9,67.7,9.9z M60.9,22.5l0.2,0.1c0,0,0.1,0,0.1,0c0.2,0,0.4-0.1,0.5-0.4c0.1-0.3-0.1-0.5-0.3-0.6l-0.2-0.1c-0.3-0.1-0.5,0.1-0.6,0.3C60.5,22.1,60.6,22.4,60.9,22.5z M61.2,11.4c0,0,0.1,0,0.1,0l0.2-0.1c0.3-0.1,0.4-0.4,0.3-0.6c-0.1-0.3-0.4-0.4-0.6-0.3L61,10.5c-0.3,0.1-0.4,0.4-0.3,0.6C60.8,11.3,61,11.4,61.2,11.4z M63,23.1l0.2,0.1c0,0,0.1,0,0.1,0c0.2,0,0.4-0.2,0.5-0.4c0.1-0.3-0.1-0.5-0.4-0.6l-0.2-0.1c-0.3-0.1-0.5,0.1-0.6,0.4C62.6,22.8,62.8,23,63,23.1z M63.3,10.8c0,0,0.1,0,0.1,0l0.2-0.1c0.3-0.1,0.4-0.3,0.4-0.6c-0.1-0.3-0.3-0.4-0.6-0.4l-0.2,0.1c-0.3,0.1-0.4,0.3-0.4,0.6C62.9,10.7,63.1,10.8,63.3,10.8z M98.7,24.7C98.7,24.7,98.7,24.7,98.7,24.7l0.3,0c0.3,0,0.5-0.3,0.4-0.6c0-0.3-0.3-0.5-0.6-0.4l-0.2,0c-0.3,0-0.5,0.3-0.4,0.6C98.2,24.5,98.5,24.7,98.7,24.7z M94.5,24.1l-0.2,0c-0.3,0-0.5,0.3-0.5,0.5c0,0.3,0.2,0.5,0.5,0.5c0,0,0,0,0,0l0.2,0c0.3,0,0.5-0.3,0.5-0.5C95,24.3,94.7,24.1,94.5,24.1z M116,16.5c0,0.1,0,0.1,0,0.2c0,0.3,0.2,0.5,0.4,0.6c0,0,0,0,0.1,0c0.3,0,0.5-0.2,0.5-0.4c0-0.1,0-0.2,0-0.3c0,0,0,0,0,0c0-0.3-0.2-0.4-0.5-0.4c0,0,0,0,0,0C116.2,16,116,16.2,116,16.5z M96.7,23.9l-0.2,0c-0.3,0-0.5,0.3-0.4,0.5c0,0.3,0.2,0.4,0.5,0.4c0,0,0,0,0.1,0l0.2,0c0.3,0,0.5-0.3,0.4-0.6C97.2,24.1,96.9,23.9,96.7,23.9z M115.4,15c0.1,0.1,0.2,0.2,0.4,0.2c0.1,0,0.2,0,0.3-0.1c0.2-0.2,0.2-0.5,0.1-0.7c-0.1-0.1-0.1-0.1-0.2-0.2c-0.2-0.2-0.5-0.2-0.7,0c-0.2,0.2-0.2,0.5,0,0.7C115.3,14.8,115.3,14.9,115.4,15z M113.7,20.5c0.1,0,0.2,0,0.3-0.1l0.2-0.1c0.2-0.1,0.3-0.5,0.2-0.7c-0.1-0.2-0.5-0.3-0.7-0.2l-0.2,0.1c-0.2,0.1-0.3,0.4-0.2,0.7C113.4,20.4,113.5,20.5,113.7,20.5z M115.5,19.2c0.1,0,0.3-0.1,0.4-0.2c0.1-0.1,0.1-0.1,0.2-0.2c0.2-0.2,0.2-0.5,0-0.7c-0.2-0.2-0.5-0.2-0.7,0c0,0.1-0.1,0.1-0.2,0.2c-0.2,0.2-0.2,0.5,0,0.7C115.2,19.1,115.3,19.2,115.5,19.2z M111.6,12.5l0.2,0.1c0.1,0,0.1,0,0.2,0c0.2,0,0.4-0.1,0.5-0.3c0.1-0.3,0-0.5-0.3-0.7l-0.2-0.1c-0.3-0.1-0.5,0-0.7,0.3C111.3,12.1,111.4,12.4,111.6,12.5z M113.6,13.5l0.2,0.1c0.1,0.1,0.2,0.1,0.3,0.1c0.2,0,0.3-0.1,0.4-0.2c0.1-0.2,0.1-0.5-0.2-0.7l-0.2-0.1c-0.2-0.1-0.5-0.1-0.7,0.2C113.3,13,113.3,13.4,113.6,13.5z M78.9,24.3l-0.2,0c-0.3,0-0.5,0.2-0.5,0.5c0,0.3,0.2,0.5,0.5,0.5l0.3,0c0,0,0,0,0,0c0.3,0,0.5-0.2,0.5-0.5C79.4,24.6,79.2,24.4,78.9,24.3z M76.7,24.2l-0.2,0c-0.3,0-0.5,0.2-0.5,0.5c0,0.3,0.2,0.5,0.5,0.5l0.2,0c0,0,0,0,0,0c0.3,0,0.5-0.2,0.5-0.5C77.2,24.5,77,24.2,76.7,24.2z M81.1,24.4l-0.2,0c-0.3,0-0.5,0.2-0.5,0.5c0,0.3,0.2,0.5,0.5,0.5l0.2,0c0,0,0,0,0,0c0.3,0,0.5-0.2,0.5-0.5C81.6,24.7,81.4,24.4,81.1,24.4z M85.6,24.5C85.6,24.5,85.6,24.5,85.6,24.5l-0.2,0c0,0,0,0,0,0c-0.3,0-0.5,0.2-0.5,0.5c0,0.3,0.2,0.5,0.5,0.5l0.3,0c0.3,0,0.5-0.2,0.5-0.5C86.1,24.7,85.9,24.5,85.6,24.5z M87.8,24.5l-0.2,0c-0.3,0-0.5,0.2-0.5,0.5c0,0.3,0.2,0.5,0.5,0.5c0,0,0,0,0,0l0.3,0c0.3,0,0.5-0.2,0.5-0.5C88.3,24.7,88.1,24.5,87.8,24.5z M83.3,24.5l-0.2,0c-0.3,0-0.5,0.2-0.5,0.5s0.2,0.5,0.5,0.5l0.3,0c0,0,0,0,0,0c0.3,0,0.5-0.2,0.5-0.5C83.8,24.7,83.6,24.5,83.3,24.5z M90,24.4l-0.2,0c-0.3,0-0.5,0.2-0.5,0.5c0,0.3,0.2,0.5,0.5,0.5c0,0,0,0,0,0l0.2,0c0.3,0,0.5-0.2,0.5-0.5C90.5,24.6,90.3,24.4,90,24.4z M92.2,24.3l-0.2,0c-0.3,0-0.5,0.3-0.5,0.5c0,0.3,0.2,0.5,0.5,0.5c0,0,0,0,0,0l0.3,0c0.3,0,0.5-0.3,0.5-0.5C92.8,24.5,92.5,24.3,92.2,24.3z M94.4,8.9l0.2,0c0,0,0,0,0,0c0.3,0,0.5-0.2,0.5-0.5c0-0.3-0.2-0.5-0.5-0.5l-0.3,0c-0.2,0-0.5,0.2-0.5,0.5C93.9,8.6,94.1,8.9,94.4,8.9z M103.1,24C103.1,24,103.2,24,103.1,24l0.3-0.1c0.3-0.1,0.4-0.3,0.4-0.6c-0.1-0.3-0.3-0.5-0.6-0.4l-0.2,0c-0.3,0.1-0.5,0.3-0.4,0.6C102.7,23.8,102.9,24,103.1,24z M100.9,24.3C100.9,24.3,101,24.3,100.9,24.3l0.3,0c0.3,0,0.5-0.3,0.4-0.6c0-0.3-0.3-0.5-0.6-0.4l-0.2,0c-0.3,0-0.5,0.3-0.4,0.6C100.5,24.2,100.7,24.3,100.9,24.3z M101,9.7l0.2,0c0,0,0.1,0,0.1,0c0.2,0,0.5-0.2,0.5-0.4c0-0.3-0.1-0.5-0.4-0.6l-0.2,0c-0.3,0-0.5,0.1-0.6,0.4C100.5,9.4,100.7,9.6,101,9.7z M96.6,9.1l0.2,0c0,0,0,0,0.1,0c0.3,0,0.5-0.2,0.5-0.4c0-0.3-0.2-0.5-0.4-0.6l-0.2,0c-0.3,0-0.5,0.2-0.6,0.4C96.1,8.8,96.3,9.1,96.6,9.1z M98.8,9.4l0.2,0c0,0,0,0,0.1,0c0.2,0,0.5-0.2,0.5-0.4c0-0.3-0.2-0.5-0.4-0.6l-0.2,0c-0.3,0-0.5,0.2-0.6,0.4C98.3,9.1,98.5,9.3,98.8,9.4z M111.7,21.5c0.1,0,0.1,0,0.2,0l0.2-0.1c0.3-0.1,0.4-0.4,0.3-0.7c-0.1-0.3-0.4-0.4-0.7-0.3l-0.2,0.1c-0.3,0.1-0.4,0.4-0.3,0.7C111.3,21.4,111.5,21.5,111.7,21.5z M53.5,15.9c0.1,0,0.1,0,0.2,0c0.2,0,0.4-0.1,0.5-0.3c0-0.1,0.1-0.1,0.1-0.2c0.1-0.2,0-0.5-0.2-0.7c-0.2-0.1-0.5,0-0.7,0.2c0,0.1-0.1,0.2-0.1,0.3C53.2,15.5,53.3,15.8,53.5,15.9z M107.5,11.1l0.2,0.1c0,0,0.1,0,0.1,0c0.2,0,0.4-0.1,0.5-0.4c0.1-0.3-0.1-0.5-0.3-0.6l-0.2-0.1c-0.3-0.1-0.5,0.1-0.6,0.3C107.1,10.7,107.2,11,107.5,11.1z M107.5,23c0,0,0.1,0,0.1,0l0.2-0.1c0.3-0.1,0.4-0.4,0.3-0.6c-0.1-0.3-0.3-0.4-0.6-0.3l-0.2,0.1c-0.3,0.1-0.4,0.3-0.4,0.6C107,22.8,107.2,23,107.5,23z M109.6,22.3c0.1,0,0.1,0,0.2,0l0.2-0.1c0.3-0.1,0.4-0.4,0.3-0.6c-0.1-0.3-0.4-0.4-0.6-0.3l-0.2,0.1c-0.3,0.1-0.4,0.4-0.3,0.6C109.2,22.2,109.4,22.3,109.6,22.3z M109.6,11.7l0.2,0.1c0.1,0,0.1,0,0.2,0c0.2,0,0.4-0.1,0.5-0.3c0.1-0.3,0-0.5-0.3-0.6l-0.2-0.1c-0.3-0.1-0.5,0.1-0.6,0.3C109.2,11.3,109.3,11.6,109.6,11.7z M103.2,10.1l0.2,0c0,0,0.1,0,0.1,0c0.2,0,0.4-0.2,0.5-0.4c0.1-0.3-0.1-0.5-0.4-0.6l-0.2,0c-0.3-0.1-0.5,0.1-0.6,0.4C102.7,9.8,102.9,10,103.2,10.1z M105.3,23.5c0,0,0.1,0,0.1,0l0.2-0.1c0.3-0.1,0.4-0.3,0.4-0.6c-0.1-0.3-0.3-0.4-0.6-0.4l-0.2,0.1c-0.3,0.1-0.4,0.3-0.4,0.6C104.9,23.3,105.1,23.5,105.3,23.5z M105.4,10.5l0.2,0.1c0,0,0.1,0,0.1,0c0.2,0,0.4-0.2,0.5-0.4c0.1-0.3-0.1-0.5-0.4-0.6l-0.2-0.1c-0.3-0.1-0.5,0.1-0.6,0.4C104.9,10.2,105.1,10.5,105.4,10.5z M128,81c0,8.8-18.4,15.8-42,16v15c0,9-18.9,16-43,16s-43-7-43-16V80c0-8.8,18.4-15.8,42-16V16C42,7,60.9,0,85,0s43,7,43,16V81z M44,16c0,7.6,18.8,14,41,14c22.2,0,41-6.4,41-14S107.2,2,85,2C62.8,2,44,8.4,44,16z M44,20.9V26c0,7.6,18.8,14,41,14c22.2,0,41-6.4,41-14v-5.1C120.5,27.4,104.5,32,85,32S49.5,27.4,44,20.9z M44,64L44,64C44,64,44,64,44,64C44,64,44,64,44,64z M2,80c0,7.6,18.8,14,41,14c22.2,0,41-6.4,41-14S65.2,66,43,66C20.8,66,2,72.4,2,80z M2,84.9V90c0,7.6,18.8,14,41,14c22.2,0,41-6.4,41-14v-5.1C78.5,91.4,62.5,96,43,96S7.5,91.4,2,84.9z M2,94.9v6.1c0,7.6,18.8,14,41,14c22.2,0,41-6.4,41-14v-6.1c-5.5,6.5-21.5,11.1-41,11.1S7.5,101.4,2,94.9z M84,105.9c-5.5,6.5-21.5,11.1-41,11.1s-35.5-4.6-41-11.1v6.1c0,7.6,18.8,14,41,14c22.2,0,41-6.4,41-14V105.9z M126,74.9c-5.4,6.4-21,10.9-40,11.1v4c0,0.3,0,0.7-0.1,1H86v4c21.8-0.2,40-6.5,40-14V74.9z M126,63.9C120.5,70.4,104.5,75,85,75c-0.4,0-0.7,0-1.1,0c1.4,1.6,2.1,3.3,2.1,5v4c21.8-0.2,40-6.5,40-14V63.9z M126,52.9C120.5,59.4,104.5,64,85,64s-35.5-4.6-41-11.1V59c0,1.6,0.9,3.3,2.7,4.8c0.1,0.1,0.1,0.2,0.2,0.2C62.4,64.6,75.4,68,81.8,73c1.1,0,2.2,0,3.2,0c22.2,0,41-6.4,41-14V52.9z M126,41.9C120.5,48.4,104.5,53,85,53s-35.5-4.6-41-11.1V48c0,7.6,18.8,14,41,14c22.2,0,41-6.4,41-14V41.9z M126,30.9C120.5,37.4,104.5,42,85,42s-35.5-4.6-41-11.1V37c0,7.6,18.8,14,41,14c22.2,0,41-6.4,41-14V30.9z M76,15.1c-0.1,0-0.4,0.1-0.7,0.2l5.3,2l0.3-0.1c-0.1-0.1-0.1-0.1-0.1-0.2c0-0.2,0.2-0.3,0.6-0.4c0.4-0.1,0.9-0.2,1.5-0.2c0.6-0.1,1.1-0.1,1.7-0.1c0.6,0,1,0,1.3,0c0.7,0,1.3,0,2,0.1c0.7,0,1.4,0.1,1.9,0.3c0.6,0.1,1.1,0.3,1.4,0.5c0.4,0.2,0.6,0.5,0.6,0.8c0,0.3-0.2,0.6-0.6,0.8c-0.4,0.2-0.8,0.4-1.4,0.5s-1.2,0.2-1.9,0.3s-1.3,0.1-2,0.1c-0.9,0-1.8,0-2.7-0.1c-0.9-0.1-1.7-0.2-2.4-0.3c-0.7-0.1-1.3-0.3-1.8-0.4s-0.7-0.3-0.7-0.5c0,0,0-0.1,0-0.1c0,0,0-0.1,0-0.1L78,17.7l-3.4,1.7l0.5,0.2c0.1,0,0.3,0,0.4,0c0.1,0,0.2,0,0.3,0c0.2,0,0.5,0.1,0.8,0.2c0.3,0.1,1,0.3,2,0.5c0.8,0.2,1.7,0.3,2.8,0.4c1.1,0.1,2.4,0.2,4,0.2c1.2,0,2.5,0,3.8-0.1c1.3-0.1,2.5-0.3,3.6-0.5c1.1-0.2,2-0.6,2.7-0.9c0.7-0.4,1-0.9,1-1.4c0-0.5-0.3-0.9-0.9-1.3c-0.6-0.4-1.4-0.6-2.3-0.9c-1-0.2-2-0.4-3.2-0.5c-1.2-0.1-2.3-0.2-3.4-0.2c-1.2,0-2.3,0-3.4,0.1c-1.1,0.1-2.1,0.2-3.2,0.3v-1.8h12.8c0.3,0,0.6,0,0.9,0.1c0.3,0,0.4,0.2,0.4,0.3h0.5v-2.2h-0.5c0,0.1-0.1,0.2-0.4,0.2c-0.3,0-0.6,0-0.9,0H75.4v0.2c0.5,0,0.8,0.1,0.8,0.3v2.2C76.2,15,76.1,15.1,76,15.1z M6,80c0-5.8,13-12,37-12s37,6.2,37,12S67,92,43,92S6,85.8,6,80z M8,80c0,4.7,14.4,10,35,10s35-5.3,35-10S63.6,70,43,70S8,75.3,8,80z M15,77.1c0.1,0,0.2,0,0.2-0.1l0.2-0.1c0.2-0.1,0.3-0.4,0.2-0.7S15.3,75.9,15,76l-0.2,0.1c-0.2,0.1-0.3,0.4-0.2,0.7C14.7,77,14.9,77.1,15,77.1z M34.6,72.8C34.6,72.8,34.6,72.8,34.6,72.8l0.3,0c0.3,0,0.5-0.3,0.5-0.5c0-0.3-0.3-0.5-0.5-0.5l-0.2,0c-0.3,0-0.5,0.3-0.5,0.5C34.1,72.6,34.3,72.8,34.6,72.8z M30.3,87.8l-0.2,0c-0.3,0-0.5,0.2-0.6,0.4c0,0.3,0.2,0.5,0.4,0.6l0.2,0c0,0,0,0,0.1,0c0.2,0,0.5-0.2,0.5-0.4C30.7,88.1,30.5,87.8,30.3,87.8z M36.8,72.7C36.8,72.7,36.8,72.7,36.8,72.7l0.3,0c0.3,0,0.5-0.3,0.5-0.5s-0.3-0.5-0.5-0.5l-0.2,0c-0.3,0-0.5,0.3-0.5,0.5C36.3,72.5,36.5,72.7,36.8,72.7z M25.7,73.9C25.7,73.9,25.8,73.9,25.7,73.9l0.3,0c0.3,0,0.5-0.3,0.4-0.6s-0.3-0.5-0.6-0.4l-0.3,0c-0.3,0-0.5,0.3-0.4,0.6C25.3,73.7,25.5,73.9,25.7,73.9z M27.7,88.4l0.3,0c0,0,0,0,0.1,0c0.2,0,0.5-0.2,0.5-0.4c0-0.3-0.2-0.5-0.4-0.6l-0.2,0c-0.3,0-0.5,0.1-0.6,0.4C27.2,88.1,27.4,88.4,27.7,88.4z M27.9,73.5C27.9,73.5,28,73.5,27.9,73.5l0.3,0c0.3,0,0.5-0.3,0.4-0.6s-0.3-0.5-0.6-0.4l-0.2,0l0,0c-0.3,0-0.5,0.3-0.4,0.6C27.5,73.4,27.7,73.5,27.9,73.5z M30.1,73.2C30.1,73.2,30.2,73.2,30.1,73.2l0.3,0c0.3,0,0.5-0.3,0.4-0.6c0-0.3-0.3-0.5-0.6-0.4l-0.2,0c-0.3,0-0.5,0.3-0.4,0.6C29.7,73.1,29.9,73.2,30.1,73.2z M38.9,89.4l0.2,0c0,0,0,0,0,0c0.3,0,0.5-0.2,0.5-0.5c0-0.3-0.2-0.5-0.5-0.5l-0.2,0c-0.3,0-0.5,0.2-0.5,0.5S38.6,89.4,38.9,89.4z M39,72.6C39,72.6,39,72.6,39,72.6l0.3,0c0.3,0,0.5-0.2,0.5-0.5c0-0.3-0.3-0.5-0.5-0.5l-0.2,0c-0.3,0-0.5,0.2-0.5,0.5C38.5,72.4,38.8,72.6,39,72.6z M52.4,72.9l0.2,0c0,0,0,0,0,0c0.3,0,0.5-0.2,0.5-0.5c0-0.3-0.2-0.5-0.5-0.5l-0.2,0c-0.3,0-0.5,0.2-0.5,0.5C51.9,72.6,52.1,72.9,52.4,72.9z M47.9,72.6l0.3,0c0,0,0,0,0,0c0.3,0,0.5-0.2,0.5-0.5c0-0.3-0.2-0.5-0.5-0.5l-0.2,0c-0.3,0-0.5,0.2-0.5,0.5S47.7,72.6,47.9,72.6z M50.2,72.7l0.2,0c0,0,0,0,0,0c0.3,0,0.5-0.2,0.5-0.5c0-0.3-0.2-0.5-0.5-0.5l-0.3,0c-0.3,0-0.5,0.2-0.5,0.5C49.7,72.5,49.9,72.7,50.2,72.7z M41.3,72.5C41.3,72.5,41.3,72.5,41.3,72.5l0.3,0c0.3,0,0.5-0.2,0.5-0.5s-0.3-0.5-0.5-0.5l-0.2,0c-0.3,0-0.5,0.2-0.5,0.5C40.8,72.3,41,72.5,41.3,72.5z M45.7,72.5l0.2,0c0,0,0,0,0,0c0.3,0,0.5-0.2,0.5-0.5c0-0.3-0.2-0.5-0.5-0.5l-0.2,0c-0.3,0-0.5,0.2-0.5,0.5S45.4,72.5,45.7,72.5z M43.5,72.5l0.2,0c0,0,0,0,0,0c0.3,0,0.5-0.2,0.5-0.5c0-0.3-0.2-0.5-0.5-0.5l-0.3,0c-0.3,0-0.5,0.2-0.5,0.5S43.2,72.5,43.5,72.5z M18.9,86.5l0.2,0.1c0,0,0.1,0,0.1,0c0.2,0,0.4-0.1,0.5-0.4c0.1-0.3-0.1-0.5-0.3-0.6l-0.2-0.1c-0.3-0.1-0.5,0.1-0.6,0.3C18.5,86.1,18.6,86.4,18.9,86.5z M17.1,76.2c0.1,0,0.1,0,0.2,0l0.2-0.1c0.3-0.1,0.3-0.4,0.2-0.6c-0.1-0.3-0.4-0.4-0.7-0.3l-0.1,0.1c-0.3,0.1-0.4,0.4-0.3,0.6C16.7,76.1,16.9,76.2,17.1,76.2z M14.6,84.8l0.2,0.1c0.1,0,0.2,0.1,0.2,0.1c0.2,0,0.4-0.1,0.4-0.3c0.1-0.2,0-0.5-0.2-0.7l-0.2-0.1c-0.2-0.1-0.5,0-0.7,0.2C14.3,84.3,14.4,84.6,14.6,84.8z M16.7,85.7l0.2,0.1l0,0c0.1,0,0.1,0,0.2,0c0.2,0,0.4-0.1,0.5-0.3c0.1-0.3,0-0.6-0.3-0.7l-0.2-0.1c-0.3-0.1-0.5,0-0.6,0.3C16.4,85.3,16.5,85.6,16.7,85.7z M13.1,78.3c0.1,0,0.2,0,0.3-0.1l0.2-0.1c0.2-0.2,0.3-0.5,0.1-0.7c-0.2-0.2-0.5-0.3-0.7-0.1c-0.1,0.1-0.1,0.1-0.2,0.2c-0.2,0.2-0.3,0.5-0.1,0.7C12.9,78.2,13,78.3,13.1,78.3z M11.3,81.8c0.1,0.2,0.3,0.3,0.5,0.3c0.1,0,0.1,0,0.2,0c0.2-0.1,0.4-0.4,0.2-0.7c0-0.1-0.1-0.1-0.1-0.2c-0.1-0.3-0.4-0.4-0.6-0.3c-0.3,0.1-0.4,0.4-0.3,0.6C11.2,81.7,11.3,81.7,11.3,81.8z M12.9,83.7c0.1,0.1,0.2,0.1,0.3,0.1c0.1,0,0.3-0.1,0.4-0.2c0.2-0.2,0.1-0.5-0.1-0.7l-0.2-0.1c-0.2-0.2-0.5-0.2-0.7,0.1c-0.2,0.2-0.2,0.5,0.1,0.7L12.9,83.7z M11.5,79.9c0.1,0,0.1,0,0.2,0c0.2,0,0.4-0.1,0.5-0.3c0-0.1,0.1-0.1,0.1-0.2c0.1-0.2,0-0.5-0.2-0.7c-0.2-0.1-0.5,0-0.7,0.2c0,0.1-0.1,0.2-0.1,0.3C11.2,79.5,11.3,79.8,11.5,79.9z M21.3,74.8c0,0,0.1,0,0.1,0l0.2-0.1c0.3-0.1,0.4-0.3,0.4-0.6c-0.1-0.3-0.3-0.4-0.6-0.4l-0.2,0.1c-0.3,0.1-0.4,0.3-0.4,0.6C20.9,74.7,21.1,74.8,21.3,74.8z M25.5,88.1l0.2,0c0,0,0.1,0,0.1,0c0.2,0,0.4-0.2,0.5-0.4c0-0.3-0.1-0.5-0.4-0.6l-0.2,0c-0.3,0-0.5,0.1-0.6,0.4C25,87.8,25.2,88,25.5,88.1z M23.2,87.6l0.2,0.1c0,0,0.1,0,0.1,0c0.2,0,0.4-0.2,0.5-0.4c0.1-0.3-0.1-0.5-0.4-0.6l-0.2-0.1c-0.3-0.1-0.5,0.1-0.6,0.4S23,87.6,23.2,87.6z M23.5,74.3c0,0,0.1,0,0.1,0l0.2-0.1c0.3-0.1,0.4-0.3,0.4-0.6c-0.1-0.3-0.3-0.4-0.6-0.4l-0.2,0.1c-0.3,0.1-0.4,0.3-0.4,0.6C23.1,74.2,23.3,74.3,23.5,74.3z M21,87.1l0.2,0.1c0,0,0.1,0,0.1,0c0.2,0,0.4-0.2,0.5-0.4c0.1-0.3-0.1-0.5-0.4-0.6l-0.2-0.1c-0.3-0.1-0.5,0.1-0.6,0.4C20.6,86.8,20.8,87,21,87.1z M54.6,73.1l0.2,0c0,0,0,0,0.1,0c0.3,0,0.5-0.2,0.5-0.4c0-0.3-0.2-0.5-0.4-0.6l-0.2,0c-0.3,0-0.5,0.2-0.5,0.4C54.1,72.8,54.3,73.1,54.6,73.1z M19.2,75.4c0,0,0.1,0,0.1,0l0.2-0.1c0.3-0.1,0.4-0.4,0.3-0.6c-0.1-0.3-0.4-0.4-0.6-0.3L19,74.5c-0.3,0.1-0.4,0.4-0.3,0.6C18.8,75.3,19,75.4,19.2,75.4z M32.4,73C32.4,73,32.4,73,32.4,73l0.3,0c0.3,0,0.5-0.3,0.4-0.5S32.8,72,32.5,72l-0.2,0l0,0c-0.3,0-0.5,0.3-0.4,0.5C31.9,72.8,32.1,73,32.4,73z M52.5,88.1l-0.3,0c-0.3,0-0.5,0.3-0.5,0.5c0,0.3,0.2,0.5,0.5,0.5c0,0,0,0,0,0l0.2,0c0.3,0,0.5-0.3,0.5-0.5C53,88.3,52.7,88.1,52.5,88.1z M50.2,88.3l-0.3,0c-0.3,0-0.5,0.3-0.5,0.5c0,0.3,0.2,0.5,0.5,0.5c0,0,0,0,0,0l0.2,0c0.3,0,0.5-0.3,0.5-0.5C50.8,88.5,50.5,88.2,50.2,88.3z M48,88.4l-0.2,0c-0.3,0-0.5,0.2-0.5,0.5c0,0.3,0.2,0.5,0.5,0.5c0,0,0,0,0,0l0.3,0c0.3,0,0.5-0.2,0.5-0.5C48.5,88.6,48.3,88.4,48,88.4z M54.7,87.9l-0.2,0c-0.3,0-0.5,0.3-0.4,0.5c0,0.3,0.2,0.4,0.5,0.4c0,0,0,0,0.1,0l0.2,0c0.3,0,0.5-0.3,0.4-0.6C55.2,88.1,55,87.9,54.7,87.9z M61.3,86.9L61,87c-0.3,0.1-0.4,0.3-0.4,0.6c0,0.2,0.3,0.4,0.5,0.4c0,0,0.1,0,0.1,0l0.2,0c0.3-0.1,0.4-0.3,0.4-0.6C61.8,87,61.5,86.9,61.3,86.9z M59.1,87.3l-0.2,0c-0.3,0-0.5,0.3-0.4,0.6c0,0.2,0.3,0.4,0.5,0.4c0,0,0.1,0,0.1,0l0.2,0c0.3,0,0.5-0.3,0.4-0.6C59.6,87.4,59.4,87.3,59.1,87.3z M74,80.5c0,0.1,0,0.1,0,0.2c0,0.3,0.2,0.5,0.4,0.6c0,0,0,0,0.1,0c0.3,0,0.5-0.2,0.5-0.4c0-0.1,0-0.2,0-0.3c0,0,0,0,0,0c0-0.3-0.2-0.4-0.5-0.4C74.2,80,74,80.2,74,80.5z M56.9,87.6l-0.3,0c-0.3,0-0.5,0.3-0.4,0.6c0,0.2,0.2,0.4,0.5,0.4c0,0,0,0,0.1,0l0.2,0c0.3,0,0.5-0.3,0.4-0.6C57.4,87.8,57.2,87.6,56.9,87.6z M34.7,88.2l-0.2,0c-0.3,0-0.5,0.2-0.5,0.5c0,0.3,0.2,0.5,0.5,0.5l0.3,0c0,0,0,0,0,0c0.3,0,0.5-0.2,0.5-0.5C35.2,88.5,35,88.2,34.7,88.2z M45.8,88.5l-0.2,0c-0.3,0-0.5,0.2-0.5,0.5c0,0.3,0.2,0.5,0.5,0.5c0,0,0,0,0,0l0.2,0c0.3,0,0.5-0.2,0.5-0.5C46.3,88.7,46,88.5,45.8,88.5z M36.9,88.3l-0.3,0c-0.3,0-0.5,0.2-0.5,0.5c0,0.3,0.2,0.5,0.5,0.5l0.2,0c0,0,0,0,0,0c0.3,0,0.5-0.2,0.5-0.5C37.4,88.6,37.2,88.4,36.9,88.3z M32.5,88l-0.2,0c-0.3,0-0.5,0.2-0.5,0.5c0,0.3,0.2,0.5,0.5,0.5l0.2,0c0,0,0,0,0,0c0.3,0,0.5-0.2,0.5-0.5C32.9,88.3,32.7,88,32.5,88z M41.4,88.5l-0.2,0c-0.3,0-0.5,0.2-0.5,0.5s0.2,0.5,0.5,0.5l0.3,0c0,0,0,0,0,0c0.3,0,0.5-0.2,0.5-0.5C41.8,88.7,41.6,88.5,41.4,88.5z M43.6,88.5l-0.3,0c-0.3,0-0.5,0.2-0.5,0.5c0,0.3,0.2,0.5,0.5,0.5c0,0,0,0,0,0l0.2,0c0.3,0,0.5-0.2,0.5-0.5S43.9,88.5,43.6,88.5z M61.2,74.1l0.2,0c0,0,0.1,0,0.1,0c0.2,0,0.4-0.2,0.5-0.4c0.1-0.3-0.1-0.5-0.4-0.6l-0.2,0c-0.3-0.1-0.5,0.1-0.6,0.4C60.7,73.8,60.9,74,61.2,74.1z M73.4,79c0.1,0.1,0.2,0.2,0.4,0.2c0.1,0,0.2,0,0.3-0.1c0.2-0.2,0.2-0.5,0.1-0.7c-0.1-0.1-0.1-0.1-0.2-0.2c-0.2-0.2-0.5-0.2-0.7,0c-0.2,0.2-0.2,0.5,0,0.7C73.3,78.8,73.3,78.9,73.4,79z M65.5,87c0,0,0.1,0,0.1,0l0.2-0.1c0.3-0.1,0.4-0.4,0.3-0.6s-0.3-0.4-0.6-0.3L65.3,86c-0.3,0.1-0.4,0.3-0.4,0.6C65,86.8,65.2,87,65.5,87z M65.5,75.1l0.2,0.1c0,0,0.1,0,0.1,0c0.2,0,0.4-0.1,0.5-0.4c0.1-0.3-0.1-0.5-0.3-0.6l-0.2-0.1c-0.3-0.1-0.5,0.1-0.6,0.3C65.1,74.7,65.2,75,65.5,75.1z M56.8,73.4l0.2,0c0,0,0,0,0.1,0c0.2,0,0.5-0.2,0.5-0.4c0-0.3-0.2-0.5-0.4-0.6l-0.2,0c-0.3,0-0.5,0.2-0.6,0.4C56.3,73.1,56.5,73.3,56.8,73.4z M63.3,87.5c0,0,0.1,0,0.1,0l0.2-0.1c0.3-0.1,0.4-0.3,0.4-0.6c-0.1-0.3-0.3-0.4-0.6-0.4l-0.2,0.1c-0.3,0.1-0.4,0.3-0.4,0.6C62.9,87.3,63.1,87.5,63.3,87.5z M59,73.7l0.2,0c0,0,0.1,0,0.1,0c0.2,0,0.5-0.2,0.5-0.4c0-0.3-0.1-0.5-0.4-0.6l-0.2,0c-0.3,0-0.5,0.1-0.6,0.4S58.7,73.6,59,73.7z M67.7,86.3c0.1,0,0.1,0,0.2,0l0.1,0c0.3-0.1,0.4-0.4,0.3-0.6c-0.1-0.3-0.4-0.4-0.6-0.3l-0.1,0l-0.1,0c-0.3,0.1-0.4,0.4-0.3,0.6C67.3,86.2,67.5,86.3,67.7,86.3z M63.4,74.5l0.2,0.1c0,0,0.1,0,0.1,0c0.2,0,0.4-0.2,0.5-0.4c0.1-0.3-0.1-0.5-0.4-0.6l-0.2-0.1c-0.3-0.1-0.5,0.1-0.6,0.4C62.9,74.2,63.1,74.5,63.4,74.5z M71.6,77.5l0.2,0.1c0.1,0.1,0.2,0.1,0.3,0.1c0.2,0,0.3-0.1,0.4-0.2c0.1-0.2,0.1-0.5-0.2-0.7l-0.2-0.1c-0.2-0.1-0.5-0.1-0.7,0.2C71.3,77,71.3,77.4,71.6,77.5z M73.5,83.2c0.1,0,0.3,0,0.4-0.1c0.1-0.1,0.1-0.1,0.2-0.2c0.2-0.2,0.2-0.5,0-0.7c-0.2-0.2-0.5-0.2-0.7,0c0,0.1-0.1,0.1-0.2,0.2c-0.2,0.2-0.2,0.5,0,0.7C73.2,83.1,73.3,83.2,73.5,83.2z M71.7,84.5c0.1,0,0.2,0,0.3-0.1l0.2-0.1c0.2-0.1,0.3-0.5,0.2-0.7s-0.5-0.3-0.7-0.2l-0.2,0.1c-0.2,0.1-0.3,0.4-0.2,0.7C71.4,84.4,71.5,84.5,71.7,84.5z M67.7,75.7l0.2,0.1c0.1,0,0.1,0,0.2,0c0.2,0,0.4-0.1,0.5-0.3c0.1-0.3,0-0.5-0.3-0.6L68,74.8l-0.1,0c-0.3-0.1-0.5,0.1-0.6,0.3C67.2,75.4,67.4,75.7,67.7,75.7z M69.6,76.5l0.2,0.1c0.1,0,0.1,0,0.2,0c0.2,0,0.4-0.1,0.5-0.3c0.1-0.3,0-0.5-0.2-0.7L70,75.6c-0.3-0.1-0.5,0-0.7,0.3C69.3,76.1,69.4,76.4,69.6,76.5z M69.7,85.5c0.1,0,0.1,0,0.2,0l0.2-0.1c0.3-0.1,0.4-0.4,0.3-0.7c-0.1-0.3-0.4-0.4-0.7-0.3l-0.2,0.1c-0.3,0.1-0.4,0.4-0.3,0.7C69.3,85.4,69.5,85.5,69.7,85.5z"></path></g><g transform="scale(8)" id="group_1"><path d="M10.5,0C7.8,0,5,0.9,5,2.5v2V7C2.5,7.1,0,8,0,9.5v4C0,15.1,2.8,16,5.5,16s5.5-0.9,5.5-2.5V13c2.5-0.1,5-1,5-2.5v-8C16,0.9,13.2,0,10.5,0z M10.5,1C13.2,1,15,1.9,15,2.5S13.2,4,10.5,4S6,3.1,6,2.5S7.8,1,10.5,1z M5.5,8C8.2,8,10,8.9,10,9.5c0,0.6-1.8,1.5-4.5,1.5S1,10.1,1,9.5C1,8.9,2.8,8,5.5,8z M1,11c1.1,0.7,2.8,1,4.5,1s3.4-0.4,4.5-1v0.5c0,0.6-1.8,1.5-4.5,1.5S1,12.1,1,11.5V11z M5.5,15C2.8,15,1,14.1,1,13.5V13c1.1,0.7,2.8,1,4.5,1s3.4-0.4,4.5-1v0.5C10,14.1,8.2,15,5.5,15z M11,12v-0.5V11c1.5-0.1,3-0.4,4-1v0.5C15,11.1,13.5,11.9,11,12z M11,10V9.5c0-0.2,0-0.3-0.1-0.5C12.5,8.9,14,8.6,15,8v0.5C15,9.1,13.5,9.9,11,10z M10.5,8c-0.2,0-0.4,0-0.6,0C9,7.4,7.5,7.1,6,7V6c1.1,0.7,2.8,1,4.5,1c1.7,0,3.4-0.4,4.5-1v0.5C15,7.1,13.2,8,10.5,8z M10.5,6C7.8,6,6,5.1,6,4.5V4c1.1,0.7,2.8,1,4.5,1c1.7,0,3.4-0.4,4.5-1v0.5C15,5.1,13.2,6,10.5,6z"></path></g><g transform="scale(4)" id="group_2"><path d="M21,0c-5.3,0-11,1.8-11,5v9C5,14.2,0,16,0,19v8c0,3.2,5.7,5,11,5s11-1.8,11-5v-1c5-0.2,10-1.9,10-5V5C32,1.8,26.3,0,21,0z M21,2c5.5,0,9,1.8,9,3s-3.5,3-9,3s-9-1.8-9-3S15.5,2,21,2z M11,16c5.5,0,9,1.8,9,3s-3.5,3-9,3s-9-1.8-9-3S5.5,16,11,16z M2,22c2.1,1.3,5.6,2,9,2s6.9-0.7,9-2v1c0,1.2-3.5,3-9,3s-9-1.8-9-3V22z M11,30c-5.5,0-9-1.8-9-3v-1c2.1,1.3,5.6,2,9,2s6.9-0.7,9-2v1C20,28.2,16.5,30,11,30z M22,24v-1v-1c3.1-0.1,6.1-0.8,8-2v1C30,22.1,26.9,23.8,22,24z M22,20v-1c0-0.4-0.1-0.7-0.2-1c3.1-0.1,6.3-0.8,8.2-2v1C30,18.1,26.9,19.8,22,20z M21,16c-0.4,0-0.7,0-1.1,0C18,14.8,15,14.1,12,14V12c2.1,1.3,5.6,2,9,2c3.4,0,6.9-0.7,9-2v1C30,14.2,26.5,16,21,16z M21,12c-5.5,0-9-1.8-9-3V8c2.1,1.3,5.6,2,9,2c3.4,0,6.9-0.7,9-2v1C30,10.2,26.5,12,21,12z M19.2,5.3C19.2,5.3,19.2,5.3,19.2,5.3c0,0.1,0.1,0.1,0.2,0.2c0.1,0,0.3,0.1,0.5,0.1c0.2,0,0.4,0.1,0.7,0.1c0.2,0,0.5,0,0.7,0c0.2,0,0.4,0,0.5,0c0.2,0,0.4,0,0.5-0.1c0.2,0,0.3-0.1,0.4-0.1c0.1-0.1,0.1-0.1,0.1-0.2c0-0.1-0.1-0.2-0.2-0.2C22.6,5,22.4,5,22.3,4.9c-0.2,0-0.3-0.1-0.5-0.1c-0.2,0-0.4,0-0.6,0c-0.1,0-0.2,0-0.3,0c-0.2,0-0.3,0-0.5,0c-0.2,0-0.3,0-0.4,0.1c-0.1,0-0.2,0.1-0.2,0.1c0,0,0,0,0,0l-0.1,0l-1.4-0.6c0.1,0,0.2-0.1,0.2-0.1s0.1,0,0.1-0.1V3.8c0-0.1-0.1-0.1-0.2-0.1V3.6h4.7c0.1,0,0.2,0,0.2,0c0.1,0,0.1,0,0.1-0.1h0.1v0.6h-0.1c0-0.1,0-0.1-0.1-0.1c-0.1,0-0.2,0-0.2,0h-3.5v0.5c0.3,0,0.6-0.1,0.9-0.1c0.3,0,0.6,0,0.9,0c0.3,0,0.6,0,0.9,0c0.3,0,0.6,0.1,0.9,0.1c0.3,0.1,0.5,0.2,0.6,0.3C24,5,24.1,5.1,24.1,5.3c0,0.2-0.1,0.3-0.3,0.4c-0.2,0.1-0.4,0.2-0.7,0.3c-0.3,0.1-0.6,0.1-1,0.1c-0.4,0-0.7,0-1,0c-0.4,0-0.8,0-1.1-0.1c-0.3,0-0.6-0.1-0.8-0.1c-0.3-0.1-0.4-0.1-0.5-0.1c-0.1,0-0.2-0.1-0.2-0.1c0,0,0,0-0.1,0c0,0-0.1,0-0.1,0l-0.1,0L19.2,5.3L19.2,5.3C19.2,5.3,19.2,5.3,19.2,5.3z M6.9,18.4H6.8v-0.5h0.1c0,0,0,0,0.1,0.1c0.1,0,0.1,0,0.2,0c0.1,0,0.2,0,0.3,0c0.1,0,0.1-0.1,0.1-0.1c0,0,0-0.1-0.1-0.1c0,0-0.1,0-0.2,0v-0.1H9v0.1c-0.1,0-0.2,0-0.2,0c-0.1,0-0.1,0-0.1,0.1v2c0,0,0,0.1,0.1,0.1c0.1,0,0.1,0,0.2,0v0.1H7.3v-0.1c0.1,0,0.1,0,0.2,0s0.1,0,0.1-0.1v-1.5c0,0-0.1,0-0.2,0c-0.1,0-0.1,0-0.2,0c-0.1,0-0.1,0-0.2,0C7,18.3,6.9,18.3,6.9,18.4z M10.7,19.6c0.3,0.1,0.6,0.2,0.9,0.2c0.4,0.1,0.7,0.1,1.1,0.1c0.4,0,0.8,0,1.1-0.1c0.4-0.1,0.7-0.1,0.9-0.2c0.3-0.1,0.5-0.2,0.6-0.4c0.2-0.1,0.2-0.3,0.2-0.5c0-0.2-0.1-0.3-0.2-0.5c-0.2-0.1-0.4-0.3-0.6-0.4c-0.3-0.1-0.6-0.2-0.9-0.2c-0.4-0.1-0.7-0.1-1.1-0.1c-0.4,0-0.8,0-1.1,0.1c-0.4,0.1-0.7,0.1-0.9,0.2c-0.3,0.1-0.5,0.2-0.6,0.4c-0.2,0.1-0.2,0.3-0.2,0.5c0,0.2,0.1,0.3,0.2,0.5C10.2,19.3,10.4,19.5,10.7,19.6z M11.2,18.4c0.1-0.1,0.2-0.2,0.4-0.3c0.2-0.1,0.3-0.1,0.5-0.2c0.2,0,0.4-0.1,0.7-0.1c0.2,0,0.5,0,0.7,0.1c0.2,0,0.4,0.1,0.5,0.2c0.2,0.1,0.3,0.2,0.4,0.3c0.1,0.1,0.1,0.2,0.1,0.3c0,0.1,0,0.2-0.1,0.3c-0.1,0.1-0.2,0.2-0.4,0.3c-0.2,0.1-0.3,0.1-0.5,0.2c-0.2,0-0.4,0.1-0.7,0.1c-0.2,0-0.5,0-0.7-0.1s-0.4-0.1-0.5-0.2c-0.2-0.1-0.3-0.2-0.4-0.3C11.1,19,11,18.8,11,18.7C11,18.6,11.1,18.5,11.2,18.4z"></path></g></svg>