<?xml version="1.0" encoding="utf-8"?><!-- Generator: Adobe Illustrator 17.1.0, SVG Export Plug-In . SVG Version: 6.00 Build 0)  --><!DOCTYPE svg PUBLIC "-//W3C//DTD SVG 1.0//EN" "http://www.w3.org/TR/2001/REC-SVG-20010904/DTD/svg10.dtd"><svg xmlns="http://www.w3.org/2000/svg" xmlns:xlink="http://www.w3.org/1999/xlink" version="1.0" viewBox="0 0 128 128" preserveAspectRatio="none"><style> svg * { background-size: cover; background-repeat: no-repeat; } @media all and (max-width: 32px) { #group_1 { opacity: 1; } #group_2, #group_3 { opacity: 0; } } @media all and (min-width: 33px) and (max-width: 127px) { #group_2 { opacity: 1; } #group_1, #group_3 { opacity: 0; } } @media all and (min-width: 128px) { #group_3 { opacity: 1; } #group_1, #group_2 { opacity: 0; } } </style><g id="group_3"><path d="M104,0H24c-2.8,0-5,2.2-5,5v118c0,2.8,2.2,5,5,5h80c2.8,0,5-2.2,5-5V5C109,2.2,106.8,0,104,0z M64,5c0.6,0,1,0.4,1,1c0,0.6-0.4,1-1,1s-1-0.4-1-1C63,5.4,63.4,5,64,5z M64,125.5c-2.8,0-5-2.2-5-5s2.2-5,5-5c2.8,0,5,2.2,5,5S66.8,125.5,64,125.5z M64,124.5c-2.2,0-4-1.8-4-4s1.8-4,4-4c2.2,0,4,1.8,4,4S66.2,124.5,64,124.5z M103,112c0,0.6-0.4,1-1,1H26c-0.6,0-1-0.4-1-1V12c0-0.6,0.4-1,1-1h76c0.6,0,1,0.4,1,1V112z"></path></g><g transform="scale(8)" id="group_1"><path d="M12.5,0h-9C2.7,0,2,0.7,2,1.5v13C2,15.3,2.7,16,3.5,16h9c0.8,0,1.5-0.7,1.5-1.5v-13C14,0.7,13.3,0,12.5,0z M8,15.2c-0.4,0-0.7-0.3-0.7-0.7c0-0.4,0.3-0.7,0.7-0.7s0.7,0.3,0.7,0.7C8.7,14.9,8.4,15.2,8,15.2z M13,13H3V2h10V13z"></path></g><g transform="scale(4)" id="group_2"><path d="M25,0H7C5.3,0,4,1.3,4,3v26c0,1.7,1.3,3,3,3h18c1.7,0,3-1.3,3-3V3C28,1.3,26.7,0,25,0z M16,1c0.3,0,0.5,0.2,0.5,0.5C16.5,1.8,16.3,2,16,2s-0.5-0.2-0.5-0.5C15.5,1.2,15.7,1,16,1z M16,31c-0.8,0-1.5-0.7-1.5-1.5S15.2,28,16,28s1.5,0.7,1.5,1.5S16.8,31,16,31z M26,27H6V3h20V27z"></path></g></svg>