<?xml version="1.0" encoding="utf-8"?><!-- Generator: Adobe Illustrator 17.1.0, SVG Export Plug-In . SVG Version: 6.00 Build 0)  --><!DOCTYPE svg PUBLIC "-//W3C//DTD SVG 1.0//EN" "http://www.w3.org/TR/2001/REC-SVG-20010904/DTD/svg10.dtd"><svg xmlns="http://www.w3.org/2000/svg" xmlns:xlink="http://www.w3.org/1999/xlink" version="1.0" viewBox="0 0 128 128" preserveAspectRatio="none"><style> svg * { background-size: cover; background-repeat: no-repeat; } @media all and (max-width: 32px) { #group_1 { opacity: 1; } #group_2, #group_3 { opacity: 0; } } @media all and (min-width: 33px) and (max-width: 127px) { #group_2 { opacity: 1; } #group_1, #group_3 { opacity: 0; } } @media all and (min-width: 128px) { #group_3 { opacity: 1; } #group_1, #group_2 { opacity: 0; } } </style><g id="group_3"><path d="M100,17c-6.1,0-11,4.9-11,11s4.9,11,11,11s11-4.9,11-11S106.1,17,100,17z M100,37c-5,0-9-4-9-9s4-9,9-9s9,4,9,9S105,37,100,37z M62,40c0,1.1-0.9,2-2,2s-2-0.9-2-2c0-1.1,0.9-2,2-2S62,38.9,62,40z M70,60c0-1.1,0.9-2,2-2s2,0.9,2,2c0,1.1-0.9,2-2,2S70,61.1,70,60z M58,48c0-1.1,0.9-2,2-2s2,0.9,2,2c0,1.1-0.9,2-2,2S58,49.1,58,48z M62,52c0-1.1,0.9-2,2-2s2,0.9,2,2c0,1.1-0.9,2-2,2S62,53.1,62,52z M66,56c0-1.1,0.9-2,2-2s2,0.9,2,2c0,1.1-0.9,2-2,2S66,57.1,66,56z M82,64c0-1.1,0.9-2,2-2s2,0.9,2,2c0,1.1-0.9,2-2,2S82,65.1,82,64z M62,44c0-1.1,0.9-2,2-2s2,0.9,2,2c0,1.1-0.9,2-2,2S62,45.1,62,44z M74,52c0,1.1-0.9,2-2,2s-2-0.9-2-2c0-1.1,0.9-2,2-2S74,50.9,74,52z M74,56c0-1.1,0.9-2,2-2s2,0.9,2,2c0,1.1-0.9,2-2,2S74,57.1,74,56z M78,60c0-1.1,0.9-2,2-2s2,0.9,2,2c0,1.1-0.9,2-2,2S78,61.1,78,60z M90,60c0,1.1-0.9,2-2,2s-2-0.9-2-2c0-1.1,0.9-2,2-2S90,58.9,90,60z M82,52c0,1.1-0.9,2-2,2s-2-0.9-2-2c0-1.1,0.9-2,2-2S82,50.9,82,52z M86,56c0,1.1-0.9,2-2,2s-2-0.9-2-2c0-1.1,0.9-2,2-2S86,54.9,86,56z M90,64c0-1.1,0.9-2,2-2s2,0.9,2,2c0,1.1-0.9,2-2,2S90,65.1,90,64z M94,72c0,1.1-0.9,2-2,2s-2-0.9-2-2c0-1.1,0.9-2,2-2S94,70.9,94,72z M90,68c0,1.1-0.9,2-2,2s-2-0.9-2-2c0-1.1,0.9-2,2-2S90,66.9,90,68z M74,44c0,1.1-0.9,2-2,2s-2-0.9-2-2c0-1.1,0.9-2,2-2S74,42.9,74,44z M70,40c0,1.1-0.9,2-2,2s-2-0.9-2-2c0-1.1,0.9-2,2-2S70,38.9,70,40z M70,48c0,1.1-0.9,2-2,2s-2-0.9-2-2c0-1.1,0.9-2,2-2S70,46.9,70,48z M78,48c0,1.1-0.9,2-2,2s-2-0.9-2-2c0-1.1,0.9-2,2-2S78,46.9,78,48z M66,36c0,1.1-0.9,2-2,2s-2-0.9-2-2c0-1.1,0.9-2,2-2S66,34.9,66,36z M82,48c0-1.1,0.9-2,2-2s2,0.9,2,2c0,1.1-0.9,2-2,2S82,49.1,82,48z M58,32c0-1.1,0.9-2,2-2s2,0.9,2,2c0,1.1-0.9,2-2,2S58,33.1,58,32z M66,60c0,1.1-0.9,2-2,2s-2-0.9-2-2c0-1.1,0.9-2,2-2S66,58.9,66,60z M70,64c0,1.1-0.9,2-2,2s-2-0.9-2-2c0-1.1,0.9-2,2-2S70,62.9,70,64z M58,44c0,1.1-0.9,2-2,2s-2-0.9-2-2c0-1.1,0.9-2,2-2S58,42.9,58,44z M54,36c0-1.1,0.9-2,2-2s2,0.9,2,2c0,1.1-0.9,2-2,2S54,37.1,54,36z M62,56c0,1.1-0.9,2-2,2s-2-0.9-2-2c0-1.1,0.9-2,2-2S62,54.9,62,56z M82,68c0,1.1-0.9,2-2,2s-2-0.9-2-2c0-1.1,0.9-2,2-2S82,66.9,82,68z M98,68c0,1.1-0.9,2-2,2s-2-0.9-2-2c0-1.1,0.9-2,2-2S98,66.9,98,68z M74,68c0,1.1-0.9,2-2,2s-2-0.9-2-2c0-1.1,0.9-2,2-2S74,66.9,74,68z M78,64c0,1.1-0.9,2-2,2s-2-0.9-2-2c0-1.1,0.9-2,2-2S78,62.9,78,64z M86,72c0,1.1-0.9,2-2,2s-2-0.9-2-2c0-1.1,0.9-2,2-2S86,70.9,86,72z M94,60c0-1.1,0.9-2,2-2s2,0.9,2,2c0,1.1-0.9,2-2,2S94,61.1,94,60z M90,56c0-1.1,0.9-2,2-2s2,0.9,2,2c0,1.1-0.9,2-2,2S90,57.1,90,56z M98,64c0-1.1,0.9-2,2-2s2,0.9,2,2c0,1.1-0.9,2-2,2S98,65.1,98,64z M62,28c0-1.1,0.9-2,2-2s2,0.9,2,2c0,1.1-0.9,2-2,2S62,29.1,62,28z M86,52c0-1.1,0.9-2,2-2s2,0.9,2,2c0,1.1-0.9,2-2,2S86,53.1,86,52z M70,36c0-1.1,0.9-2,2-2s2,0.9,2,2c0,1.1-0.9,2-2,2S70,37.1,70,36z M78,44c0-1.1,0.9-2,2-2s2,0.9,2,2c0,1.1-0.9,2-2,2S78,45.1,78,44z M66,32c0-1.1,0.9-2,2-2s2,0.9,2,2c0,1.1-0.9,2-2,2S66,33.1,66,32z M74,40c0-1.1,0.9-2,2-2s2,0.9,2,2c0,1.1-0.9,2-2,2S74,41.1,74,40z M86,0C62.8,0,44,18.8,44,42c0,3.6,0.5,7.1,1.3,10.4L39.7,58c-1.6,1.6-1.6,4.1,0,5.7l1.8,1.8L0,107v11l39.7-39.7l1,1L0,120v2.6l3.3,3.3l47.9-47.9l2.8,2.8L6.8,128H21l11-11l0-6l6,0l11-11v-6l6,0l7.5-7.5l1.8,1.8c1.6,1.6,4.1,1.6,5.7,0l5.6-5.6C78.9,83.5,82.4,84,86,84c23.2,0,42-18.8,42-42C128,18.8,109.2,0,86,0z M77,73.7c0.6-0.3,1-1,1-1.7c0-1.1-0.9-2-2-2s-2,0.9-2,2c0,0.3,0.1,0.6,0.2,0.8c-2.8-1.1-5.4-2.5-7.9-4.3L66,68.2c0-0.1,0-0.1,0-0.2c0-1.1-0.9-2-2-2c-0.1,0-0.1,0-0.2,0L62,64.2c0-0.1,0-0.1,0-0.2c0-1.1-0.9-2-2-2c-0.1,0-0.1,0-0.2,0l-0.3-0.3c-0.6-0.8-1.2-1.7-1.7-2.6c-0.1-0.1-0.1-0.2-0.2-0.3c-0.9-1.6-1.7-3.3-2.4-5c0.2,0.1,0.5,0.2,0.8,0.2c1.1,0,2-0.9,2-2c0-1.1-0.9-2-2-2c-0.8,0-1.4,0.4-1.7,1c-0.2-0.7-0.4-1.4-0.5-2.1c0.2-0.3,0.3-0.6,0.3-1c0-0.6-0.3-1.1-0.7-1.5c-0.2-1.6-0.3-3.2-0.3-4.8c0.6-0.3,1-1,1-1.7c0-0.7-0.3-1.2-0.8-1.6c0.3-2.9,1-5.8,2.1-8.5c0.2,0.1,0.4,0.1,0.7,0.1c1.1,0,2-0.9,2-2c0-0.7-0.4-1.4-1-1.7c0.3-0.6,0.7-1.2,1.1-1.8c0.2,0.9,1,1.5,1.9,1.5c1.1,0,2-0.9,2-2c0-1.1-0.9-2-2-2c-0.1,0-0.2,0-0.3,0c0.8-1,1.6-1.9,2.4-2.9C62.1,19.4,62,19.7,62,20c0,1.1,0.9,2,2,2c0.6,0,1.1-0.2,1.4-0.6l1.2,1.2C66.2,22.9,66,23.4,66,24c0,1.1,0.9,2,2,2c0.6,0,1.1-0.2,1.4-0.6l1.2,1.2C70.2,26.9,70,27.4,70,28c0,1.1,0.9,2,2,2c0.6,0,1.1-0.2,1.4-0.6l1.2,1.2C74.2,30.9,74,31.4,74,32c0,1.1,0.9,2,2,2c0.6,0,1.1-0.2,1.4-0.6l1.2,1.2C78.2,34.9,78,35.4,78,36c0,1.1,0.9,2,2,2c0.6,0,1.1-0.2,1.4-0.6l1.2,1.2C82.2,38.9,82,39.4,82,40c0,1.1,0.9,2,2,2c0.6,0,1.1-0.2,1.4-0.6l1.2,1.2C86.2,42.9,86,43.4,86,44c0,1.1,0.9,2,2,2c0.6,0,1.1-0.2,1.4-0.6l1.2,1.2C90.2,46.9,90,47.4,90,48c0,1.1,0.9,2,2,2c0.6,0,1.1-0.2,1.4-0.6l1.2,1.2C94.2,50.9,94,51.4,94,52c0,1.1,0.9,2,2,2c0.6,0,1.1-0.2,1.4-0.6l1.2,1.2C98.2,54.9,98,55.4,98,56c0,1.1,0.9,2,2,2c0.6,0,1.1-0.2,1.4-0.6l1.2,1.2c-0.4,0.4-0.6,0.9-0.6,1.4c0,1.1,0.9,2,2,2c0.6,0,1.1-0.2,1.4-0.6l1.2,1.2c-0.4,0.4-0.6,0.9-0.6,1.4c0,1.1,0.9,2,2,2c0.3,0,0.6-0.1,0.8-0.2c-0.9,0.9-1.9,1.7-2.9,2.4c0-0.1,0-0.2,0-0.3c0-1.1-0.9-2-2-2s-2,0.9-2,2c0,0.9,0.7,1.7,1.5,1.9c-0.6,0.4-1.2,0.7-1.8,1.1c-0.3-0.6-1-1-1.7-1c-1.1,0-2,0.9-2,2c0,0.2,0.1,0.5,0.1,0.7c-2.8,1.1-5.6,1.8-8.5,2.1C89.2,74.3,88.7,74,88,74c-0.7,0-1.4,0.4-1.7,1C83.1,75,80,74.6,77,73.7z M100,41c-7.2,0-13-5.8-13-13c0-7.2,5.8-13,13-13s13,5.8,13,13C113,35.2,107.2,41,100,41z"></path></g><g transform="scale(8)" id="group_1"><path d="M11,0C8.2,0,6,2.2,6,5c0,0.4,0,0.7,0.1,1.1l-1,1C5,7.2,5,7.5,5.1,7.7L5.4,8L0,13.4v2L0.7,16h1.9L8,10.6l0.2,0.2C8.5,11,8.8,11,9,10.9l1-1C10.3,10,10.6,10,11,10c2.8,0,5-2.2,5-5S13.8,0,11,0z M12.5,5C11.7,5,11,4.3,11,3.5S11.7,2,12.5,2S14,2.7,14,3.5S13.3,5,12.5,5z"></path></g><g transform="scale(4)" id="group_2"><path d="M21,0c-6.1,0-11,4.9-11,11c0,1,0.1,2,0.4,2.9L9.3,15c-0.4,0.4-0.4,1,0,1.4L9.8,17L0,26.7v3.9l0.6,0.6l11.7-11.7l1,1L1.7,32h3.6L7,30.3V28h2.3l1.7-1.7V24h2.3l1.8-1.8l0.5,0.5c0.4,0.4,1,0.4,1.4,0l1.1-1.1C19,21.9,20,22,21,22c6.1,0,11-4.9,11-11S27.1,0,21,0z M25,10c-1.7,0-3-1.3-3-3s1.3-3,3-3s3,1.3,3,3S26.7,10,25,10z"></path></g></svg>