<?xml version="1.0" encoding="utf-8"?><!-- Generator: Adobe Illustrator 17.1.0, SVG Export Plug-In . SVG Version: 6.00 Build 0)  --><!DOCTYPE svg PUBLIC "-//W3C//DTD SVG 1.0//EN" "http://www.w3.org/TR/2001/REC-SVG-20010904/DTD/svg10.dtd"><svg xmlns="http://www.w3.org/2000/svg" xmlns:xlink="http://www.w3.org/1999/xlink" version="1.0" viewBox="0 0 128 128" preserveAspectRatio="none"><style> svg * { background-size: cover; background-repeat: no-repeat; } @media all and (max-width: 32px) { #group_1 { opacity: 1; } #group_2, #group_3 { opacity: 0; } } @media all and (min-width: 33px) and (max-width: 127px) { #group_2 { opacity: 1; } #group_1, #group_3 { opacity: 0; } } @media all and (min-width: 128px) { #group_3 { opacity: 1; } #group_1, #group_2 { opacity: 0; } } </style><g id="group_3"><path d="M111.4,78.5l16.2-40.8c0.6-1.4,0.4-3-0.4-4.3c-0.8-1.3-2.2-2.1-3.7-2.3l-95.7-8l-1-3.6C24.4,10,18.4,8,13.9,8H10H4c-2.2,0-4,1.8-4,4c0,2.2,1.8,4,4,4c1.8,0,5.2-1.7,6-2c1.2-0.5,2.3-1,2.8-2h1.1c4.6,0,7.6,2.8,9.2,8.5l20.7,77c1,3.8,4.5,6.5,8.5,6.5H112c1.1,0,2-0.9,2-2s-0.9-2-2-2H52.3c-2.2,0-4.1-1.5-4.6-3.5L44,83h60.7C107.7,83,110.3,81.2,111.4,78.5z M100,65v5H90v-5.2l-2,0V70H78v-5.5l-2,0V70h-0.7H66v-5.7l-2,0V70H54v-6l-2,0V70H42v-6.3l-2,0V68l-1.4-5.4l37,0.8l0.1,0l37.1,0.8l-2.3,5.7H102v-5L100,65z M36,53.3l39.7,1.7l0.2,0l39.9,1.7l-1.8,4.5v-3.6l-2-0.1v4.8l-10-0.2v-5l-2-0.1v5l-10-0.2v-5.2l-2-0.1v5.3l-10-0.2V56L76,56v5.5l-0.4,0l-0.1,0L66,61.2v-5.7l-2-0.1v5.7L54,61v-6l-2-0.1v6l-10-0.2v-6.2l-2-0.1v6.2l-2,0L36,53.3z M33.5,43.9l42.5,2.5l0.3,0l42.6,2.6l-2.2,5.6l-2.6-0.1v-4.8l-2-0.1v4.8L102,54v-5l-2-0.1V54l-10-0.4v-5.3l-2-0.1v5.3L78,53v-5.5l-2-0.1v5.5l-0.2,0l-0.2,0L66,52.5v-5.7l-2-0.1v5.8L54,52v-5.9L52,46v5.9l-10-0.4v-6.1l-2-0.1v6.2l-4.5-0.2L33.5,43.9z M31,34.4l45.2,3.4l45.7,3.5l-2.3,5.7c-0.3-0.1-0.6-0.1-0.7-0.1l-4.9-0.3v-4.9l-2-0.1v4.9L102,46v-5.1l-2-0.1v5.1l-10-0.6v-5.4l-2-0.1v5.4l-10-0.6V39l-2-0.1v5.5l-0.3,0L66,43.8v-5.7L64,38v5.7l-10-0.6v-5.9L52,37V43l-10-0.6v-6.1l-2-0.1v6.1l-7.1-0.4L31,34.4z M123.3,35.1c0.4,0,0.5,0.3,0.6,0.4c0.1,0.1,0.2,0.4,0.1,0.7l-1.3,3.2l-8.7-0.7v-3.4l-2-0.2v3.4l-10-0.8v-3.5l-2-0.2v3.5l-10-0.8v-3.6l-2-0.2v3.6L78,36v-3.7l-2-0.2v3.7l-10-0.8v-3.8l-2-0.2v3.8l-10-0.8v-3.9l-2-0.2V34l-10-0.8v-4l-2-0.2v4l-9.6-0.7L29,27.2L123.3,35.1z M100,73v6H90v-6h-2v6H78v-6h-2v6H66v-6h-2v6H54v-6h-2v6h-9l-1-3.5V73h-0.7l-0.3-1h34.2h34.4l-2,5c-0.5,1.2-1.7,2-3,2H102v-6H100z M106,107c-0.6,0-1.1,0.1-1.7,0.2l-0.9-2.2H97v2.6c0,0.9,0.4,1.7,1.1,2.2l1.6,1.2c-0.4,0.9-0.7,1.9-0.7,2.9c0,3.9,3.1,7,7,7s7-3.1,7-7C113,110.1,109.9,107,106,107z M106,117c-1.7,0-3-1.3-3-3c0-0.1,0-0.2,0-0.3l2,1.5c1.1,0.8,2.6-0.4,2-1.7l-1.1-2.5c0,0,0,0,0.1,0c1.7,0,3,1.3,3,3C109,115.7,107.7,117,106,117z M51.7,107.2c-0.5-0.1-1.1-0.2-1.7-0.2c-3.9,0-7,3.1-7,7c0,3.9,3.1,7,7,7s7-3.1,7-7c0-1.1-0.2-2-0.7-2.9l1.6-1.2c0.7-0.5,1.1-1.4,1.1-2.2V105h-6.4L51.7,107.2z M53,114c0,1.7-1.3,3-3,3s-3-1.3-3-3c0-1.7,1.3-3,3-3c0,0,0,0,0.1,0l-1.1,2.5c-0.6,1.3,0.9,2.5,2,1.7l2-1.5C53,113.8,53,113.9,53,114z"></path></g><g transform="scale(8)" id="group_1"><path d="M13.3,10H5.5l0.7,2.7c0,0.2,0.2,0.3,0.3,0.3h7c0.3,0,0.5,0.2,0.5,0.5S13.8,14,13.5,14H13H7H6.5c-0.6,0-1.1-0.4-1.3-1l-2.6-10C2.4,2.1,2,2,1.7,2H1.4C1.3,2.3,1.1,2.5,0.8,2.5C0.3,2.5,0,2.2,0,1.8C0,1.4,0.2,1.1,0.6,1c0.1,0,0.1,0,0.2,0h1c0.5,0,1.5,0.2,1.9,1.7L3.7,3l12,1c0.2,0,0.4,0.3,0.3,0.5l-2,5.1C13.8,9.8,13.6,10,13.3,10z M12,15c0,0.6,0.4,1,1,1s1-0.4,1-1c0-0.6-0.4-1-1-1S12,14.4,12,15z M6,15c0,0.6,0.4,1,1,1s1-0.4,1-1c0-0.6-0.4-1-1-1S6,14.4,6,15z"></path></g><g transform="scale(4)" id="group_2"><path d="M27.8,19.5l4.1-10.2c0.2-0.5,0.2-1.1-0.1-1.5S31,7.1,30.4,7l-23.3-2C6.4,2.4,4.5,2,3.5,2h-2C0.7,2,0,2.7,0,3.5S0.7,5,1.5,5c0.7,0,1.2-0.4,1.4-1h0.6c0.6,0,1.4,0.2,1.8,1.8L10.5,25c0.3,1.2,1.4,2,2.6,2H14h12h2c0.6,0,1-0.4,1-1s-0.4-1-1-1H13.1c-0.3,0-0.6-0.2-0.7-0.5L11.5,21h14.2C26.6,21,27.5,20.4,27.8,19.5z M25.7,19H24v-3h3v0.2l-1,2.6C25.9,18.9,25.8,19,25.7,19z M10.9,19l-0.8-3H11L10.9,19L10.9,19z M27,15h-3v-3h3V15z M28,12h0.7L28,13.7V12z M16,12h3v3h-3V12z M15,15h-3v-3h3V15z M20,12h3v3h-3V12z M24,11V8.5l3,0.3V11H24z M23,11h-3V8.2l3,0.3V11z M19,11h-3V7.8l3,0.3V11z M15,11h-3V7.5l3,0.3V11z M11,11H8.8l-1-3.9L11,7.4V11z M11,12v3H9.8L9,12H11z M12,16h3v3h-3V16z M16,16h3v3h-3V16z M20,16h3v3h-3V16z M29.1,11H28V8.8L29.9,9L29.1,11z M26,27c1.1,0,2,0.9,2,2c0,1.1-0.9,2-2,2s-2-0.9-2-2C24,27.9,24.9,27,26,27z M14,27c1.1,0,2,0.9,2,2c0,1.1-0.9,2-2,2s-2-0.9-2-2C12,27.9,12.9,27,14,27z"></path></g></svg>