<?xml version="1.0" encoding="utf-8"?><!-- Generator: Adobe Illustrator 17.1.0, SVG Export Plug-In . SVG Version: 6.00 Build 0)  --><!DOCTYPE svg PUBLIC "-//W3C//DTD SVG 1.0//EN" "http://www.w3.org/TR/2001/REC-SVG-20010904/DTD/svg10.dtd"><svg xmlns="http://www.w3.org/2000/svg" xmlns:xlink="http://www.w3.org/1999/xlink" version="1.0" viewBox="0 0 128 128" preserveAspectRatio="none"><style> svg * { background-size: cover; background-repeat: no-repeat; } @media all and (max-width: 32px) { #group_1 { opacity: 1; } #group_2, #group_3 { opacity: 0; } } @media all and (min-width: 33px) and (max-width: 127px) { #group_2 { opacity: 1; } #group_1, #group_3 { opacity: 0; } } @media all and (min-width: 128px) { #group_3 { opacity: 1; } #group_1, #group_2 { opacity: 0; } } </style><g id="group_3"><path d="M99.7,70.6c11,5.4,28.3,6.5,28.3,32.2H99.5c-5.3-9.5-14.4-13-22.3-16c-7.9-3-11.7-4.7-11.7-8.2v-5.9c0.2-0.3,0.5-0.7,0.9-1.1c0.7-0.3,1.3-0.6,1.9-0.9c1.5,4.4,7.9,7.6,15.7,7.6C91.9,78.3,98.3,75.1,99.7,70.6z M73.2,17.6c5,6.3,3.4,18.6,1.8,26.3c0.4,0.3,0.8,0.6,1.1,1c1.1,1.4,1.4,3.5,0.8,6.1c-1,4.2-2.6,6.4-3.9,7.5c0.2,0.2,0.3,0.4,0.3,0.4v5.9c0,1.9-1,3.7-2.6,4.8c-0.2,0.1-0.3,0.2-0.5,0.3c0.9,3.7,6.8,6.6,13.9,6.6c7.1,0,12.9-2.8,13.9-6.5c0-0.1,0-0.1,0-0.2c-0.2-0.1-0.3-0.2-0.5-0.3c-1.6-1-2.6-2.8-2.6-4.7v-5.7c0,0,4.4-4.8,5.6-12.4c0,0,2.7-0.2,4.1-6.2c1.1-4.6-1.9-4.6-1.9-4.6c0-0.1,0-0.2,0-0.2c2.2-9.3,4-25.3-7.1-25.3C94.1,6.3,88.9,4,83.8,4c-9.2,0-15.3,3.6-18.5,9c0.1,0.2,0.3,0.4,0.4,0.7C68.8,14,71.3,15.3,73.2,17.6z M26.9,49.6c1.1,8.4,5,8.1,5,8.1c1.4,8.9,6.5,14.3,6.5,14.3v6.9c0,2.2-1.1,4.3-3,5.5c-0.2,0.1-0.4,0.2-0.6,0.3c0.3,4.3,7.5,7.9,16.1,7.9c8.7,0,16-3.7,16.1-8.1c-0.2-0.1-0.4-0.2-0.6-0.4c-1.9-1.2-3-3.3-3-5.5V72c0,0,5.1-5.5,6.5-14.3c0,0,3.1-0.3,4.8-7.2c1.3-5.3-2.2-5.3-2.2-5.3c0-0.1,0-0.2,0-0.3c2.5-10.7,4.7-29.3-8.2-29.3c-1.8-4.5-7.7-7.2-13.7-7.2c-22.5,0-29,18.3-21.9,36.8C28,45.5,26.5,46.3,26.9,49.6z M68.8,85.4c-0.9,5.1-8.4,9-17.8,9c-9.3,0-16.7-3.8-17.8-8.8C21.6,91.4,0,93.6,0,123h102C102,92.9,81.5,91.9,68.8,85.4z"></path></g><g transform="scale(8)" id="group_1"><path d="M12,16H0c0-3.6,1.9-4.2,3.3-4.9c0.4,0.8,1.4,1.4,2.7,1.4c1.3,0,2.3-0.6,2.7-1.4C10.2,11.8,12,12.3,12,16z M3,7c0.1,1,0.6,1,0.6,1c0.1,0.7,0.4,1.2,0.7,1.5v0.6c0,0.2-0.1,0.4-0.2,0.5c0.1,0.5,1,0.9,1.9,0.9c1,0,1.8-0.4,1.9-1c-0.1-0.1-0.2-0.3-0.2-0.5V9.5C7.9,9.2,8.3,8.7,8.4,8c0,0,0.4,0,0.6-0.9c0.1-0.6-0.2-0.7-0.3-0.7C9,5.2,9.2,2.9,7.6,2.9C7.4,2.3,6.7,2,6,2C3.3,2,2.5,4.3,3.3,6.5c0,0,0,0,0,0C3.3,6.5,2.9,6.5,3,7z M9.3,2.7C10,3.6,9.9,5.1,9.8,6.1c0.2,0.3,0.3,0.7,0.1,1.2C9.8,8,9.5,8.4,9.3,8.6c0,0,0,0,0,0c0.3,0.2,0.8,0.3,1.2,0.3c0.9,0,1.7-0.4,1.8-0.9c-0.1-0.1-0.2-0.3-0.2-0.5V7c0.2-0.3,0.5-0.8,0.6-1.4c0,0,0.3,0,0.5-0.8C13.3,4.2,13,4.2,13,4.2c0.3-1.2,0.4-3.4-1-3.4C11.8,0.3,11.1,0,10.5,0C9.1,0,8.3,0.7,7.9,1.7C8,1.8,8.1,1.9,8.2,2C8.6,2.1,9,2.3,9.3,2.7z M13,8.4c-0.3,0.8-1.3,1.3-2.5,1.3C9.9,9.8,9.4,9.6,9,9.4C8.9,9.6,8.8,9.7,8.7,9.8V10l0.7,0.3c1,0.5,2.3,1,3,2.7H16C16,9.6,14.3,9.1,13,8.4z"></path></g><g transform="scale(4)" id="group_2"><path d="M7.2,12.3C7.2,12.3,7.2,12.3,7.2,12.3C5.5,7.7,7.2,3,12.9,3c1.5,0,3.1,0.7,3.5,1.8c3.4,0,3,4.8,2.4,7.5c0.1,0,0.9,0.1,0.6,1.4c-0.4,1.8-1.2,1.8-1.2,1.8c-0.4,2.2-1.9,3.6-1.9,3.6v1.7c0,0.4,0.2,0.8,0.4,1.1c0.1,0.1,0.2,0.2,0.3,0.2c-0.5,1.1-2.1,1.9-4,1.9c-1.8,0-3.4-0.8-3.9-1.9C9.2,22,9.3,22,9.3,21.9c0.3-0.3,0.4-0.7,0.4-1.1v-1.7c0,0-1.6-1.4-1.9-3.6c0,0-1,0.1-1.3-2.1C6.4,12.3,7.2,12.3,7.2,12.3z M17.8,22.6C17.1,24,15.2,25,13,25c-2.2,0-4.1-1-4.8-2.4C5.2,24,0,24.7,0,32h26C26,24.5,21.1,24.1,17.8,22.6z M21,20c-1.3,0-2.5-0.4-3.3-1c-0.2,0.2-0.3,0.4-0.4,0.5v1.3c0,0.1,0,0.3,0.1,0.4c0,0,0.1,0.1,0.1,0.1l0.3,0.2l0.5,0.2c0.5,0.2,1.1,0.5,1.7,0.7c1.9,0.7,4.1,1.6,5.5,3.7H32c0-6.3-3.9-6.8-6.7-8C24.5,19.2,22.9,20,21,20z M17.1,3.9C18,4,18.7,4.4,19.3,5.1c1.3,1.8,1.1,4.8,0.7,6.7c0,0,0.1,0.1,0.1,0.1c0.4,0.5,0.5,1.1,0.3,2c-0.3,1.3-0.9,2-1.3,2.3c-0.2,0.8-0.5,1.5-0.8,2c0.7,0.5,1.7,0.8,2.8,0.8c1.5,0,2.8-0.6,3.4-1.5c-0.1-0.1-0.3-0.2-0.3-0.3c-0.2-0.3-0.4-0.6-0.4-0.9v-1.4c0,0,1.3-1.2,1.6-3.1c0,0,0.7-0.1,1.1-1.6C26.7,9.1,26,9,25.9,9c0.5-2.3,0.9-6.4-2-6.4c-0.4-1-1.7-1.6-3-1.6c-2.2,0-3.7,0.8-4.5,2.1C16.7,3.3,16.9,3.6,17.1,3.9z"></path></g></svg>