<?xml version="1.0" encoding="utf-8"?><!-- Generator: Adobe Illustrator 17.1.0, SVG Export Plug-In . SVG Version: 6.00 Build 0)  --><!DOCTYPE svg PUBLIC "-//W3C//DTD SVG 1.0//EN" "http://www.w3.org/TR/2001/REC-SVG-20010904/DTD/svg10.dtd"><svg xmlns="http://www.w3.org/2000/svg" xmlns:xlink="http://www.w3.org/1999/xlink" version="1.0" viewBox="0 0 128 128" preserveAspectRatio="none"><style> svg * { background-size: cover; background-repeat: no-repeat; } @media all and (max-width: 32px) { #group_1 { opacity: 1; } #group_2, #group_3 { opacity: 0; } } @media all and (min-width: 33px) and (max-width: 127px) { #group_2 { opacity: 1; } #group_1, #group_3 { opacity: 0; } } @media all and (min-width: 128px) { #group_3 { opacity: 1; } #group_1, #group_2 { opacity: 0; } } </style><g id="group_3"><path d="M127.5,29.7l-20-24C107.2,5.3,106.6,5,106,5H22c-0.6,0-1.2,0.3-1.5,0.7l-20,24c0,0-0.5,0.6-0.5,1.3s0,88,0,88c0,1.1,0.9,2,2,2h124c1.1,0,2-0.9,2-2c0,0,0-87.3,0-88C128,30.2,127.5,29.7,127.5,29.7z M121.7,29h-47L71.3,9h33.7L121.7,29z M73,31.1v7.3l-0.6-0.3c-0.3-0.1-0.6-0.1-0.9,0L70,38.9l-1.6-0.8C68.3,38,68.2,38,68,38s-0.3,0-0.4,0.1L66,38.9l-1.6-0.8c-0.3-0.1-0.6-0.1-0.9,0L62,38.9l-1.6-0.8c-0.3-0.1-0.6-0.1-0.9,0L58,38.9l-1.6-0.8c-0.3-0.1-0.6-0.1-0.9,0L55,38.4v-7.3l0-0.1L73,31.1L73,31.1z M69.3,9l3.3,20H55.3l3.3-20H69.3z M22.9,9h33.7l-3.3,20H6.3L22.9,9z M124,117H4V33h49v7c0,0.3,0.2,0.7,0.5,0.9c0.2,0.1,0.3,0.1,0.5,0.1c0.2,0,0.3,0,0.4-0.1l1.6-0.8l1.6,0.8c0.3,0.1,0.6,0.1,0.9,0l1.6-0.8l1.6,0.8c0.3,0.1,0.6,0.1,0.9,0l1.6-0.8l1.6,0.8c0.3,0.1,0.6,0.1,0.9,0l1.6-0.8l1.6,0.8c0.3,0.1,0.6,0.1,0.9,0l1.6-0.8l1.6,0.8c0.3,0.2,0.7,0.1,1,0c0.3-0.2,0.5-0.5,0.5-0.9v-7h49V117z M76,47c2.2,0,4,1.8,4,4s-1.8,4-4,4H52c-2.2,0-4-1.8-4-4s1.8-4,4-4H76z M87.4,108.2c0,0,0-1.8,0-2.5c0-1.8-3.1-1.1-3.1-4.9c0-2.7,0.6-6.8,0.6-6.8H87l0.8,2l-1.5,1.8l1.9,1.9l-0.8,2.7l1.9-3L88,97.8l1.3-1.5L88.6,94h2.5c0,0,0.6,4.1,0.6,6.8c0,3.7-3.1,3.1-3.1,4.9c0,0.7,0,2.5,0,2.5c0,1.2,3.1,0.6,3.1,1.8h-7.4C84.3,108.8,87.4,109.3,87.4,108.2z M116,110h-16v-2h16V110z M103,98h-2l3-4l3,4h-2v9h-2V98z M10,99h2v11h-2V99z M13,99h2v11h-2V99z M25,99h2v11h-2V99z M16,99h1v11h-1V99z M19,99h1v11h-1V99z M28,99h1v11h-1V99z M21,99h3v11h-3V99z M111,98h-2l3-4l3,4h-2v9h-2V98z"></path></g><g transform="scale(8)" id="group_1"><path d="M15.9,4.2L15.9,4.2l-2.4-3C13.4,1.1,13.2,1,13.1,1H2.9C2.8,1,2.6,1.1,2.5,1.2l-2.4,3l0,0C0,4.3,0,4.4,0,4.5v11C0,15.8,0.2,16,0.5,16h15c0.3,0,0.5-0.2,0.5-0.5v-11C16,4.4,16,4.3,15.9,4.2z M12.8,2l1.6,2h-6V2H12.8z M3.2,2h4.3v2h-6L3.2,2z M15,15H1V5h14V15z M6,7.5C6,7.2,6.2,7,6.5,7h3C9.8,7,10,7.2,10,7.5C10,7.8,9.8,8,9.5,8h-3C6.2,8,6,7.8,6,7.5z"></path></g><g transform="scale(4)" id="group_2"><path d="M32,8c0-0.1,0-0.2-0.1-0.3c0,0,0,0,0,0c0-0.1-0.1-0.2-0.1-0.2l-4.8-6C26.8,1.1,26.5,1,26.2,1H5.8C5.5,1,5.3,1.1,5.1,1.4l-4.8,6C0.2,7.4,0.1,7.5,0.1,7.6c0,0,0,0,0,0C0,7.7,0,7.8,0,8c0,0,0,0,0,0v22c0,0.6,0.4,1,1,1h30c0.6,0,1-0.4,1-1L32,8C32,8,32,8,32,8z M28.9,7h-10l-0.7-4h7.5L28.9,7z M17.2,3l0.7,4h-3.7l0.7-4H17.2z M18,8v2h-4l0-2H18z M6.3,3h7.5l-0.7,4H13H3.1L6.3,3z M30,29H2V9h11v1.5c0,0.3,0.2,0.5,0.5,0.5h5c0.3,0,0.5-0.2,0.5-0.5L19,9h11V29z M13,12h6c0.6,0,1,0.4,1,1c0,0.6-0.4,1-1,1h-6c-0.6,0-1-0.4-1-1C12,12.4,12.4,12,13,12z M28,27h-6v-1h6V27z M26,23h-0.6l1.1-1.5l1.1,1.5H27v2h-1V23z M23,23h-0.6l1.1-1.5l1.1,1.5H24v2h-1V23z"></path></g></svg>