<?xml version="1.0" encoding="utf-8"?><!-- Generator: Adobe Illustrator 17.1.0, SVG Export Plug-In . SVG Version: 6.00 Build 0)  --><!DOCTYPE svg PUBLIC "-//W3C//DTD SVG 1.0//EN" "http://www.w3.org/TR/2001/REC-SVG-20010904/DTD/svg10.dtd"><svg xmlns="http://www.w3.org/2000/svg" xmlns:xlink="http://www.w3.org/1999/xlink" version="1.0" viewBox="0 0 128 128" preserveAspectRatio="none"><style> svg * { background-size: cover; background-repeat: no-repeat; } @media all and (max-width: 32px) { #group_1 { opacity: 1; } #group_2, #group_3 { opacity: 0; } } @media all and (min-width: 33px) and (max-width: 127px) { #group_2 { opacity: 1; } #group_1, #group_3 { opacity: 0; } } @media all and (min-width: 128px) { #group_3 { opacity: 1; } #group_1, #group_2 { opacity: 0; } } </style><g id="group_3"><path d="M96.5,24H96V8c0-4.4-3.6-8-8-8H40c-4.4,0-8,3.6-8,8v17h-0.5c-0.3,0-0.5,0.2-0.5,0.5v6.9c0,0.3,0.2,0.5,0.5,0.5H32v2h-0.5c-0.3,0-0.5,0.2-0.5,0.5v6.9c0,0.3,0.2,0.5,0.5,0.5H32v77c0,4.4,3.6,8,8,8h48c4.4,0,8-3.6,8-8V32h0.5c0.3,0,0.5-0.2,0.5-0.5v-6.9C97,24.2,96.8,24,96.5,24z M64,3c0.6,0,1,0.4,1,1c0,0.6-0.4,1-1,1s-1-0.4-1-1C63,3.4,63.4,3,64,3z M60,7h8c0.6,0,1,0.4,1,1c0,0.6-0.4,1-1,1h-8c-0.6,0-1-0.4-1-1C59,7.4,59.4,7,60,7z M55,7c0.6,0,1,0.4,1,1c0,0.6-0.4,1-1,1s-1-0.4-1-1C54,7.4,54.4,7,55,7z M64,125c-2.8,0-5-2.2-5-5s2.2-5,5-5s5,2.2,5,5S66.8,125,64,125z M92,112.6c0,0.2-0.2,0.4-0.4,0.4H36.4c-0.2,0-0.4-0.2-0.4-0.4V15.4c0-0.2,0.2-0.4,0.4-0.4h55.1c0.2,0,0.4,0.2,0.4,0.4V112.6z M68,120c0,2.2-1.8,4-4,4s-4-1.8-4-4c0-2.2,1.8-4,4-4S68,117.8,68,120z"></path></g><g transform="scale(8)" id="group_1"><path d="M10.5,0h-5C4.7,0,4,0.7,4,1.5v13C4,15.3,4.7,16,5.5,16h5c0.8,0,1.5-0.7,1.5-1.5v-13C12,0.7,11.3,0,10.5,0z M8,15.2c-0.4,0-0.7-0.3-0.7-0.7c0-0.4,0.3-0.7,0.7-0.7s0.7,0.3,0.7,0.7C8.7,14.9,8.4,15.2,8,15.2z M11,13H5V2h6V13z"></path></g><g transform="scale(4)" id="group_2"><path d="M21,0H11C9.3,0,8,1.3,8,3v26c0,1.7,1.3,3,3,3h10c1.7,0,3-1.3,3-3V3C24,1.3,22.7,0,21,0z M14,2h4v1h-4V2z M16,31c-0.8,0-1.5-0.7-1.5-1.5S15.2,28,16,28s1.5,0.7,1.5,1.5S16.8,31,16,31z M22,27H10V4h12V27z"></path></g></svg>