<?xml version="1.0" encoding="utf-8"?><!-- Generator: Adobe Illustrator 17.1.0, SVG Export Plug-In . SVG Version: 6.00 Build 0)  --><!DOCTYPE svg PUBLIC "-//W3C//DTD SVG 1.0//EN" "http://www.w3.org/TR/2001/REC-SVG-20010904/DTD/svg10.dtd"><svg xmlns="http://www.w3.org/2000/svg" xmlns:xlink="http://www.w3.org/1999/xlink" version="1.0" viewBox="0 0 128 128" preserveAspectRatio="none"><style> svg * { background-size: cover; background-repeat: no-repeat; } @media all and (max-width: 32px) { #group_1 { opacity: 1; } #group_2, #group_3 { opacity: 0; } } @media all and (min-width: 33px) and (max-width: 127px) { #group_2 { opacity: 1; } #group_1, #group_3 { opacity: 0; } } @media all and (min-width: 128px) { #group_3 { opacity: 1; } #group_1, #group_2 { opacity: 0; } } </style><g id="group_3"><path d="M127,90h-0.5l1.4-19v0l0-0.3c0.1-1.1,0-2.2-0.3-3.3L121,42.7c-0.1-0.4-0.3-0.8-0.5-1.2c0-0.1-0.1-0.1-0.1-0.2c-0.1-0.1-0.2-0.3-0.3-0.4c-0.1-0.1-0.1-0.2-0.2-0.2c-0.1-0.1-0.2-0.2-0.3-0.3c-0.1-0.1-0.2-0.2-0.2-0.2c-0.1-0.1-0.2-0.2-0.3-0.2c-0.1-0.1-0.2-0.1-0.3-0.2c-0.1-0.1-0.2-0.1-0.3-0.2c-0.1-0.1-0.3-0.1-0.4-0.2c-0.1,0-0.2-0.1-0.3-0.1c-0.2-0.1-0.3-0.1-0.5-0.1c-0.1,0-0.2,0-0.3-0.1c-0.3,0-0.5-0.1-0.8-0.1H82c-1.7,0-3,1.3-3,3v53c0,1.1,0.9,2,2,2h1.1c0-0.3-0.1-0.7-0.1-1c0-7.7,6.3-14,14-14c7.7,0,14,6.3,14,14c0,0.3,0,0.7-0.1,1h5.1c0,1.1,0.9,2,2,2h9c1.1,0,2-0.9,2-2v-6C128,90.4,127.6,90,127,90z M116,83.4v-3.9c0-0.3,0.3-0.6,0.6-0.6h0.9c0.3,0,0.6,0.3,0.6,0.6v3.9c0,0.3-0.3,0.6-0.6,0.6h-0.9C116.3,84,116,83.7,116,83.4z M124.5,89H121c-0.6,0-1-0.4-1-1v-8c0-0.6,0.4-1,1-1h4.3L124.5,89z M112.7,66.8c-2.3-4.2-6.7-6.8-11.4-6.8H91c-1.1,0-2-0.9-2-2V46c0-1.1,0.9-2,2-2h24.7c0.9,0,1.6,0.6,1.9,1.4l5.4,20.4V69c0,1.1-0.9,2-2,2h-6L112.7,66.8z M96,89c-3.9,0-7,3.1-7,7c0,3.9,3.1,7,7,7c3.9,0,7-3.1,7-7C103,92.1,99.9,89,96,89z M98.8,91.8c0.4-0.4,1-0.4,1.4,0c0.4,0.4,0.4,1,0,1.4c-0.4,0.4-1,0.4-1.4,0C98.4,92.8,98.4,92.1,98.8,91.8z M96,90c0.6,0,1,0.4,1,1c0,0.6-0.4,1-1,1c-0.6,0-1-0.4-1-1C95,90.4,95.4,90,96,90z M91,97c-0.6,0-1-0.4-1-1c0-0.6,0.4-1,1-1c0.6,0,1,0.4,1,1C92,96.6,91.6,97,91,97z M93.2,100.2c-0.4,0.4-1,0.4-1.4,0c-0.4-0.4-0.4-1,0-1.4s1-0.4,1.4,0C93.6,99.2,93.6,99.9,93.2,100.2z M93.2,93.2c-0.4,0.4-1,0.4-1.4,0s-0.4-1,0-1.4c0.4-0.4,1-0.4,1.4,0S93.6,92.8,93.2,93.2z M96,102c-0.6,0-1-0.4-1-1c0-0.6,0.4-1,1-1c0.6,0,1,0.4,1,1C97,101.6,96.6,102,96,102z M96,98c-1.1,0-2-0.9-2-2c0-1.1,0.9-2,2-2c1.1,0,2,0.9,2,2C98,97.1,97.1,98,96,98z M100.2,100.2c-0.4,0.4-1,0.4-1.4,0s-0.4-1,0-1.4c0.4-0.4,1-0.4,1.4,0C100.6,99.2,100.6,99.9,100.2,100.2z M101,97c-0.6,0-1-0.4-1-1c0-0.6,0.4-1,1-1c0.6,0,1,0.4,1,1C102,96.6,101.6,97,101,97z M94.3,51.6L96,59h-5c-0.6,0-1-0.4-1-1v-8h2.4C93.3,50,94.1,50.7,94.3,51.6z M108.5,95.5C108.5,95.5,108.5,95.5,108.5,95.5c0-0.2,0-0.4-0.1-0.5c0,0,0,0,0,0c0.3,0,0.5-0.3,0.4-0.6c0-0.4-0.1-0.7-0.2-1c-0.1-0.3-0.3-0.5-0.6-0.4c0,0,0,0,0,0c0-0.2-0.1-0.3-0.1-0.5c0,0,0,0,0,0c0.3-0.1,0.4-0.4,0.3-0.6c-0.1-0.3-0.2-0.7-0.4-1c-0.1-0.3-0.4-0.4-0.7-0.3c0,0,0,0,0,0c-0.1-0.2-0.1-0.3-0.2-0.5c0,0,0,0,0,0c0.2-0.1,0.3-0.4,0.2-0.7c-0.2-0.3-0.4-0.6-0.6-0.9c-0.2-0.2-0.5-0.3-0.7-0.1c0,0,0,0,0,0c-0.1-0.1-0.2-0.3-0.3-0.4c0,0,0,0,0,0c0.2-0.2,0.2-0.5,0-0.7c-0.2-0.3-0.5-0.5-0.7-0.8c-0.2-0.2-0.5-0.2-0.7,0c0,0,0,0,0,0c-0.1-0.1-0.3-0.2-0.4-0.3c0,0,0,0,0,0c0.2-0.2,0.1-0.5-0.1-0.7c-0.3-0.2-0.6-0.4-0.9-0.6c-0.2-0.1-0.5-0.1-0.7,0.2c0,0,0,0,0,0c-0.2-0.1-0.3-0.2-0.5-0.2c0,0,0,0,0,0c0.1-0.3,0-0.5-0.2-0.7c-0.3-0.1-0.6-0.3-1-0.4c-0.3-0.1-0.5,0-0.6,0.3c0,0,0,0,0,0c-0.2-0.1-0.3-0.1-0.5-0.1c0,0,0,0,0,0c0.1-0.3-0.1-0.5-0.4-0.6c-0.3-0.1-0.7-0.1-1-0.2c-0.3,0-0.5,0.1-0.6,0.4c0,0,0,0,0,0c-0.2,0-0.3,0-0.5,0c0,0,0,0,0,0c0-0.3-0.2-0.5-0.5-0.5L96,83c-0.2,0-0.5,0-0.7,0c-0.3,0-0.5,0.2-0.5,0.5c0,0,0,0,0,0c-0.2,0-0.3,0-0.5,0.1c0,0,0,0,0,0c0-0.3-0.3-0.5-0.6-0.4c-0.3,0.1-0.7,0.1-1,0.2c-0.3,0.1-0.4,0.3-0.4,0.6c0,0,0,0,0,0c-0.2,0.1-0.3,0.1-0.5,0.2c0,0,0,0,0,0c-0.1-0.3-0.4-0.4-0.6-0.3c-0.3,0.1-0.6,0.3-1,0.4C90,84.5,89.9,84.8,90,85c0,0,0,0,0,0c-0.2,0.1-0.3,0.2-0.4,0.3c0,0,0,0,0,0c-0.2-0.2-0.5-0.3-0.7-0.1c-0.3,0.2-0.6,0.4-0.9,0.6c-0.2,0.2-0.3,0.5-0.1,0.7c0,0,0,0,0,0c-0.1,0.1-0.3,0.2-0.4,0.4c0,0,0,0,0,0c-0.2-0.2-0.5-0.2-0.7,0c-0.2,0.2-0.5,0.5-0.7,0.8c-0.2,0.2-0.2,0.5,0.1,0.7c0,0,0,0,0,0c-0.1,0.1-0.2,0.3-0.3,0.4c0,0,0,0,0,0c-0.2-0.2-0.5-0.1-0.7,0.1c-0.2,0.3-0.4,0.6-0.5,0.9c-0.1,0.2,0,0.5,0.2,0.7c0,0,0,0,0,0c-0.1,0.2-0.2,0.3-0.2,0.5c0,0,0,0,0,0c-0.3-0.1-0.5,0-0.6,0.3c-0.1,0.3-0.2,0.7-0.4,1c-0.1,0.3,0.1,0.5,0.3,0.6c0,0,0,0,0,0c0,0.2-0.1,0.3-0.1,0.5c0,0,0,0,0,0c-0.3,0-0.5,0.1-0.6,0.4c-0.1,0.3-0.1,0.7-0.1,1c0,0.3,0.2,0.5,0.4,0.5c0,0,0,0,0,0c0,0.2,0,0.3,0,0.5c0,0,0,0,0,0c-0.3,0-0.5,0.2-0.5,0.5c0,0.4,0,0.7,0.1,1.1c0,0.3,0.2,0.4,0.5,0.4c0,0,0,0,0.1,0c0,0,0,0,0,0c0,0.2,0,0.3,0.1,0.5c0,0,0,0,0,0c-0.3,0.1-0.4,0.3-0.4,0.6c0.1,0.3,0.2,0.7,0.3,1c0.1,0.2,0.3,0.4,0.5,0.4c0,0,0.1,0,0.1,0c0,0,0,0,0,0c0.1,0.2,0.1,0.3,0.2,0.5c0,0,0,0,0,0c-0.3,0.1-0.4,0.4-0.2,0.7c0.1,0.3,0.3,0.6,0.5,0.9c0.1,0.2,0.3,0.3,0.4,0.3c0.1,0,0.2,0,0.2-0.1c0,0,0,0,0,0c0.1,0.1,0.2,0.3,0.3,0.4c0,0,0,0,0,0c-0.2,0.2-0.3,0.5-0.1,0.7c0.2,0.3,0.4,0.6,0.7,0.8c0.1,0.1,0.2,0.2,0.4,0.2c0.1,0,0.2,0,0.3-0.1c0,0,0,0,0,0c0.1,0.1,0.2,0.3,0.4,0.4c0,0,0,0,0,0c-0.2,0.2-0.2,0.5,0,0.7c0.3,0.2,0.5,0.5,0.8,0.7c0.1,0.1,0.2,0.1,0.3,0.1c0.1,0,0.3-0.1,0.4-0.2c0,0,0,0,0,0c0.1,0.1,0.3,0.2,0.4,0.3c0,0,0,0,0,0c-0.1,0.2-0.1,0.5,0.2,0.7c0.3,0.2,0.6,0.3,0.9,0.5c0.1,0,0.1,0.1,0.2,0.1c0.2,0,0.4-0.1,0.4-0.3c0,0,0,0,0,0c0.2,0.1,0.3,0.1,0.5,0.2c0,0,0,0,0,0c-0.1,0.3,0,0.5,0.3,0.6c0.3,0.1,0.7,0.2,1,0.3c0,0,0.1,0,0.1,0c0.2,0,0.4-0.2,0.5-0.4c0,0,0,0,0,0c0.2,0,0.3,0.1,0.5,0.1c0,0,0,0,0,0c0,0.3,0.2,0.5,0.4,0.6c0.3,0,0.7,0.1,1,0.1c0,0,0,0,0,0c0.3,0,0.5-0.2,0.5-0.5c0,0,0,0,0,0c0,0,0.1,0,0.1,0c0.1,0,0.3,0,0.4,0c0,0,0,0,0,0c0,0.3,0.2,0.5,0.5,0.5c0,0,0,0,0,0c0.4,0,0.7-0.1,1-0.1c0.3,0,0.5-0.3,0.4-0.6c0,0,0,0,0,0c0.2,0,0.3-0.1,0.5-0.1c0,0,0,0,0,0c0.1,0.2,0.3,0.4,0.5,0.4c0,0,0.1,0,0.1,0c0.3-0.1,0.7-0.2,1-0.3c0.3-0.1,0.4-0.4,0.3-0.6c0,0,0,0,0,0c0.2-0.1,0.3-0.1,0.5-0.2c0,0,0,0,0,0c0.1,0.2,0.3,0.3,0.4,0.3c0.1,0,0.2,0,0.2-0.1c0.3-0.2,0.6-0.3,0.9-0.5c0.2-0.1,0.3-0.5,0.2-0.7c0,0,0,0,0,0c0.1-0.1,0.3-0.2,0.4-0.3c0,0,0,0,0,0c0.1,0.1,0.2,0.2,0.4,0.2c0.1,0,0.2,0,0.3-0.1c0.3-0.2,0.5-0.5,0.8-0.7c0.2-0.2,0.2-0.5,0-0.7c0,0,0,0,0,0c0.1-0.1,0.2-0.3,0.4-0.4c0,0,0,0,0,0c0.1,0.1,0.2,0.1,0.3,0.1c0.1,0,0.3-0.1,0.4-0.2c0.2-0.3,0.4-0.6,0.6-0.8c0.2-0.2,0.1-0.5-0.1-0.7c0,0,0,0,0,0c0.1-0.1,0.2-0.3,0.3-0.5c0,0,0,0,0,0c0.1,0,0.2,0.1,0.2,0.1c0.2,0,0.4-0.1,0.4-0.3c0.2-0.3,0.3-0.6,0.5-1c0.1-0.3,0-0.5-0.3-0.7c0,0,0,0,0,0c0.1-0.2,0.1-0.3,0.2-0.5c0,0,0,0,0,0c0,0,0.1,0,0.1,0c0.2,0,0.4-0.1,0.5-0.4c0.1-0.3,0.2-0.7,0.3-1c0.1-0.3-0.1-0.5-0.4-0.6c0,0,0,0,0,0c0-0.2,0.1-0.3,0.1-0.5c0,0,0,0,0,0c0,0,0,0,0,0c0.3,0,0.5-0.2,0.5-0.5c0-0.3,0-0.7,0-1v-0.1C109,95.7,108.8,95.5,108.5,95.5z M88,96c0-4.4,3.6-8,8-8c4.4,0,8,3.6,8,8c0,4.4-3.6,8-8,8C91.6,104,88,100.4,88,96z M28,89c-3.9,0-7,3.1-7,7c0,3.9,3.1,7,7,7c3.9,0,7-3.1,7-7C35,92.1,31.9,89,28,89z M30.8,91.8c0.4-0.4,1-0.4,1.4,0c0.4,0.4,0.4,1,0,1.4c-0.4,0.4-1,0.4-1.4,0C30.4,92.8,30.4,92.1,30.8,91.8z M28,90c0.6,0,1,0.4,1,1c0,0.6-0.4,1-1,1c-0.6,0-1-0.4-1-1C27,90.4,27.4,90,28,90z M23,97c-0.6,0-1-0.4-1-1c0-0.6,0.4-1,1-1c0.6,0,1,0.4,1,1C24,96.6,23.6,97,23,97z M25.2,100.2c-0.4,0.4-1,0.4-1.4,0c-0.4-0.4-0.4-1,0-1.4s1-0.4,1.4,0C25.6,99.2,25.6,99.9,25.2,100.2z M25.2,93.2c-0.4,0.4-1,0.4-1.4,0s-0.4-1,0-1.4c0.4-0.4,1-0.4,1.4,0S25.6,92.8,25.2,93.2z M28,102c-0.6,0-1-0.4-1-1c0-0.6,0.4-1,1-1c0.6,0,1,0.4,1,1C29,101.6,28.6,102,28,102z M28,98c-1.1,0-2-0.9-2-2c0-1.1,0.9-2,2-2c1.1,0,2,0.9,2,2C30,97.1,29.1,98,28,98z M32.2,100.2c-0.4,0.4-1,0.4-1.4,0s-0.4-1,0-1.4c0.4-0.4,1-0.4,1.4,0C32.6,99.2,32.6,99.9,32.2,100.2z M33,97c-0.6,0-1-0.4-1-1c0-0.6,0.4-1,1-1c0.6,0,1,0.4,1,1C34,96.6,33.6,97,33,97z M40.5,95.5C40.5,95.5,40.5,95.5,40.5,95.5c0-0.2,0-0.4-0.1-0.5c0,0,0,0,0,0c0.3,0,0.5-0.3,0.4-0.6c0-0.4-0.1-0.7-0.2-1c-0.1-0.3-0.3-0.5-0.6-0.4c0,0,0,0,0,0c0-0.2-0.1-0.3-0.1-0.5c0,0,0,0,0,0c0.3-0.1,0.4-0.4,0.3-0.6c-0.1-0.3-0.2-0.7-0.4-1c-0.1-0.3-0.4-0.4-0.7-0.3c0,0,0,0,0,0c-0.1-0.2-0.1-0.3-0.2-0.5c0,0,0,0,0,0c0.2-0.1,0.3-0.4,0.2-0.7c-0.2-0.3-0.4-0.6-0.6-0.9c-0.2-0.2-0.5-0.3-0.7-0.1c0,0,0,0,0,0c-0.1-0.1-0.2-0.3-0.3-0.4c0,0,0,0,0,0c0.2-0.2,0.2-0.5,0-0.7c-0.2-0.3-0.5-0.5-0.7-0.8c-0.2-0.2-0.5-0.2-0.7,0c0,0,0,0,0,0c-0.1-0.1-0.3-0.2-0.4-0.3c0,0,0,0,0,0c0.2-0.2,0.1-0.5-0.1-0.7c-0.3-0.2-0.6-0.4-0.9-0.6c-0.2-0.1-0.5-0.1-0.7,0.2c0,0,0,0,0,0C34,85,33.8,85,33.7,84.9c0,0,0,0,0,0c0.1-0.2,0-0.5-0.2-0.7c-0.3-0.1-0.6-0.3-1-0.4c-0.3-0.1-0.5,0-0.6,0.3c0,0,0,0,0,0c-0.2-0.1-0.3-0.1-0.5-0.1c0,0,0,0,0,0c0.1-0.3-0.1-0.5-0.4-0.6c-0.3-0.1-0.7-0.1-1-0.2c-0.3,0-0.5,0.1-0.6,0.4c0,0,0,0,0,0c-0.2,0-0.3,0-0.5,0c0,0,0,0,0,0c0-0.3-0.2-0.5-0.5-0.5L28,83c-0.2,0-0.5,0-0.7,0c-0.3,0-0.5,0.2-0.5,0.5c0,0,0,0,0,0c-0.2,0-0.3,0-0.5,0.1c0,0,0,0,0,0c0-0.3-0.3-0.5-0.6-0.4c-0.3,0.1-0.7,0.1-1,0.2c-0.3,0.1-0.4,0.3-0.4,0.6c0,0,0,0,0,0c-0.2,0.1-0.3,0.1-0.5,0.2c0,0,0,0,0,0c-0.1-0.3-0.4-0.4-0.6-0.3c-0.3,0.1-0.6,0.3-1,0.4C22,84.5,21.9,84.8,22,85c0,0,0,0,0,0c-0.2,0.1-0.3,0.2-0.4,0.3c0,0,0,0,0,0c-0.2-0.2-0.5-0.3-0.7-0.1c-0.3,0.2-0.6,0.4-0.9,0.6c-0.2,0.2-0.3,0.5-0.1,0.7c0,0,0,0,0,0c-0.1,0.1-0.3,0.2-0.4,0.4c0,0,0,0,0,0c-0.2-0.2-0.5-0.2-0.7,0c-0.2,0.2-0.5,0.5-0.7,0.8c-0.2,0.2-0.2,0.5,0.1,0.7c0,0,0,0,0,0c-0.1,0.1-0.2,0.3-0.3,0.4c0,0,0,0,0,0c-0.2-0.2-0.5-0.1-0.7,0.1c-0.2,0.3-0.4,0.6-0.5,0.9c-0.1,0.2,0,0.5,0.2,0.7c0,0,0,0,0,0c-0.1,0.2-0.2,0.3-0.2,0.5c0,0,0,0,0,0c-0.3-0.1-0.5,0-0.7,0.3c-0.1,0.3-0.2,0.7-0.4,1c-0.1,0.3,0.1,0.5,0.3,0.6c0,0,0,0,0,0c0,0.2-0.1,0.3-0.1,0.5c0,0,0,0,0,0c-0.3,0-0.5,0.1-0.6,0.4c-0.1,0.3-0.1,0.7-0.1,1c0,0.3,0.2,0.5,0.4,0.5c0,0,0,0,0,0c0,0.2,0,0.3,0,0.5c0,0,0,0,0,0c-0.3,0-0.5,0.2-0.5,0.5c0,0.4,0,0.7,0.1,1c0,0.3,0.2,0.4,0.5,0.4c0,0,0,0,0.1,0c0,0,0,0,0,0c0,0.2,0,0.3,0.1,0.5c0,0,0,0,0,0c-0.3,0.1-0.4,0.3-0.4,0.6c0.1,0.3,0.2,0.7,0.3,1c0.1,0.2,0.3,0.3,0.5,0.3c0,0,0.1,0,0.2,0c0,0,0,0,0,0c0.1,0.2,0.1,0.3,0.2,0.5c0,0,0,0,0,0c-0.3,0.1-0.4,0.4-0.2,0.7c0.1,0.3,0.3,0.6,0.5,0.9c0.1,0.2,0.3,0.3,0.4,0.3c0.1,0,0.2,0,0.2-0.1c0,0,0,0,0,0c0.1,0.1,0.2,0.3,0.3,0.4c0,0,0,0,0,0c-0.2,0.2-0.3,0.5-0.1,0.7c0.2,0.3,0.4,0.6,0.7,0.8c0.1,0.1,0.2,0.2,0.4,0.2c0.1,0,0.2,0,0.3-0.1c0,0,0,0,0,0c0.1,0.1,0.2,0.3,0.4,0.4c0,0,0,0,0,0c-0.2,0.2-0.2,0.5,0,0.7c0.3,0.2,0.5,0.5,0.8,0.7c0.1,0.1,0.2,0.1,0.3,0.1c0.1,0,0.3-0.1,0.4-0.2c0,0,0,0,0,0c0.1,0.1,0.3,0.2,0.4,0.3c0,0,0,0,0,0c-0.1,0.2-0.1,0.5,0.2,0.7c0.3,0.2,0.6,0.3,0.9,0.5c0.1,0,0.1,0.1,0.2,0.1c0.2,0,0.4-0.1,0.4-0.3c0,0,0,0,0,0c0.2,0.1,0.3,0.1,0.5,0.2c0,0,0,0,0,0c-0.1,0.3,0,0.5,0.3,0.6c0.3,0.1,0.7,0.2,1,0.3c0,0,0.1,0,0.1,0c0.2,0,0.4-0.2,0.5-0.4c0,0,0,0,0,0c0.2,0,0.3,0.1,0.5,0.1c0,0,0,0,0,0c0,0.3,0.2,0.5,0.4,0.6c0.3,0,0.7,0.1,1,0.1c0,0,0,0,0,0c0.3,0,0.5-0.2,0.5-0.5c0,0,0,0,0,0c0,0,0.1,0,0.1,0c0.1,0,0.3,0,0.4,0c0,0,0,0,0,0c0,0.3,0.2,0.5,0.5,0.5c0,0,0,0,0,0c0.4,0,0.7-0.1,1-0.1c0.3,0,0.5-0.3,0.4-0.6c0,0,0,0,0,0c0.2,0,0.3-0.1,0.5-0.1c0,0,0,0,0,0c0.1,0.2,0.3,0.4,0.5,0.4c0,0,0.1,0,0.1,0c0.3-0.1,0.7-0.2,1-0.3c0.3-0.1,0.4-0.4,0.3-0.6c0,0,0,0,0,0c0.2-0.1,0.3-0.1,0.5-0.2c0,0,0,0,0,0c0.1,0.2,0.3,0.3,0.4,0.3c0.1,0,0.2,0,0.2-0.1c0.3-0.2,0.6-0.3,0.9-0.5c0.2-0.1,0.3-0.5,0.2-0.7c0,0,0,0,0,0c0.1-0.1,0.3-0.2,0.4-0.3c0,0,0,0,0,0c0.1,0.1,0.2,0.2,0.4,0.2c0.1,0,0.2,0,0.3-0.1c0.3-0.2,0.5-0.5,0.8-0.7c0.2-0.2,0.2-0.5,0-0.7c0,0,0,0,0,0c0.1-0.1,0.2-0.3,0.4-0.4c0,0,0,0,0,0c0.1,0.1,0.2,0.1,0.3,0.1c0.1,0,0.3-0.1,0.4-0.2c0.2-0.3,0.4-0.6,0.6-0.8c0.2-0.2,0.1-0.5-0.1-0.7c0,0,0,0,0,0c0.1-0.1,0.2-0.3,0.3-0.5c0,0,0,0,0,0c0.1,0,0.2,0.1,0.2,0.1c0.2,0,0.4-0.1,0.4-0.3c0.2-0.3,0.3-0.6,0.5-1c0.1-0.3,0-0.5-0.3-0.7c0,0,0,0,0,0c0.1-0.2,0.1-0.3,0.2-0.5c0,0,0,0,0,0c0,0,0.1,0,0.1,0c0.2,0,0.4-0.1,0.5-0.4c0.1-0.3,0.2-0.7,0.3-1c0.1-0.3-0.1-0.5-0.4-0.6c0,0,0,0,0,0c0-0.2,0.1-0.3,0.1-0.5c0,0,0,0,0,0c0,0,0,0,0,0c0.3,0,0.5-0.2,0.5-0.5c0-0.3,0-0.7,0-1.1v-0.1C41,95.7,40.8,95.5,40.5,95.5z M20,96c0-4.4,3.6-8,8-8c4.4,0,8,3.6,8,8c0,4.4-3.6,8-8,8C23.6,104,20,100.4,20,96z M5,80h73v15c0,1.1-0.9,2-2,2H41.9c0-0.3,0.1-0.7,0.1-1c0-7.7-6.3-14-14-14c-7.7,0-14,6.3-14,14c0,0.3,0,0.7,0.1,1H7c-1.1,0-2-0.9-2-2V80z M78,23v56H5V61h3v-2H6H5H0v-2h5v-5h8v-2h-2H5H0v-2h5v-5h13v-2h-2H5H0v-2h5v-5h18v-2h-2H5H0v-2h5v-5h23v-2h-2H5H0v-2h7h19h50C77.1,21,78,21.9,78,23z"></path></g><g transform="scale(8)" id="group_1"><path d="M15.9,8.8l-1.7-3.4C14.1,5.2,13.8,5,13.5,5h-2.7C10.4,5,10,5.4,10,5.8V12h1c0,1.1,0.9,2,2,2c1.1,0,2-0.9,2-2h0.3c0.4,0,0.7-0.3,0.7-0.7V9.2C16,9.1,16,8.9,15.9,8.8z M13,13c-0.6,0-1-0.4-1-1s0.4-1,1-1s1,0.4,1,1S13.6,13,13,13z M12,9V6h1.5L15,9H12z M8.3,2H0v1h3v1H0v1h1h1v1H1H0v1h1v5h1c0,1.1,0.9,2,2,2c1.1,0,2-0.9,2-2h3V2.7C9,2.3,8.7,2,8.3,2z M4,13c-0.6,0-1-0.4-1-1s0.4-1,1-1s1,0.4,1,1S4.6,13,4,13z"></path></g><g transform="scale(4)" id="group_2"><path d="M8,21c-1.7,0-3,1.3-3,3c0,1.7,1.3,3,3,3c1.7,0,3-1.3,3-3C11,22.3,9.7,21,8,21z M8,25.1c-0.6,0-1.2-0.5-1.2-1.1s0.5-1.2,1.2-1.2c0.6,0,1.1,0.5,1.1,1.2S8.6,25.1,8,25.1z M24,21c-1.7,0-3,1.3-3,3c0,1.7,1.3,3,3,3c1.7,0,3-1.3,3-3C27,22.3,25.7,21,24,21z M24,25.1c-0.6,0-1.2-0.5-1.2-1.1s0.5-1.2,1.2-1.2c0.6,0,1.1,0.5,1.1,1.2S24.6,25.1,24,25.1z M31.9,16.5l-1.5-6c-0.2-0.9-1-1.5-1.9-1.5H21c-0.6,0-1,0.4-1,1v14c0-2.2,1.8-4,4-4c2.2,0,4,1.8,4,4h3c0.6,0,1-0.4,1-1v-5.5C32,17.2,32,16.8,31.9,16.5z M29.4,17c-0.4,0-1.8,0-1.8,0c-0.4,0-0.7-0.2-0.9-0.6l-0.4-0.9c-0.2-0.3-0.5-0.6-0.9-0.6H23c-0.6,0-1-0.4-1-1v-2c0-0.6,0.4-1,1-1h5.3c0.5,0,0.8,0.3,1,0.7l1,4.2C30.4,16.6,29.9,17,29.4,17z M19,5v19h-7c0-2.2-1.8-4-4-4c-2.2,0-4,1.8-4,4H2v-8h1v-1H2H0v-1h2v-1h2v-1H2H0v-1h2v-1h3V9H2H0V8h2V7h4V6H0V5H19z"></path></g></svg>