<?xml version="1.0" encoding="utf-8"?><!-- Generator: Adobe Illustrator 17.1.0, SVG Export Plug-In . SVG Version: 6.00 Build 0)  --><!DOCTYPE svg PUBLIC "-//W3C//DTD SVG 1.0//EN" "http://www.w3.org/TR/2001/REC-SVG-20010904/DTD/svg10.dtd"><svg xmlns="http://www.w3.org/2000/svg" xmlns:xlink="http://www.w3.org/1999/xlink" version="1.0" viewBox="0 0 128 128" preserveAspectRatio="none"><style> svg * { background-size: cover; background-repeat: no-repeat; } @media all and (max-width: 32px) { #group_1 { opacity: 1; } #group_2, #group_3 { opacity: 0; } } @media all and (min-width: 33px) and (max-width: 127px) { #group_2 { opacity: 1; } #group_1, #group_3 { opacity: 0; } } @media all and (min-width: 128px) { #group_3 { opacity: 1; } #group_1, #group_2 { opacity: 0; } } </style><g id="group_3"><path d="M113,42H15v66h98V42z M111,58H97V44h14V58z M63,76v14H49V76H63z M49,74V60h14v14H49z M65,76h14v14H65V76z M65,74V60h14v14H65z M81,60h14v14H81V60z M81,58V44h14v14H81z M79,58H65V44h14V58z M63,58H49V44h14V58z M47,58H33V44h14V58z M47,60v14H33V60H47z M31,74H17V60h14V74z M31,76v14H17V76H31z M33,76h14v14H33V76z M47,92v14H33V92H47z M49,92h14v14H49V92z M65,92h14v14H65V92z M81,92h14v14H81V92z M81,90V76h14v14H81z M97,76h14v14H97V76z M97,74V60h14v14H97z M31,44v14H17V44H31z M17,92h14v14H17V92z M97,106V92h14v14H97z M110,8v9c0,3.3-2.7,6-6,6s-6-2.7-6-6V8H30v9c0,3.3-2.7,6-6,6s-6-2.7-6-6V8H0v120h128V8H110z M2,120h124v2H2V120z M2,126v-2h124v2H2z M126,118H2V32h124V118z M77,78v10H67V78H77z M100,17V4c0-2.2,1.8-4,4-4s4,1.8,4,4v13c0,2.2-1.8,4-4,4S100,19.2,100,17z M20,17V4c0-2.2,1.8-4,4-4s4,1.8,4,4v13c0,2.2-1.8,4-4,4S20,19.2,20,17z"></path></g><g transform="scale(8)" id="group_1"><path d="M3,13h10v-2V8V6H3V13z M4,11h2v1H4V11z M9,9v1H7V9H9z M7,8V7h2v1H7z M9,12H7v-1h2V12z M6,10H4V9h2V10z M10,12v-1h2v1H10z M12,8h-2V7h2V8z M6,7v1H4V7H6z M13,1c0-0.6-0.4-1-1-1s-1,0.4-1,1H5c0-0.6-0.4-1-1-1S3,0.4,3,1H0v15h16V1H13z M15,15H1V4h14V15z"></path></g><g transform="scale(4)" id="group_2"><path d="M27,26V12H5v14H27z M7,22h3v2H7V22z M17,22h3v2h-3V22z M15,24h-3v-2h3V24z M22,18h3v2h-3V18z M17,16v-2h3v2H17z M15,16h-3v-2h3V16z M15,18v2h-3v-2H15z M10,20H7v-2h3V20z M22,24v-2h3v2H22z M25,16h-3v-2h3V16z M10,14v2H7v-2H10z M28,2v2c0,1.1-0.9,2-2,2s-2-0.9-2-2V2H8v2c0,1.1-0.9,2-2,2S4,5.1,4,4V2H0v4v3v23h32V9V6V2H28z M30,30H2V9h28V30z M25,4V1c0-0.6,0.4-1,1-1s1,0.4,1,1v3c0,0.6-0.4,1-1,1S25,4.6,25,4z M5,4V1c0-0.6,0.4-1,1-1s1,0.4,1,1v3c0,0.6-0.4,1-1,1S5,4.6,5,4z"></path></g></svg>