<?xml version="1.0" encoding="utf-8"?><!-- Generator: Adobe Illustrator 17.1.0, SVG Export Plug-In . SVG Version: 6.00 Build 0)  --><!DOCTYPE svg PUBLIC "-//W3C//DTD SVG 1.0//EN" "http://www.w3.org/TR/2001/REC-SVG-20010904/DTD/svg10.dtd"><svg xmlns="http://www.w3.org/2000/svg" xmlns:xlink="http://www.w3.org/1999/xlink" version="1.0" viewBox="0 0 128 128" preserveAspectRatio="none"><style> svg * { background-size: cover; background-repeat: no-repeat; } @media all and (max-width: 32px) { #group_1 { opacity: 1; } #group_2, #group_3 { opacity: 0; } } @media all and (min-width: 33px) and (max-width: 127px) { #group_2 { opacity: 1; } #group_1, #group_3 { opacity: 0; } } @media all and (min-width: 128px) { #group_3 { opacity: 1; } #group_1, #group_2 { opacity: 0; } } </style><g id="group_3"><rect x="-11" y="-2" fill="none" width="128" height="128"></rect><path fill="none" stroke="#000000" stroke-width="4" stroke-linecap="round" stroke-linejoin="round" stroke-miterlimit="10" d="M12,50.8v13.4c0,0-9-1.5-9,10c0,6,5.3,10.8,11,11.4c2.7,18.7,19.6,38.4,39,38.4s37.3-19.7,40-38.4c5.7-0.6,10-5.4,10-11.4c0-11.5-9-10-9-10V50.8"></path><path d="M103,57c0-25.9-10.5-54-50-54S5,34.3,5,58c0,3.6,0,5.4,0,9c0,0,4.4-5,9-5c0-43.5,44.7,1.5,62-34.9c0,31.7,16,7.2,16,36.5c5.2,0.6,11,4.4,11,4.4V57z"></path><path d="M105,62H94v25h11c4.4,0,8-3.6,8-8v-9C113,65.6,109.4,62,105,62z"></path><path fill="none" stroke="#000000" stroke-width="4" stroke-linecap="round" stroke-linejoin="round" stroke-miterlimit="10" d="M55,104c37,0,50-2.2,50-32"></path><path fill="none" stroke="#000000" stroke-width="4" stroke-linecap="round" stroke-linejoin="round" stroke-miterlimit="10" d="M107,65c0-39.4-15-65-52-65c-9.3,0-17,1-17,1"></path><path d="M56,99c-0.7,0-3.3,0-4,0c-2.8,0-5,2.2-5,5s2.2,5,5,5c0.7,0,3.3,0,4,0c2.8,0,5-2.2,5-5S58.8,99,56,99z"></path><path fill="none" stroke="#000000" stroke-width="2" stroke-miterlimit="10" d="M31,73c0-3.3,2.7-6,6-6s6,2.7,6,6"></path><g><path d="M40,72c0,1.7-1.3,2-3,2s-3-0.3-3-2s1.3-3,3-3S40,70.3,40,72z"></path></g><path fill="none" stroke="#000000" stroke-width="2" stroke-linecap="round" stroke-linejoin="round" stroke-miterlimit="10" d="M60,91c-3-1-4.6,1-7,1s-4-2-7-1"></path><path fill="none" stroke="#000000" stroke-width="2" stroke-linecap="round" stroke-linejoin="round" stroke-miterlimit="10" d="M53,105c-8.1,0-7.2-3.6-12.5-1.8"></path><g><path d="M42.5,62.5c0,0-0.3-0.1-0.7-0.2c-0.2-0.1-0.5-0.2-0.8-0.3c-0.3-0.1-0.6-0.2-1-0.3c-0.4-0.1-0.8-0.2-1.3-0.3c-0.5-0.1-0.9-0.2-1.4-0.3c-1-0.2-2.1-0.3-3.2-0.4c-2.2-0.2-4.4-0.2-6.1-0.1c-0.8,0-1.5,0.1-2,0.1c-0.5,0-0.7,0.1-0.7,0.1l-0.3-1.8c0,0,0.3-0.1,0.8-0.2c0.5-0.1,1.2-0.2,2.1-0.4c1.7-0.3,4-0.6,6.4-0.7c1.2-0.1,2.3-0.1,3.5,0c0.6,0,1.1,0,1.6,0.1c0.5,0,1,0.1,1.5,0.1c0.5,0.1,0.9,0.1,1.3,0.2c0.3,0.1,0.6,0.1,0.9,0.2c0.5,0.1,0.8,0.1,0.8,0.1L42.5,62.5z"></path></g><path fill="none" stroke="#000000" stroke-width="2" stroke-miterlimit="10" d="M75,73c0-3.3-2.7-6-6-6s-6,2.7-6,6"></path><g><path d="M66,72c0,1.7,1.3,2,3,2s3-0.3,3-2s-1.3-3-3-3S66,70.3,66,72z"></path></g><g><path d="M62.5,58.5c0,0,0.3-0.1,0.8-0.1c0.2,0,0.5-0.1,0.9-0.2c0.4-0.1,0.8-0.1,1.3-0.2c0.5-0.1,0.9-0.1,1.5-0.1c0.5-0.1,1.1-0.1,1.6-0.1c1.1,0,2.3,0,3.5,0c2.3,0.1,4.6,0.4,6.4,0.7c0.9,0.1,1.6,0.3,2.1,0.4c0.5,0.1,0.8,0.2,0.8,0.2l-0.3,1.8c0,0-0.3,0-0.7-0.1c-0.5,0-1.2-0.1-2-0.1c-1.7-0.1-3.9-0.1-6.1,0.1c-1.1,0.1-2.2,0.2-3.2,0.4c-0.5,0.1-1,0.2-1.4,0.3c-0.4,0.1-0.9,0.2-1.3,0.3c-0.4,0.1-0.7,0.2-1,0.3c-0.3,0.1-0.6,0.2-0.8,0.3c-0.5,0.2-0.7,0.2-0.7,0.2L62.5,58.5z"></path></g><path d="M8.1,73c0,0-0.1-0.5-0.1-1c0-1.9,1.2-3,2.5-3c1.2,0,2.2,0.6,2.9,3.3c0.5,2,1.6,1.3,1.6,2.6c0,0.8-1.6,0.7-1.6,1.8c0,1.4,1.6,1.1,1.6,2.6c0,0.4-0.2,1.6-1.4,1.6c-1.4,0-2.3-2.1-1.4-4.9c1.1-3.3-0.2-6.5-2-6.5C7.9,69.6,8.1,73,8.1,73z"></path></g><g transform="scale(8)" id="group_1"><path d="M14.9,10.8C14.4,13.8,12,14,8,14l0,0l0,0c0,0,0,0,0,0c-0.1,0-0.1,0-0.2,0C7.3,13.9,7,13.5,7,13c0-0.6,0.4-1,1-1c0.5,0,1,0.4,1,1c3.1,0,4.5-0.4,4.9-2H13V7.4c0-2.9-1.7-0.7-2.1-4.1c-0.8,3.2-6.3,0.1-7.6,2.8V8c0,0.1-0.1,0.3-0.2,0.4C3,8.5,2.9,8.5,2.7,8.5c-0.1,0-0.4,0-0.5,0.1C2.1,8.8,2,9,2,9.3c0,0.5,0.5,0.9,1,0.9c0.2,0,0.4,0.2,0.4,0.4C3.7,12.7,5.7,15,8,15h1.9c0.3,0,0.5,0.2,0.5,0.5S10.2,16,9.9,16H8c-2.7,0-5-2.5-5.5-4.9C1.6,10.9,1,10.1,1,9.3C1,9.2,1,9.1,1,9c0,0,0,0,0,0c0-4.8,1-9,6.9-9S15,3.4,15,6.6v0.7c0.6,0.3,1,1,1,1.7C16,9.8,15.6,10.4,14.9,10.8z M5.5,8c-0.6,0-1,0.4-1,1c0,0.6,0.4,1,1,1c0.6,0,1-0.4,1-1C6.5,8.4,6.1,8,5.5,8z M11,9c0-0.6-0.4-1-1-1C9.4,8,9,8.4,9,9c0,0.6,0.4,1,1,1C10.6,10,11,9.6,11,9z"></path></g><g transform="scale(4)" id="group_2"><path d="M29,15v-1.8C29,6.9,25.4,0,15.8,0C6.1,0,3,7.7,3,13.5c0,0.8,0,2.2,0,3c-0.3,0.6-0.5,1.2-0.5,2c0,1.7,1.2,3.2,2.9,3.7c1,4.8,5.4,9.8,10.6,9.8c3.3,0,6.2-1.9,8.3-4.4c3.9-0.7,6.3-2.5,6.7-7.1c0-0.2,0.1-0.3,0.1-0.5v-3C31,15.9,30.1,15,29,15z M16,30c-4.4,0-8.2-4.6-8.8-8.8c-0.1-0.5-0.4-0.8-0.9-0.9c-0.9-0.1-1.9-0.9-1.9-1.9c0-0.6,0.1-1,0.4-1.2c0.4-0.3,1-0.3,1-0.3c0.3,0,0.6,0,0.8-0.2C6.9,16.6,7,16.3,7,16.1v-0.6C7,4.8,19.7,14,21.4,6.7c0.7,6.8,3.6,2.3,3.6,8.2v6.5c-0.2,1.5-0.9,3-1.8,4.4C21.7,25.9,20,26,17.9,26c-0.2-0.6-0.8-1-1.4-1c-0.2,0-0.8,0-1,0c-0.8,0-1.5,0.7-1.5,1.5s0.7,1.5,1.5,1.5c0.2,0,0.8,0,1,0c0,0,0,0,0,0c1.7,0,3.2,0,4.6-0.1C19.7,29.2,17.9,30,16,30z M25.9,25.1c0.5-0.9,0.8-1.9,1-2.8c0.2-0.1,0.4-0.1,0.6-0.2h1.2C28.2,23.5,27.4,24.5,25.9,25.1z M13,18c0,1.1-0.9,2-2,2s-2-0.9-2-2c0-1.1,0.9-2,2-2S13,16.9,13,18z M18,18c0-1.1,0.9-2,2-2s2,0.9,2,2c0,1.1-0.9,2-2,2S18,19.1,18,18z"></path></g></svg>