<?xml version="1.0" encoding="utf-8"?><!-- Generator: Adobe Illustrator 17.1.0, SVG Export Plug-In . SVG Version: 6.00 Build 0)  --><!DOCTYPE svg PUBLIC "-//W3C//DTD SVG 1.0//EN" "http://www.w3.org/TR/2001/REC-SVG-20010904/DTD/svg10.dtd"><svg xmlns="http://www.w3.org/2000/svg" xmlns:xlink="http://www.w3.org/1999/xlink" version="1.0" viewBox="0 0 128 128" preserveAspectRatio="none"><style> svg * { background-size: cover; background-repeat: no-repeat; } @media all and (max-width: 32px) { #group_1 { opacity: 1; } #group_2, #group_3 { opacity: 0; } } @media all and (min-width: 33px) and (max-width: 127px) { #group_2 { opacity: 1; } #group_1, #group_3 { opacity: 0; } } @media all and (min-width: 128px) { #group_3 { opacity: 1; } #group_1, #group_2 { opacity: 0; } } </style><g id="group_3"><path d="M66,2.6l57,2.9c0,0,0,0,0,0c0.3,0,0.5-0.2,0.5-0.5c0-0.3-0.2-0.5-0.5-0.5L66,1.6V1c0-0.6-0.4-1-1-1h-2c-0.6,0-1,0.4-1,1v0.6L5,4.5C4.7,4.5,4.5,4.7,4.5,5c0,0.3,0.3,0.5,0.5,0.5l57-2.9V6H4v81h120V6H66V2.6z M122,83H6V12h116V83z M62,88h4v12c0,0.6-0.4,1-1,1h-2c-0.6,0-1-0.4-1-1V88z M128,6v6c0,0.6-0.4,1-1,1h-2V5h2C127.6,5,128,5.4,128,6z M128,83v4c0,0.6-0.4,1-1,1h-2v-6h2C127.6,82,128,82.4,128,83z M1,5h2v8H1c-0.6,0-1-0.4-1-1V6C0,5.4,0.4,5,1,5z M1,82h2v6H1c-0.6,0-1-0.4-1-1v-4C0,82.4,0.4,82,1,82z M113,61V20H72v41H113z M93,55v-4h9v4H93z M102,56v4h-9v-4H102z M103,45v-4h9v4H103z M112,46v4h-9v-4H112z M92,40h-9v-4h9V40z M93,36h9v4h-9V36z M92,41v4h-9v-4H92z M93,41h9v4h-9V41z M103,40v-4h9v4H103z M103,35v-4h9v4H103z M102,35h-9v-4h9V35z M92,35h-9v-4h9V35z M82,35h-9v-4h9V35z M82,36v4h-9v-4H82z M82,41v4h-9v-4H82z M82,46v4h-9v-4H82z M83,46h9v4h-9V46z M93,46h9v4h-9V46z M103,51h9v4h-9V51z M112,30h-9v-4h9V30z M102,30h-9v-4h9V30z M93,25v-4h9v4H93z M92,25h-9v-4h9V25z M92,26v4h-9v-4H92z M82,30h-9v-4h9V30z M73,51h9v4h-9V51z M83,51h9v4h-9V51z M92,56v4h-9v-4H92z M103,60v-4h9v4H103z M112,25h-9v-4h9V25z M82,21v4h-9v-4H82z M73,56h9v4h-9V56z M55.5,62H15V21.5c0-0.3,0.2-0.5,0.5-0.5s0.5,0.2,0.5,0.5V61h39.5c0.3,0,0.5,0.2,0.5,0.5S55.8,62,55.5,62z M72,65.5c0-0.3,0.2-0.5,0.5-0.5h40c0.3,0,0.5,0.2,0.5,0.5s-0.2,0.5-0.5,0.5h-40C72.2,66,72,65.8,72,65.5z M72,68.5c0-0.3,0.2-0.5,0.5-0.5h32c0.3,0,0.5,0.2,0.5,0.5s-0.2,0.5-0.5,0.5h-32C72.2,69,72,68.8,72,68.5z M72,71.5c0-0.3,0.2-0.5,0.5-0.5h40c0.3,0,0.5,0.2,0.5,0.5s-0.2,0.5-0.5,0.5h-40C72.2,72,72,71.8,72,71.5z M15,68.5c0-0.3,0.2-0.5,0.5-0.5h5c0.3,0,0.5,0.2,0.5,0.5S20.8,69,20.5,69h-5C15.2,69,15,68.8,15,68.5z M21,71.5c0,0.3-0.2,0.5-0.5,0.5h-5c-0.3,0-0.5-0.2-0.5-0.5s0.2-0.5,0.5-0.5h5C20.8,71,21,71.2,21,71.5z M56,68.5c0,0.3-0.2,0.5-0.5,0.5h-29c-0.3,0-0.5-0.2-0.5-0.5s0.2-0.5,0.5-0.5h29C55.8,68,56,68.2,56,68.5z M56,71.5c0,0.3-0.2,0.5-0.5,0.5h-29c-0.3,0-0.5-0.2-0.5-0.5s0.2-0.5,0.5-0.5h29C55.8,71,56,71.2,56,71.5z M72,74.5c0-0.3,0.2-0.5,0.5-0.5h32c0.3,0,0.5,0.2,0.5,0.5s-0.2,0.5-0.5,0.5h-32C72.2,75,72,74.8,72,74.5z M25.2,36.9l-5-2.3C19.8,34.9,19.4,35,19,35c-1.1,0-2-0.9-2-2s0.9-2,2-2c1,0,1.9,0.8,2,1.8l4.9,2.2l2.6-6.8C28.2,27.9,28,27.5,28,27c0-1.1,0.9-2,2-2s2,0.9,2,2c0,0.2,0,0.3-0.1,0.5l5.6,5.6c0.2,0,0.3-0.1,0.5-0.1c0.3,0,0.6,0.1,0.8,0.2l4.2-3c0-0.1,0-0.1,0-0.2c0-1.1,0.9-2,2-2c1,0,1.9,0.8,2,1.8l5.9,2.6c0.3-0.2,0.7-0.4,1.2-0.4c1.1,0,2,0.9,2,2s-0.9,2-2,2c-1,0-1.9-0.8-2-1.8l-5.9-2.6C45.8,31.9,45.4,32,45,32c-0.3,0-0.6-0.1-0.8-0.2l-4.2,3c0,0.1,0,0.1,0,0.2c0,1.1-0.9,2-2,2s-2-0.9-2-2c0-0.2,0-0.3,0.1-0.5l-5.6-5.6c-0.1,0-0.1,0-0.2,0l-2.6,6.9l1.1,0.5c0.3-0.2,0.7-0.4,1.2-0.4c1.1,0,2,0.9,2,2c0,0.3-0.1,0.6-0.2,0.8l6,8.2c0.1,0,0.1,0,0.2,0c0.3,0,0.6,0.1,0.9,0.2l9.1-6.1c0,0,0-0.1,0-0.1c0-1.1,0.9-2,2-2s2,0.9,2,2c0,0.3-0.1,0.6-0.2,0.9l2.1,3.1c0,0,0.1,0,0.1,0c1.1,0,2,0.9,2,2s-0.9,2-2,2s-2-0.9-2-2c0-0.3,0.1-0.6,0.2-0.9L50.1,43c0,0-0.1,0-0.1,0c-0.3,0-0.6-0.1-0.9-0.2L40,48.9c0,0,0,0.1,0,0.1c0,1.1-0.9,2-2,2s-2-0.9-2-2c0-0.3,0.1-0.6,0.2-0.8l-6-8.2c-0.1,0-0.1,0-0.2,0c-1,0-1.9-0.8-2-1.8l-1-0.5l-6.5,17c0.3,0.3,0.5,0.8,0.5,1.3c0,1.1-0.9,2-2,2s-2-0.9-2-2c0-1,0.7-1.8,1.7-2L25.2,36.9z M30.2,122L61,90.7v5.7l-28,28.5c0,0,0,0,0,0.1c0,1.7-1.3,3-3,3s-3-1.3-3-3s1.3-3,3-3C30.1,122,30.2,122,30.2,122z M101,125c0,1.7-1.3,3-3,3s-3-1.3-3-3c0,0,0,0,0-0.1L67,96.4v-5.7L97.8,122c0.1,0,0.2,0,0.2,0C99.7,122,101,123.3,101,125z"></path></g><g transform="scale(8)" id="group_1"><path d="M10,5.4L8.4,7.8C8.3,8,8,8.1,7.8,8L5.6,7.1L3.9,8.9C3.8,9,3.6,9,3.5,9S3.2,9,3.1,8.9C3,8.7,3,8.3,3.1,8.1l2-2C5.3,6,5.5,6,5.7,6l2.1,0.8l1.8-2.7C9.7,4.1,9.8,4,10,4c0,0,0,0,0,0c0.2,0,0.3,0.1,0.4,0.2l2.5,3.5c0.2,0.2,0.1,0.5-0.1,0.7c-0.2,0.2-0.5,0.1-0.7-0.1L10,5.4z M9,12v0.5l4.5,3.5h-2L9,14H7l-2.5,2h-2L7,12.5V12H0V1h7V0h2v1h7v11H9z M15,11V2H1v9H15z"></path></g><g transform="scale(4)" id="group_2"><path d="M32,1v2h-1v17h-2V3H3v17H1V3H0V1h15V0h2v1H32z M0,23h15v4h2v-4h15v-2H0V23z M24.2,30L18,23.9V26l5,5c0,0.5,0.5,1,1,1c0.6,0,1-0.4,1-1C25,30.5,24.6,30.1,24.2,30z M7,31c0,0.6,0.4,1,1,1c0.5,0,1-0.4,1-1l5-5v-2.2L7.8,30C7.4,30.1,7,30.5,7,31z M7,14c-0.6,0-1,0.4-1,1c0,0.6,0.4,1,1,1s1-0.4,1-1c0,0,0,0,0-0.1l2.9-2.9c0,0,0,0,0.1,0c0.2,0,0.3,0,0.5-0.1l3.6,1.4c0.1,0.4,0.5,0.7,0.9,0.7c0.6,0,1-0.4,1-1c0-0.1,0-0.2-0.1-0.3L20,8.1l4,5.6c0,0.1,0,0.1,0,0.2c0,0.6,0.4,1,1,1s1-0.4,1-1c0-0.5-0.4-0.9-0.9-1L21,7.2c0-0.1,0-0.1,0-0.2c0-0.6-0.4-1-1-1s-1,0.4-1,1c0,0.1,0,0.2,0.1,0.3L15.9,12c-0.1,0-0.2,0-0.3,0.1l-3.6-1.4C11.8,10.3,11.4,10,11,10c-0.6,0-1,0.4-1,1c0,0,0,0,0,0.1L7,14C7,14,7,14,7,14z"></path></g></svg>