<?xml version="1.0" encoding="utf-8"?><!-- Generator: Adobe Illustrator 17.1.0, SVG Export Plug-In . SVG Version: 6.00 Build 0)  --><!DOCTYPE svg PUBLIC "-//W3C//DTD SVG 1.0//EN" "http://www.w3.org/TR/2001/REC-SVG-20010904/DTD/svg10.dtd"><svg xmlns="http://www.w3.org/2000/svg" xmlns:xlink="http://www.w3.org/1999/xlink" version="1.0" viewBox="0 0 128 128" preserveAspectRatio="none"><style> svg * { background-size: cover; background-repeat: no-repeat; } @media all and (max-width: 32px) { #group_1 { opacity: 1; } #group_2, #group_3 { opacity: 0; } } @media all and (min-width: 33px) and (max-width: 127px) { #group_2 { opacity: 1; } #group_1, #group_3 { opacity: 0; } } @media all and (min-width: 128px) { #group_3 { opacity: 1; } #group_1, #group_2 { opacity: 0; } } </style><g id="group_3"><path d="M126.8,6.3l-5.1-5.1c-1.6-1.6-4.3-1.6-5.9,0l-3.5,3.6l-1-1c-0.4-0.4-1-0.4-1.4,0L96.2,17.4c-0.3,0.3-0.3,0.7-0.2,1L10,104.3l-0.2,0.2c0,0,0,0,0,0.1l-0.1,0.1c0,0,0,0,0,0c0,0.1-0.1,0.1-0.1,0.2l-9.5,21.7c-0.2,0.4-0.1,0.8,0.2,1.1c0.2,0.2,0.4,0.3,0.7,0.3c0.1,0,0.3,0,0.4-0.1l21.8-9.4c0.1,0,0.2-0.1,0.3-0.2c0,0,0,0,0,0l0,0c0,0,0,0,0,0l0.1-0.1l86.1-86.1c0.1,0,0.1,0,0.2,0c0.3,0,0.5-0.1,0.7-0.3l13.6-13.6c0.4-0.4,0.4-1,0-1.4l-1-1l3.5-3.6C128.4,10.6,128.4,8,126.8,6.3z M19,114.3c0.5-0.5,2.6,0.3,3.8,2l-0.5,0.5l-13.1,5.6L5.6,119l5.7-13.2l0.3-0.3c0.8,0.6,1.6,1.5,1.8,2.9l84.9-84.9l1.1,1.1l-84.6,84.6c1.8,0.1,3.4,1.6,3.5,3.3l84.5-84.5l1.1,1.1L19,114.3z M120.6,19l-6.4-6.4l-1,1l6.4,6.4l-1,1l-6.4-6.4l-1,1l6.4,6.4l-3.3,3.3l-6.4-6.4l-1,1l6.4,6.4l-1,1l-6.4-6.4l-1,1l6.4,6.4l-1.5,1.5L98.3,18.1l1.5-1.5l1.9,1.9l1-1l-1.9-1.9l1-1l1.9,1.9l1-1l-1.9-1.9l3.3-3.3l1.9,1.9l1-1l-1.9-1.9l1-1l1.9,1.9l1-1L109,7.4l1.5-1.5l11.6,11.6L120.6,19z"></path></g><g transform="scale(8)" id="group_1"><path d="M15.6,3.2l-0.9,0.9l-2.8-2.8l0.9-0.9c0.6-0.6,1.5-0.6,2,0l0.8,0.8C16.1,1.8,16.1,2.7,15.6,3.2z M10.8,2.4l2.8,2.8l-9.2,9.2c0,0-0.1,0.1-0.2,0.1l-3.6,1.5c-0.1,0-0.1,0-0.2,0c-0.1,0-0.3-0.1-0.4-0.1C0,15.7,0,15.5,0.1,15.3l1.5-3.6c0-0.1,0.1-0.1,0.1-0.2L10.8,2.4z M3.7,13.6l-1.3-1.3l-0.9,2.3L3.7,13.6z"></path></g><g transform="scale(4)" id="group_2"><path d="M31.4,1.5l-1-1c-0.7-0.7-1.8-0.7-2.5,0l-0.5,0.5l-0.2-0.2c-0.2-0.2-0.5-0.2-0.7,0l-3.2,3.2c-0.1,0.1-0.1,0.2-0.1,0.4c0,0,0,0,0,0.1l-20,20l0,0c0,0-0.1,0.1-0.1,0.2l-2.9,6.4c-0.1,0.2,0,0.4,0.1,0.6c0.1,0.1,0.2,0.1,0.4,0.1c0.1,0,0.1,0,0.2,0l6.5-2.9c0.1,0,0.1-0.1,0.2-0.1L27.4,8.8c0,0,0,0,0.1,0c0.1,0,0.3,0,0.4-0.1l3.2-3.2c0.1-0.1,0.1-0.2,0.1-0.4s-0.1-0.3-0.1-0.4l-0.2-0.2L31.4,4C32.1,3.3,32.1,2.2,31.4,1.5z M4,25.3L6.7,28l-3.2,1.4l-1.1-1L4,25.3z M27.5,7.6l-3.1-3.1L26.9,2L30,5.1L27.5,7.6z"></path></g></svg>