<?xml version="1.0" encoding="utf-8"?><!-- Generator: Adobe Illustrator 17.1.0, SVG Export Plug-In . SVG Version: 6.00 Build 0)  --><!DOCTYPE svg PUBLIC "-//W3C//DTD SVG 1.0//EN" "http://www.w3.org/TR/2001/REC-SVG-20010904/DTD/svg10.dtd"><svg xmlns="http://www.w3.org/2000/svg" xmlns:xlink="http://www.w3.org/1999/xlink" version="1.0" viewBox="0 0 128 128" preserveAspectRatio="none"><style> svg * { background-size: cover; background-repeat: no-repeat; } @media all and (max-width: 32px) { #group_1 { opacity: 1; } #group_2, #group_3 { opacity: 0; } } @media all and (min-width: 33px) and (max-width: 127px) { #group_2 { opacity: 1; } #group_1, #group_3 { opacity: 0; } } @media all and (min-width: 128px) { #group_3 { opacity: 1; } #group_1, #group_2 { opacity: 0; } } </style><g id="group_3"><path d="M115,124H23c-5.5,0-10-4.5-10-10c0-5.5,4.5-10,10-10h90c2.2,0,4-1.8,4-4l0-96c0-2.2-1.8-4-4-4H23C15.3,0,9,6.3,9,14v100h0c0,7.7,6.3,14,14,14h92c1.1,0,2-0.9,2-2S116.1,124,115,124z M93,44H47v-4h46V44z M42,32h56v4H42V32z M25,5h1v94h-1V5z M115,108c0,0.6-0.4,1-1,1H20c-0.6,0-1-0.4-1-1s0.4-1,1-1h94C114.6,107,115,107.4,115,108z M16,112c0-0.6,0.4-1,1-1h96c0.6,0,1,0.4,1,1s-0.4,1-1,1H17C16.4,113,16,112.6,16,112z M16,116c0-0.6,0.4-1,1-1h96c0.6,0,1,0.4,1,1s-0.4,1-1,1H17C16.4,117,16,116.6,16,116z M19,120c0-0.6,0.4-1,1-1h94c0.6,0,1,0.4,1,1s-0.4,1-1,1H20C19.4,121,19,120.6,19,120z"></path></g><g transform="scale(8)" id="group_1"><path d="M3,13h11.5c0.3,0,0.5-0.2,0.5-0.5v-12C15,0.2,14.8,0,14.5,0H3C1.9,0,1,0.9,1,2v12c0,1.1,0.9,2,2,2h12v-1H3c-0.6,0-1-0.4-1-1C2,13.4,2.4,13,3,13z M5,4h7v1H5V4z"></path></g><g transform="scale(4)" id="group_2"><path d="M7,26h21c0.6,0,1-0.4,1-1V1c0-0.6-0.4-1-1-1H7C4.8,0,3,1.8,3,4v24c0,2.2,1.8,4,4,4h22v-2H7c-1.1,0-2-0.9-2-2C5,26.9,5.9,26,7,26z M11,9h12v2H11V9z"></path></g></svg>