<?xml version="1.0" encoding="utf-8"?><!-- Generator: Adobe Illustrator 17.1.0, SVG Export Plug-In . SVG Version: 6.00 Build 0)  --><!DOCTYPE svg PUBLIC "-//W3C//DTD SVG 1.0//EN" "http://www.w3.org/TR/2001/REC-SVG-20010904/DTD/svg10.dtd"><svg xmlns="http://www.w3.org/2000/svg" xmlns:xlink="http://www.w3.org/1999/xlink" version="1.0" viewBox="0 0 128 128" preserveAspectRatio="none"><style> svg * { background-size: cover; background-repeat: no-repeat; } @media all and (max-width: 32px) { #group_1 { opacity: 1; } #group_2, #group_3 { opacity: 0; } } @media all and (min-width: 33px) and (max-width: 127px) { #group_2 { opacity: 1; } #group_1, #group_3 { opacity: 0; } } @media all and (min-width: 128px) { #group_3 { opacity: 1; } #group_1, #group_2 { opacity: 0; } } </style><g id="group_3"><path d="M128,120.2c0,4.3-3.5,7.8-7.8,7.8c-0.9,0-1.8-0.2-2.6-0.4l9.9-9.9C127.8,118.5,128,119.3,128,120.2z M127.3,112.8L92.9,80.6c-0.8-0.8-2.1-0.7-2.9,0L80.6,90c-0.8,0.8-0.8,2.1,0,2.9l32.2,34.5c0.8,0.9,2.2,0.9,3,0.1l11.7-11.7C128.2,114.9,128.2,113.6,127.3,112.8z M82,46c0,19.9-16.1,36-36,36S10,65.9,10,46s16.1-36,36-36S82,26.1,82,46z M80,46c0-18.8-15.3-34-34-34S12,27.2,12,46s15.3,34,34,34S80,64.8,80,46z M72.1,85.2c-0.6,0-1.3-0.1-1.9-0.1C63.2,89.5,54.9,92,46,92C20.6,92,0,71.4,0,46S20.6,0,46,0s46,20.6,46,46c0,8.9-2.5,17.2-6.9,24.2c0.1,0.6,0.1,1.2,0.1,1.9c0,1.5-0.3,2.9-0.7,4.3l3.8,3.8l-8.2,8.2l-3.8-3.8C75,85,73.6,85.2,72.1,85.2z M46,84c21,0,38-17,38-38S67,8,46,8S8,25,8,46S25,84,46,84z"></path></g><g transform="scale(8)" id="group_1"><path d="M16,14.6l-4.3-4.3C12.5,9.3,13,7.9,13,6.5C13,2.9,10.1,0,6.5,0S0,2.9,0,6.5S2.9,13,6.5,13c1.4,0,2.8-0.5,3.8-1.3l4.3,4.3L16,14.6z M6.5,11C4,11,2,9,2,6.5S4,2,6.5,2S11,4,11,6.5S9,11,6.5,11z"></path></g><g transform="scale(4)" id="group_2"><path d="M31.3,28.3l-2.9,2.9c-0.2,0.2-0.5,0.2-0.7,0l-7.1-7.6c-0.2-0.2-0.2-0.5,0-0.7l2.4-2.4c0.2-0.2,0.5-0.2,0.7,0l7.6,7.1C31.5,27.8,31.5,28.1,31.3,28.3z M31.9,29L29,31.9c0.2,0.1,0.5,0.1,0.7,0.1c1.2,0,2.3-1,2.3-2.3C32,29.5,32,29.2,31.9,29z M20.1,22.1l-1-1c-0.3,0.1-0.7,0.2-1.1,0.2c-0.2,0-0.3,0-0.5,0c-1.8,1.1-3.8,1.7-6,1.7C5.2,23,0,17.8,0,11.5S5.2,0,11.5,0S23,5.2,23,11.5c0,2.2-0.6,4.3-1.7,6c0,0.2,0,0.3,0,0.5c0,0.4-0.1,0.7-0.2,1.1l1,1L20.1,22.1z M11.5,21c5.2,0,9.5-4.3,9.5-9.5S16.7,2,11.5,2S2,6.3,2,11.5S6.3,21,11.5,21z"></path></g></svg>