<?xml version="1.0" encoding="utf-8"?><!-- Generator: Adobe Illustrator 17.1.0, SVG Export Plug-In . SVG Version: 6.00 Build 0)  --><!DOCTYPE svg PUBLIC "-//W3C//DTD SVG 1.0//EN" "http://www.w3.org/TR/2001/REC-SVG-20010904/DTD/svg10.dtd"><svg xmlns="http://www.w3.org/2000/svg" xmlns:xlink="http://www.w3.org/1999/xlink" version="1.0" viewBox="0 0 128 128" preserveAspectRatio="none"><style> svg * { background-size: cover; background-repeat: no-repeat; } @media all and (max-width: 32px) { #group_1 { opacity: 1; } #group_2, #group_3 { opacity: 0; } } @media all and (min-width: 33px) and (max-width: 127px) { #group_2 { opacity: 1; } #group_1, #group_3 { opacity: 0; } } @media all and (min-width: 128px) { #group_3 { opacity: 1; } #group_1, #group_2 { opacity: 0; } } </style>function filter() { [native code] }<g id="group_3"><path d="M118,3.5c0,1.9-1.6,3.5-3.5,3.5h-101C11.6,7,10,5.4,10,3.5S11.6,0,13.5,0h101C116.4,0,118,1.6,118,3.5z M59,57L28,9H14l40,51h20l40-51H34L59,57z M105,24l-2.6,3.3c3.8,1.1,6.6,4.5,6.6,8.7c0,5-4,9-9,9c-3.4,0-6.3-1.9-7.8-4.6l-2.6,3.3c2.4,3.2,6.2,5.3,10.4,5.3c7.2,0,13-5.8,13-13C113,30.6,109.7,26,105,24z M61,115l-3-2V62h-4v53l20,13V62H61V115z"></path></g><g transform="scale(8)" id="group_1"><path d="M6,8h4v8l-4-1.5V8z M1,0v1l5,6h4l5-6V0H1z"></path></g><g transform="scale(4)" id="group_2"><path d="M31,0v2H1V0H31z M13,29l6,3V16h-6V29z M13,15h6L30,3H2L13,15z"></path></g></svg>