<?xml version="1.0" encoding="utf-8"?><!-- Generator: Adobe Illustrator 17.1.0, SVG Export Plug-In . SVG Version: 6.00 Build 0)  --><!DOCTYPE svg PUBLIC "-//W3C//DTD SVG 1.0//EN" "http://www.w3.org/TR/2001/REC-SVG-20010904/DTD/svg10.dtd"><svg xmlns="http://www.w3.org/2000/svg" xmlns:xlink="http://www.w3.org/1999/xlink" version="1.0" viewBox="0 0 128 128" preserveAspectRatio="none"><style> svg * { background-size: cover; background-repeat: no-repeat; } @media all and (max-width: 32px) { #group_1 { opacity: 1; } #group_2, #group_3 { opacity: 0; } } @media all and (min-width: 33px) and (max-width: 127px) { #group_2 { opacity: 1; } #group_1, #group_3 { opacity: 0; } } @media all and (min-width: 128px) { #group_3 { opacity: 1; } #group_1, #group_2 { opacity: 0; } } </style><g id="group_3"><path d="M64,2C39.1,2,19,22.1,19,47c0,35,45,79,45,79s45-43.8,45-79C109,22.1,88.9,2,64,2z M64,67c-11,0-20-9-20-20c0-11,9-20,20-20s20,9,20,20C84,58,75,67,64,67z M64,29c-9.9,0-18,8.1-18,18s8.1,18,18,18c9.9,0,18-8.1,18-18S73.9,29,64,29z M64,63c-8.8,0-16-7.2-16-16s7.2-16,16-16s16,7.2,16,16S72.8,63,64,63z"></path></g><g transform="scale(8)" id="group_1"><path d="M8,0C4.7,0,2,2.7,2,6c0,4.1,6,10,6,10s6-6,6-10C14,2.7,11.3,0,8,0z M8,8C6.9,8,6,7.1,6,6c0-1.1,0.9-2,2-2s2,0.9,2,2C10,7.1,9.1,8,8,8z"></path></g><g transform="scale(4)" id="group_2"><path d="M16,0C9.9,0,5,4.9,5,11c0,8.6,11,21,11,21s11-12.4,11-21C27,4.9,22.1,0,16,0z M16,15c-2.2,0-4-1.8-4-4c0-2.2,1.8-4,4-4s4,1.8,4,4C20,13.2,18.2,15,16,15z"></path></g></svg>