<?xml version="1.0" encoding="utf-8"?>
<!-- Generator: Adobe Illustrator 18.1.1, SVG Export Plug-In . SVG Version: 6.00 Build 0)  -->
<svg version="1.1" id="Layer_1" xmlns="http://www.w3.org/2000/svg" xmlns:xlink="http://www.w3.org/1999/xlink" x="0px" y="0px"
	 viewBox="0 0 128 128" enable-background="new 0 0 128 128" xml:space="preserve">
<path d="M115,124H23c-5.5,0-10-4.5-10-10c0-5.5,4.5-10,10-10h90c2.2,0,4-1.8,4-4l0-96c0-2.2-1.8-4-4-4H23C15.3,0,9,6.3,9,14v100h0
	c0,7.7,6.3,14,14,14h92c1.1,0,2-0.9,2-2S116.1,124,115,124z M93,44H47v-4h46V44z M42,32h56v4H42V32z M25,5h1v94h-1V5z M115,108
	c0,0.6-0.4,1-1,1H20c-0.6,0-1-0.4-1-1s0.4-1,1-1h94C114.6,107,115,107.4,115,108z M16,112c0-0.6,0.4-1,1-1h96c0.6,0,1,0.4,1,1
	s-0.4,1-1,1H17C16.4,113,16,112.6,16,112z M16,116c0-0.6,0.4-1,1-1h96c0.6,0,1,0.4,1,1s-0.4,1-1,1H17C16.4,117,16,116.6,16,116z
	 M19,120c0-0.6,0.4-1,1-1h94c0.6,0,1,0.4,1,1s-0.4,1-1,1H20C19.4,121,19,120.6,19,120z"/>
</svg>
