<?xml version="1.0" encoding="utf-8"?>
<!-- Generator: Adobe Illustrator 18.1.1, SVG Export Plug-In . SVG Version: 6.00 Build 0)  -->
<svg version="1.1" id="Layer_1" xmlns="http://www.w3.org/2000/svg" xmlns:xlink="http://www.w3.org/1999/xlink" x="0px" y="0px"
	 viewBox="0 0 16 16" enable-background="new 0 0 16 16" xml:space="preserve">
<path d="M3,13h10v-2V8V6H3V13z M4,11h2v1H4V11z M9,9v1H7V9H9z M7,8V7h2v1H7z M9,12H7v-1h2V12z M6,10H4V9h2V10z M10,12v-1h2v1H10z
	 M12,8h-2V7h2V8z M6,7v1H4V7H6z M13,1c0-0.6-0.4-1-1-1s-1,0.4-1,1H5c0-0.6-0.4-1-1-1S3,0.4,3,1H0v15h16V1H13z M15,15H1V4h14V15z"/>
</svg>
