<?xml version="1.0" encoding="utf-8"?>
<!-- Generator: Adobe Illustrator 18.1.1, SVG Export Plug-In . SVG Version: 6.00 Build 0)  -->
<svg version="1.1" id="Layer_1" xmlns="http://www.w3.org/2000/svg" xmlns:xlink="http://www.w3.org/1999/xlink" x="0px" y="0px"
	 viewBox="0 0 128 128" enable-background="new 0 0 128 128" xml:space="preserve">
<path d="M113,42H15v66h98V42z M111,58H97V44h14V58z M63,76v14H49V76H63z M49,74V60h14v14H49z M65,76h14v14H65V76z M65,74V60h14v14
	H65z M81,60h14v14H81V60z M81,58V44h14v14H81z M79,58H65V44h14V58z M63,58H49V44h14V58z M47,58H33V44h14V58z M47,60v14H33V60H47z
	 M31,74H17V60h14V74z M31,76v14H17V76H31z M33,76h14v14H33V76z M47,92v14H33V92H47z M49,92h14v14H49V92z M65,92h14v14H65V92z M81,92
	h14v14H81V92z M81,90V76h14v14H81z M97,76h14v14H97V76z M97,74V60h14v14H97z M31,44v14H17V44H31z M17,92h14v14H17V92z M97,106V92h14
	v14H97z M110,8v9c0,3.3-2.7,6-6,6s-6-2.7-6-6V8H30v9c0,3.3-2.7,6-6,6s-6-2.7-6-6V8H0v120h128V8H110z M2,120h124v2H2V120z M2,126v-2
	h124v2H2z M126,118H2V32h124V118z M77,78v10H67V78H77z M100,17V4c0-2.2,1.8-4,4-4s4,1.8,4,4v13c0,2.2-1.8,4-4,4S100,19.2,100,17z
	 M20,17V4c0-2.2,1.8-4,4-4s4,1.8,4,4v13c0,2.2-1.8,4-4,4S20,19.2,20,17z"/>
</svg>
