<?xml version="1.0" encoding="utf-8"?>
<!-- Generator: Adobe Illustrator 18.1.1, SVG Export Plug-In . SVG Version: 6.00 Build 0)  -->
<svg version="1.1" id="Layer_1" xmlns="http://www.w3.org/2000/svg" xmlns:xlink="http://www.w3.org/1999/xlink" x="0px" y="0px"
	 viewBox="0 0 32 32" enable-background="new 0 0 32 32" xml:space="preserve">
<path d="M27,26V12H5v14H27z M7,22h3v2H7V22z M17,22h3v2h-3V22z M15,24h-3v-2h3V24z M22,18h3v2h-3V18z M17,16v-2h3v2H17z M15,16h-3
	v-2h3V16z M15,18v2h-3v-2H15z M10,20H7v-2h3V20z M22,24v-2h3v2H22z M25,16h-3v-2h3V16z M10,14v2H7v-2H10z M28,2v2c0,1.1-0.9,2-2,2
	s-2-0.9-2-2V2H8v2c0,1.1-0.9,2-2,2S4,5.1,4,4V2H0v4v3v23h32V9V6V2H28z M30,30H2V9h28V30z M25,4V1c0-0.6,0.4-1,1-1s1,0.4,1,1v3
	c0,0.6-0.4,1-1,1S25,4.6,25,4z M5,4V1c0-0.6,0.4-1,1-1s1,0.4,1,1v3c0,0.6-0.4,1-1,1S5,4.6,5,4z"/>
</svg>
