<?xml version="1.0" encoding="utf-8"?>
<!-- Generator: Adobe Illustrator 18.1.1, SVG Export Plug-In . SVG Version: 6.00 Build 0)  -->
<svg version="1.1" id="Layer_1" xmlns="http://www.w3.org/2000/svg" xmlns:xlink="http://www.w3.org/1999/xlink" x="0px" y="0px"
	 viewBox="0 0 16 16" enable-background="new 0 0 16 16" xml:space="preserve">
<path d="M13,3h-1.1l-1.8-2H5.9L4.1,3H3C1.3,3,0,4.3,0,6v6c0,1.7,1.3,3,3,3h10c1.7,0,3-1.3,3-3V6C16,4.3,14.7,3,13,3z M8,13
	c-2.2,0-4-1.8-4-4c0-2.2,1.8-4,4-4s4,1.8,4,4C12,11.2,10.2,13,8,13z M10.5,9c0,1.4-1.1,2.5-2.5,2.5S5.5,10.4,5.5,9
	c0-1.4,1.1-2.5,2.5-2.5S10.5,7.6,10.5,9z"/>
</svg>
