<?xml version="1.0" encoding="utf-8"?>
<!-- Generator: Adobe Illustrator 18.1.1, SVG Export Plug-In . SVG Version: 6.00 Build 0)  -->
<svg version="1.1" id="Layer_1" xmlns="http://www.w3.org/2000/svg" xmlns:xlink="http://www.w3.org/1999/xlink" x="0px" y="0px"
	 viewBox="0 0 16 16" enable-background="new 0 0 16 16" xml:space="preserve">
<path d="M10.5,0C7.8,0,5,0.9,5,2.5v2V7C2.5,7.1,0,8,0,9.5v4C0,15.1,2.8,16,5.5,16s5.5-0.9,5.5-2.5V13c2.5-0.1,5-1,5-2.5v-8
	C16,0.9,13.2,0,10.5,0z M10.5,1C13.2,1,15,1.9,15,2.5S13.2,4,10.5,4S6,3.1,6,2.5S7.8,1,10.5,1z M5.5,8C8.2,8,10,8.9,10,9.5
	c0,0.6-1.8,1.5-4.5,1.5S1,10.1,1,9.5C1,8.9,2.8,8,5.5,8z M1,11c1.1,0.7,2.8,1,4.5,1s3.4-0.4,4.5-1v0.5c0,0.6-1.8,1.5-4.5,1.5
	S1,12.1,1,11.5V11z M5.5,15C2.8,15,1,14.1,1,13.5V13c1.1,0.7,2.8,1,4.5,1s3.4-0.4,4.5-1v0.5C10,14.1,8.2,15,5.5,15z M11,12v-0.5V11
	c1.5-0.1,3-0.4,4-1v0.5C15,11.1,13.5,11.9,11,12z M11,10V9.5c0-0.2,0-0.3-0.1-0.5C12.5,8.9,14,8.6,15,8v0.5C15,9.1,13.5,9.9,11,10z
	 M10.5,8c-0.2,0-0.4,0-0.6,0C9,7.4,7.5,7.1,6,7V6c1.1,0.7,2.8,1,4.5,1c1.7,0,3.4-0.4,4.5-1v0.5C15,7.1,13.2,8,10.5,8z M10.5,6
	C7.8,6,6,5.1,6,4.5V4c1.1,0.7,2.8,1,4.5,1c1.7,0,3.4-0.4,4.5-1v0.5C15,5.1,13.2,6,10.5,6z"/>
</svg>
