<?xml version="1.0" encoding="utf-8"?>
<!-- Generator: Adobe Illustrator 18.1.1, SVG Export Plug-In . SVG Version: 6.00 Build 0)  -->
<svg version="1.1" id="Layer_1" xmlns="http://www.w3.org/2000/svg" xmlns:xlink="http://www.w3.org/1999/xlink" x="0px" y="0px"
	 viewBox="0 0 32 32" enable-background="new 0 0 32 32" xml:space="preserve">
<path d="M21,0c-5.3,0-11,1.8-11,5v9C5,14.2,0,16,0,19v8c0,3.2,5.7,5,11,5s11-1.8,11-5v-1c5-0.2,10-1.9,10-5V5C32,1.8,26.3,0,21,0z
	 M21,2c5.5,0,9,1.8,9,3s-3.5,3-9,3s-9-1.8-9-3S15.5,2,21,2z M11,16c5.5,0,9,1.8,9,3s-3.5,3-9,3s-9-1.8-9-3S5.5,16,11,16z M2,22
	c2.1,1.3,5.6,2,9,2s6.9-0.7,9-2v1c0,1.2-3.5,3-9,3s-9-1.8-9-3V22z M11,30c-5.5,0-9-1.8-9-3v-1c2.1,1.3,5.6,2,9,2s6.9-0.7,9-2v1
	C20,28.2,16.5,30,11,30z M22,24v-1v-1c3.1-0.1,6.1-0.8,8-2v1C30,22.1,26.9,23.8,22,24z M22,20v-1c0-0.4-0.1-0.7-0.2-1
	c3.1-0.1,6.3-0.8,8.2-2v1C30,18.1,26.9,19.8,22,20z M21,16c-0.4,0-0.7,0-1.1,0C18,14.8,15,14.1,12,14V12c2.1,1.3,5.6,2,9,2
	c3.4,0,6.9-0.7,9-2v1C30,14.2,26.5,16,21,16z M21,12c-5.5,0-9-1.8-9-3V8c2.1,1.3,5.6,2,9,2c3.4,0,6.9-0.7,9-2v1
	C30,10.2,26.5,12,21,12z M19.2,5.3C19.2,5.3,19.2,5.3,19.2,5.3c0,0.1,0.1,0.1,0.2,0.2c0.1,0,0.3,0.1,0.5,0.1c0.2,0,0.4,0.1,0.7,0.1
	c0.2,0,0.5,0,0.7,0c0.2,0,0.4,0,0.5,0c0.2,0,0.4,0,0.5-0.1c0.2,0,0.3-0.1,0.4-0.1c0.1-0.1,0.1-0.1,0.1-0.2c0-0.1-0.1-0.2-0.2-0.2
	C22.6,5,22.4,5,22.3,4.9c-0.2,0-0.3-0.1-0.5-0.1c-0.2,0-0.4,0-0.6,0c-0.1,0-0.2,0-0.3,0c-0.2,0-0.3,0-0.5,0c-0.2,0-0.3,0-0.4,0.1
	c-0.1,0-0.2,0.1-0.2,0.1c0,0,0,0,0,0l-0.1,0l-1.4-0.6c0.1,0,0.2-0.1,0.2-0.1s0.1,0,0.1-0.1V3.8c0-0.1-0.1-0.1-0.2-0.1V3.6h4.7
	c0.1,0,0.2,0,0.2,0c0.1,0,0.1,0,0.1-0.1h0.1v0.6h-0.1c0-0.1,0-0.1-0.1-0.1c-0.1,0-0.2,0-0.2,0h-3.5v0.5c0.3,0,0.6-0.1,0.9-0.1
	c0.3,0,0.6,0,0.9,0c0.3,0,0.6,0,0.9,0c0.3,0,0.6,0.1,0.9,0.1c0.3,0.1,0.5,0.2,0.6,0.3C24,5,24.1,5.1,24.1,5.3c0,0.2-0.1,0.3-0.3,0.4
	c-0.2,0.1-0.4,0.2-0.7,0.3c-0.3,0.1-0.6,0.1-1,0.1c-0.4,0-0.7,0-1,0c-0.4,0-0.8,0-1.1-0.1c-0.3,0-0.6-0.1-0.8-0.1
	c-0.3-0.1-0.4-0.1-0.5-0.1c-0.1,0-0.2-0.1-0.2-0.1c0,0,0,0-0.1,0c0,0-0.1,0-0.1,0l-0.1,0L19.2,5.3L19.2,5.3
	C19.2,5.3,19.2,5.3,19.2,5.3z M6.9,18.4H6.8v-0.5h0.1c0,0,0,0,0.1,0.1c0.1,0,0.1,0,0.2,0c0.1,0,0.2,0,0.3,0c0.1,0,0.1-0.1,0.1-0.1
	c0,0,0-0.1-0.1-0.1c0,0-0.1,0-0.2,0v-0.1H9v0.1c-0.1,0-0.2,0-0.2,0c-0.1,0-0.1,0-0.1,0.1v2c0,0,0,0.1,0.1,0.1c0.1,0,0.1,0,0.2,0v0.1
	H7.3v-0.1c0.1,0,0.1,0,0.2,0s0.1,0,0.1-0.1v-1.5c0,0-0.1,0-0.2,0c-0.1,0-0.1,0-0.2,0c-0.1,0-0.1,0-0.2,0C7,18.3,6.9,18.3,6.9,18.4z
	 M10.7,19.6c0.3,0.1,0.6,0.2,0.9,0.2c0.4,0.1,0.7,0.1,1.1,0.1c0.4,0,0.8,0,1.1-0.1c0.4-0.1,0.7-0.1,0.9-0.2c0.3-0.1,0.5-0.2,0.6-0.4
	c0.2-0.1,0.2-0.3,0.2-0.5c0-0.2-0.1-0.3-0.2-0.5c-0.2-0.1-0.4-0.3-0.6-0.4c-0.3-0.1-0.6-0.2-0.9-0.2c-0.4-0.1-0.7-0.1-1.1-0.1
	c-0.4,0-0.8,0-1.1,0.1c-0.4,0.1-0.7,0.1-0.9,0.2c-0.3,0.1-0.5,0.2-0.6,0.4c-0.2,0.1-0.2,0.3-0.2,0.5c0,0.2,0.1,0.3,0.2,0.5
	C10.2,19.3,10.4,19.5,10.7,19.6z M11.2,18.4c0.1-0.1,0.2-0.2,0.4-0.3c0.2-0.1,0.3-0.1,0.5-0.2c0.2,0,0.4-0.1,0.7-0.1
	c0.2,0,0.5,0,0.7,0.1c0.2,0,0.4,0.1,0.5,0.2c0.2,0.1,0.3,0.2,0.4,0.3c0.1,0.1,0.1,0.2,0.1,0.3c0,0.1,0,0.2-0.1,0.3
	c-0.1,0.1-0.2,0.2-0.4,0.3c-0.2,0.1-0.3,0.1-0.5,0.2c-0.2,0-0.4,0.1-0.7,0.1c-0.2,0-0.5,0-0.7-0.1s-0.4-0.1-0.5-0.2
	c-0.2-0.1-0.3-0.2-0.4-0.3C11.1,19,11,18.8,11,18.7C11,18.6,11.1,18.5,11.2,18.4z"/>
</svg>
