<?xml version="1.0" encoding="utf-8"?>
<!-- Generator: Adobe Illustrator 18.1.1, SVG Export Plug-In . SVG Version: 6.00 Build 0)  -->
<svg version="1.1" id="Layer_1" xmlns="http://www.w3.org/2000/svg" xmlns:xlink="http://www.w3.org/1999/xlink" x="0px" y="0px"
	 viewBox="0 0 16 16" enable-background="new 0 0 16 16" xml:space="preserve">
<path d="M10.2,10H5.8c0-1.2,0.9-1.3,1.4-1.6c0.1-0.1,0.2-0.2,0.2-0.3V7.8c0,0-0.2-0.2-0.3-0.6c0,0-0.2,0-0.2-0.3
	C7,6.7,7,6.7,7.1,6.7C6.8,5.9,7,5.2,8,5.2c0.3,0,0.5,0.1,0.6,0.3c0.5,0,0.5,0.8,0.3,1.2c0,0,0,0,0,0c0,0,0.1,0,0.1,0.2
	C8.9,7.2,8.8,7.2,8.8,7.2C8.7,7.6,8.5,7.8,8.5,7.8v0.3c0,0.1,0.1,0.2,0.2,0.3C9.3,8.7,10.2,8.7,10.2,10z M0.5,5h1C1.8,5,2,4.8,2,4.5
	C2,4.2,1.8,4,1.5,4h-1C0.2,4,0,4.2,0,4.5C0,4.8,0.2,5,0.5,5z M2,11.5C2,11.2,1.8,11,1.5,11h-1C0.2,11,0,11.2,0,11.5
	C0,11.8,0.2,12,0.5,12h1C1.8,12,2,11.8,2,11.5z M16,2v12c0,0.6-0.4,1-1,1h-1c0,0.6-0.4,1-1,1H2c-0.6,0-1-0.4-1-1v-2h0.5
	C2.3,13,3,12.3,3,11.5S2.3,10,1.5,10H1V6h0.5C2.3,6,3,5.3,3,4.5S2.3,3,1.5,3H1V1c0-0.6,0.4-1,1-1h11c0.6,0,1,0.4,1,1h1
	C15.6,1,16,1.4,16,2z M12,8c0-2.2-1.8-4-4-4S4,5.8,4,8c0,2.2,1.8,4,4,4S12,10.2,12,8z M15,2h-1v12h1V2z"/>
</svg>
