<?xml version="1.0" encoding="utf-8"?>
<!-- Generator: Adobe Illustrator 18.1.1, SVG Export Plug-In . SVG Version: 6.00 Build 0)  -->
<svg version="1.1" id="Layer_1" xmlns="http://www.w3.org/2000/svg" xmlns:xlink="http://www.w3.org/1999/xlink" x="0px" y="0px"
	 viewBox="0 0 32 32" enable-background="new 0 0 32 32" xml:space="preserve">
<path d="M20,20h-8c0-2.3,1.7-2.5,2.6-2.9c0.3-0.1,0.4-0.4,0.4-0.5V16c0,0-0.4-0.4-0.5-1.1c0,0-0.3,0-0.4-0.6c0-0.3,0.1-0.3,0.2-0.3
	C13.7,12.4,14.2,11,16,11c0.5,0,0.9,0.2,1.1,0.6c1,0,0.8,1.5,0.6,2.3c0,0,0,0,0,0c0,0,0.3,0,0.2,0.4c-0.1,0.5-0.4,0.6-0.4,0.6
	C17.4,15.6,17,16,17,16v0.5c0,0.2,0.2,0.4,0.4,0.5C18.4,17.6,20,17.6,20,20z M2,10h2c0.6,0,1-0.4,1-1c0-0.6-0.4-1-1-1H2
	C1.4,8,1,8.4,1,9C1,9.6,1.4,10,2,10z M5,23c0-0.6-0.4-1-1-1H2c-0.6,0-1,0.4-1,1c0,0.6,0.4,1,1,1h2C4.6,24,5,23.6,5,23z M31,8
	c0,0.2-0.1,0.5-0.2,0.6C30.9,8.8,31,9,31,9.2V12c0,0.2-0.1,0.5-0.2,0.6c0.1,0.2,0.2,0.4,0.2,0.6V16c0,0.2-0.1,0.5-0.2,0.6
	c0.1,0.2,0.2,0.4,0.2,0.6V20c0,0.2-0.1,0.5-0.2,0.6c0.1,0.2,0.2,0.4,0.2,0.6V24c0,0.2-0.1,0.5-0.2,0.6c0.1,0.2,0.2,0.4,0.2,0.6V28
	c0,0.6-0.4,1-1,1h-2v1c0,1.1-0.9,2-2,2H5c-1.1,0-2-0.9-2-2v-5h1c1.2,0,2.2-1.1,2-2.3c-0.2-1-1.1-1.7-2.1-1.7H3V11h1
	c1.2,0,2.2-1.1,2-2.3C5.8,7.7,4.9,7,3.9,7H3V2c0-1.1,0.9-2,2-2h21c1.1,0,2,0.9,2,2v2.2h2c0.6,0,1,0.4,1,1V8z M24.2,16
	c0-4.4-3.6-8-8-8s-8,3.6-8,8c0,4.4,3.6,8,8,8S24.2,20.4,24.2,16z M28,9.2V12h2V9.2H28z M28,13.2V16h2v-2.8H28z M28,17.2V20h2v-2.8
	H28z M28,21.2V24h2v-2.8H28z M28,5.2V8h2V5.2H28z M30,25.2h-2V28h2V25.2z"/>
</svg>
