<?xml version="1.0" encoding="utf-8"?>
<!-- Generator: Adobe Illustrator 18.1.1, SVG Export Plug-In . SVG Version: 6.00 Build 0)  -->
<svg version="1.1" id="Layer_1" xmlns="http://www.w3.org/2000/svg" xmlns:xlink="http://www.w3.org/1999/xlink" x="0px" y="0px"
	 viewBox="0 0 128 128" enable-background="new 0 0 128 128" xml:space="preserve">
<path d="M121,28.4V17c0-1.7-1.3-3-3-3h-5V4c0-2.2-1.8-4-4-4H16c-2.2,0-4,1.8-4,4v29H8c-1.1,0-2,0.9-2,2c0,1.1,0.9,2,2,2h4h4h4
	c1.1,0,2-0.9,2-2c0-1.1-0.9-2-2-2h-4V5h1v27.4c0.7-0.8,1.8-1.4,3-1.4c2.2,0,4,1.8,4,4c0,2-1.4,3.6-3.3,3.9C20.5,39,20.3,39,20,39h-3
	v47.4c0.7-0.8,1.8-1.4,3-1.4c2.2,0,4,1.8,4,4c0,2-1.4,3.6-3.3,3.9C20.5,93,20.3,93,20,93h-3v29h-1V93h-4v31c0,2.2,1.8,4,4,4h93
	c2.2,0,4-1.8,4-4v-9h5c1.7,0,3-1.3,3-3v-11c0-1.7-1.3-3-3-3h-5V86h5c0.6,0,1,0.4,1,1v10.1c0.8,0.2,1.5,0.6,2,1.2V87c0-1.7-1.3-3-3-3
	h-5V72h5c0.6,0,1,0.4,1,1v10.1c0.8,0.2,1.5,0.6,2,1.2V73c0-1.7-1.3-3-3-3h-5V58h5c0.6,0,1,0.4,1,1v10.1c0.8,0.2,1.5,0.6,2,1.2V59
	c0-1.7-1.3-3-3-3h-5V44h5c0.6,0,1,0.4,1,1v10.1c0.8,0.2,1.5,0.6,2,1.2V45c0-1.7-1.3-3-3-3h-5V30h5c0.6,0,1,0.4,1,1v10.1
	c0.8,0.2,1.5,0.6,2,1.2V31c0-1.7-1.3-3-3-3h-5V16h5c0.6,0,1,0.4,1,1v10.1C119.8,27.3,120.5,27.8,121,28.4z M65,94
	c-16.6,0-30-13.4-30-30c0-16.6,13.4-30,30-30s30,13.4,30,30C95,80.6,81.6,94,65,94z M118,100c0.6,0,1,0.4,1,1v11c0,0.6-0.4,1-1,1h-5
	v-13H118z M81.4,80.4H48.6c0-9.4,6.9-10.2,10.7-12c1.1-0.6,1.7-1.5,1.7-2.2V64c0,0-1.7-1.7-2.1-4.6c0,0-1.2,0.1-1.6-2.6
	c-0.1-1,0.4-1.3,0.6-1.4c-2.3-5.9-0.2-11.8,7-11.8c1.9,0,3.8,0.9,4.4,2.3c4.1,0,3.4,5.9,2.6,9.4c0,0,0,0.1,0,0.1c0,0,1.1,0,0.7,1.7
	c-0.5,2.2-1.5,2.3-1.5,2.3C70.6,62.2,69,64,69,64v2.1c0,0.9,0.6,1.6,1.7,2.2C74.8,70.4,81.4,70.7,81.4,80.4z M12,91H8
	c-1.1,0-2-0.9-2-2c0-1.1,0.9-2,2-2h4V39h4v48h4c1.1,0,2,0.9,2,2c0,1.1-0.9,2-2,2h-4H12z M65,35.5c-15.7,0-28.5,12.8-28.5,28.5
	S49.3,92.5,65,92.5S93.5,79.7,93.5,64S80.7,35.5,65,35.5z M65,90.5c-14.6,0-26.5-11.9-26.5-26.5S50.4,37.5,65,37.5
	S91.5,49.4,91.5,64S79.6,90.5,65,90.5z"/>
</svg>
