<?xml version="1.0" encoding="utf-8"?>
<!-- Generator: Adobe Illustrator 18.1.1, SVG Export Plug-In . SVG Version: 6.00 Build 0)  -->
<svg version="1.1" id="Layer_1" xmlns="http://www.w3.org/2000/svg" xmlns:xlink="http://www.w3.org/1999/xlink" x="0px" y="0px"
	 viewBox="0 0 32 32" enable-background="new 0 0 32 32" xml:space="preserve">
<path d="M8,21c-1.7,0-3,1.3-3,3c0,1.7,1.3,3,3,3c1.7,0,3-1.3,3-3C11,22.3,9.7,21,8,21z M8,25.1c-0.6,0-1.2-0.5-1.2-1.1
	s0.5-1.2,1.2-1.2c0.6,0,1.1,0.5,1.1,1.2S8.6,25.1,8,25.1z M24,21c-1.7,0-3,1.3-3,3c0,1.7,1.3,3,3,3c1.7,0,3-1.3,3-3
	C27,22.3,25.7,21,24,21z M24,25.1c-0.6,0-1.2-0.5-1.2-1.1s0.5-1.2,1.2-1.2c0.6,0,1.1,0.5,1.1,1.2S24.6,25.1,24,25.1z M31.9,16.5
	l-1.5-6c-0.2-0.9-1-1.5-1.9-1.5H21c-0.6,0-1,0.4-1,1v14c0-2.2,1.8-4,4-4c2.2,0,4,1.8,4,4h3c0.6,0,1-0.4,1-1v-5.5
	C32,17.2,32,16.8,31.9,16.5z M29.4,17c-0.4,0-1.8,0-1.8,0c-0.4,0-0.7-0.2-0.9-0.6l-0.4-0.9c-0.2-0.3-0.5-0.6-0.9-0.6H23
	c-0.6,0-1-0.4-1-1v-2c0-0.6,0.4-1,1-1h5.3c0.5,0,0.8,0.3,1,0.7l1,4.2C30.4,16.6,29.9,17,29.4,17z M19,5v19h-7c0-2.2-1.8-4-4-4
	c-2.2,0-4,1.8-4,4H2v-8h1v-1H2H0v-1h2v-1h2v-1H2H0v-1h2v-1h3V9H2H0V8h2V7h4V6H0V5H19z"/>
</svg>
