<?xml version="1.0" encoding="utf-8"?>
<!-- Generator: Adobe Illustrator 18.1.1, SVG Export Plug-In . SVG Version: 6.00 Build 0)  -->
<svg version="1.1" id="Layer_1" xmlns="http://www.w3.org/2000/svg" xmlns:xlink="http://www.w3.org/1999/xlink" x="0px" y="0px"
	 viewBox="0 0 16 16" enable-background="new 0 0 16 16" xml:space="preserve">
<path d="M15.9,8.8l-1.7-3.4C14.1,5.2,13.8,5,13.5,5h-2.7C10.4,5,10,5.4,10,5.8V12h1c0,1.1,0.9,2,2,2c1.1,0,2-0.9,2-2h0.3
	c0.4,0,0.7-0.3,0.7-0.7V9.2C16,9.1,16,8.9,15.9,8.8z M13,13c-0.6,0-1-0.4-1-1s0.4-1,1-1s1,0.4,1,1S13.6,13,13,13z M12,9V6h1.5L15,9
	H12z M8.3,2H0v1h3v1H0v1h1h1v1H1H0v1h1v5h1c0,1.1,0.9,2,2,2c1.1,0,2-0.9,2-2h3V2.7C9,2.3,8.7,2,8.3,2z M4,13c-0.6,0-1-0.4-1-1
	s0.4-1,1-1s1,0.4,1,1S4.6,13,4,13z"/>
</svg>
