<?xml version="1.0" encoding="utf-8"?>
<!-- Generator: Adobe Illustrator 18.1.1, SVG Export Plug-In . SVG Version: 6.00 Build 0)  -->
<svg version="1.1" id="Layer_1" xmlns="http://www.w3.org/2000/svg" xmlns:xlink="http://www.w3.org/1999/xlink" x="0px" y="0px"
	 viewBox="0 0 128 128" enable-background="new 0 0 128 128" xml:space="preserve">
<path d="M126.8,6.3l-5.1-5.1c-1.6-1.6-4.3-1.6-5.9,0l-3.5,3.6l-1-1c-0.4-0.4-1-0.4-1.4,0L96.2,17.4c-0.3,0.3-0.3,0.7-0.2,1L10,104.3
	l-0.2,0.2c0,0,0,0,0,0.1l-0.1,0.1c0,0,0,0,0,0c0,0.1-0.1,0.1-0.1,0.2l-9.5,21.7c-0.2,0.4-0.1,0.8,0.2,1.1c0.2,0.2,0.4,0.3,0.7,0.3
	c0.1,0,0.3,0,0.4-0.1l21.8-9.4c0.1,0,0.2-0.1,0.3-0.2c0,0,0,0,0,0l0,0c0,0,0,0,0,0l0.1-0.1l86.1-86.1c0.1,0,0.1,0,0.2,0
	c0.3,0,0.5-0.1,0.7-0.3l13.6-13.6c0.4-0.4,0.4-1,0-1.4l-1-1l3.5-3.6C128.4,10.6,128.4,8,126.8,6.3z M19,114.3c0.5-0.5,2.6,0.3,3.8,2
	l-0.5,0.5l-13.1,5.6L5.6,119l5.7-13.2l0.3-0.3c0.8,0.6,1.6,1.5,1.8,2.9l84.9-84.9l1.1,1.1l-84.6,84.6c1.8,0.1,3.4,1.6,3.5,3.3
	l84.5-84.5l1.1,1.1L19,114.3z M120.6,19l-6.4-6.4l-1,1l6.4,6.4l-1,1l-6.4-6.4l-1,1l6.4,6.4l-3.3,3.3l-6.4-6.4l-1,1l6.4,6.4l-1,1
	l-6.4-6.4l-1,1l6.4,6.4l-1.5,1.5L98.3,18.1l1.5-1.5l1.9,1.9l1-1l-1.9-1.9l1-1l1.9,1.9l1-1l-1.9-1.9l3.3-3.3l1.9,1.9l1-1l-1.9-1.9
	l1-1l1.9,1.9l1-1L109,7.4l1.5-1.5l11.6,11.6L120.6,19z"/>
</svg>
