<?xml version="1.0" encoding="utf-8"?>
<!-- Generator: Adobe Illustrator 18.1.1, SVG Export Plug-In . SVG Version: 6.00 Build 0)  -->
<svg version="1.1" id="Layer_1" xmlns="http://www.w3.org/2000/svg" xmlns:xlink="http://www.w3.org/1999/xlink" x="0px" y="0px"
	 viewBox="0 0 16 16" enable-background="new 0 0 16 16" xml:space="preserve">
<path d="M15.6,3.2l-0.9,0.9l-2.8-2.8l0.9-0.9c0.6-0.6,1.5-0.6,2,0l0.8,0.8C16.1,1.8,16.1,2.7,15.6,3.2z M10.8,2.4l2.8,2.8l-9.2,9.2
	c0,0-0.1,0.1-0.2,0.1l-3.6,1.5c-0.1,0-0.1,0-0.2,0c-0.1,0-0.3-0.1-0.4-0.1C0,15.7,0,15.5,0.1,15.3l1.5-3.6c0-0.1,0.1-0.1,0.1-0.2
	L10.8,2.4z M3.7,13.6l-1.3-1.3l-0.9,2.3L3.7,13.6z"/>
</svg>
