<?xml version="1.0" encoding="utf-8"?>
<!-- Generator: Adobe Illustrator 18.1.1, SVG Export Plug-In . SVG Version: 6.00 Build 0)  -->
<svg version="1.1" id="Layer_1" xmlns="http://www.w3.org/2000/svg" xmlns:xlink="http://www.w3.org/1999/xlink" x="0px" y="0px"
	 viewBox="0 0 32 32" enable-background="new 0 0 32 32" xml:space="preserve">
<path d="M31.4,1.5l-1-1c-0.7-0.7-1.8-0.7-2.5,0l-0.5,0.5l-0.2-0.2c-0.2-0.2-0.5-0.2-0.7,0l-3.2,3.2c-0.1,0.1-0.1,0.2-0.1,0.4
	c0,0,0,0,0,0.1l-20,20l0,0c0,0-0.1,0.1-0.1,0.2l-2.9,6.4c-0.1,0.2,0,0.4,0.1,0.6c0.1,0.1,0.2,0.1,0.4,0.1c0.1,0,0.1,0,0.2,0l6.5-2.9
	c0.1,0,0.1-0.1,0.2-0.1L27.4,8.8c0,0,0,0,0.1,0c0.1,0,0.3,0,0.4-0.1l3.2-3.2c0.1-0.1,0.1-0.2,0.1-0.4s-0.1-0.3-0.1-0.4l-0.2-0.2
	L31.4,4C32.1,3.3,32.1,2.2,31.4,1.5z M4,25.3L6.7,28l-3.2,1.4l-1.1-1L4,25.3z M27.5,7.6l-3.1-3.1L26.9,2L30,5.1L27.5,7.6z"/>
</svg>
