<?xml version="1.0" encoding="utf-8"?>
<!-- Generator: Adobe Illustrator 18.1.1, SVG Export Plug-In . SVG Version: 6.00 Build 0)  -->
<svg version="1.1" id="Layer_1" xmlns="http://www.w3.org/2000/svg" xmlns:xlink="http://www.w3.org/1999/xlink" x="0px" y="0px"
	 viewBox="0 0 128 128" enable-background="new 0 0 128 128" xml:space="preserve">
<path d="M118,3.5c0,1.9-1.6,3.5-3.5,3.5h-101C11.6,7,10,5.4,10,3.5S11.6,0,13.5,0h101C116.4,0,118,1.6,118,3.5z M59,57L28,9H14
	l40,51h20l40-51H34L59,57z M105,24l-2.6,3.3c3.8,1.1,6.6,4.5,6.6,8.7c0,5-4,9-9,9c-3.4,0-6.3-1.9-7.8-4.6l-2.6,3.3
	c2.4,3.2,6.2,5.3,10.4,5.3c7.2,0,13-5.8,13-13C113,30.6,109.7,26,105,24z M61,115l-3-2V62h-4v53l20,13V62H61V115z"/>
</svg>
