<?xml version="1.0" encoding="utf-8"?>
<!-- Generator: Adobe Illustrator 18.1.1, SVG Export Plug-In . SVG Version: 6.00 Build 0)  -->
<svg version="1.1" id="Layer_1" xmlns="http://www.w3.org/2000/svg" xmlns:xlink="http://www.w3.org/1999/xlink" x="0px" y="0px"
	 viewBox="0 0 32 32" enable-background="new 0 0 32 32" xml:space="preserve">
<path d="M1,13h12v19H3c-1.1,0-2-0.9-2-2V13z M32,9v3H19V7h-6v5H0V9c0-1.1,0.9-2,2-2h5.5C5.6,7,4,5.4,4,3.5C4,1.6,5.6,0,7.5,0
	C10,0,11.6,2.9,13,5V3.5C13,3.2,13.2,3,13.5,3h5C18.8,3,19,3.2,19,3.5V5c1.4-2.1,3-5,5.5-5C26.4,0,28,1.6,28,3.5
	C28,5.4,26.4,7,24.5,7H30C31.1,7,32,7.9,32,9z M7.5,5.4h3.8c-0.1-0.1-0.2-0.3-0.3-0.4c-1-1.6-2.2-3.4-3.6-3.4c-1,0-1.9,0.9-1.9,1.9
	S6.5,5.4,7.5,5.4z M20.7,5.4h3.8c1,0,1.9-0.9,1.9-1.9s-0.9-1.9-1.9-1.9c-1.3,0-2.5,1.8-3.6,3.4C20.8,5.1,20.8,5.3,20.7,5.4z M19,32
	h10c1.1,0,2-0.9,2-2V13H19V32z"/>
</svg>
