<?xml version="1.0" encoding="utf-8"?>
<!-- Generator: Adobe Illustrator 18.1.1, SVG Export Plug-In . SVG Version: 6.00 Build 0)  -->
<svg version="1.1" id="Layer_1" xmlns="http://www.w3.org/2000/svg" xmlns:xlink="http://www.w3.org/1999/xlink" x="0px" y="0px"
	 viewBox="0 0 128 128" enable-background="new 0 0 128 128" xml:space="preserve">
<path d="M77,98.2l43-43v18.6l-43,43V98.2z M51,64.2l-43,43V124c0,0.5,0.1,1,0.3,1.5L51,82.8V64.2z M108.2,29h-1.4l15.9,15.9
	c-0.3,0.6-1,1.1-1.8,1.1h-5h-10.8h-1.4H85.2h-1.4H77h-2h-2H55h-2h-2h-5.8h-1.4H25.2h-1.4H12H7c-1.1,0-2-0.9-2-2V32
	c0-1.3,0.6-2.5,1.6-3.2L22.8,45h1.4L7.5,28.3C8,28.1,8.5,28,9,28h3h11.2c-5.4-2.1-9.2-7.4-9.2-13.5C14,6.5,20.5,0,28.5,0
	c9.9,0,12.8,7.1,15.1,12.8c1.7,4.2,2.9,6.7,5.4,6.7V19c0-1.1,0.9-2,2-2h26c1.1,0,2,0.9,2,2v0.5c2.5,0,3.7-2.5,5.4-6.7
	C86.7,7.1,89.6,0,99.5,0c8,0,14.5,6.5,14.5,14.5c0,6.1-3.8,11.4-9.2,13.5h1.1h1.4h8.8h3c2.2,0,4,1.8,4,4v11.8L108.2,29z M73,27v-8
	H55v8H73z M79,21.5V23c5.3,0,7.3-4.4,9.4-9.1C90.6,9,92.9,4,99,4c5.8,0,10.5,4.7,10.5,10.5S104.8,25,99,25H79v2h20.5
	c6.9,0,12.5-5.6,12.5-12.5S106.4,2,99.5,2c-8.5,0-11,6.1-13.3,11.6C84.6,17.6,83,21.5,79,21.5z M99,23c4.7,0,8.5-3.8,8.5-8.5
	S103.7,6,99,6c-4.8,0-6.6,4-8.8,8.7c-1.4,3-2.8,6.3-5.4,8.3H99z M77,19h-2v8h2V19z M51,27h2v-8h-2V27z M28.5,27H49v-2H29
	c-5.8,0-10.5-4.7-10.5-10.5S23.2,4,29,4c6.1,0,8.4,5,10.6,9.9c2.1,4.7,4.1,9.1,9.4,9.1v-1.5c-4,0-5.6-3.9-7.2-7.9
	C39.5,8.1,37,2,28.5,2C21.6,2,16,7.6,16,14.5S21.6,27,28.5,27z M37.7,14.7C35.6,10,33.8,6,29,6c-4.7,0-8.5,3.8-8.5,8.5
	S24.3,23,29,23h14.1C40.6,21,39.1,17.7,37.7,14.7z M44.2,45l-16-16h-1.4l16,16H44.2z M53,45V29h-2v2.8L48.2,29h-1.4l4.2,4.2V45H53z
	 M73,45V29H55v16H73z M84.2,45L77,37.8V29h-2v16h2v-5.8l5.8,5.8H84.2z M104.2,45l-16-16h-1.4l16,16H104.2z M116,48h4v5.8l-43,43
	V78.2L106.2,49h-1.4L77,76.8V58.2l9.2-9.2h-1.4L77,56.8V49h-2v78h2v-8.8l43-43v18.6L86.8,127h1.4L120,95.2v18.6L106.8,127h1.4
	l11.8-11.8v8.8c0,2.2-1.8,4-4,4h-8.8h-1.4H87.2h-1.4H77h-2h-2H55h-2h-2h-3.8h-1.4H27.2h-1.4H12c-1.3,0-2.5-0.6-3.2-1.6L51,84.2v18.6
	L26.8,127h1.4L51,104.2v18.6l-4.2,4.2h1.4l2.8-2.8v2.8h2V49h-2v13.8l-43,43V87.2L46.2,49h-1.4L8,85.8V66.2L25.2,49h-1.4L8,64.8V48h4
	h12.8h1.4h19.6h1.4H51h2h2h18h2h2h8.8h1.4h18.6h1.4H116z M73,49H55v78h18V49z"/>
</svg>
