<?xml version="1.0" encoding="utf-8"?>
<!-- Generator: Adobe Illustrator 18.1.1, SVG Export Plug-In . SVG Version: 6.00 Build 0)  -->
<svg version="1.1" id="Layer_1" xmlns="http://www.w3.org/2000/svg" xmlns:xlink="http://www.w3.org/1999/xlink" x="0px" y="0px"
	 viewBox="0 0 16 16" enable-background="new 0 0 16 16" xml:space="preserve">
<path d="M9,7h6v7c0,1.1-0.9,2-2,2H9V7z M16,5v1H9V4H7v2H0V5c0-0.6,0.4-1,1-1h3C2.9,4,2,3.1,2,2c0-1.1,0.9-2,2-2
	c1.3,0,1.9,1.5,2.5,2.7V2h3v0.7C10.1,1.5,10.7,0,12,0c1.1,0,2,0.9,2,2c0,1.1-0.9,2-2,2h3C15.6,4,16,4.4,16,5z M4,3h1.5
	c0-0.1-0.1-0.1-0.1-0.2C5,1.8,4.5,1,4,1C3.4,1,3,1.4,3,2S3.4,3,4,3z M10.5,3H12c0.6,0,1-0.4,1-1s-0.4-1-1-1c-0.5,0-1,0.8-1.5,1.8
	C10.5,2.9,10.5,2.9,10.5,3z M1,14c0,1.1,0.9,2,2,2h4V7H1V14z"/>
</svg>
