<?xml version="1.0" encoding="utf-8"?>
<!-- Generator: Adobe Illustrator 18.1.1, SVG Export Plug-In . SVG Version: 6.00 Build 0)  -->
<svg version="1.1" id="Layer_1" xmlns="http://www.w3.org/2000/svg" xmlns:xlink="http://www.w3.org/1999/xlink" x="0px" y="0px"
	 viewBox="0 0 32 32" enable-background="new 0 0 32 32" xml:space="preserve">
<path d="M7.2,12.3C7.2,12.3,7.2,12.3,7.2,12.3C5.5,7.7,7.2,3,12.9,3c1.5,0,3.1,0.7,3.5,1.8c3.4,0,3,4.8,2.4,7.5
	c0.1,0,0.9,0.1,0.6,1.4c-0.4,1.8-1.2,1.8-1.2,1.8c-0.4,2.2-1.9,3.6-1.9,3.6v1.7c0,0.4,0.2,0.8,0.4,1.1c0.1,0.1,0.2,0.2,0.3,0.2
	c-0.5,1.1-2.1,1.9-4,1.9c-1.8,0-3.4-0.8-3.9-1.9C9.2,22,9.3,22,9.3,21.9c0.3-0.3,0.4-0.7,0.4-1.1v-1.7c0,0-1.6-1.4-1.9-3.6
	c0,0-1,0.1-1.3-2.1C6.4,12.3,7.2,12.3,7.2,12.3z M17.8,22.6C17.1,24,15.2,25,13,25c-2.2,0-4.1-1-4.8-2.4C5.2,24,0,24.7,0,32h26
	C26,24.5,21.1,24.1,17.8,22.6z M21,20c-1.3,0-2.5-0.4-3.3-1c-0.2,0.2-0.3,0.4-0.4,0.5v1.3c0,0.1,0,0.3,0.1,0.4c0,0,0.1,0.1,0.1,0.1
	l0.3,0.2l0.5,0.2c0.5,0.2,1.1,0.5,1.7,0.7c1.9,0.7,4.1,1.6,5.5,3.7H32c0-6.3-3.9-6.8-6.7-8C24.5,19.2,22.9,20,21,20z M17.1,3.9
	C18,4,18.7,4.4,19.3,5.1c1.3,1.8,1.1,4.8,0.7,6.7c0,0,0.1,0.1,0.1,0.1c0.4,0.5,0.5,1.1,0.3,2c-0.3,1.3-0.9,2-1.3,2.3
	c-0.2,0.8-0.5,1.5-0.8,2c0.7,0.5,1.7,0.8,2.8,0.8c1.5,0,2.8-0.6,3.4-1.5c-0.1-0.1-0.3-0.2-0.3-0.3c-0.2-0.3-0.4-0.6-0.4-0.9v-1.4
	c0,0,1.3-1.2,1.6-3.1c0,0,0.7-0.1,1.1-1.6C26.7,9.1,26,9,25.9,9c0.5-2.3,0.9-6.4-2-6.4c-0.4-1-1.7-1.6-3-1.6c-2.2,0-3.7,0.8-4.5,2.1
	C16.7,3.3,16.9,3.6,17.1,3.9z"/>
</svg>
