<?xml version="1.0" encoding="utf-8"?>
<!-- Generator: Adobe Illustrator 18.1.1, SVG Export Plug-In . SVG Version: 6.00 Build 0)  -->
<svg version="1.1" id="Layer_1" xmlns="http://www.w3.org/2000/svg" xmlns:xlink="http://www.w3.org/1999/xlink" x="0px" y="0px"
	 viewBox="0 0 16 16" enable-background="new 0 0 16 16" xml:space="preserve">
<path d="M12,16H0c0-3.6,1.9-4.2,3.3-4.9c0.4,0.8,1.4,1.4,2.7,1.4c1.3,0,2.3-0.6,2.7-1.4C10.2,11.8,12,12.3,12,16z M3,7
	c0.1,1,0.6,1,0.6,1c0.1,0.7,0.4,1.2,0.7,1.5v0.6c0,0.2-0.1,0.4-0.2,0.5c0.1,0.5,1,0.9,1.9,0.9c1,0,1.8-0.4,1.9-1
	c-0.1-0.1-0.2-0.3-0.2-0.5V9.5C7.9,9.2,8.3,8.7,8.4,8c0,0,0.4,0,0.6-0.9c0.1-0.6-0.2-0.7-0.3-0.7C9,5.2,9.2,2.9,7.6,2.9
	C7.4,2.3,6.7,2,6,2C3.3,2,2.5,4.3,3.3,6.5c0,0,0,0,0,0C3.3,6.5,2.9,6.5,3,7z M9.3,2.7C10,3.6,9.9,5.1,9.8,6.1
	c0.2,0.3,0.3,0.7,0.1,1.2C9.8,8,9.5,8.4,9.3,8.6c0,0,0,0,0,0c0.3,0.2,0.8,0.3,1.2,0.3c0.9,0,1.7-0.4,1.8-0.9
	c-0.1-0.1-0.2-0.3-0.2-0.5V7c0.2-0.3,0.5-0.8,0.6-1.4c0,0,0.3,0,0.5-0.8C13.3,4.2,13,4.2,13,4.2c0.3-1.2,0.4-3.4-1-3.4
	C11.8,0.3,11.1,0,10.5,0C9.1,0,8.3,0.7,7.9,1.7C8,1.8,8.1,1.9,8.2,2C8.6,2.1,9,2.3,9.3,2.7z M13,8.4c-0.3,0.8-1.3,1.3-2.5,1.3
	C9.9,9.8,9.4,9.6,9,9.4C8.9,9.6,8.8,9.7,8.7,9.8V10l0.7,0.3c1,0.5,2.3,1,3,2.7H16C16,9.6,14.3,9.1,13,8.4z"/>
</svg>
