<?xml version="1.0" encoding="utf-8"?>
<!-- Generator: Adobe Illustrator 18.1.1, SVG Export Plug-In . SVG Version: 6.00 Build 0)  -->
<svg version="1.1" id="Layer_1" xmlns="http://www.w3.org/2000/svg" xmlns:xlink="http://www.w3.org/1999/xlink" x="0px" y="0px"
	 viewBox="0 0 128 128" enable-background="new 0 0 128 128" xml:space="preserve">
<path d="M99.7,70.6c11,5.4,28.3,6.5,28.3,32.2H99.5c-5.3-9.5-14.4-13-22.3-16c-7.9-3-11.7-4.7-11.7-8.2v-5.9
	c0.2-0.3,0.5-0.7,0.9-1.1c0.7-0.3,1.3-0.6,1.9-0.9c1.5,4.4,7.9,7.6,15.7,7.6C91.9,78.3,98.3,75.1,99.7,70.6z M73.2,17.6
	c5,6.3,3.4,18.6,1.8,26.3c0.4,0.3,0.8,0.6,1.1,1c1.1,1.4,1.4,3.5,0.8,6.1c-1,4.2-2.6,6.4-3.9,7.5c0.2,0.2,0.3,0.4,0.3,0.4v5.9
	c0,1.9-1,3.7-2.6,4.8c-0.2,0.1-0.3,0.2-0.5,0.3c0.9,3.7,6.8,6.6,13.9,6.6c7.1,0,12.9-2.8,13.9-6.5c0-0.1,0-0.1,0-0.2
	c-0.2-0.1-0.3-0.2-0.5-0.3c-1.6-1-2.6-2.8-2.6-4.7v-5.7c0,0,4.4-4.8,5.6-12.4c0,0,2.7-0.2,4.1-6.2c1.1-4.6-1.9-4.6-1.9-4.6
	c0-0.1,0-0.2,0-0.2c2.2-9.3,4-25.3-7.1-25.3C94.1,6.3,88.9,4,83.8,4c-9.2,0-15.3,3.6-18.5,9c0.1,0.2,0.3,0.4,0.4,0.7
	C68.8,14,71.3,15.3,73.2,17.6z M26.9,49.6c1.1,8.4,5,8.1,5,8.1c1.4,8.9,6.5,14.3,6.5,14.3v6.9c0,2.2-1.1,4.3-3,5.5
	c-0.2,0.1-0.4,0.2-0.6,0.3c0.3,4.3,7.5,7.9,16.1,7.9c8.7,0,16-3.7,16.1-8.1c-0.2-0.1-0.4-0.2-0.6-0.4c-1.9-1.2-3-3.3-3-5.5V72
	c0,0,5.1-5.5,6.5-14.3c0,0,3.1-0.3,4.8-7.2c1.3-5.3-2.2-5.3-2.2-5.3c0-0.1,0-0.2,0-0.3c2.5-10.7,4.7-29.3-8.2-29.3
	c-1.8-4.5-7.7-7.2-13.7-7.2c-22.5,0-29,18.3-21.9,36.8C28,45.5,26.5,46.3,26.9,49.6z M68.8,85.4c-0.9,5.1-8.4,9-17.8,9
	c-9.3,0-16.7-3.8-17.8-8.8C21.6,91.4,0,93.6,0,123h102C102,92.9,81.5,91.9,68.8,85.4z"/>
</svg>
