<?xml version="1.0" encoding="utf-8"?>
<!-- Generator: Adobe Illustrator 18.1.1, SVG Export Plug-In . SVG Version: 6.00 Build 0)  -->
<svg version="1.1" id="Layer_1" xmlns="http://www.w3.org/2000/svg" xmlns:xlink="http://www.w3.org/1999/xlink" x="0px" y="0px"
	 viewBox="0 0 128 128" enable-background="new 0 0 128 128" xml:space="preserve">
<path d="M104,0H24c-2.8,0-5,2.2-5,5v118c0,2.8,2.2,5,5,5h80c2.8,0,5-2.2,5-5V5C109,2.2,106.8,0,104,0z M64,5c0.6,0,1,0.4,1,1
	c0,0.6-0.4,1-1,1s-1-0.4-1-1C63,5.4,63.4,5,64,5z M64,125.5c-2.8,0-5-2.2-5-5s2.2-5,5-5c2.8,0,5,2.2,5,5S66.8,125.5,64,125.5z
	 M64,124.5c-2.2,0-4-1.8-4-4s1.8-4,4-4c2.2,0,4,1.8,4,4S66.2,124.5,64,124.5z M103,112c0,0.6-0.4,1-1,1H26c-0.6,0-1-0.4-1-1V12
	c0-0.6,0.4-1,1-1h76c0.6,0,1,0.4,1,1V112z"/>
</svg>
