<?xml version="1.0" encoding="utf-8"?>
<!-- Generator: Adobe Illustrator 18.1.1, SVG Export Plug-In . SVG Version: 6.00 Build 0)  -->
<svg version="1.1" id="Layer_1" xmlns="http://www.w3.org/2000/svg" xmlns:xlink="http://www.w3.org/1999/xlink" x="0px" y="0px"
	 viewBox="0 0 32 32" enable-background="new 0 0 32 32" xml:space="preserve">
<path d="M25,0H7C5.3,0,4,1.3,4,3v26c0,1.7,1.3,3,3,3h18c1.7,0,3-1.3,3-3V3C28,1.3,26.7,0,25,0z M16,1c0.3,0,0.5,0.2,0.5,0.5
	C16.5,1.8,16.3,2,16,2s-0.5-0.2-0.5-0.5C15.5,1.2,15.7,1,16,1z M16,31c-0.8,0-1.5-0.7-1.5-1.5S15.2,28,16,28s1.5,0.7,1.5,1.5
	S16.8,31,16,31z M26,27H6V3h20V27z"/>
</svg>
