<?xml version="1.0" encoding="utf-8"?>
<!-- Generator: Adobe Illustrator 18.1.1, SVG Export Plug-In . SVG Version: 6.00 Build 0)  -->
<svg version="1.1" id="Layer_1" xmlns="http://www.w3.org/2000/svg" xmlns:xlink="http://www.w3.org/1999/xlink" x="0px" y="0px"
	 viewBox="0 0 32 32" enable-background="new 0 0 32 32" xml:space="preserve">
<path d="M21,0H11C9.3,0,8,1.3,8,3v26c0,1.7,1.3,3,3,3h10c1.7,0,3-1.3,3-3V3C24,1.3,22.7,0,21,0z M14,2h4v1h-4V2z M16,31
	c-0.8,0-1.5-0.7-1.5-1.5S15.2,28,16,28s1.5,0.7,1.5,1.5S16.8,31,16,31z M22,27H10V4h12V27z"/>
</svg>
