<?xml version="1.0" encoding="utf-8"?>
<!-- Generator: Adobe Illustrator 18.1.1, SVG Export Plug-In . SVG Version: 6.00 Build 0)  -->
<svg version="1.1" id="Layer_1" xmlns="http://www.w3.org/2000/svg" xmlns:xlink="http://www.w3.org/1999/xlink" x="0px" y="0px"
	 viewBox="0 0 128 128" enable-background="new 0 0 128 128" xml:space="preserve">
<path d="M96.5,24H96V8c0-4.4-3.6-8-8-8H40c-4.4,0-8,3.6-8,8v17h-0.5c-0.3,0-0.5,0.2-0.5,0.5v6.9c0,0.3,0.2,0.5,0.5,0.5H32v2h-0.5
	c-0.3,0-0.5,0.2-0.5,0.5v6.9c0,0.3,0.2,0.5,0.5,0.5H32v77c0,4.4,3.6,8,8,8h48c4.4,0,8-3.6,8-8V32h0.5c0.3,0,0.5-0.2,0.5-0.5v-6.9
	C97,24.2,96.8,24,96.5,24z M64,3c0.6,0,1,0.4,1,1c0,0.6-0.4,1-1,1s-1-0.4-1-1C63,3.4,63.4,3,64,3z M60,7h8c0.6,0,1,0.4,1,1
	c0,0.6-0.4,1-1,1h-8c-0.6,0-1-0.4-1-1C59,7.4,59.4,7,60,7z M55,7c0.6,0,1,0.4,1,1c0,0.6-0.4,1-1,1s-1-0.4-1-1C54,7.4,54.4,7,55,7z
	 M64,125c-2.8,0-5-2.2-5-5s2.2-5,5-5s5,2.2,5,5S66.8,125,64,125z M92,112.6c0,0.2-0.2,0.4-0.4,0.4H36.4c-0.2,0-0.4-0.2-0.4-0.4V15.4
	c0-0.2,0.2-0.4,0.4-0.4h55.1c0.2,0,0.4,0.2,0.4,0.4V112.6z M68,120c0,2.2-1.8,4-4,4s-4-1.8-4-4c0-2.2,1.8-4,4-4S68,117.8,68,120z"/>
</svg>
