<?xml version="1.0" encoding="utf-8"?>
<!-- Generator: Adobe Illustrator 18.1.1, SVG Export Plug-In . SVG Version: 6.00 Build 0)  -->
<svg version="1.1" id="Layer_1" xmlns="http://www.w3.org/2000/svg" xmlns:xlink="http://www.w3.org/1999/xlink" x="0px" y="0px"
	 viewBox="0 0 16 16" enable-background="new 0 0 16 16" xml:space="preserve">
<path d="M11,0C8.2,0,6,2.2,6,5c0,0.4,0,0.7,0.1,1.1l-1,1C5,7.2,5,7.5,5.1,7.7L5.4,8L0,13.4v2L0.7,16h1.9L8,10.6l0.2,0.2
	C8.5,11,8.8,11,9,10.9l1-1C10.3,10,10.6,10,11,10c2.8,0,5-2.2,5-5S13.8,0,11,0z M12.5,5C11.7,5,11,4.3,11,3.5S11.7,2,12.5,2
	S14,2.7,14,3.5S13.3,5,12.5,5z"/>
</svg>
