<?xml version="1.0" encoding="utf-8"?>
<!-- Generator: Adobe Illustrator 18.1.1, SVG Export Plug-In . SVG Version: 6.00 Build 0)  -->
<svg version="1.1" id="Layer_1" xmlns="http://www.w3.org/2000/svg" xmlns:xlink="http://www.w3.org/1999/xlink" x="0px" y="0px"
	 viewBox="0 0 32 32" enable-background="new 0 0 32 32" xml:space="preserve">
<path d="M21,0c-6.1,0-11,4.9-11,11c0,1,0.1,2,0.4,2.9L9.3,15c-0.4,0.4-0.4,1,0,1.4L9.8,17L0,26.7v3.9l0.6,0.6l11.7-11.7l1,1L1.7,32
	h3.6L7,30.3V28h2.3l1.7-1.7V24h2.3l1.8-1.8l0.5,0.5c0.4,0.4,1,0.4,1.4,0l1.1-1.1C19,21.9,20,22,21,22c6.1,0,11-4.9,11-11
	S27.1,0,21,0z M25,10c-1.7,0-3-1.3-3-3s1.3-3,3-3s3,1.3,3,3S26.7,10,25,10z"/>
</svg>
