<?xml version="1.0" encoding="utf-8"?>
<!-- Generator: Adobe Illustrator 18.1.1, SVG Export Plug-In . SVG Version: 6.00 Build 0)  -->
<svg version="1.1" id="Layer_1" xmlns="http://www.w3.org/2000/svg" xmlns:xlink="http://www.w3.org/1999/xlink" x="0px" y="0px"
	 viewBox="0 0 32 32" enable-background="new 0 0 32 32" xml:space="preserve">
<path d="M29.7,19c0.2-0.3,0.3-0.6,0.3-1V4c0-1.1-0.9-2-2-2H4C2.9,2,2,2.9,2,4v14c0,0.4,0.1,0.7,0.3,1h0L0,26v1.4
	C0,27.7,0.3,28,0.6,28h30.7c0.4,0,0.6-0.3,0.6-0.6V26L29.7,19z M12.5,20l-0.1,1h-2.1l0.2-1H12.5z M13.5,20h2v1h-2.1L13.5,20z
	 M16.5,20h2l0.1,1h-2.1V20z M19.5,20h2l0.2,1h-2.1L19.5,20z M4.5,20h2l-0.3,1h-2L4.5,20z M7.5,20h2l-0.2,1H7.3L7.5,20z M9.2,22L9,23
	H6.8L7,22H9.2z M10.2,22h2.2l-0.1,1H10L10.2,22z M13.3,22h2.2v1h-2.2L13.3,22z M16.5,22h2.2l0.1,1h-2.2V22z M19.7,22h2.2l0.2,1h-2.2
	L19.7,22z M22.8,22H25l0.3,1H23L22.8,22z M22.7,21l-0.2-1h2l0.3,1H22.7z M25.5,20h1.9l0.4,1h-2L25.5,20z M4,4h24l0,14H4V4z
	 M3.7,22.4L3.9,22H6l-0.3,1H3.6L3.7,22.4z M13.5,26l0.1-2h4.7l0.1,2H13.5z M26.3,23L26,22h2l0.4,1H26.3z"/>
</svg>
