<?xml version="1.0" encoding="utf-8"?>
<!-- Generator: Adobe Illustrator 18.1.1, SVG Export Plug-In . SVG Version: 6.00 Build 0)  -->
<svg version="1.1" id="Layer_1" xmlns="http://www.w3.org/2000/svg" xmlns:xlink="http://www.w3.org/1999/xlink" x="0px" y="0px"
	 viewBox="0 0 16 16" enable-background="new 0 0 16 16" xml:space="preserve">
<path d="M14.8,9.5L14.8,9.5C14.9,9.4,15,9.2,15,9V2c0-0.6-0.4-1-1-1H2C1.4,1,1,1.4,1,2v7c0,0.2,0.1,0.4,0.2,0.5h0L0,14v0.7
	C0,14.9,0.1,15,0.3,15h15.4c0.2,0,0.3-0.1,0.3-0.3V14L14.8,9.5z M2,9V2h12v7h0H2z M6.7,14l0.2-1h2.4l0.1,1H6.7z"/>
</svg>
