<?xml version="1.0" encoding="utf-8"?>
<!-- Generator: Adobe Illustrator 18.1.1, SVG Export Plug-In . SVG Version: 6.00 Build 0)  -->
<svg version="1.1" id="Layer_1" xmlns="http://www.w3.org/2000/svg" xmlns:xlink="http://www.w3.org/1999/xlink" x="0px" y="0px"
	 viewBox="0 0 128 128" enable-background="new 0 0 128 128" xml:space="preserve">
<path d="M128,124v4H0v-4h4v-4h4v-4h112v4h4v4H128z M61,48v64h2v3H47v-3h2V48c-1.1,0-2-0.9-2-2c0-1.1,0.9-2,2-2h12c1.1,0,2,0.9,2,2
	C63,47.1,62.1,48,61,48z M53,112V48h-1v64H53z M58,112V48h-1v64H58z M79,48v64h2v3H65v-3h2V48c-1.1,0-2-0.9-2-2c0-1.1,0.9-2,2-2h12
	c1.1,0,2,0.9,2,2C81,47.1,80.1,48,79,48z M71,112V48h-1v64H71z M76,112V48h-1v64H76z M97,48v64h2v3H83v-3h2V48c-1.1,0-2-0.9-2-2
	c0-1.1,0.9-2,2-2h12c1.1,0,2,0.9,2,2C99,47.1,98.1,48,97,48z M89,112V48h-1v64H89z M94,112V48h-1v64H94z M115,48v64h2v3h-16v-3h2V48
	c-1.1,0-2-0.9-2-2c0-1.1,0.9-2,2-2h12c1.1,0,2,0.9,2,2C117,47.1,116.1,48,115,48z M107,112V48h-1v64H107z M112,112V48h-1v64H112z
	 M25,48v64h2v3H11v-3h2V48c-1.1,0-2-0.9-2-2c0-1.1,0.9-2,2-2h12c1.1,0,2,0.9,2,2C27,47.1,26.1,48,25,48z M17,112V48h-1v64H17z
	 M22,112V48h-1v64H22z M43,48v64h2v3H29v-3h2V48c-1.1,0-2-0.9-2-2c0-1.1,0.9-2,2-2h12c1.1,0,2,0.9,2,2C45,47.1,44.1,48,43,48z
	 M35,112V48h-1v64H35z M40,112V48h-1v64H40z M123,43H5v-7.2L64,0.7l59,35.2V43z M119,38.1L64,5.3L9,38.1V39h110V38.1z M64,7l52,31
	H12L64,7z M64,17c-3.9,0-7,3.1-7,7s3.1,7,7,7s7-3.1,7-7S67.9,17,64,17z M64,18c3.3,0,6,2.7,6,6s-2.7,6-6,6s-6-2.7-6-6S60.7,18,64,18
	z M64,20c-2.2,0-4,1.8-4,4s1.8,4,4,4c2.2,0,4-1.8,4-4S66.2,20,64,20z"/>
</svg>
