<?xml version="1.0" encoding="utf-8"?>
<!-- Generator: Adobe Illustrator 18.1.1, SVG Export Plug-In . SVG Version: 6.00 Build 0)  -->
<svg version="1.1" id="Layer_1" xmlns="http://www.w3.org/2000/svg" xmlns:xlink="http://www.w3.org/1999/xlink" x="0px" y="0px"
	 viewBox="0 0 32 32" enable-background="new 0 0 32 32" xml:space="preserve">
<path d="M32,30v2H0v-2H32z M31,9H1V7l15-7l15,7V9z M18,5c0-1.1-0.9-2-2-2s-2,0.9-2,2c0,1.1,0.9,2,2,2S18,6.1,18,5z M15,29V10h-3v19
	H15z M20,29V10h-3v19H20z M25,29V10h-3v19H25z M30,29V10h-3v19H30z M10,29V10H7v19H10z M5,29V10H2v19H5z"/>
</svg>
