<?xml version="1.0" encoding="utf-8"?>
<!-- Generator: Adobe Illustrator 18.1.1, SVG Export Plug-In . SVG Version: 6.00 Build 0)  -->
<svg version="1.1" id="Layer_1" xmlns="http://www.w3.org/2000/svg" xmlns:xlink="http://www.w3.org/1999/xlink" x="0px" y="0px"
	 viewBox="0 0 32 32" enable-background="new 0 0 32 32" xml:space="preserve">
<path d="M29,4H3C1.3,4,0,5.3,0,7v18c0,1.7,1.3,3,3,3h26c1.7,0,3-1.3,3-3V7C32,5.3,30.7,4,29,4z M30,22.7l-7.9-6.3L30,9.1V22.7z M3,6
	h26c0.6,0,1,0.4,1,1v1l-12.5,9.8c-0.9,0.7-2.2,0.7-3.1,0L2,8V7C2,6.4,2.4,6,3,6z M9.9,16.4L2,22.7V9.1L9.9,16.4z M29,26H3
	c-0.6,0-1-0.4-1-1v-1.1l8.7-6.9l3.1,2.9c0.6,0.5,1.4,0.8,2.2,0.8s1.5-0.3,2.2-0.8l3.1-2.9l8.7,6.9V25C30,25.6,29.6,26,29,26z"/>
</svg>
