<?xml version="1.0" encoding="utf-8"?>
<!-- Generator: Adobe Illustrator 18.1.1, SVG Export Plug-In . SVG Version: 6.00 Build 0)  -->
<svg version="1.1" id="Layer_1" xmlns="http://www.w3.org/2000/svg" xmlns:xlink="http://www.w3.org/1999/xlink" x="0px" y="0px"
	 viewBox="0 0 16 16" enable-background="new 0 0 16 16" xml:space="preserve">
<path d="M16,3.5C16,2.7,15.3,2,14.5,2h-13C0.7,2,0,2.7,0,3.5v9C0,13.3,0.7,14,1.5,14h13c0.8,0,1.5-0.7,1.5-1.5V3.5z M15,11l-3.7-2.9
	L15,5.2V11z M1.5,3h13C14.8,3,15,3.2,15,3.5v0.4L8.9,8.7c-0.5,0.4-1.3,0.4-1.9,0L1,3.9V3.5C1,3.2,1.2,3,1.5,3z M1,5.2l3.7,2.9L1,11
	V5.2z M14.5,13h-13C1.2,13,1,12.8,1,12.5v-0.2l4.5-3.6l0.9,0.7C6.9,9.8,7.5,10,8,10c0.5,0,1.1-0.2,1.5-0.5l0.9-0.7l4.5,3.6v0.2
	C15,12.8,14.8,13,14.5,13z"/>
</svg>
