<?xml version="1.0" encoding="utf-8"?>
<!-- Generator: Adobe Illustrator 18.1.1, SVG Export Plug-In . SVG Version: 6.00 Build 0)  -->
<svg version="1.1" id="Layer_1" xmlns="http://www.w3.org/2000/svg" xmlns:xlink="http://www.w3.org/1999/xlink" x="0px" y="0px"
	 viewBox="0 0 128 128" enable-background="new 0 0 128 128" xml:space="preserve">
<path d="M120,18H8c-4.4,0-8,3.6-8,8v76c0,4.4,3.6,8,8,8h112c4.4,0,8-3.6,8-8V26C128,21.6,124.4,18,120,18z M124,95.1l-36.7-29
	L124,35.2V95.1z M8,22h112c2.2,0,4,1.8,4,4v6.7L70.2,75.2c-3.6,2.9-8.7,2.9-12.4,0L4,32.7V26C4,23.8,5.8,22,8,22z M40.7,66.1L4,95.1
	V35.2L40.7,66.1z M120,106H8c-2.2,0-4-1.8-4-4v-4.4l38.3-30.2l13,11c2.6,2,5.6,3,8.7,3s6.1-1,8.7-3l13-11L124,97.6v4.4
	C124,104.2,122.2,106,120,106z"/>
</svg>
