<?xml version="1.0" encoding="utf-8"?>
<!-- Generator: Adobe Illustrator 18.1.1, SVG Export Plug-In . SVG Version: 6.00 Build 0)  -->
<svg version="1.1" id="Layer_1" xmlns="http://www.w3.org/2000/svg" xmlns:xlink="http://www.w3.org/1999/xlink" x="0px" y="0px"
	 viewBox="0 0 16 16" enable-background="new 0 0 16 16" xml:space="preserve">
<path d="M0,0v16h16V0H0z M1,1h7v3H1V1z M15,15h-3V8h3V15z M15,7h-4v8H9V8V7.5V7H7.4c0.2,0.3,0.3,0.6,0.3,1H8v7H1V8h0.3
	c0.1-0.4,0.2-0.7,0.3-1H1V5h8V1h2v4h4V7z M15,4h-3V1h3V4z M4.5,6C3.1,6,2,7.1,2,8.5c0,2.2,2.5,4.7,2.5,4.7S7,10.7,7,8.5
	C7,7.1,5.9,6,4.5,6z M4.5,9.5c-0.6,0-1-0.4-1-1c0-0.6,0.4-1,1-1s1,0.4,1,1C5.5,9.1,5.1,9.5,4.5,9.5z"/>
</svg>
