<?xml version="1.0" encoding="utf-8"?>
<!-- Generator: Adobe Illustrator 18.1.1, SVG Export Plug-In . SVG Version: 6.00 Build 0)  -->
<svg version="1.1" id="Layer_1" xmlns="http://www.w3.org/2000/svg" xmlns:xlink="http://www.w3.org/1999/xlink" x="0px" y="0px"
	 viewBox="0 0 32 32" enable-background="new 0 0 32 32" xml:space="preserve">
<path d="M0,0v32h32V0H0z M21,23h-5c-4.2,0-7.6,3-8.4,7h-2c0.7-5.1,5.1-9,10.4-9h5V23z M8.7,30c0.7-3.4,3.7-6,7.3-6h5v6H8.7z M30,30
	h-2v-6h2V30z M30,23h-2V21h2V23z M30,20h-2v-6h2V20z M30,12h-4v18h-3V14v-1v-1h-8.7c-0.3,0.7-0.7,1.4-1.1,2H21v6h-5
	c-5.8,0-10.7,4.4-11.4,10H2V14h4.8c-0.4-0.6-0.8-1.3-1.1-2H2V9h3c0-0.7,0.2-1.4,0.4-2H2V2h19v5h-6.4C14.8,7.6,15,8.3,15,9h8V8V7V2h3
	v7h4V12z M28,7V2h2v5H28z M10,5C7.8,5,6,6.8,6,9c0,3.5,4,7.5,4,7.5s4-4,4-7.5C14,6.8,12.2,5,10,5z M10,10.5c-0.8,0-1.5-0.7-1.5-1.5
	S9.2,7.5,10,7.5s1.5,0.7,1.5,1.5S10.8,10.5,10,10.5z"/>
</svg>
