<?xml version="1.0" encoding="utf-8"?>
<!-- Generator: Adobe Illustrator 18.1.1, SVG Export Plug-In . SVG Version: 6.00 Build 0)  -->
<svg version="1.1" id="Layer_1" xmlns="http://www.w3.org/2000/svg" xmlns:xlink="http://www.w3.org/1999/xlink" x="0px" y="0px"
	 viewBox="0 0 128 128" enable-background="new 0 0 128 128" xml:space="preserve">
<path d="M0,0v128h128V0H0z M126,126H2V2h124V126z M123,5H5v22v4v14v4v74h118V5z M121,27h-11V7h11V27z M7,49h16.6
	c-0.6-1.3-1.1-2.7-1.5-4H7V31h15.5c0.7-1.5,1.5-2.8,2.5-4H7V7h81v20H50.9c1,1.2,1.9,2.5,2.5,4H92v-2v-2V7h14v24h15v14h-15v76H92V49
	v-2v-2H53.9c-0.4,1.3-0.9,2.7-1.5,4H88v32H60v0c-22.3,0-40.5,17.9-41,40H7V49z M110,83h11v11h-11V83z M110,81V49h11v32H110z M88,94
	H60c-15.1,0-27.4,12-28,27h-11c0.5-21,17.8-38,38.9-38v0h28V94z M60,96h28v25H34C34.6,107.1,46,96,60,96z M110,121V96h11v25H110z
	 M54,38c0-8.8-7.2-16-16-16s-16,7.2-16,16c0,14,16,30,16,30S54,51.9,54,38z M33,38c0-2.8,2.2-5,5-5s5,2.2,5,5s-2.2,5-5,5
	S33,40.8,33,38z"/>
</svg>
