<?xml version="1.0" encoding="utf-8"?>
<!-- Generator: Adobe Illustrator 18.1.1, SVG Export Plug-In . SVG Version: 6.00 Build 0)  -->
<svg version="1.1" id="Layer_1" xmlns="http://www.w3.org/2000/svg" xmlns:xlink="http://www.w3.org/1999/xlink" x="0px" y="0px"
	 viewBox="0 0 128 128" enable-background="new 0 0 128 128" xml:space="preserve">
<path d="M89,128H39c0-3,8.6-5.5,20-6.1V118h10v3.9C80.4,122.5,89,125,89,128z M89,49v1.1c-1.4,1.4-4,4.6-4,10.9v11
	c0,11.6-9.4,21-21,21c-11.6,0-21-9.4-21-21V61c0-6.3-2.6-9.6-4-10.9V49c0-1.1-0.9-2-2-2h-3v10h3c0.5,0,1-0.2,1.3-0.5
	c0.4,1.2,0.7,2.7,0.7,4.5v11c0,12.8,9.6,23.3,22,24.8V117h6V96.8c12.4-1.5,22-12,22-24.8V61c0-1.9,0.3-3.4,0.6-4.5
	C90,56.8,90.5,57,91,57h3V47h-3C89.9,47,89,47.9,89,49z M99,49h-1v-1c0-0.6-0.4-1-1-1h-2v10h2c0.6,0,1-0.4,1-1v-1h1V49z M30,48v1h-1
	v6h1v1c0,0.6,0.4,1,1,1h2V47h-2C30.4,47,30,47.4,30,48z M83,48H45c0-12,0-25.6,0-29C45,8.5,53.5,0,64,0s19,8.5,19,19
	C83,22.4,83,36,83,48z M78.5,12.9c0.5,0.9,1.3,1.4,1.8,1.1c0.5-0.3,0.6-1.3,0.1-2.2c-0.5-0.9-1.3-1.4-1.8-1.1
	C78.1,11,78.1,12,78.5,12.9z M50,32c0,1.1,0.9,2,2,2s2-0.9,2-2c0-1.1-0.9-2-2-2S50,30.9,50,32z M52,26c1.1,0,2-0.9,2-2
	c0-1.1-0.9-2-2-2s-2,0.9-2,2C50,25.1,50.9,26,52,26z M54,36c0,1.1,0.9,2,2,2s2-0.9,2-2c0-1.1-0.9-2-2-2S54,34.9,54,36z M58,28
	c0-1.1-0.9-2-2-2s-2,0.9-2,2c0,1.1,0.9,2,2,2S58,29.1,58,28z M70,16c0-1.1-0.9-2-2-2s-2,0.9-2,2c0,1.1,0.9,2,2,2S70,17.1,70,16z
	 M70,20c0,1.1,0.9,2,2,2s2-0.9,2-2c0-1.1-0.9-2-2-2S70,18.9,70,20z M68,22c-1.1,0-2,0.9-2,2c0,1.1,0.9,2,2,2s2-0.9,2-2
	C70,22.9,69.1,22,68,22z M66,12c0-1.1-0.9-2-2-2s-2,0.9-2,2c0,1.1,0.9,2,2,2S66,13.1,66,12z M62,20c0,1.1,0.9,2,2,2s2-0.9,2-2
	c0-1.1-0.9-2-2-2S62,18.9,62,20z M62,16c0-1.1-0.9-2-2-2s-2,0.9-2,2c0,1.1,0.9,2,2,2S62,17.1,62,16z M58,24c0,1.1,0.9,2,2,2
	s2-0.9,2-2c0-1.1-0.9-2-2-2S58,22.9,58,24z M58,20c0-1.1-0.9-2-2-2s-2,0.9-2,2c0,1.1,0.9,2,2,2S58,21.1,58,20z M58,32
	c0,1.1,0.9,2,2,2s2-0.9,2-2c0-1.1-0.9-2-2-2S58,30.9,58,32z M62,36c0,1.1,0.9,2,2,2s2-0.9,2-2c0-1.1-0.9-2-2-2S62,34.9,62,36z
	 M66,28c0-1.1-0.9-2-2-2s-2,0.9-2,2c0,1.1,0.9,2,2,2S66,29.1,66,28z M66,32c0,1.1,0.9,2,2,2s2-0.9,2-2c0-1.1-0.9-2-2-2
	S66,30.9,66,32z M70,36c0,1.1,0.9,2,2,2s2-0.9,2-2c0-1.1-0.9-2-2-2S70,34.9,70,36z M74,28c0-1.1-0.9-2-2-2s-2,0.9-2,2
	c0,1.1,0.9,2,2,2S74,29.1,74,28z M74,32c0,1.1,0.9,2,2,2s2-0.9,2-2c0-1.1-0.9-2-2-2S74,30.9,74,32z M78,24c0-1.1-0.9-2-2-2
	s-2,0.9-2,2c0,1.1,0.9,2,2,2S78,25.1,78,24z M78,16c0-1.1-0.9-2-2-2s-2,0.9-2,2c0,1.1,0.9,2,2,2S78,17.1,78,16z M74.9,9
	c0.8,0.8,1.9,1,2.5,0.4C78,8.9,77.9,7.8,77.1,7c-0.8-0.8-1.9-1-2.5-0.4C74,7.1,74.1,8.2,74.9,9z M74,12c0-1.1-0.9-2-2-2s-2,0.9-2,2
	c0,1.1,0.9,2,2,2S74,13.1,74,12z M71.3,5.7c1,0.5,2.1,0.4,2.5-0.4c0.4-0.7-0.1-1.7-1.1-2.2s-2.1-0.4-2.5,0.4
	C69.8,4.2,70.3,5.2,71.3,5.7z M70,8c0-1.1-0.9-2-2-2s-2,0.9-2,2c0,1.1,0.9,2,2,2S70,9.1,70,8z M66,1.1c-0.1,0.4,0.7,1,1.8,1.2
	s2,0,2.1-0.4c0.1-0.4-0.7-1-1.8-1.2C67,0.4,66.1,0.6,66,1.1z M62,4c0,1.1,0.9,2,2,2s2-0.9,2-2c0-1.1-0.9-2-2-2S62,2.9,62,4z
	 M58.1,1.8c0.1,0.4,1,0.6,2.1,0.4s1.9-0.7,1.8-1.2s-1-0.6-2.1-0.4C58.8,0.9,58,1.4,58.1,1.8z M58,8c0,1.1,0.9,2,2,2s2-0.9,2-2
	c0-1.1-0.9-2-2-2S58,6.9,58,8z M54.2,5.4c0.4,0.7,1.5,0.9,2.5,0.4s1.5-1.5,1.1-2.2c-0.4-0.7-1.5-0.9-2.5-0.4S53.8,4.7,54.2,5.4z
	 M54,12c0,1.1,0.9,2,2,2s2-0.9,2-2c0-1.1-0.9-2-2-2S54,10.9,54,12z M50.6,9.5c0.6,0.6,1.7,0.4,2.5-0.4c0.8-0.8,0.9-1.9,0.3-2.5
	C52.8,6,51.6,6.2,50.9,7C50.1,7.8,50,8.9,50.6,9.5z M50,16c0,1.1,0.9,2,2,2s2-0.9,2-2c0-1.1-0.9-2-2-2S50,14.9,50,16z M47.6,14
	c0.5,0.3,1.4-0.2,1.8-1.1c0.5-0.9,0.5-1.9-0.1-2.2c-0.5-0.3-1.4,0.2-1.8,1.1C47,12.8,47.1,13.7,47.6,14z M47,20c0,1.1,0.7,2,1.5,2
	s1.5-0.9,1.5-2c0-1.1-0.7-2-1.5-2S47,18.9,47,20z M47,28c0,1.1,0.7,2,1.5,2s1.5-0.9,1.5-2c0-1.1-0.7-2-1.5-2S47,26.9,47,28z M47,36
	c0,1.1,0.7,2,1.5,2s1.5-0.9,1.5-2c0-1.1-0.7-2-1.5-2S47,34.9,47,36z M50,44c0-1.1-0.7-2-1.5-2S47,42.9,47,44c0,1.1,0.7,2,1.5,2
	S50,45.1,50,44z M54,40c0-1.1-0.9-2-2-2s-2,0.9-2,2c0,1.1,0.9,2,2,2S54,41.1,54,40z M58,44c0-1.1-0.9-2-2-2s-2,0.9-2,2
	c0,1.1,0.9,2,2,2S58,45.1,58,44z M62,40c0-1.1-0.9-2-2-2s-2,0.9-2,2c0,1.1,0.9,2,2,2S62,41.1,62,40z M66,44c0-1.1-0.9-2-2-2
	s-2,0.9-2,2c0,1.1,0.9,2,2,2S66,45.1,66,44z M70,40c0-1.1-0.9-2-2-2s-2,0.9-2,2c0,1.1,0.9,2,2,2S70,41.1,70,40z M74,44
	c0-1.1-0.9-2-2-2s-2,0.9-2,2c0,1.1,0.9,2,2,2S74,45.1,74,44z M78,40c0-1.1-0.9-2-2-2s-2,0.9-2,2c0,1.1,0.9,2,2,2S78,41.1,78,40z
	 M81,44c0-1.1-0.7-2-1.5-2S78,42.9,78,44c0,1.1,0.7,2,1.5,2S81,45.1,81,44z M81,36c0-1.1-0.7-2-1.5-2S78,34.9,78,36
	c0,1.1,0.7,2,1.5,2S81,37.1,81,36z M81,28c0-1.1-0.7-2-1.5-2S78,26.9,78,28c0,1.1,0.7,2,1.5,2S81,29.1,81,28z M81,20
	c0-1.1-0.7-2-1.5-2S78,18.9,78,20c0,1.1,0.7,2,1.5,2S81,21.1,81,20z M45,71c0-1.9,0-21,0-21h38c0,0,0,19.1,0,21c0,10.5-8.5,19-19,19
	S45,81.5,45,71z M59,59c0,2.8,2.2,5,5,5s5-2.2,5-5s-2.2-5-5-5S59,56.2,59,59z M61,59c0-1.7,1.3-3,3-3s3,1.3,3,3s-1.3,3-3,3
	S61,60.7,61,59z M63,59c0,0.6,0.4,1,1,1s1-0.4,1-1s-0.4-1-1-1S63,58.4,63,59z"/>
</svg>
