<?xml version="1.0" encoding="utf-8"?>
<!-- Generator: Adobe Illustrator 18.1.1, SVG Export Plug-In . SVG Version: 6.00 Build 0)  -->
<svg version="1.1" id="Layer_1" xmlns="http://www.w3.org/2000/svg" xmlns:xlink="http://www.w3.org/1999/xlink" x="0px" y="0px"
	 viewBox="0 0 32 32" enable-background="new 0 0 32 32" xml:space="preserve">
<path d="M32,1v2h-1v17h-2V3H3v17H1V3H0V1h15V0h2v1H32z M0,23h15v4h2v-4h15v-2H0V23z M24.2,30L18,23.9V26l5,5c0,0.5,0.5,1,1,1
	c0.6,0,1-0.4,1-1C25,30.5,24.6,30.1,24.2,30z M7,31c0,0.6,0.4,1,1,1c0.5,0,1-0.4,1-1l5-5v-2.2L7.8,30C7.4,30.1,7,30.5,7,31z M7,14
	c-0.6,0-1,0.4-1,1c0,0.6,0.4,1,1,1s1-0.4,1-1c0,0,0,0,0-0.1l2.9-2.9c0,0,0,0,0.1,0c0.2,0,0.3,0,0.5-0.1l3.6,1.4
	c0.1,0.4,0.5,0.7,0.9,0.7c0.6,0,1-0.4,1-1c0-0.1,0-0.2-0.1-0.3L20,8.1l4,5.6c0,0.1,0,0.1,0,0.2c0,0.6,0.4,1,1,1s1-0.4,1-1
	c0-0.5-0.4-0.9-0.9-1L21,7.2c0-0.1,0-0.1,0-0.2c0-0.6-0.4-1-1-1s-1,0.4-1,1c0,0.1,0,0.2,0.1,0.3L15.9,12c-0.1,0-0.2,0-0.3,0.1
	l-3.6-1.4C11.8,10.3,11.4,10,11,10c-0.6,0-1,0.4-1,1c0,0,0,0,0,0.1L7,14C7,14,7,14,7,14z"/>
</svg>
