<?xml version="1.0" encoding="utf-8"?>
<!-- Generator: Adobe Illustrator 18.1.1, SVG Export Plug-In . SVG Version: 6.00 Build 0)  -->
<svg version="1.1" id="Layer_1" xmlns="http://www.w3.org/2000/svg" xmlns:xlink="http://www.w3.org/1999/xlink" x="0px" y="0px"
	 viewBox="0 0 16 16" enable-background="new 0 0 16 16" xml:space="preserve">
<path d="M10,5.4L8.4,7.8C8.3,8,8,8.1,7.8,8L5.6,7.1L3.9,8.9C3.8,9,3.6,9,3.5,9S3.2,9,3.1,8.9C3,8.7,3,8.3,3.1,8.1l2-2
	C5.3,6,5.5,6,5.7,6l2.1,0.8l1.8-2.7C9.7,4.1,9.8,4,10,4c0,0,0,0,0,0c0.2,0,0.3,0.1,0.4,0.2l2.5,3.5c0.2,0.2,0.1,0.5-0.1,0.7
	c-0.2,0.2-0.5,0.1-0.7-0.1L10,5.4z M9,12v0.5l4.5,3.5h-2L9,14H7l-2.5,2h-2L7,12.5V12H0V1h7V0h2v1h7v11H9z M15,11V2H1v9H15z"/>
</svg>
