<?xml version="1.0" encoding="utf-8"?>
<!-- Generator: Adobe Illustrator 18.1.1, SVG Export Plug-In . SVG Version: 6.00 Build 0)  -->
<svg version="1.1" id="Layer_1" xmlns="http://www.w3.org/2000/svg" xmlns:xlink="http://www.w3.org/1999/xlink" x="0px" y="0px"
	 viewBox="0 0 16 16" enable-background="new 0 0 16 16" xml:space="preserve">
<path d="M15.9,4.2L15.9,4.2l-2.4-3C13.4,1.1,13.2,1,13.1,1H2.9C2.8,1,2.6,1.1,2.5,1.2l-2.4,3l0,0C0,4.3,0,4.4,0,4.5v11
	C0,15.8,0.2,16,0.5,16h15c0.3,0,0.5-0.2,0.5-0.5v-11C16,4.4,16,4.3,15.9,4.2z M12.8,2l1.6,2h-6V2H12.8z M3.2,2h4.3v2h-6L3.2,2z
	 M15,15H1V5h14V15z M6,7.5C6,7.2,6.2,7,6.5,7h3C9.8,7,10,7.2,10,7.5C10,7.8,9.8,8,9.5,8h-3C6.2,8,6,7.8,6,7.5z"/>
</svg>
