<?xml version="1.0" encoding="utf-8"?>
<!-- Generator: Adobe Illustrator 18.1.1, SVG Export Plug-In . SVG Version: 6.00 Build 0)  -->
<svg version="1.1" id="Layer_1" xmlns="http://www.w3.org/2000/svg" xmlns:xlink="http://www.w3.org/1999/xlink" x="0px" y="0px"
	 viewBox="0 0 128 128" enable-background="new 0 0 128 128" xml:space="preserve">
<path d="M127.5,29.7l-20-24C107.2,5.3,106.6,5,106,5H22c-0.6,0-1.2,0.3-1.5,0.7l-20,24c0,0-0.5,0.6-0.5,1.3s0,88,0,88
	c0,1.1,0.9,2,2,2h124c1.1,0,2-0.9,2-2c0,0,0-87.3,0-88C128,30.2,127.5,29.7,127.5,29.7z M121.7,29h-47L71.3,9h33.7L121.7,29z
	 M73,31.1v7.3l-0.6-0.3c-0.3-0.1-0.6-0.1-0.9,0L70,38.9l-1.6-0.8C68.3,38,68.2,38,68,38s-0.3,0-0.4,0.1L66,38.9l-1.6-0.8
	c-0.3-0.1-0.6-0.1-0.9,0L62,38.9l-1.6-0.8c-0.3-0.1-0.6-0.1-0.9,0L58,38.9l-1.6-0.8c-0.3-0.1-0.6-0.1-0.9,0L55,38.4v-7.3l0-0.1
	L73,31.1L73,31.1z M69.3,9l3.3,20H55.3l3.3-20H69.3z M22.9,9h33.7l-3.3,20H6.3L22.9,9z M124,117H4V33h49v7c0,0.3,0.2,0.7,0.5,0.9
	c0.2,0.1,0.3,0.1,0.5,0.1c0.2,0,0.3,0,0.4-0.1l1.6-0.8l1.6,0.8c0.3,0.1,0.6,0.1,0.9,0l1.6-0.8l1.6,0.8c0.3,0.1,0.6,0.1,0.9,0
	l1.6-0.8l1.6,0.8c0.3,0.1,0.6,0.1,0.9,0l1.6-0.8l1.6,0.8c0.3,0.1,0.6,0.1,0.9,0l1.6-0.8l1.6,0.8c0.3,0.2,0.7,0.1,1,0
	c0.3-0.2,0.5-0.5,0.5-0.9v-7h49V117z M76,47c2.2,0,4,1.8,4,4s-1.8,4-4,4H52c-2.2,0-4-1.8-4-4s1.8-4,4-4H76z M87.4,108.2
	c0,0,0-1.8,0-2.5c0-1.8-3.1-1.1-3.1-4.9c0-2.7,0.6-6.8,0.6-6.8H87l0.8,2l-1.5,1.8l1.9,1.9l-0.8,2.7l1.9-3L88,97.8l1.3-1.5L88.6,94
	h2.5c0,0,0.6,4.1,0.6,6.8c0,3.7-3.1,3.1-3.1,4.9c0,0.7,0,2.5,0,2.5c0,1.2,3.1,0.6,3.1,1.8h-7.4C84.3,108.8,87.4,109.3,87.4,108.2z
	 M116,110h-16v-2h16V110z M103,98h-2l3-4l3,4h-2v9h-2V98z M10,99h2v11h-2V99z M13,99h2v11h-2V99z M25,99h2v11h-2V99z M16,99h1v11h-1
	V99z M19,99h1v11h-1V99z M28,99h1v11h-1V99z M21,99h3v11h-3V99z M111,98h-2l3-4l3,4h-2v9h-2V98z"/>
</svg>
