<?xml version="1.0" encoding="utf-8"?>
<!-- Generator: Adobe Illustrator 18.1.1, SVG Export Plug-In . SVG Version: 6.00 Build 0)  -->
<svg version="1.1" id="Layer_1" xmlns="http://www.w3.org/2000/svg" xmlns:xlink="http://www.w3.org/1999/xlink" x="0px" y="0px"
	 viewBox="0 0 32 32" enable-background="new 0 0 32 32" xml:space="preserve">
<path d="M32,8c0-0.1,0-0.2-0.1-0.3c0,0,0,0,0,0c0-0.1-0.1-0.2-0.1-0.2l-4.8-6C26.8,1.1,26.5,1,26.2,1H5.8C5.5,1,5.3,1.1,5.1,1.4
	l-4.8,6C0.2,7.4,0.1,7.5,0.1,7.6c0,0,0,0,0,0C0,7.7,0,7.8,0,8c0,0,0,0,0,0v22c0,0.6,0.4,1,1,1h30c0.6,0,1-0.4,1-1L32,8
	C32,8,32,8,32,8z M28.9,7h-10l-0.7-4h7.5L28.9,7z M17.2,3l0.7,4h-3.7l0.7-4H17.2z M18,8v2h-4l0-2H18z M6.3,3h7.5l-0.7,4H13H3.1
	L6.3,3z M30,29H2V9h11v1.5c0,0.3,0.2,0.5,0.5,0.5h5c0.3,0,0.5-0.2,0.5-0.5L19,9h11V29z M13,12h6c0.6,0,1,0.4,1,1c0,0.6-0.4,1-1,1h-6
	c-0.6,0-1-0.4-1-1C12,12.4,12.4,12,13,12z M28,27h-6v-1h6V27z M26,23h-0.6l1.1-1.5l1.1,1.5H27v2h-1V23z M23,23h-0.6l1.1-1.5l1.1,1.5
	H24v2h-1V23z"/>
</svg>
