<?xml version="1.0" encoding="utf-8"?>
<!-- Generator: Adobe Illustrator 18.1.1, SVG Export Plug-In . SVG Version: 6.00 Build 0)  -->
<svg version="1.1" id="Layer_1" xmlns="http://www.w3.org/2000/svg" xmlns:xlink="http://www.w3.org/1999/xlink" x="0px" y="0px"
	 viewBox="0 0 128 128" enable-background="new 0 0 128 128" xml:space="preserve">
<path d="M128,120.2c0,4.3-3.5,7.8-7.8,7.8c-0.9,0-1.8-0.2-2.6-0.4l9.9-9.9C127.8,118.5,128,119.3,128,120.2z M127.3,112.8L92.9,80.6
	c-0.8-0.8-2.1-0.7-2.9,0L80.6,90c-0.8,0.8-0.8,2.1,0,2.9l32.2,34.5c0.8,0.9,2.2,0.9,3,0.1l11.7-11.7
	C128.2,114.9,128.2,113.6,127.3,112.8z M82,46c0,19.9-16.1,36-36,36S10,65.9,10,46s16.1-36,36-36S82,26.1,82,46z M80,46
	c0-18.8-15.3-34-34-34S12,27.2,12,46s15.3,34,34,34S80,64.8,80,46z M72.1,85.2c-0.6,0-1.3-0.1-1.9-0.1C63.2,89.5,54.9,92,46,92
	C20.6,92,0,71.4,0,46S20.6,0,46,0s46,20.6,46,46c0,8.9-2.5,17.2-6.9,24.2c0.1,0.6,0.1,1.2,0.1,1.9c0,1.5-0.3,2.9-0.7,4.3l3.8,3.8
	l-8.2,8.2l-3.8-3.8C75,85,73.6,85.2,72.1,85.2z M46,84c21,0,38-17,38-38S67,8,46,8S8,25,8,46S25,84,46,84z"/>
</svg>
