<?xml version="1.0" encoding="utf-8"?>
<!-- Generator: Adobe Illustrator 18.1.1, SVG Export Plug-In . SVG Version: 6.00 Build 0)  -->
<svg version="1.1" id="Layer_1" xmlns="http://www.w3.org/2000/svg" xmlns:xlink="http://www.w3.org/1999/xlink" x="0px" y="0px"
	 viewBox="0 0 32 32" enable-background="new 0 0 32 32" xml:space="preserve">
<path d="M31.3,28.3l-2.9,2.9c-0.2,0.2-0.5,0.2-0.7,0l-7.1-7.6c-0.2-0.2-0.2-0.5,0-0.7l2.4-2.4c0.2-0.2,0.5-0.2,0.7,0l7.6,7.1
	C31.5,27.8,31.5,28.1,31.3,28.3z M31.9,29L29,31.9c0.2,0.1,0.5,0.1,0.7,0.1c1.2,0,2.3-1,2.3-2.3C32,29.5,32,29.2,31.9,29z
	 M20.1,22.1l-1-1c-0.3,0.1-0.7,0.2-1.1,0.2c-0.2,0-0.3,0-0.5,0c-1.8,1.1-3.8,1.7-6,1.7C5.2,23,0,17.8,0,11.5S5.2,0,11.5,0
	S23,5.2,23,11.5c0,2.2-0.6,4.3-1.7,6c0,0.2,0,0.3,0,0.5c0,0.4-0.1,0.7-0.2,1.1l1,1L20.1,22.1z M11.5,21c5.2,0,9.5-4.3,9.5-9.5
	S16.7,2,11.5,2S2,6.3,2,11.5S6.3,21,11.5,21z"/>
</svg>
