<?xml version="1.0" encoding="utf-8"?>
<!-- Generator: Adobe Illustrator 18.1.1, SVG Export Plug-In . SVG Version: 6.00 Build 0)  -->
<svg version="1.1" id="Layer_1" xmlns="http://www.w3.org/2000/svg" xmlns:xlink="http://www.w3.org/1999/xlink" x="0px" y="0px"
	 viewBox="0 0 32 32" enable-background="new 0 0 32 32" xml:space="preserve">
<path d="M32,18v-4l-4.1-0.7c-0.3-1.4-0.9-2.7-1.6-3.9l2.4-3.4l-2.8-2.8l-3.3,2.4c-1.2-0.7-2.5-1.3-3.9-1.6L18,0h-4l-0.7,4.1
	c-1.4,0.3-2.7,0.9-3.8,1.6L6.1,3.2L3.3,6.1l2.4,3.4c-0.7,1.2-1.3,2.5-1.6,3.8L0,14v4l4,0.7c0.3,1.4,0.9,2.7,1.6,3.8l-2.4,3.3
	l2.8,2.8l3.4-2.4c1.2,0.7,2.5,1.3,3.8,1.6L14,32h4l0.7-4c1.4-0.3,2.7-0.9,3.9-1.6l3.4,2.4l2.8-2.8l-2.4-3.3c0.7-1.2,1.3-2.5,1.6-3.9
	L32,18z M16,25c-5,0-9-4-9-9c0-5,4-9,9-9s9,4,9,9C25,21,21,25,16,25z M16,8c-4.4,0-8,3.6-8,8c0,4.4,3.6,8,8,8c4.4,0,8-3.6,8-8
	C24,11.6,20.4,8,16,8z M16,20c-2.2,0-4-1.8-4-4s1.8-4,4-4s4,1.8,4,4S18.2,20,16,20z"/>
</svg>
