<?xml version="1.0" encoding="utf-8"?>
<!-- Generator: Adobe Illustrator 18.1.1, SVG Export Plug-In . SVG Version: 6.00 Build 0)  -->
<svg version="1.1" id="Layer_1" xmlns="http://www.w3.org/2000/svg" xmlns:xlink="http://www.w3.org/1999/xlink" x="0px" y="0px"
	 viewBox="0 0 16 16" enable-background="new 0 0 16 16" xml:space="preserve">
<path d="M13.3,10H5.5l0.7,2.7c0,0.2,0.2,0.3,0.3,0.3h7c0.3,0,0.5,0.2,0.5,0.5S13.8,14,13.5,14H13H7H6.5c-0.6,0-1.1-0.4-1.3-1
	l-2.6-10C2.4,2.1,2,2,1.7,2H1.4C1.3,2.3,1.1,2.5,0.8,2.5C0.3,2.5,0,2.2,0,1.8C0,1.4,0.2,1.1,0.6,1c0.1,0,0.1,0,0.2,0h1
	c0.5,0,1.5,0.2,1.9,1.7L3.7,3l12,1c0.2,0,0.4,0.3,0.3,0.5l-2,5.1C13.8,9.8,13.6,10,13.3,10z M12,15c0,0.6,0.4,1,1,1s1-0.4,1-1
	c0-0.6-0.4-1-1-1S12,14.4,12,15z M6,15c0,0.6,0.4,1,1,1s1-0.4,1-1c0-0.6-0.4-1-1-1S6,14.4,6,15z"/>
</svg>
