<?xml version="1.0" encoding="utf-8"?>
<!-- Generator: Adobe Illustrator 18.1.1, SVG Export Plug-In . SVG Version: 6.00 Build 0)  -->
<svg version="1.1" id="Layer_1" xmlns="http://www.w3.org/2000/svg" xmlns:xlink="http://www.w3.org/1999/xlink" x="0px" y="0px"
	 viewBox="0 0 32 32" enable-background="new 0 0 32 32" xml:space="preserve">
<path d="M27.8,19.5l4.1-10.2c0.2-0.5,0.2-1.1-0.1-1.5S31,7.1,30.4,7l-23.3-2C6.4,2.4,4.5,2,3.5,2h-2C0.7,2,0,2.7,0,3.5S0.7,5,1.5,5
	c0.7,0,1.2-0.4,1.4-1h0.6c0.6,0,1.4,0.2,1.8,1.8L10.5,25c0.3,1.2,1.4,2,2.6,2H14h12h2c0.6,0,1-0.4,1-1s-0.4-1-1-1H13.1
	c-0.3,0-0.6-0.2-0.7-0.5L11.5,21h14.2C26.6,21,27.5,20.4,27.8,19.5z M25.7,19H24v-3h3v0.2l-1,2.6C25.9,18.9,25.8,19,25.7,19z
	 M10.9,19l-0.8-3H11L10.9,19L10.9,19z M27,15h-3v-3h3V15z M28,12h0.7L28,13.7V12z M16,12h3v3h-3V12z M15,15h-3v-3h3V15z M20,12h3v3
	h-3V12z M24,11V8.5l3,0.3V11H24z M23,11h-3V8.2l3,0.3V11z M19,11h-3V7.8l3,0.3V11z M15,11h-3V7.5l3,0.3V11z M11,11H8.8l-1-3.9
	L11,7.4V11z M11,12v3H9.8L9,12H11z M12,16h3v3h-3V16z M16,16h3v3h-3V16z M20,16h3v3h-3V16z M29.1,11H28V8.8L29.9,9L29.1,11z M26,27
	c1.1,0,2,0.9,2,2c0,1.1-0.9,2-2,2s-2-0.9-2-2C24,27.9,24.9,27,26,27z M14,27c1.1,0,2,0.9,2,2c0,1.1-0.9,2-2,2s-2-0.9-2-2
	C12,27.9,12.9,27,14,27z"/>
</svg>
