<?xml version="1.0" encoding="utf-8"?>
<!-- Generator: Adobe Illustrator 18.1.1, SVG Export Plug-In . SVG Version: 6.00 Build 0)  -->
<svg version="1.1" id="Layer_1" xmlns="http://www.w3.org/2000/svg" xmlns:xlink="http://www.w3.org/1999/xlink" x="0px" y="0px"
	 viewBox="0 0 128 128" enable-background="new 0 0 128 128" xml:space="preserve">
<path d="M111.4,78.5l16.2-40.8c0.6-1.4,0.4-3-0.4-4.3c-0.8-1.3-2.2-2.1-3.7-2.3l-95.7-8l-1-3.6C24.4,10,18.4,8,13.9,8H10H4
	c-2.2,0-4,1.8-4,4c0,2.2,1.8,4,4,4c1.8,0,5.2-1.7,6-2c1.2-0.5,2.3-1,2.8-2h1.1c4.6,0,7.6,2.8,9.2,8.5l20.7,77c1,3.8,4.5,6.5,8.5,6.5
	H112c1.1,0,2-0.9,2-2s-0.9-2-2-2H52.3c-2.2,0-4.1-1.5-4.6-3.5L44,83h60.7C107.7,83,110.3,81.2,111.4,78.5z M100,65v5H90v-5.2l-2,0
	V70H78v-5.5l-2,0V70h-0.7H66v-5.7l-2,0V70H54v-6l-2,0V70H42v-6.3l-2,0V68l-1.4-5.4l37,0.8l0.1,0l37.1,0.8l-2.3,5.7H102v-5L100,65z
	 M36,53.3l39.7,1.7l0.2,0l39.9,1.7l-1.8,4.5v-3.6l-2-0.1v4.8l-10-0.2v-5l-2-0.1v5l-10-0.2v-5.2l-2-0.1v5.3l-10-0.2V56L76,56v5.5
	l-0.4,0l-0.1,0L66,61.2v-5.7l-2-0.1v5.7L54,61v-6l-2-0.1v6l-10-0.2v-6.2l-2-0.1v6.2l-2,0L36,53.3z M33.5,43.9l42.5,2.5l0.3,0
	l42.6,2.6l-2.2,5.6l-2.6-0.1v-4.8l-2-0.1v4.8L102,54v-5l-2-0.1V54l-10-0.4v-5.3l-2-0.1v5.3L78,53v-5.5l-2-0.1v5.5l-0.2,0l-0.2,0
	L66,52.5v-5.7l-2-0.1v5.8L54,52v-5.9L52,46v5.9l-10-0.4v-6.1l-2-0.1v6.2l-4.5-0.2L33.5,43.9z M31,34.4l45.2,3.4l45.7,3.5l-2.3,5.7
	c-0.3-0.1-0.6-0.1-0.7-0.1l-4.9-0.3v-4.9l-2-0.1v4.9L102,46v-5.1l-2-0.1v5.1l-10-0.6v-5.4l-2-0.1v5.4l-10-0.6V39l-2-0.1v5.5l-0.3,0
	L66,43.8v-5.7L64,38v5.7l-10-0.6v-5.9L52,37V43l-10-0.6v-6.1l-2-0.1v6.1l-7.1-0.4L31,34.4z M123.3,35.1c0.4,0,0.5,0.3,0.6,0.4
	c0.1,0.1,0.2,0.4,0.1,0.7l-1.3,3.2l-8.7-0.7v-3.4l-2-0.2v3.4l-10-0.8v-3.5l-2-0.2v3.5l-10-0.8v-3.6l-2-0.2v3.6L78,36v-3.7l-2-0.2
	v3.7l-10-0.8v-3.8l-2-0.2v3.8l-10-0.8v-3.9l-2-0.2V34l-10-0.8v-4l-2-0.2v4l-9.6-0.7L29,27.2L123.3,35.1z M100,73v6H90v-6h-2v6H78v-6
	h-2v6H66v-6h-2v6H54v-6h-2v6h-9l-1-3.5V73h-0.7l-0.3-1h34.2h34.4l-2,5c-0.5,1.2-1.7,2-3,2H102v-6H100z M106,107
	c-0.6,0-1.1,0.1-1.7,0.2l-0.9-2.2H97v2.6c0,0.9,0.4,1.7,1.1,2.2l1.6,1.2c-0.4,0.9-0.7,1.9-0.7,2.9c0,3.9,3.1,7,7,7s7-3.1,7-7
	C113,110.1,109.9,107,106,107z M106,117c-1.7,0-3-1.3-3-3c0-0.1,0-0.2,0-0.3l2,1.5c1.1,0.8,2.6-0.4,2-1.7l-1.1-2.5c0,0,0,0,0.1,0
	c1.7,0,3,1.3,3,3C109,115.7,107.7,117,106,117z M51.7,107.2c-0.5-0.1-1.1-0.2-1.7-0.2c-3.9,0-7,3.1-7,7c0,3.9,3.1,7,7,7s7-3.1,7-7
	c0-1.1-0.2-2-0.7-2.9l1.6-1.2c0.7-0.5,1.1-1.4,1.1-2.2V105h-6.4L51.7,107.2z M53,114c0,1.7-1.3,3-3,3s-3-1.3-3-3c0-1.7,1.3-3,3-3
	c0,0,0,0,0.1,0l-1.1,2.5c-0.6,1.3,0.9,2.5,2,1.7l2-1.5C53,113.8,53,113.9,53,114z"/>
</svg>
