<?xml version="1.0" encoding="utf-8"?>
<!-- Generator: Adobe Illustrator 18.1.1, SVG Export Plug-In . SVG Version: 6.00 Build 0)  -->
<svg version="1.1" id="Layer_1" xmlns="http://www.w3.org/2000/svg" xmlns:xlink="http://www.w3.org/1999/xlink" x="0px" y="0px"
	 viewBox="0 0 16 16" enable-background="new 0 0 16 16" xml:space="preserve">
<path d="M13,8.2c0,0.3,0,1.7,0,2c0,0.8-4,0.8-5,1.7c-1-1-5-0.9-5-1.7c0-0.3,0-1.7,0-2C3,7.4,5.2,7,8,7C10.8,7,13,7.4,13,8.2z
	 M15.7,6.1L8.9,3.2c-0.6-0.2-1.2-0.2-1.8,0L0.3,6.1c-0.4,0.2-0.4,0.8,0,1l2,0.9c0,0-0.1-2,5.7-2c5.9,0,5.8,2,5.8,2L14,7.9v5.6
	c0,0.3,0.2,0.5,0.5,0.5s0.5-0.2,0.5-0.5V7.4l0.7-0.3C16.1,7,16.1,6.3,15.7,6.1z"/>
</svg>
