<?xml version="1.0" encoding="utf-8"?>
<!-- Generator: Adobe Illustrator 18.1.1, SVG Export Plug-In . SVG Version: 6.00 Build 0)  -->
<svg version="1.1" id="Layer_1" xmlns="http://www.w3.org/2000/svg" xmlns:xlink="http://www.w3.org/1999/xlink" x="0px" y="0px"
	 viewBox="0 0 128 128" enable-background="new 0 0 128 128" xml:space="preserve">
<g>
	<path d="M127.3,54l-9.3,2.7v-8.7l9.3,3.9C128.2,52.3,128.2,53.7,127.3,54z M115,84.7c0,0,0.1,0,0.1,0l2-0.5
		c0.3-0.1,0.4-0.3,0.4-0.6c-0.1-0.3-0.3-0.4-0.6-0.4l-2,0.5c-0.3,0.1-0.4,0.3-0.4,0.6C114.6,84.5,114.8,84.7,115,84.7z M117.5,86
		c-0.1-0.3-0.3-0.4-0.6-0.4l-2,0.5c-0.3,0.1-0.4,0.3-0.4,0.6c0.1,0.2,0.3,0.4,0.5,0.4c0,0,0.1,0,0.1,0l2-0.5
		C117.4,86.5,117.5,86.3,117.5,86z M116.9,88l-2,0.5c-0.3,0.1-0.4,0.3-0.4,0.6c0.1,0.2,0.3,0.4,0.5,0.4c0,0,0.1,0,0.1,0l2-0.5
		c0.3-0.1,0.4-0.3,0.4-0.6C117.4,88.1,117.2,87.9,116.9,88z M117.5,87.2c-0.1-0.3-0.3-0.4-0.6-0.4l-2,0.5c-0.3,0.1-0.4,0.3-0.4,0.6
		c0.1,0.2,0.3,0.4,0.5,0.4c0,0,0.1,0,0.1,0l2-0.5C117.4,87.7,117.5,87.5,117.5,87.2z M114.5,85.5c0.1,0.2,0.3,0.4,0.5,0.4
		c0,0,0.1,0,0.1,0l2-0.5c0.3-0.1,0.4-0.3,0.4-0.6c-0.1-0.3-0.3-0.4-0.6-0.4l-2,0.5C114.6,84.9,114.5,85.2,114.5,85.5z M115,57.6V82
		c0,0.2,0,0.3,0.1,0.4l-0.2,0.1c-0.3,0.1-0.4,0.3-0.4,0.6c0.1,0.2,0.3,0.4,0.5,0.4c0,0,0.1,0,0.1,0l2-0.5c0.3-0.1,0.4-0.3,0.4-0.6
		c-0.1-0.2-0.3-0.4-0.5-0.4c0,0,0,0,0,0V47.3c0-0.6-0.4-1-1-1c-0.4,0-0.7,0.2-0.9,0.6L65.3,25.7c-0.9-0.3-1.8-0.3-2.7,0L0.7,52
		c-0.9,0.3-0.9,1.6,0,2L27,61.7v-0.3c0-3.3,3.9-6.1,11.3-8.2c6.9-2,16-3.1,25.7-3.1s18.8,1.1,25.7,3.1c7.4,2.1,11.3,5,11.3,8.2v0.3
		L115,57.6z M117.9,92.7c0.1-0.2,0.1-0.4,0.1-0.7c0-0.8-0.5-1.5-1.1-1.8l0.3-0.1c0.3-0.1,0.4-0.3,0.4-0.6c-0.1-0.3-0.3-0.4-0.6-0.4
		l-2,0.5c-0.3,0.1-0.4,0.3-0.4,0.6c0,0.1,0.1,0.2,0.2,0.3c-0.4,0.4-0.7,0.9-0.7,1.5c0,0.2,0,0.5,0.1,0.7c-0.7,0.5-1.1,1.4-1.1,2.3
		c0,3.2,2.7,3.9,1,9c0,0,1.9-1,3.1-2.9L117,103c0,0,2-2.9,2-8C119,94.1,118.6,93.2,117.9,92.7z M64,51.2c-19.9,0-36,4.6-36,10.3
		c0,2.3,0,10.9,0,13.2C28,80.4,57,78,64,85c6.9-6.9,36-4.6,36-10.3c0-2.3,0-10.9,0-13.2C100,55.8,83.9,51.2,64,51.2z"/>
</g>
</svg>
