<?xml version="1.0" encoding="utf-8"?>
<!-- Generator: Adobe Illustrator 18.1.1, SVG Export Plug-In . SVG Version: 6.00 Build 0)  -->
<svg version="1.1" id="Layer_1" xmlns="http://www.w3.org/2000/svg" xmlns:xlink="http://www.w3.org/1999/xlink" x="0px" y="0px"
	 viewBox="0 0 32 32" enable-background="new 0 0 32 32" xml:space="preserve">
<path d="M29.1,21.3c0.1,0.1,0.2,0.3,0.2,0.5c0,1.3-0.5,2-0.5,2l0-0.5C28.5,23.8,28,24,28,24c0.4-1.3-0.2-1.5-0.2-2.2
	c0-0.2,0.1-0.3,0.2-0.5c-0.2-0.2-0.4-0.5-0.4-0.8c0-0.4,0.2-0.7,0.5-0.8v-4.7l-2,0.7v-0.1c0-2.8-6.3-3.6-10-3.6S6,12.8,6,15.6v0.1
	l-5.7-2.1c-0.4-0.2-0.5-0.8,0-1l14.9-6.4c0.5-0.2,1.1-0.2,1.7,0L28.1,11c0.1-0.2,0.2-0.3,0.4-0.3c0.3,0,0.5,0.2,0.5,0.5v8.4
	c0.3,0.2,0.5,0.5,0.5,0.8C29.5,20.8,29.3,21.1,29.1,21.3z M16,13c-5,0-9,1.2-9,2.6c0,0.6,0,2.7,0,3.3c0,1.4,7.3,0.8,9,2.6
	c1.7-1.7,9-1.2,9-2.6c0-0.6,0-2.7,0-3.3C25,14.2,21,13,16,13z M31.7,12.6L30,11.9v2.3l1.7-0.6C32.1,13.4,32.1,12.8,31.7,12.6z"/>
</svg>
