<?xml version="1.0" encoding="utf-8"?>
<!-- Generator: Adobe Illustrator 18.1.1, SVG Export Plug-In . SVG Version: 6.00 Build 0)  -->
<svg version="1.1" id="Layer_1" xmlns="http://www.w3.org/2000/svg" xmlns:xlink="http://www.w3.org/1999/xlink" x="0px" y="0px"
	 viewBox="0 0 16 16" enable-background="new 0 0 16 16" xml:space="preserve">
<path d="M14.9,10.8C14.4,13.8,12,14,8,14l0,0l0,0c0,0,0,0,0,0c-0.1,0-0.1,0-0.2,0C7.3,13.9,7,13.5,7,13c0-0.6,0.4-1,1-1
	c0.5,0,1,0.4,1,1c3.1,0,4.5-0.4,4.9-2H13V7.4c0-2.9-1.7-0.7-2.1-4.1c-0.8,3.2-6.3,0.1-7.6,2.8V8c0,0.1-0.1,0.3-0.2,0.4
	C3,8.5,2.9,8.5,2.7,8.5c-0.1,0-0.4,0-0.5,0.1C2.1,8.8,2,9,2,9.3c0,0.5,0.5,0.9,1,0.9c0.2,0,0.4,0.2,0.4,0.4C3.7,12.7,5.7,15,8,15
	h1.9c0.3,0,0.5,0.2,0.5,0.5S10.2,16,9.9,16H8c-2.7,0-5-2.5-5.5-4.9C1.6,10.9,1,10.1,1,9.3C1,9.2,1,9.1,1,9c0,0,0,0,0,0
	c0-4.8,1-9,6.9-9S15,3.4,15,6.6v0.7c0.6,0.3,1,1,1,1.7C16,9.8,15.6,10.4,14.9,10.8z M5.5,8c-0.6,0-1,0.4-1,1c0,0.6,0.4,1,1,1
	c0.6,0,1-0.4,1-1C6.5,8.4,6.1,8,5.5,8z M11,9c0-0.6-0.4-1-1-1C9.4,8,9,8.4,9,9c0,0.6,0.4,1,1,1C10.6,10,11,9.6,11,9z"/>
</svg>
