<?xml version="1.0" encoding="utf-8"?>
<!-- Generator: Adobe Illustrator 18.1.1, SVG Export Plug-In . SVG Version: 6.00 Build 0)  -->
<svg version="1.1" id="Layer_1" xmlns="http://www.w3.org/2000/svg" xmlns:xlink="http://www.w3.org/1999/xlink" x="0px" y="0px"
	 viewBox="0 0 32 32" enable-background="new 0 0 32 32" xml:space="preserve">
<path d="M29,15v-1.8C29,6.9,25.4,0,15.8,0C6.1,0,3,7.7,3,13.5c0,0.8,0,2.2,0,3c-0.3,0.6-0.5,1.2-0.5,2c0,1.7,1.2,3.2,2.9,3.7
	c1,4.8,5.4,9.8,10.6,9.8c3.3,0,6.2-1.9,8.3-4.4c3.9-0.7,6.3-2.5,6.7-7.1c0-0.2,0.1-0.3,0.1-0.5v-3C31,15.9,30.1,15,29,15z M16,30
	c-4.4,0-8.2-4.6-8.8-8.8c-0.1-0.5-0.4-0.8-0.9-0.9c-0.9-0.1-1.9-0.9-1.9-1.9c0-0.6,0.1-1,0.4-1.2c0.4-0.3,1-0.3,1-0.3
	c0.3,0,0.6,0,0.8-0.2C6.9,16.6,7,16.3,7,16.1v-0.6C7,4.8,19.7,14,21.4,6.7c0.7,6.8,3.6,2.3,3.6,8.2v6.5c-0.2,1.5-0.9,3-1.8,4.4
	C21.7,25.9,20,26,17.9,26c-0.2-0.6-0.8-1-1.4-1c-0.2,0-0.8,0-1,0c-0.8,0-1.5,0.7-1.5,1.5s0.7,1.5,1.5,1.5c0.2,0,0.8,0,1,0
	c0,0,0,0,0,0c1.7,0,3.2,0,4.6-0.1C19.7,29.2,17.9,30,16,30z M25.9,25.1c0.5-0.9,0.8-1.9,1-2.8c0.2-0.1,0.4-0.1,0.6-0.2h1.2
	C28.2,23.5,27.4,24.5,25.9,25.1z M13,18c0,1.1-0.9,2-2,2s-2-0.9-2-2c0-1.1,0.9-2,2-2S13,16.9,13,18z M18,18c0-1.1,0.9-2,2-2
	s2,0.9,2,2c0,1.1-0.9,2-2,2S18,19.1,18,18z"/>
</svg>
