<?xml version="1.0" encoding="utf-8"?>
<!-- Generator: Adobe Illustrator 18.1.1, SVG Export Plug-In . SVG Version: 6.00 Build 0)  -->
<svg version="1.1" id="Layer_1" xmlns="http://www.w3.org/2000/svg" xmlns:xlink="http://www.w3.org/1999/xlink" x="0px" y="0px"
	 viewBox="0 0 128 128" enable-background="new 0 0 128 128" xml:space="preserve">
<path d="M120,65.1C119.4,22.5,100.8,0,66,0c-9.3,0-16.9,1-17.2,1c-1.1,0.1-1.9,1.1-1.7,2.2c0.1,1.1,1.1,1.9,2.2,1.7
	C49.3,5,57,4,66,4c32.4,0,49.2,20.2,50,60h-2v-5c0-25.9-10.5-54-50-54S16,36.3,16,60c0,2.5,0,4.1,0,6.1c-0.1,0.1-0.2,0.1-0.3,0.2
	c-2.5,2.1-3.7,5.4-3.7,9.9c0,6.2,4.9,11.8,11.3,13.1C26.7,107.9,43.8,128,64,128c9.6,0,19.4-4.5,27.7-12.8c3-3,5.6-6.3,7.7-9.8
	c2.4-0.7,4.6-1.5,6.5-2.5c5.3-2.9,8.7-7.3,10.5-14c4.3-0.2,7.7-3.7,7.7-8v-9C124,69,122.4,66.4,120,65.1z M64,124
	c-18.7,0-34.5-19.3-37-36.7c-0.1-0.9-0.9-1.6-1.8-1.7c-4.4-0.5-9.2-4.4-9.2-9.4c0-3.2,0.8-5.5,2.3-6.8c1.8-1.6,4.4-1.2,4.4-1.2
	c0.6,0.1,1.2-0.1,1.6-0.4c0.5-0.4,0.7-0.9,0.7-1.5V64c0-43.5,44.7,1.5,62-34.9c0,31.7,16,7.2,16,36.5v0.6c0,0.6,0.3,1.1,0.7,1.5
	c0.4,0.3,0.8,0.5,1.3,0.5v17.2c-0.4,0.1-0.8,0.2-1.2,0.2c-0.9,0.1-1.6,0.8-1.8,1.7c-0.7,4.9-2.6,9.9-5.3,14.6
	c-6.2,1.4-14.4,1.9-25.2,2c-0.8-1.7-2.5-3-4.6-3c-0.7,0-3.3,0-4,0c-2.4,0-4.4,1.7-4.9,4c-0.3-0.1-0.6-0.3-0.8-0.4
	c-1.6-0.7-3-1.4-6.1-0.3c-0.5,0.2-0.8,0.7-0.6,1.3c0.2,0.5,0.7,0.8,1.3,0.6c2.4-0.8,3.2-0.4,4.6,0.2c0.5,0.2,1,0.5,1.7,0.7
	c0.5,2.2,2.5,3.9,4.9,3.9c0.7,0,3.3,0,4,0c2.1,0,3.8-1.2,4.6-3c8.4-0.1,15.8-0.3,22.1-1.3C86.5,116.5,75.6,124,64,124z M102.2,100.2
	c1.7-3.6,2.9-7.2,3.6-10.9c0.4-0.1,0.8-0.2,1.1-0.3h5.4C110.5,94.5,107.4,98,102.2,100.2z M48,70c-2.8,0-5,2.2-5,5h-2
	c0-3.9,3.1-7,7-7s7,3.1,7,7h-2C53,72.2,50.8,70,48,70z M51,74c0,1.7-1.3,2-3,2s-3-0.3-3-2s1.3-3,3-3S51,72.3,51,74z M56.1,93.3
	c-0.2-0.5,0.1-1.1,0.6-1.3c2.1-0.7,3.7-0.1,5,0.4c0.8,0.3,1.5,0.6,2.3,0.6c0.8,0,1.5-0.3,2.3-0.6c1.4-0.5,2.9-1.1,5-0.4
	c0.5,0.2,0.8,0.7,0.6,1.3c-0.2,0.5-0.7,0.8-1.3,0.6c-1.5-0.5-2.5-0.1-3.7,0.4c-0.9,0.3-1.8,0.7-3,0.7c-1.1,0-2.1-0.4-3-0.7
	c-1.2-0.5-2.2-0.8-3.7-0.4C56.8,94.1,56.2,93.8,56.1,93.3z M38.9,62.7c-0.8,0-1.5,0.1-2,0.1c-0.5,0-0.7,0.1-0.7,0.1l-0.3-1.8
	c0,0,0.3-0.1,0.8-0.2c0.5-0.1,1.2-0.2,2.1-0.4c1.7-0.3,4-0.6,6.4-0.7c1.2-0.1,2.3-0.1,3.5,0c0.6,0,1.1,0,1.6,0.1
	c0.5,0,1,0.1,1.5,0.1c0.5,0.1,0.9,0.1,1.3,0.2c0.3,0.1,0.6,0.1,0.9,0.2c0.5,0.1,0.8,0.1,0.8,0.1l-1,4c0,0-0.3-0.1-0.7-0.2
	c-0.2-0.1-0.5-0.2-0.8-0.3c-0.3-0.1-0.6-0.2-1-0.3c-0.4-0.1-0.8-0.2-1.3-0.3c-0.5-0.1-0.9-0.2-1.4-0.3c-1-0.2-2.1-0.3-3.2-0.4
	C42.8,62.6,40.6,62.6,38.9,62.7z M75,75h-2c0-3.9,3.1-7,7-7s7,3.1,7,7h-2c0-2.8-2.2-5-5-5S75,72.2,75,75z M83,74c0,1.7-1.3,2-3,2
	s-3-0.3-3-2s1.3-3,3-3S83,72.3,83,74z M74.5,64.5l-1-4c0,0,0.3-0.1,0.8-0.1c0.2,0,0.5-0.1,0.9-0.2c0.4-0.1,0.8-0.1,1.3-0.2
	c0.5-0.1,0.9-0.1,1.5-0.1c0.5-0.1,1.1-0.1,1.6-0.1c1.1,0,2.3,0,3.5,0c2.3,0.1,4.6,0.4,6.4,0.7c0.9,0.1,1.6,0.3,2.1,0.4
	c0.5,0.1,0.8,0.2,0.8,0.2l-0.3,1.8c0,0-0.3,0-0.7-0.1c-0.5,0-1.2-0.1-2-0.1c-1.7-0.1-3.9-0.1-6.1,0.1c-1.1,0.1-2.2,0.2-3.2,0.4
	c-0.5,0.1-1,0.2-1.4,0.3c-0.4,0.1-0.9,0.2-1.3,0.3c-0.4,0.1-0.7,0.2-1,0.3c-0.3,0.1-0.6,0.2-0.8,0.3C74.8,64.4,74.5,64.5,74.5,64.5z
	 M26,81.4c0,0.4-0.2,1.6-1.4,1.6c-1.4,0-2.3-2.2-1.4-4.9c1.1-3.3-0.2-6.5-2-6.5c-2.3,0-2.2,3.3-2.2,3.3S19,74.5,19,74
	c0-1.9,1.2-3,2.5-3c1.2,0,2.2,0.6,2.9,3.3c0.5,2,1.6,1.3,1.6,2.6c0,0.8-1.6,0.7-1.6,1.8C24.4,80.2,26,79.8,26,81.4z"/>
</svg>
