<?xml version="1.0" encoding="utf-8"?>
<!-- Generator: Adobe Illustrator 18.1.1, SVG Export Plug-In . SVG Version: 6.00 Build 0)  -->
<svg version="1.1" id="Layer_1" xmlns="http://www.w3.org/2000/svg" xmlns:xlink="http://www.w3.org/1999/xlink" x="0px" y="0px"
	 viewBox="0 0 32 32" enable-background="new 0 0 32 32" xml:space="preserve">
<path d="M28,5v2H4V5H28z M5,8h22l-2.8,23.6c0,0.3-0.3,0.4-0.5,0.4H8.4c-0.3,0-0.5-0.2-0.5-0.4L5,8z M20.2,28.6
	c0,0.2,0.2,0.4,0.5,0.4c0,0,0,0,0,0c0.3,0,0.5-0.1,0.5-0.3l1.3-18.3c0-0.2-0.2-0.4-0.5-0.4c-0.3,0-0.5,0.1-0.5,0.3L20.2,28.6z
	 M17.1,28.6c0,0.2,0.2,0.4,0.5,0.4c0,0,0,0,0,0c0.3,0,0.5-0.2,0.5-0.3l0.4-18.3c0-0.2-0.2-0.4-0.5-0.4c0,0,0,0,0,0
	c-0.3,0-0.5,0.2-0.5,0.3L17.1,28.6z M13.5,10.4l0.4,18.3c0,0.2,0.2,0.3,0.5,0.3c0,0,0,0,0,0c0.3,0,0.5-0.2,0.5-0.4l-0.4-18.3
	c0-0.2-0.2-0.3-0.5-0.3c0,0,0,0,0,0C13.7,10,13.4,10.2,13.5,10.4z M9.5,10.4l1.3,18.3c0,0.2,0.2,0.3,0.5,0.3c0,0,0,0,0,0
	c0.3,0,0.5-0.2,0.5-0.4l-1.3-18.3c0-0.2-0.3-0.3-0.5-0.3C9.7,10,9.5,10.2,9.5,10.4z M27,4H5c0.4-0.9,3.9-1.6,8-1.9V0.5
	C13,0.2,13.2,0,13.5,0h5C18.8,0,19,0.2,19,0.5v1.6C23.1,2.4,26.6,3.1,27,4z M18,1h-4v0.8h4V1z"/>
</svg>
