<?xml version="1.0" encoding="utf-8"?>
<!-- Generator: Adobe Illustrator 18.1.1, SVG Export Plug-In . SVG Version: 6.00 Build 0)  -->
<svg version="1.1" id="Layer_1" xmlns="http://www.w3.org/2000/svg" xmlns:xlink="http://www.w3.org/1999/xlink" x="0px" y="0px"
	 viewBox="0 0 128 128" enable-background="new 0 0 128 128" xml:space="preserve">
<path d="M19,20h90v6c0,0.6-0.4,1-1,1H20c-0.6,0-1-0.4-1-1V20z M108,15H20c-0.6,0-1,0.4-1,1v3h90v-3C109,15.4,108.6,15,108,15z
	 M35,127c0,0.6,0.4,1,1,1h56c0.6,0,1-0.4,1-1v-2H35V127z M105.8,14H22.2C23.7,9.9,37.4,6.5,53,5.4V1.5C53,0.7,53.7,0,54.5,0h19
	C74.3,0,75,0.7,75,1.5v3.9C90.6,6.5,104.3,9.9,105.8,14z M56,5.2C58.6,5.1,61.3,5,64,5s5.4,0.1,8,0.2V3H56V5.2z M22,28h84
	l-10.8,94.2c-0.1,1-1,1.8-2,1.8H34.8c-1,0-1.9-0.8-2-1.8L22,28z M99,36.5l-8.5,81c0,0.3,0.2,0.5,0.4,0.6c0,0,0,0,0.1,0
	c0.3,0,0.5-0.2,0.5-0.5l8.5-81c0-0.3-0.2-0.5-0.4-0.6C99.3,36,99.1,36.2,99,36.5z M83,116.9c0,0.6,0.4,1,0.9,1.1c0,0,0.1,0,0.1,0
	c0.5,0,1-0.4,1-0.9l6.1-80c0-0.6-0.4-1-0.9-1.1c-0.6,0-1,0.4-1.1,0.9L83,116.9z M74.5,116.4c0,0.8,0.6,1.5,1.4,1.6c0,0,0,0,0.1,0
	c0.8,0,1.5-0.6,1.5-1.4l3.7-79c0-0.8-0.6-1.5-1.4-1.6c-0.8,0-1.5,0.6-1.6,1.4L74.5,116.4z M66.5,116.5c0,0.8,0.6,1.5,1.5,1.5
	c0,0,0,0,0,0c0.8,0,1.5-0.7,1.5-1.5l1.2-79c0-0.8-0.6-1.5-1.5-1.5c0,0,0,0,0,0c-0.8,0-1.5,0.7-1.5,1.5L66.5,116.5z M57.3,37.5
	l1.2,79c0,0.8,0.7,1.5,1.5,1.5c0,0,0,0,0,0c0.8,0,1.5-0.7,1.5-1.5l-1.2-79c0-0.8-0.7-1.5-1.5-1.5c0,0,0,0,0,0
	C57.9,36,57.3,36.7,57.3,37.5z M46.8,37.6l3.7,79c0,0.8,0.7,1.4,1.5,1.4c0,0,0,0,0.1,0c0.8,0,1.5-0.7,1.4-1.6l-3.7-79
	c0-0.8-0.8-1.5-1.6-1.4C47.4,36,46.8,36.7,46.8,37.6z M36.9,37.1l6.1,80c0,0.5,0.5,0.9,1,0.9c0,0,0.1,0,0.1,0c0.6,0,1-0.5,0.9-1.1
	l-6.1-80c0-0.6-0.5-1-1.1-0.9C37.3,36,36.9,36.5,36.9,37.1z M28,36.6l8.5,81c0,0.3,0.2,0.5,0.5,0.5c0,0,0,0,0.1,0
	c0.3,0,0.5-0.3,0.4-0.6l-8.5-81c0-0.3-0.3-0.5-0.6-0.5C28.1,36,27.9,36.3,28,36.6z"/>
</svg>
