<?xml version="1.0" encoding="utf-8"?>
<!-- Generator: Adobe Illustrator 18.1.1, SVG Export Plug-In . SVG Version: 6.00 Build 0)  -->
<svg version="1.1" id="Layer_1" xmlns="http://www.w3.org/2000/svg" xmlns:xlink="http://www.w3.org/1999/xlink" x="0px" y="0px"
	 viewBox="0 0 16 16" enable-background="new 0 0 16 16" xml:space="preserve">
<path d="M15,2v1H1V2h1.7C3.2,1.4,5,1,7,0.9V0h2v0.9C11,1,12.8,1.4,13.3,2H15z M2,4h12l-1.8,11.2c-0.1,0.5-0.5,0.8-1,0.8H4.8
	c-0.5,0-0.9-0.4-1-0.8L2,4z M11,14h0.6l0.9-8h-0.9L11,14z M9,14h1V6H9V14z M6,14h1V6H6V14z M4.4,6H3.4l1,8H5L4.4,6z"/>
</svg>
