<?xml version="1.0" encoding="utf-8"?>
<!-- Generator: Adobe Illustrator 18.1.1, SVG Export Plug-In . SVG Version: 6.00 Build 0)  -->
<svg version="1.1" id="Layer_1" xmlns="http://www.w3.org/2000/svg" xmlns:xlink="http://www.w3.org/1999/xlink" x="0px" y="0px"
	 viewBox="0 0 32 32" enable-background="new 0 0 32 32" xml:space="preserve">
<path d="M30,32H2c0-8.2,5.8-8.8,9-10.4c0.1,0,0.1-0.1,0.2-0.1c0.6,1.5,2.5,2.5,4.8,2.5c2.4,0,4.3-1.1,4.8-2.6c0.1,0,0.1,0.1,0.2,0.1
	C24.5,23.3,30,23.6,30,32z M9,11.5c0.3,2.4,1.4,2.3,1.4,2.3c0.4,2.5,2.1,4,2.1,4v1.9c0,0.4-0.2,0.9-0.4,1.2C12.3,22,14,23,16,23
	c2,0,3.7-1,3.9-2.2c-0.3-0.3-0.4-0.8-0.4-1.2v-1.8c0,0,1.6-1.5,2-4c0,0,0.9-0.1,1.3-2c0.3-1.4-0.5-1.5-0.6-1.5C23,7.3,23.4,2,19.8,2
	c-0.5-1.2-2.2-2-3.8-2c-6.2,0-8,5.2-6.2,10.2c0,0,0,0,0,0C9.7,10.2,8.9,10.3,9,11.5z"/>
</svg>
