<?xml version="1.0" encoding="utf-8"?>
<!-- Generator: Adobe Illustrator 18.1.1, SVG Export Plug-In . SVG Version: 6.00 Build 0)  -->
<svg version="1.1" id="Layer_1" xmlns="http://www.w3.org/2000/svg" xmlns:xlink="http://www.w3.org/1999/xlink" x="0px" y="0px"
	 viewBox="0 0 128 128" enable-background="new 0 0 128 128" xml:space="preserve">
<path d="M121,128H7c0-32.9,24.2-35.4,37.2-41.8C45.3,91.8,53.6,96,64,96c10.5,0,18.9-4.3,19.9-10C98.1,93.2,121,94.3,121,128z
	 M37.1,45.9c1.3,9.4,5.6,9.1,5.6,9.1C44.2,65,50,71,50,71v7.7c0,2.5-1.2,4.8-3.3,6.2c-0.2,0.1-0.4,0.2-0.6,0.4
	C46.4,90,54.5,94,64,94c9.7,0,17.9-4.1,18-9.1c-0.2-0.1-0.4-0.3-0.7-0.4c-2.1-1.3-3.3-3.7-3.3-6.1V71c0,0,5.7-6.2,7.3-16
	c0,0,3.5-0.3,5.4-8c1.4-6-2.4-6-2.4-6c0-0.1,0-0.2,0-0.3C91,28.7,93.4,8,79,8c-2-5-8.6-8-15.3-8C38.6,0,31.4,20.5,39.2,41.1
	C38.3,41.4,36.6,42.3,37.1,45.9z"/>
</svg>
