<?xml version="1.0" encoding="utf-8"?>
<!-- Generator: Adobe Illustrator 18.1.1, SVG Export Plug-In . SVG Version: 6.00 Build 0)  -->
<svg version="1.1" id="Layer_1" xmlns="http://www.w3.org/2000/svg" xmlns:xlink="http://www.w3.org/1999/xlink" x="0px" y="0px"
	 viewBox="0 0 16 16" enable-background="new 0 0 16 16" xml:space="preserve">
<path d="M15,16H1c0-4.1,2.2-4.8,3.9-5.6C5.3,11.4,6.5,12,8,12c1.5,0,2.7-0.6,3.1-1.6C12.9,11.2,15,11.8,15,16z M4.5,5.7
	c0.2,1.2,0.7,1.1,0.7,1.1C5.3,7.7,5.7,8.3,6,8.6v0.7c0,0.2-0.1,0.4-0.3,0.6C5.9,10.5,6.9,11,8,11c1.1,0,2.1-0.5,2.3-1.1
	C10.1,9.7,10,9.5,10,9.3V8.6c0.3-0.3,0.6-0.9,0.8-1.7c0,0,0.4,0,0.7-1c0.2-0.7-0.3-0.7-0.3-0.7C11.5,3.6,11.7,1,9.9,1
	C9.6,0.4,8.8,0,8,0C4.9,0,4,2.6,4.9,5.1c0,0,0,0,0,0C4.9,5.1,4.4,5.1,4.5,5.7z"/>
</svg>
