<?xml version="1.0" encoding="utf-8"?><!-- Generator: Adobe Illustrator 17.1.0, SVG Export Plug-In . SVG Version: 6.00 Build 0)  --><!DOCTYPE svg PUBLIC "-//W3C//DTD SVG 1.0//EN" "http://www.w3.org/TR/2001/REC-SVG-20010904/DTD/svg10.dtd"><svg xmlns="http://www.w3.org/2000/svg" xmlns:xlink="http://www.w3.org/1999/xlink" version="1.0" viewBox="0 0 128 128" preserveAspectRatio="none"><style> svg * { background-size: cover; background-repeat: no-repeat; } @media all and (max-width: 32px) { #group_1 { opacity: 1; } #group_2, #group_3 { opacity: 0; } } @media all and (min-width: 33px) and (max-width: 127px) { #group_2 { opacity: 1; } #group_1, #group_3 { opacity: 0; } } @media all and (min-width: 128px) { #group_3 { opacity: 1; } #group_1, #group_2 { opacity: 0; } } </style><g id="group_3"><path d="M128,71.9v-16l-16.2-2.6c-1.3-5.6-3.4-10.8-6.4-15.5l9.4-13.5L103.5,13l-13.3,9.6c-4.7-3-9.9-5.2-15.5-6.4L71.9,0h-16l-2.6,16.2c-5.5,1.2-10.7,3.4-15.4,6.4L24.5,13L13.2,24.3l9.4,13.5c-3,4.7-5.1,9.8-6.4,15.4L0,55.9v16l16.2,2.9c1.2,5.5,3.4,10.7,6.4,15.4L13,103.5l11.3,11.3l13.5-9.4c4.7,3,9.8,5.1,15.4,6.4l2.7,16.2h16l2.9-16.2c5.6-1.2,10.8-3.5,15.5-6.4l13.5,9.4l11.3-11.3l-9.6-13.3c3-4.7,5.2-9.9,6.4-15.5L128,71.9z M64,104c-22.1,0-40-17.9-40-40c0-22.1,17.9-40,40-40s40,17.9,40,40C104,86.1,86.1,104,64,104z"></path><path d="M64,26c-21,0-38,17-38,38c0,21,17,38,38,38s38-17,38-38C102,43,85,26,64,26z M64,84c-11,0-20-9-20-20c0-11,9-20,20-20s20,9,20,20C84,75,75,84,64,84z"></path><path fill="none" stroke="#000000" stroke-width="2" stroke-miterlimit="10" d="M81,64c0,9.4-7.6,17-17,17s-17-7.6-17-17c0-9.4,7.6-17,17-17S81,54.6,81,64"></path></g><g transform="scale(8)" id="group_1"><path d="M16,9V7l-2-0.3c-0.2-0.7-0.4-1.3-0.8-1.9L14.4,3l-1.4-1.4l-1.7,1.2C10.7,2.5,10,2.2,9.3,2L9,0H7L6.7,2C6,2.2,5.3,2.5,4.7,2.8L3.1,1.6L1.6,3l1.2,1.7C2.5,5.3,2.2,6,2,6.6L0,7v2l2,0.4c0.2,0.7,0.4,1.3,0.8,1.9l-1.2,1.7L3,14.4l1.7-1.2C5.3,13.5,6,13.8,6.6,14L7,16h2l0.4-2c0.7-0.2,1.4-0.4,1.9-0.8l1.7,1.2l1.4-1.4l-1.2-1.7c0.4-0.6,0.6-1.2,0.8-1.9L16,9z M8,13c-2.8,0-5-2.2-5-5c0-2.8,2.2-5,5-5s5,2.2,5,5C13,10.8,10.8,13,8,13z M8,4C5.8,4,4,5.8,4,8c0,2.2,1.8,4,4,4c2.2,0,4-1.8,4-4C12,5.8,10.2,4,8,4z M8,10c-1.1,0-2-0.9-2-2s0.9-2,2-2s2,0.9,2,2S9.1,10,8,10z"></path></g><g transform="scale(4)" id="group_2"><path d="M32,18v-4l-4.1-0.7c-0.3-1.4-0.9-2.7-1.6-3.9l2.4-3.4l-2.8-2.8l-3.3,2.4c-1.2-0.7-2.5-1.3-3.9-1.6L18,0h-4l-0.7,4.1c-1.4,0.3-2.7,0.9-3.8,1.6L6.1,3.2L3.3,6.1l2.4,3.4c-0.7,1.2-1.3,2.5-1.6,3.8L0,14v4l4,0.7c0.3,1.4,0.9,2.7,1.6,3.8l-2.4,3.3l2.8,2.8l3.4-2.4c1.2,0.7,2.5,1.3,3.8,1.6L14,32h4l0.7-4c1.4-0.3,2.7-0.9,3.9-1.6l3.4,2.4l2.8-2.8l-2.4-3.3c0.7-1.2,1.3-2.5,1.6-3.9L32,18z M16,25c-5,0-9-4-9-9c0-5,4-9,9-9s9,4,9,9C25,21,21,25,16,25z M16,8c-4.4,0-8,3.6-8,8c0,4.4,3.6,8,8,8c4.4,0,8-3.6,8-8C24,11.6,20.4,8,16,8z M16,20c-2.2,0-4-1.8-4-4s1.8-4,4-4s4,1.8,4,4S18.2,20,16,20z"></path></g></svg>