<?xml version="1.0" encoding="utf-8"?><!-- Generator: Adobe Illustrator 17.1.0, SVG Export Plug-In . SVG Version: 6.00 Build 0)  --><!DOCTYPE svg PUBLIC "-//W3C//DTD SVG 1.0//EN" "http://www.w3.org/TR/2001/REC-SVG-20010904/DTD/svg10.dtd"><svg xmlns="http://www.w3.org/2000/svg" xmlns:xlink="http://www.w3.org/1999/xlink" version="1.0" viewBox="0 0 128 128" preserveAspectRatio="none"><style> svg * { background-size: cover; background-repeat: no-repeat; } @media all and (max-width: 32px) { #group_1 { opacity: 1; } #group_2, #group_3 { opacity: 0; } } @media all and (min-width: 33px) and (max-width: 127px) { #group_2 { opacity: 1; } #group_1, #group_3 { opacity: 0; } } @media all and (min-width: 128px) { #group_3 { opacity: 1; } #group_1, #group_2 { opacity: 0; } } </style><g id="group_3"><path d="M19,20h90v6c0,0.6-0.4,1-1,1H20c-0.6,0-1-0.4-1-1V20z M108,15H20c-0.6,0-1,0.4-1,1v3h90v-3C109,15.4,108.6,15,108,15z M35,127c0,0.6,0.4,1,1,1h56c0.6,0,1-0.4,1-1v-2H35V127z M105.8,14H22.2C23.7,9.9,37.4,6.5,53,5.4V1.5C53,0.7,53.7,0,54.5,0h19C74.3,0,75,0.7,75,1.5v3.9C90.6,6.5,104.3,9.9,105.8,14z M56,5.2C58.6,5.1,61.3,5,64,5s5.4,0.1,8,0.2V3H56V5.2z M22,28h84l-10.8,94.2c-0.1,1-1,1.8-2,1.8H34.8c-1,0-1.9-0.8-2-1.8L22,28z M99,36.5l-8.5,81c0,0.3,0.2,0.5,0.4,0.6c0,0,0,0,0.1,0c0.3,0,0.5-0.2,0.5-0.5l8.5-81c0-0.3-0.2-0.5-0.4-0.6C99.3,36,99.1,36.2,99,36.5z M83,116.9c0,0.6,0.4,1,0.9,1.1c0,0,0.1,0,0.1,0c0.5,0,1-0.4,1-0.9l6.1-80c0-0.6-0.4-1-0.9-1.1c-0.6,0-1,0.4-1.1,0.9L83,116.9z M74.5,116.4c0,0.8,0.6,1.5,1.4,1.6c0,0,0,0,0.1,0c0.8,0,1.5-0.6,1.5-1.4l3.7-79c0-0.8-0.6-1.5-1.4-1.6c-0.8,0-1.5,0.6-1.6,1.4L74.5,116.4z M66.5,116.5c0,0.8,0.6,1.5,1.5,1.5c0,0,0,0,0,0c0.8,0,1.5-0.7,1.5-1.5l1.2-79c0-0.8-0.6-1.5-1.5-1.5c0,0,0,0,0,0c-0.8,0-1.5,0.7-1.5,1.5L66.5,116.5z M57.3,37.5l1.2,79c0,0.8,0.7,1.5,1.5,1.5c0,0,0,0,0,0c0.8,0,1.5-0.7,1.5-1.5l-1.2-79c0-0.8-0.7-1.5-1.5-1.5c0,0,0,0,0,0C57.9,36,57.3,36.7,57.3,37.5z M46.8,37.6l3.7,79c0,0.8,0.7,1.4,1.5,1.4c0,0,0,0,0.1,0c0.8,0,1.5-0.7,1.4-1.6l-3.7-79c0-0.8-0.8-1.5-1.6-1.4C47.4,36,46.8,36.7,46.8,37.6z M36.9,37.1l6.1,80c0,0.5,0.5,0.9,1,0.9c0,0,0.1,0,0.1,0c0.6,0,1-0.5,0.9-1.1l-6.1-80c0-0.6-0.5-1-1.1-0.9C37.3,36,36.9,36.5,36.9,37.1z M28,36.6l8.5,81c0,0.3,0.2,0.5,0.5,0.5c0,0,0,0,0.1,0c0.3,0,0.5-0.3,0.4-0.6l-8.5-81c0-0.3-0.3-0.5-0.6-0.5C28.1,36,27.9,36.3,28,36.6z"></path></g><g transform="scale(8)" id="group_1"><path d="M15,2v1H1V2h1.7C3.2,1.4,5,1,7,0.9V0h2v0.9C11,1,12.8,1.4,13.3,2H15z M2,4h12l-1.8,11.2c-0.1,0.5-0.5,0.8-1,0.8H4.8c-0.5,0-0.9-0.4-1-0.8L2,4z M11,14h0.6l0.9-8h-0.9L11,14z M9,14h1V6H9V14z M6,14h1V6H6V14z M4.4,6H3.4l1,8H5L4.4,6z"></path></g><g transform="scale(4)" id="group_2"><path d="M28,5v2H4V5H28z M5,8h22l-2.8,23.6c0,0.3-0.3,0.4-0.5,0.4H8.4c-0.3,0-0.5-0.2-0.5-0.4L5,8z M20.2,28.6c0,0.2,0.2,0.4,0.5,0.4c0,0,0,0,0,0c0.3,0,0.5-0.1,0.5-0.3l1.3-18.3c0-0.2-0.2-0.4-0.5-0.4c-0.3,0-0.5,0.1-0.5,0.3L20.2,28.6z M17.1,28.6c0,0.2,0.2,0.4,0.5,0.4c0,0,0,0,0,0c0.3,0,0.5-0.2,0.5-0.3l0.4-18.3c0-0.2-0.2-0.4-0.5-0.4c0,0,0,0,0,0c-0.3,0-0.5,0.2-0.5,0.3L17.1,28.6z M13.5,10.4l0.4,18.3c0,0.2,0.2,0.3,0.5,0.3c0,0,0,0,0,0c0.3,0,0.5-0.2,0.5-0.4l-0.4-18.3c0-0.2-0.2-0.3-0.5-0.3c0,0,0,0,0,0C13.7,10,13.4,10.2,13.5,10.4z M9.5,10.4l1.3,18.3c0,0.2,0.2,0.3,0.5,0.3c0,0,0,0,0,0c0.3,0,0.5-0.2,0.5-0.4l-1.3-18.3c0-0.2-0.3-0.3-0.5-0.3C9.7,10,9.5,10.2,9.5,10.4z M27,4H5c0.4-0.9,3.9-1.6,8-1.9V0.5C13,0.2,13.2,0,13.5,0h5C18.8,0,19,0.2,19,0.5v1.6C23.1,2.4,26.6,3.1,27,4z M18,1h-4v0.8h4V1z"></path></g></svg>