<?xml version="1.0" encoding="utf-8"?><!-- Generator: Adobe Illustrator 17.1.0, SVG Export Plug-In . SVG Version: 6.00 Build 0)  --><!DOCTYPE svg PUBLIC "-//W3C//DTD SVG 1.0//EN" "http://www.w3.org/TR/2001/REC-SVG-20010904/DTD/svg10.dtd"><svg xmlns="http://www.w3.org/2000/svg" xmlns:xlink="http://www.w3.org/1999/xlink" version="1.0" viewBox="0 0 128 128" preserveAspectRatio="none"><style> svg * { background-size: cover; background-repeat: no-repeat; } @media all and (max-width: 32px) { #group_1 { opacity: 1; } #group_2, #group_3 { opacity: 0; } } @media all and (min-width: 33px) and (max-width: 127px) { #group_2 { opacity: 1; } #group_1, #group_3 { opacity: 0; } } @media all and (min-width: 128px) { #group_3 { opacity: 1; } #group_1, #group_2 { opacity: 0; } } </style>function map() { [native code] }<g id="group_3"><path d="M0,0v128h128V0H0z M126,126H2V2h124V126z M123,5H5v22v4v14v4v74h118V5z M121,27h-11V7h11V27z M7,49h16.6c-0.6-1.3-1.1-2.7-1.5-4H7V31h15.5c0.7-1.5,1.5-2.8,2.5-4H7V7h81v20H50.9c1,1.2,1.9,2.5,2.5,4H92v-2v-2V7h14v24h15v14h-15v76H92V49v-2v-2H53.9c-0.4,1.3-0.9,2.7-1.5,4H88v32H60v0c-22.3,0-40.5,17.9-41,40H7V49z M110,83h11v11h-11V83z M110,81V49h11v32H110z M88,94H60c-15.1,0-27.4,12-28,27h-11c0.5-21,17.8-38,38.9-38v0h28V94z M60,96h28v25H34C34.6,107.1,46,96,60,96z M110,121V96h11v25H110z M54,38c0-8.8-7.2-16-16-16s-16,7.2-16,16c0,14,16,30,16,30S54,51.9,54,38z M33,38c0-2.8,2.2-5,5-5s5,2.2,5,5s-2.2,5-5,5S33,40.8,33,38z"></path></g><g transform="scale(8)" id="group_1"><path d="M0,0v16h16V0H0z M1,1h7v3H1V1z M15,15h-3V8h3V15z M15,7h-4v8H9V8V7.5V7H7.4c0.2,0.3,0.3,0.6,0.3,1H8v7H1V8h0.3c0.1-0.4,0.2-0.7,0.3-1H1V5h8V1h2v4h4V7z M15,4h-3V1h3V4z M4.5,6C3.1,6,2,7.1,2,8.5c0,2.2,2.5,4.7,2.5,4.7S7,10.7,7,8.5C7,7.1,5.9,6,4.5,6z M4.5,9.5c-0.6,0-1-0.4-1-1c0-0.6,0.4-1,1-1s1,0.4,1,1C5.5,9.1,5.1,9.5,4.5,9.5z"></path></g><g transform="scale(4)" id="group_2"><path d="M0,0v32h32V0H0z M21,23h-5c-4.2,0-7.6,3-8.4,7h-2c0.7-5.1,5.1-9,10.4-9h5V23z M8.7,30c0.7-3.4,3.7-6,7.3-6h5v6H8.7z M30,30h-2v-6h2V30z M30,23h-2V21h2V23z M30,20h-2v-6h2V20z M30,12h-4v18h-3V14v-1v-1h-8.7c-0.3,0.7-0.7,1.4-1.1,2H21v6h-5c-5.8,0-10.7,4.4-11.4,10H2V14h4.8c-0.4-0.6-0.8-1.3-1.1-2H2V9h3c0-0.7,0.2-1.4,0.4-2H2V2h19v5h-6.4C14.8,7.6,15,8.3,15,9h8V8V7V2h3v7h4V12z M28,7V2h2v5H28z M10,5C7.8,5,6,6.8,6,9c0,3.5,4,7.5,4,7.5s4-4,4-7.5C14,6.8,12.2,5,10,5z M10,10.5c-0.8,0-1.5-0.7-1.5-1.5S9.2,7.5,10,7.5s1.5,0.7,1.5,1.5S10.8,10.5,10,10.5z"></path></g></svg>