<?xml version="1.0" encoding="utf-8"?><!-- Generator: Adobe Illustrator 17.1.0, SVG Export Plug-In . SVG Version: 6.00 Build 0)  --><!DOCTYPE svg PUBLIC "-//W3C//DTD SVG 1.0//EN" "http://www.w3.org/TR/2001/REC-SVG-20010904/DTD/svg10.dtd"><svg xmlns="http://www.w3.org/2000/svg" xmlns:xlink="http://www.w3.org/1999/xlink" version="1.0" viewBox="0 0 128 128" preserveAspectRatio="none"><style> svg * { background-size: cover; background-repeat: no-repeat; } @media all and (max-width: 32px) { #group_1 { opacity: 1; } #group_2, #group_3 { opacity: 0; } } @media all and (min-width: 33px) and (max-width: 127px) { #group_2 { opacity: 1; } #group_1, #group_3 { opacity: 0; } } @media all and (min-width: 128px) { #group_3 { opacity: 1; } #group_1, #group_2 { opacity: 0; } } </style><g id="group_3"><path d="M70,42c-16.6,0-30,13.4-30,30c0,16.6,13.4,30,30,30s30-13.4,30-30C100,55.4,86.6,42,70,42z M70,97c-13.8,0-25-11.2-25-25s11.2-25,25-25s25,11.2,25,25S83.8,97,70,97z M92,72c0,12.2-9.8,22-22,22s-22-9.8-22-22c0-12.2,9.8-22,22-22S92,59.8,92,72z M34,23H13v-4c0-1.1,0.9-2,2-2h17c1.1,0,2,0.9,2,2V23z M107,23h-7v-2c0-0.6,0.4-1,1-1h5c0.6,0,1,0.4,1,1V23z M116,23h-7v-2c0-0.6,0.4-1,1-1h5c0.6,0,1,0.4,1,1V23z M116,24H97.1L86.8,10.4C85.7,8.9,83.9,8,82,8H58c-1.9,0-3.7,0.9-4.8,2.4L42.9,24H12C5.4,24,0,29.4,0,36v72c0,6.6,5.4,12,12,12h104c6.6,0,12-5.4,12-12V36C128,29.4,122.6,24,116,24z M13,35c-3.3,0-6-1.6-6-3.5c0-1.9,2.7-3.5,6-3.5c3.3,0,6,1.6,6,3.5C19,33.4,16.3,35,13,35z M27,107h-1V37h1V107z M70,104c-17.7,0-32-14.3-32-32c0-17.7,14.3-32,32-32s32,14.3,32,32C102,89.7,87.7,104,70,104z M99,46c-1.7,0-3-1.3-3-3c0-1.7,1.3-3,3-3c1.7,0,3,1.3,3,3C102,44.7,100.7,46,99,46z M104.4,78.5c0.4-2.1,0.6-4.3,0.6-6.5s-0.2-4.4-0.6-6.5c3.4,0.2,6.1,3,6.1,6.5C110.5,75.5,107.8,78.3,104.4,78.5z"></path></g><g transform="scale(8)" id="group_1"><path d="M13,3h-1.1l-1.8-2H5.9L4.1,3H3C1.3,3,0,4.3,0,6v6c0,1.7,1.3,3,3,3h10c1.7,0,3-1.3,3-3V6C16,4.3,14.7,3,13,3z M8,13c-2.2,0-4-1.8-4-4c0-2.2,1.8-4,4-4s4,1.8,4,4C12,11.2,10.2,13,8,13z M10.5,9c0,1.4-1.1,2.5-2.5,2.5S5.5,10.4,5.5,9c0-1.4,1.1-2.5,2.5-2.5S10.5,7.6,10.5,9z"></path></g><g transform="scale(4)" id="group_2"><path d="M28,6h-4.3l-2.9-3.3C20.4,2.2,19.9,2,19.3,2h-6.6c-0.6,0-1.1,0.2-1.5,0.7L8.3,6H4c-2.2,0-4,1.8-4,4v16c0,2.2,1.8,4,4,4h24c2.2,0,4-1.8,4-4V10C32,7.8,30.2,6,28,6z M5.5,12C4.7,12,4,11.3,4,10.5S4.7,9,5.5,9S7,9.7,7,10.5S6.3,12,5.5,12z M16,26c-4.4,0-8-3.6-8-8c0-4.4,3.6-8,8-8s8,3.6,8,8C24,22.4,20.4,26,16,26z M22,18c0,3.3-2.7,6-6,6s-6-2.7-6-6s2.7-6,6-6S22,14.7,22,18z"></path></g></svg>