<?xml version="1.0" encoding="utf-8"?><!-- Generator: Adobe Illustrator 17.1.0, SVG Export Plug-In . SVG Version: 6.00 Build 0)  --><!DOCTYPE svg PUBLIC "-//W3C//DTD SVG 1.0//EN" "http://www.w3.org/TR/2001/REC-SVG-20010904/DTD/svg10.dtd"><svg xmlns="http://www.w3.org/2000/svg" xmlns:xlink="http://www.w3.org/1999/xlink" version="1.0" viewBox="0 0 128 128" preserveAspectRatio="none"><style> svg * { background-size: cover; background-repeat: no-repeat; } @media all and (max-width: 32px) { #group_1 { opacity: 1; } #group_2, #group_3 { opacity: 0; } } @media all and (min-width: 33px) and (max-width: 127px) { #group_2 { opacity: 1; } #group_1, #group_3 { opacity: 0; } } @media all and (min-width: 128px) { #group_3 { opacity: 1; } #group_1, #group_2 { opacity: 0; } } </style><g id="group_3"><path d="M112,47.1c0.2,0.1,0.3,0.3,0.3,0.5c0,0.3-0.2,0.5-0.5,0.6c-0.2,0.1-0.5,0.1-0.9,0.1c-0.5,0-0.8-0.1-1.1-0.2s-0.4-0.3-0.4-0.6c0-0.3,0.1-0.5,0.4-0.6c0.3-0.1,0.6-0.1,1-0.1C111.4,46.9,111.8,46.9,112,47.1z M114,0v128h-5v-1c0-0.6-0.4-1-1-1h-8c-0.6,0-1,0.4-1,1v1H29v-1c0-0.6-0.4-1-1-1h-8c-0.6,0-1,0.4-1,1v1h-5V0h5v1c0,0.6,0.4,1,1,1h8c0.6,0,1-0.4,1-1V0h70v1c0,0.6,0.4,1,1,1h8c0.6,0,1-0.4,1-1V0H114z M29,116c0-0.6-0.4-1-1-1h-8c-0.6,0-1,0.4-1,1v6c0,0.6,0.4,1,1,1h8c0.6,0,1-0.4,1-1V116z M29,105c0-0.6-0.4-1-1-1h-8c-0.6,0-1,0.4-1,1v6c0,0.6,0.4,1,1,1h8c0.6,0,1-0.4,1-1V105z M29,94c0-0.6-0.4-1-1-1h-8c-0.6,0-1,0.4-1,1v6c0,0.6,0.4,1,1,1h8c0.6,0,1-0.4,1-1V94z M29,83c0-0.6-0.4-1-1-1h-8c-0.6,0-1,0.4-1,1v6c0,0.6,0.4,1,1,1h8c0.6,0,1-0.4,1-1V83z M29,72c0-0.6-0.4-1-1-1h-8c-0.6,0-1,0.4-1,1v6c0,0.6,0.4,1,1,1h8c0.6,0,1-0.4,1-1V72z M29,61c0-0.6-0.4-1-1-1h-8c-0.6,0-1,0.4-1,1v6c0,0.6,0.4,1,1,1h8c0.6,0,1-0.4,1-1V61z M29,50c0-0.6-0.4-1-1-1h-8c-0.6,0-1,0.4-1,1v6c0,0.6,0.4,1,1,1h8c0.6,0,1-0.4,1-1V50z M29,39c0-0.6-0.4-1-1-1h-8c-0.6,0-1,0.4-1,1v6c0,0.6,0.4,1,1,1h8c0.6,0,1-0.4,1-1V39z M29,28c0-0.6-0.4-1-1-1h-8c-0.6,0-1,0.4-1,1v6c0,0.6,0.4,1,1,1h8c0.6,0,1-0.4,1-1V28z M29,17c0-0.6-0.4-1-1-1h-8c-0.6,0-1,0.4-1,1v6c0,0.6,0.4,1,1,1h8c0.6,0,1-0.4,1-1V17z M29,6c0-0.6-0.4-1-1-1h-8c-0.6,0-1,0.4-1,1v6c0,0.6,0.4,1,1,1h8c0.6,0,1-0.4,1-1V6z M94,13.8v-0.2l3.4-0.8L94.2,12l1.8-0.4l-2-0.5v-0.4l1.5-0.3L94,10.1V9.7l2.2-0.5L94,8.7V8.2L94.9,8L94,7.8V7.5l3-0.7l-3-0.7v0l2-0.5l-2-0.5V4.8l1.7-0.4L94,4V3.7l2.2-0.5L94,2.7V2.2L94.9,2l-1.4-0.3L92.1,2L93,2.2v0.5l-2.2,0.5L93,3.7V4l-1.7,0.4L93,4.8v0.3l-2,0.5l2,0.5v0l-3,0.7l3,0.7v0.3L92.1,8L93,8.2v0.5l-2.2,0.5L93,9.7v0.3l-1.4,0.3l1.4,0.3v0.4l-2,0.5l1.8,0.4l-3.3,0.8l3.4,0.8v0.2L92.1,14l0.9,0.2v0.5l-2.2,0.5l2.2,0.5V16l-1.7,0.4l1.7,0.4v0.3l-2,0.5l2,0.5v0l-3,0.7l3,0.7v0.3L92.1,20l0.9,0.2v0.5l-2.2,0.5l2.2,0.5v0.3l-1.4,0.3l1.4,0.3v0.4l-2,0.5l1.8,0.4l-3.3,0.8l3.4,0.8v0.2L92.1,26l0.9,0.2v0.7l-1.4,0.3l1.4,0.3v0.4l-2,0.5l2,0.5v0.5l-0.9,0.2l0.9,0.2v0.7l-1.4,0.3l1.4,0.3v0.4L91,32l2,0.5V33l-0.9,0.2l0.9,0.2v0.5l-2.2,0.5l2.2,0.5v0.3l-1.7,0.4L93,36v0.3l-2,0.5l2,0.5v0L90,38l3,0.7V39l-0.9,0.2l0.9,0.2v0.5l-2.2,0.5l2.2,0.5v0.3l-1.4,0.3L93,42v0.4l-2,0.5l1.8,0.4L89.6,44l3.4,0.8V45l-0.9,0.2l0.9,0.2v0.5l-2.2,0.5l2.2,0.5v0.3l-1.7,0.4L93,48v0.3l-2,0.5l2,0.5v0L90,50l3,0.7V51l-0.9,0.2l0.9,0.2v0.5l-2.2,0.5l2.2,0.5v0.3l-1.4,0.3L93,54v0.4l-2,0.5l1.8,0.4L89.6,56l3.4,0.8V57l-0.9,0.2l0.9,0.2v0.7l-1.4,0.3l1.4,0.3v0.4l-2,0.5l2,0.5v0.5l-0.9,0.2L93,61v0.7L91.6,62l1.4,0.3v0.4l-2,0.5l2,0.5v0.5l-0.9,0.2l0.9,0.2v0.5l-2.2,0.5l2.2,0.5v0.3l-1.7,0.4l1.7,0.4v0.3L91,68l2,0.5v0l-3,0.7l3,0.7v0.3l-0.9,0.2l0.9,0.2v0.5l-2.2,0.5l2.2,0.5v0.3l-1.4,0.3l1.4,0.3v0.4L91,74l1.8,0.4l-3.3,0.8l3.4,0.8v0.2l-0.9,0.2l0.9,0.2v0.5l-2.2,0.5l2.2,0.5v0.3l-1.7,0.4l1.7,0.4v0.3L91,80l2,0.5v0l-3,0.7l3,0.7v0.3l-0.9,0.2l0.9,0.2v0.5l-2.2,0.5l2.2,0.5v0.3l-1.4,0.3l1.4,0.3v0.4L91,86l1.8,0.4l-3.3,0.8l3.4,0.8v0.2l-0.9,0.2l0.9,0.2v0.7l-1.4,0.3L93,90v0.4l-2,0.5l2,0.5v0.5L92.1,92l0.9,0.2v0.7l-1.4,0.3l1.4,0.3V94l-2,0.5l2,0.5v0.5l-0.9,0.2l0.9,0.2v0.5l-2.2,0.5l2.2,0.5v0.3L91.3,98l1.7,0.4v0.3l-2,0.5l2,0.5v0l-3,0.7l3,0.7v0.3l-0.9,0.2l0.9,0.2v0.5l-2.2,0.5l2.2,0.5v0.3l-1.4,0.3l1.4,0.3v0.4l-2,0.5l1.8,0.4l-3.3,0.8l3.4,0.8v0.2l-0.9,0.2l0.9,0.2v0.5l-2.2,0.5l2.2,0.5v0.3l-1.7,0.4l1.7,0.4v0.3l-2,0.5l2,0.5v0l-3,0.7l3,0.7v0.3l-0.9,0.2l0.9,0.2v0.5l-2.2,0.5l2.2,0.5v0.3l-1.4,0.3l1.4,0.3v0.4l-2,0.5l1.8,0.4l-3.3,0.8l3.4,0.8v0.2l-0.9,0.2l0.9,0.2v0.7l-1.4,0.3l1.4,0.3v0.4l-2,0.5l2,0.5v0.5l-0.9,0.2l0.9,0.2v0.7l-1.4,0.3l1.4,0.3v0.4l-2,0.5l2.5,0.6l2.5-0.6l-2-0.5v-0.4l1.5-0.3l-1.5-0.3v-0.6l0.9-0.2l-0.9-0.2v-0.5l2-0.5l-2-0.5v-0.4l1.5-0.3l-1.5-0.3v-0.6l0.9-0.2l-0.9-0.2v-0.2l3.4-0.8l-3.3-0.8l1.8-0.4l-2-0.5v-0.4l1.5-0.3l-1.5-0.3v-0.3l2.2-0.5l-2.2-0.5v-0.5l0.9-0.2l-0.9-0.2v-0.3l3-0.7l-3-0.7v0l2-0.5l-2-0.5v-0.3l1.7-0.4l-1.7-0.4v-0.3l2.2-0.5l-2.2-0.5v-0.5l0.9-0.2l-0.9-0.2v-0.2l3.4-0.8l-3.3-0.8l1.8-0.4l-2-0.5v-0.4l1.5-0.3l-1.5-0.3v-0.3l2.2-0.5l-2.2-0.5v-0.5l0.9-0.2l-0.9-0.2v-0.3l3-0.7l-3-0.7v0l2-0.5l-2-0.5v-0.3l1.7-0.4L94,97.6v-0.3l2.2-0.5L94,96.3v-0.5l0.9-0.2L94,95.4v-0.5l2-0.5L94,94v-0.4l1.5-0.3L94,92.9v-0.6l0.9-0.2L94,91.8v-0.5l2-0.5l-2-0.5V90l1.5-0.3L94,89.3v-0.6l0.9-0.2L94,88.2v-0.2l3.4-0.8l-3.3-0.8L96,86l-2-0.5v-0.4l1.5-0.3L94,84.5v-0.3l2.2-0.5L94,83.1v-0.5l0.9-0.2L94,82.2v-0.3l3-0.7l-3-0.7v0l2-0.5l-2-0.5v-0.3l1.7-0.4L94,78.4v-0.3l2.2-0.5L94,77.1v-0.5l0.9-0.2L94,76.2v-0.2l3.4-0.8l-3.3-0.8L96,74l-2-0.5v-0.4l1.5-0.3L94,72.5v-0.3l2.2-0.5L94,71.1v-0.5l0.9-0.2L94,70.2v-0.3l3-0.7l-3-0.7v0l2-0.5l-2-0.5v-0.3l1.7-0.4L94,66.4v-0.3l2.2-0.5L94,65.1v-0.5l0.9-0.2L94,64.2v-0.5l2-0.5l-2-0.5v-0.4l1.5-0.3L94,61.7V61l0.9-0.2L94,60.6v-0.5l2-0.5l-2-0.5v-0.4l1.5-0.3L94,58.1v-0.6l0.9-0.2L94,57v-0.2l3.4-0.8l-3.3-0.8l1.8-0.4l-2-0.5V54l1.5-0.3L94,53.3v-0.3l2.2-0.5L94,51.9v-0.5l0.9-0.2L94,51v-0.3l3-0.7l-3-0.7v0l2-0.5l-2-0.5V48l1.7-0.4L94,47.2v-0.3l2.2-0.5L94,45.9v-0.5l0.9-0.2L94,45v-0.2l3.4-0.8l-3.3-0.8l1.8-0.4l-2-0.5V42l1.5-0.3L94,41.3v-0.3l2.2-0.5L94,39.9v-0.5l0.9-0.2L94,39v-0.3l3-0.7l-3-0.7v0l2-0.5l-2-0.5V36l1.7-0.4L94,35.2v-0.3l2.2-0.5L94,33.9v-0.5l0.9-0.2L94,33v-0.5l2-0.5l-2-0.5v-0.4l1.5-0.3L94,30.5v-0.6l0.9-0.2L94,29.4v-0.5l2-0.5l-2-0.5v-0.4l1.5-0.3L94,26.9v-0.6l0.9-0.2L94,25.8v-0.2l3.4-0.8L94.2,24l1.8-0.4l-2-0.5v-0.4l1.5-0.3L94,22.1v-0.3l2.2-0.5L94,20.7v-0.5l0.9-0.2L94,19.8v-0.3l3-0.7l-3-0.7v0l2-0.5l-2-0.5v-0.3l1.7-0.4L94,16v-0.3l2.2-0.5L94,14.7v-0.5l0.9-0.2L94,13.8z M109,116c0-0.6-0.4-1-1-1h-8c-0.6,0-1,0.4-1,1v6c0,0.6,0.4,1,1,1h8c0.6,0,1-0.4,1-1V116z M109,105c0-0.6-0.4-1-1-1h-8c-0.6,0-1,0.4-1,1v6c0,0.6,0.4,1,1,1h8c0.6,0,1-0.4,1-1V105z M109,94c0-0.6-0.4-1-1-1h-8c-0.6,0-1,0.4-1,1v6c0,0.6,0.4,1,1,1h8c0.6,0,1-0.4,1-1V94z M109,83c0-0.6-0.4-1-1-1h-8c-0.6,0-1,0.4-1,1v6c0,0.6,0.4,1,1,1h8c0.6,0,1-0.4,1-1V83z M109,72c0-0.6-0.4-1-1-1h-8c-0.6,0-1,0.4-1,1v6c0,0.6,0.4,1,1,1h8c0.6,0,1-0.4,1-1V72z M109,61c0-0.6-0.4-1-1-1h-8c-0.6,0-1,0.4-1,1v6c0,0.6,0.4,1,1,1h8c0.6,0,1-0.4,1-1V61z M109,50c0-0.6-0.4-1-1-1h-8c-0.6,0-1,0.4-1,1v6c0,0.6,0.4,1,1,1h8c0.6,0,1-0.4,1-1V50z M109,39c0-0.6-0.4-1-1-1h-8c-0.6,0-1,0.4-1,1v6c0,0.6,0.4,1,1,1h8c0.6,0,1-0.4,1-1V39z M109,28c0-0.6-0.4-1-1-1h-8c-0.6,0-1,0.4-1,1v6c0,0.6,0.4,1,1,1h8c0.6,0,1-0.4,1-1V28z M109,17c0-0.6-0.4-1-1-1h-8c-0.6,0-1,0.4-1,1v6c0,0.6,0.4,1,1,1h8c0.6,0,1-0.4,1-1V17z M109,6c0-0.6-0.4-1-1-1h-8c-0.6,0-1,0.4-1,1v6c0,0.6,0.4,1,1,1h8c0.6,0,1-0.4,1-1V6z M109.7,26.8l1.3-0.5l1.3,0.5l-1.3-2.7L109.7,26.8z M112.7,91.6c0-0.4-0.1-0.7-0.3-0.9c-0.2-0.2-0.5-0.3-0.8-0.3c-0.2,0-0.4,0.1-0.5,0.2c-0.1,0.1-0.2,0.2-0.3,0.4c0-0.1-0.1-0.2-0.2-0.3c-0.1-0.1-0.3-0.2-0.5-0.2c-0.3,0-0.5,0.1-0.7,0.3c-0.2,0.2-0.2,0.5-0.2,0.8c0,0.5,0.2,0.8,0.5,0.9c0.2,0.1,0.4,0.2,0.7,0.2v-0.4c-0.2,0-0.4,0-0.5-0.1c-0.2-0.1-0.3-0.3-0.3-0.6c0-0.2,0-0.3,0.1-0.4s0.2-0.2,0.4-0.2c0.2,0,0.4,0.1,0.5,0.3c0.1,0.1,0.1,0.2,0.1,0.4c0,0,0,0.1,0,0.1c0,0,0,0.1,0,0.1h0.4c0,0,0-0.1,0-0.1s0-0.1,0-0.1c0-0.3,0-0.5,0.1-0.6s0.3-0.2,0.5-0.2c0.2,0,0.4,0.1,0.5,0.2c0.1,0.1,0.2,0.3,0.2,0.6c0,0.3-0.1,0.5-0.3,0.6c-0.1,0.1-0.3,0.1-0.5,0.1v0.5c0.3,0,0.6-0.1,0.8-0.3C112.6,92.3,112.7,92,112.7,91.6z M112.7,69.5c0-0.5-0.2-0.8-0.7-1c-0.3-0.1-0.7-0.2-1.2-0.2c-0.5,0-0.9,0.1-1.2,0.2c-0.4,0.2-0.6,0.5-0.6,1c0,0.5,0.3,0.9,0.8,1c0.3,0.1,0.6,0.2,1,0.2c0.5,0,0.9-0.1,1.2-0.3C112.5,70.2,112.7,69.9,112.7,69.5z M112.7,47.6c0-0.5-0.2-0.8-0.7-1c-0.3-0.1-0.7-0.2-1.2-0.2c-0.5,0-0.9,0.1-1.2,0.2c-0.4,0.2-0.6,0.5-0.6,1c0,0.5,0.3,0.9,0.8,1c0.3,0.1,0.6,0.2,1,0.2c0.5,0,0.9-0.1,1.2-0.3C112.5,48.3,112.7,48,112.7,47.6z M110.9,68.7c-0.4,0-0.7,0-1,0.1c-0.3,0.1-0.4,0.3-0.4,0.6c0,0.3,0.1,0.4,0.4,0.6s0.6,0.2,1.1,0.2c0.4,0,0.6,0,0.9-0.1c0.3-0.1,0.5-0.3,0.5-0.6c0-0.2-0.1-0.4-0.3-0.5C111.8,68.8,111.4,68.7,110.9,68.7z"></path></g><g transform="scale(8)" id="group_1"><path d="M15,0v1h-2V0H3v1H1V0H0v16h1v-1h2v1h10v-1h2v1h1V0H15z M3,13H1v-2h2V13z M3,9H1V7h2V9z M3,5H1V3h2V5z M15,13h-2v-2h2V13z M15,9h-2V7h2V9z M15,5h-2V3h2V5z"></path></g><g transform="scale(4)" id="group_2"><path d="M30,0v1h-3V0H5v1H2V0H0v32h2v-1h3v1h22v-1h3v1h2V0H30z M5,29H2v-2h3V29z M5,25H2v-2h3V25z M5,21H2v-2h3V21z M5,17H2v-2h3V17z M5,13H2v-2h3V13z M5,9H2V7h3V9z M5,5H2V3h3V5z M30,29h-3v-2h3V29z M30,25h-3v-2h3V25z M30,21h-3v-2h3V21z M30,17h-3v-2h3V17z M30,13h-3v-2h3V13z M30,9h-3V7h3V9z M30,5h-3V3h3V5z"></path></g></svg>