<?xml version="1.0" encoding="utf-8"?><!-- Generator: Adobe Illustrator 17.1.0, SVG Export Plug-In . SVG Version: 6.00 Build 0)  --><!DOCTYPE svg PUBLIC "-//W3C//DTD SVG 1.0//EN" "http://www.w3.org/TR/2001/REC-SVG-20010904/DTD/svg10.dtd"><svg xmlns="http://www.w3.org/2000/svg" xmlns:xlink="http://www.w3.org/1999/xlink" version="1.0" viewBox="0 0 128 128" preserveAspectRatio="none"><style> svg * { background-size: cover; background-repeat: no-repeat; } @media all and (max-width: 32px) { #group_1 { opacity: 1; } #group_2, #group_3 { opacity: 0; } } @media all and (min-width: 33px) and (max-width: 127px) { #group_2 { opacity: 1; } #group_1, #group_3 { opacity: 0; } } @media all and (min-width: 128px) { #group_3 { opacity: 1; } #group_1, #group_2 { opacity: 0; } } </style><g id="group_3"><path d="M89,128H39c0-3,8.6-5.5,20-6.1V118h10v3.9C80.4,122.5,89,125,89,128z M89,49v1.1c-1.4,1.4-4,4.6-4,10.9v11c0,11.6-9.4,21-21,21c-11.6,0-21-9.4-21-21V61c0-6.3-2.6-9.6-4-10.9V49c0-1.1-0.9-2-2-2h-3v10h3c0.5,0,1-0.2,1.3-0.5c0.4,1.2,0.7,2.7,0.7,4.5v11c0,12.8,9.6,23.3,22,24.8V117h6V96.8c12.4-1.5,22-12,22-24.8V61c0-1.9,0.3-3.4,0.6-4.5C90,56.8,90.5,57,91,57h3V47h-3C89.9,47,89,47.9,89,49z M99,49h-1v-1c0-0.6-0.4-1-1-1h-2v10h2c0.6,0,1-0.4,1-1v-1h1V49z M30,48v1h-1v6h1v1c0,0.6,0.4,1,1,1h2V47h-2C30.4,47,30,47.4,30,48z M83,48H45c0-12,0-25.6,0-29C45,8.5,53.5,0,64,0s19,8.5,19,19C83,22.4,83,36,83,48z M78.5,12.9c0.5,0.9,1.3,1.4,1.8,1.1c0.5-0.3,0.6-1.3,0.1-2.2c-0.5-0.9-1.3-1.4-1.8-1.1C78.1,11,78.1,12,78.5,12.9z M50,32c0,1.1,0.9,2,2,2s2-0.9,2-2c0-1.1-0.9-2-2-2S50,30.9,50,32z M52,26c1.1,0,2-0.9,2-2c0-1.1-0.9-2-2-2s-2,0.9-2,2C50,25.1,50.9,26,52,26z M54,36c0,1.1,0.9,2,2,2s2-0.9,2-2c0-1.1-0.9-2-2-2S54,34.9,54,36z M58,28c0-1.1-0.9-2-2-2s-2,0.9-2,2c0,1.1,0.9,2,2,2S58,29.1,58,28z M70,16c0-1.1-0.9-2-2-2s-2,0.9-2,2c0,1.1,0.9,2,2,2S70,17.1,70,16z M70,20c0,1.1,0.9,2,2,2s2-0.9,2-2c0-1.1-0.9-2-2-2S70,18.9,70,20z M68,22c-1.1,0-2,0.9-2,2c0,1.1,0.9,2,2,2s2-0.9,2-2C70,22.9,69.1,22,68,22z M66,12c0-1.1-0.9-2-2-2s-2,0.9-2,2c0,1.1,0.9,2,2,2S66,13.1,66,12z M62,20c0,1.1,0.9,2,2,2s2-0.9,2-2c0-1.1-0.9-2-2-2S62,18.9,62,20z M62,16c0-1.1-0.9-2-2-2s-2,0.9-2,2c0,1.1,0.9,2,2,2S62,17.1,62,16z M58,24c0,1.1,0.9,2,2,2s2-0.9,2-2c0-1.1-0.9-2-2-2S58,22.9,58,24z M58,20c0-1.1-0.9-2-2-2s-2,0.9-2,2c0,1.1,0.9,2,2,2S58,21.1,58,20z M58,32c0,1.1,0.9,2,2,2s2-0.9,2-2c0-1.1-0.9-2-2-2S58,30.9,58,32z M62,36c0,1.1,0.9,2,2,2s2-0.9,2-2c0-1.1-0.9-2-2-2S62,34.9,62,36z M66,28c0-1.1-0.9-2-2-2s-2,0.9-2,2c0,1.1,0.9,2,2,2S66,29.1,66,28z M66,32c0,1.1,0.9,2,2,2s2-0.9,2-2c0-1.1-0.9-2-2-2S66,30.9,66,32z M70,36c0,1.1,0.9,2,2,2s2-0.9,2-2c0-1.1-0.9-2-2-2S70,34.9,70,36z M74,28c0-1.1-0.9-2-2-2s-2,0.9-2,2c0,1.1,0.9,2,2,2S74,29.1,74,28z M74,32c0,1.1,0.9,2,2,2s2-0.9,2-2c0-1.1-0.9-2-2-2S74,30.9,74,32z M78,24c0-1.1-0.9-2-2-2s-2,0.9-2,2c0,1.1,0.9,2,2,2S78,25.1,78,24z M78,16c0-1.1-0.9-2-2-2s-2,0.9-2,2c0,1.1,0.9,2,2,2S78,17.1,78,16z M74.9,9c0.8,0.8,1.9,1,2.5,0.4C78,8.9,77.9,7.8,77.1,7c-0.8-0.8-1.9-1-2.5-0.4C74,7.1,74.1,8.2,74.9,9z M74,12c0-1.1-0.9-2-2-2s-2,0.9-2,2c0,1.1,0.9,2,2,2S74,13.1,74,12z M71.3,5.7c1,0.5,2.1,0.4,2.5-0.4c0.4-0.7-0.1-1.7-1.1-2.2s-2.1-0.4-2.5,0.4C69.8,4.2,70.3,5.2,71.3,5.7z M70,8c0-1.1-0.9-2-2-2s-2,0.9-2,2c0,1.1,0.9,2,2,2S70,9.1,70,8z M66,1.1c-0.1,0.4,0.7,1,1.8,1.2s2,0,2.1-0.4c0.1-0.4-0.7-1-1.8-1.2C67,0.4,66.1,0.6,66,1.1z M62,4c0,1.1,0.9,2,2,2s2-0.9,2-2c0-1.1-0.9-2-2-2S62,2.9,62,4z M58.1,1.8c0.1,0.4,1,0.6,2.1,0.4s1.9-0.7,1.8-1.2s-1-0.6-2.1-0.4C58.8,0.9,58,1.4,58.1,1.8z M58,8c0,1.1,0.9,2,2,2s2-0.9,2-2c0-1.1-0.9-2-2-2S58,6.9,58,8z M54.2,5.4c0.4,0.7,1.5,0.9,2.5,0.4s1.5-1.5,1.1-2.2c-0.4-0.7-1.5-0.9-2.5-0.4S53.8,4.7,54.2,5.4z M54,12c0,1.1,0.9,2,2,2s2-0.9,2-2c0-1.1-0.9-2-2-2S54,10.9,54,12z M50.6,9.5c0.6,0.6,1.7,0.4,2.5-0.4c0.8-0.8,0.9-1.9,0.3-2.5C52.8,6,51.6,6.2,50.9,7C50.1,7.8,50,8.9,50.6,9.5z M50,16c0,1.1,0.9,2,2,2s2-0.9,2-2c0-1.1-0.9-2-2-2S50,14.9,50,16z M47.6,14c0.5,0.3,1.4-0.2,1.8-1.1c0.5-0.9,0.5-1.9-0.1-2.2c-0.5-0.3-1.4,0.2-1.8,1.1C47,12.8,47.1,13.7,47.6,14z M47,20c0,1.1,0.7,2,1.5,2s1.5-0.9,1.5-2c0-1.1-0.7-2-1.5-2S47,18.9,47,20z M47,28c0,1.1,0.7,2,1.5,2s1.5-0.9,1.5-2c0-1.1-0.7-2-1.5-2S47,26.9,47,28z M47,36c0,1.1,0.7,2,1.5,2s1.5-0.9,1.5-2c0-1.1-0.7-2-1.5-2S47,34.9,47,36z M50,44c0-1.1-0.7-2-1.5-2S47,42.9,47,44c0,1.1,0.7,2,1.5,2S50,45.1,50,44z M54,40c0-1.1-0.9-2-2-2s-2,0.9-2,2c0,1.1,0.9,2,2,2S54,41.1,54,40z M58,44c0-1.1-0.9-2-2-2s-2,0.9-2,2c0,1.1,0.9,2,2,2S58,45.1,58,44z M62,40c0-1.1-0.9-2-2-2s-2,0.9-2,2c0,1.1,0.9,2,2,2S62,41.1,62,40z M66,44c0-1.1-0.9-2-2-2s-2,0.9-2,2c0,1.1,0.9,2,2,2S66,45.1,66,44z M70,40c0-1.1-0.9-2-2-2s-2,0.9-2,2c0,1.1,0.9,2,2,2S70,41.1,70,40z M74,44c0-1.1-0.9-2-2-2s-2,0.9-2,2c0,1.1,0.9,2,2,2S74,45.1,74,44z M78,40c0-1.1-0.9-2-2-2s-2,0.9-2,2c0,1.1,0.9,2,2,2S78,41.1,78,40z M81,44c0-1.1-0.7-2-1.5-2S78,42.9,78,44c0,1.1,0.7,2,1.5,2S81,45.1,81,44z M81,36c0-1.1-0.7-2-1.5-2S78,34.9,78,36c0,1.1,0.7,2,1.5,2S81,37.1,81,36z M81,28c0-1.1-0.7-2-1.5-2S78,26.9,78,28c0,1.1,0.7,2,1.5,2S81,29.1,81,28z M81,20c0-1.1-0.7-2-1.5-2S78,18.9,78,20c0,1.1,0.7,2,1.5,2S81,21.1,81,20z M45,71c0-1.9,0-21,0-21h38c0,0,0,19.1,0,21c0,10.5-8.5,19-19,19S45,81.5,45,71z M59,59c0,2.8,2.2,5,5,5s5-2.2,5-5s-2.2-5-5-5S59,56.2,59,59z M61,59c0-1.7,1.3-3,3-3s3,1.3,3,3s-1.3,3-3,3S61,60.7,61,59z M63,59c0,0.6,0.4,1,1,1s1-0.4,1-1s-0.4-1-1-1S63,58.4,63,59z"></path></g><g transform="scale(8)" id="group_1"><line fill="none" stroke="#000000" stroke-width="2" stroke-miterlimit="10" x1="8" y1="16" x2="8" y2="12"></line><path fill="none" stroke="#000000" stroke-width="2" stroke-miterlimit="10" d="M4,7c0,0.7,0,1,0,1c0,2.2,1.8,4,4,4c2.2,0,4-1.8,4-4c0,0,0-0.3,0-1"></path><path d="M10,2c0-1.1-0.9-2-2-2S6,0.9,6,2c0,0.6,0,5.4,0,6c0,1.1,0.9,2,2,2s2-0.9,2-2C10,7.4,10,2.6,10,2z"></path></g><g transform="scale(4)" id="group_2"><path d="M24.4,12.9C24.4,13,24,13.3,24,14.7V18c0,4.1-3.1,7.4-7,7.9V28h-2v-2.1c-3.9-0.5-7-3.9-7-7.9v-3.3c0-1.3-0.4-1.7-0.4-1.7c-0.5-0.2-0.7-0.7-0.5-1.2c0.2-0.5,0.8-0.8,1.3-0.6c0.3,0.1,1.7,0.7,1.7,3.6V18c0,3.3,2.7,6,6,6s6-2.7,6-6v-3.3c0-2.9,1.4-3.5,1.7-3.6c0.5-0.2,1.1,0.1,1.3,0.6C25.1,12.2,24.9,12.7,24.4,12.9z M18,30.5V29h-4v1.5c-2.5,0.2-4.2,0.8-4.2,1.5h12.5C22.2,31.3,20.5,30.7,18,30.5z M11,18c0-0.5,0-5,0-5h10c0,0,0,4.5,0,5c0,2.8-2.2,5-5,5S11,20.8,11,18z M15,16c0,0.6,0.4,1,1,1s1-0.4,1-1c0-0.6-0.4-1-1-1S15,15.4,15,16z M21,12H11c0,0,0-6.5,0-7c0-2.8,2.2-5,5-5s5,2.2,5,5C21,5.5,21,12,21,12z M18.1,1.9c0.3,0.3,0.7,0.5,0.9,0.3s0-0.6-0.3-0.9c-0.3-0.3-0.7-0.5-0.9-0.3C17.6,1.2,17.7,1.6,18.1,1.9z M17,4c0,0.6,0.4,1,1,1s1-0.4,1-1s-0.4-1-1-1S17,3.4,17,4z M15,2c0,0.6,0.4,1,1,1s1-0.4,1-1s-0.4-1-1-1S15,1.4,15,2z M16,5c-0.6,0-1,0.4-1,1s0.4,1,1,1s1-0.4,1-1S16.6,5,16,5z M13.1,2.3c0.2,0.2,0.6,0,0.9-0.3c0.3-0.3,0.5-0.7,0.3-0.9c-0.2-0.2-0.6,0-0.9,0.3C13,1.7,12.9,2.1,13.1,2.3z M13,4c0,0.6,0.4,1,1,1s1-0.4,1-1s-0.4-1-1-1S13,3.4,13,4z M12,6c0,0.6,0.2,1,0.5,1S13,6.6,13,6s-0.2-1-0.5-1S12,5.4,12,6z M13,10c0-0.6-0.2-1-0.5-1S12,9.4,12,10s0.2,1,0.5,1S13,10.6,13,10z M15,8c0-0.6-0.4-1-1-1s-1,0.4-1,1s0.4,1,1,1S15,8.6,15,8z M17,10c0-0.6-0.4-1-1-1s-1,0.4-1,1s0.4,1,1,1S17,10.6,17,10z M19,8c0-0.6-0.4-1-1-1s-1,0.4-1,1s0.4,1,1,1S19,8.6,19,8z M20,10c0-0.6-0.2-1-0.5-1S19,9.4,19,10s0.2,1,0.5,1S20,10.6,20,10z M20,6c0-0.6-0.2-1-0.5-1S19,5.4,19,6s0.2,1,0.5,1S20,6.6,20,6z"></path></g></svg>