<?xml version="1.0" encoding="utf-8"?><!-- Generator: Adobe Illustrator 17.1.0, SVG Export Plug-In . SVG Version: 6.00 Build 0)  --><!DOCTYPE svg PUBLIC "-//W3C//DTD SVG 1.0//EN" "http://www.w3.org/TR/2001/REC-SVG-20010904/DTD/svg10.dtd"><svg xmlns="http://www.w3.org/2000/svg" xmlns:xlink="http://www.w3.org/1999/xlink" version="1.0" viewBox="0 0 128 128" preserveAspectRatio="none"><style> svg * { background-size: cover; background-repeat: no-repeat; } @media all and (max-width: 32px) { #group_1 { opacity: 1; } #group_2, #group_3 { opacity: 0; } } @media all and (min-width: 33px) and (max-width: 127px) { #group_2 { opacity: 1; } #group_1, #group_3 { opacity: 0; } } @media all and (min-width: 128px) { #group_3 { opacity: 1; } #group_1, #group_2 { opacity: 0; } } </style><g id="group_3"><path d="M121,28.4V17c0-1.7-1.3-3-3-3h-5V4c0-2.2-1.8-4-4-4H16c-2.2,0-4,1.8-4,4v29H8c-1.1,0-2,0.9-2,2c0,1.1,0.9,2,2,2h4h4h4c1.1,0,2-0.9,2-2c0-1.1-0.9-2-2-2h-4V5h1v27.4c0.7-0.8,1.8-1.4,3-1.4c2.2,0,4,1.8,4,4c0,2-1.4,3.6-3.3,3.9C20.5,39,20.3,39,20,39h-3v47.4c0.7-0.8,1.8-1.4,3-1.4c2.2,0,4,1.8,4,4c0,2-1.4,3.6-3.3,3.9C20.5,93,20.3,93,20,93h-3v29h-1V93h-4v31c0,2.2,1.8,4,4,4h93c2.2,0,4-1.8,4-4v-9h5c1.7,0,3-1.3,3-3v-11c0-1.7-1.3-3-3-3h-5V86h5c0.6,0,1,0.4,1,1v10.1c0.8,0.2,1.5,0.6,2,1.2V87c0-1.7-1.3-3-3-3h-5V72h5c0.6,0,1,0.4,1,1v10.1c0.8,0.2,1.5,0.6,2,1.2V73c0-1.7-1.3-3-3-3h-5V58h5c0.6,0,1,0.4,1,1v10.1c0.8,0.2,1.5,0.6,2,1.2V59c0-1.7-1.3-3-3-3h-5V44h5c0.6,0,1,0.4,1,1v10.1c0.8,0.2,1.5,0.6,2,1.2V45c0-1.7-1.3-3-3-3h-5V30h5c0.6,0,1,0.4,1,1v10.1c0.8,0.2,1.5,0.6,2,1.2V31c0-1.7-1.3-3-3-3h-5V16h5c0.6,0,1,0.4,1,1v10.1C119.8,27.3,120.5,27.8,121,28.4z M65,94c-16.6,0-30-13.4-30-30c0-16.6,13.4-30,30-30s30,13.4,30,30C95,80.6,81.6,94,65,94z M118,100c0.6,0,1,0.4,1,1v11c0,0.6-0.4,1-1,1h-5v-13H118z M81.4,80.4H48.6c0-9.4,6.9-10.2,10.7-12c1.1-0.6,1.7-1.5,1.7-2.2V64c0,0-1.7-1.7-2.1-4.6c0,0-1.2,0.1-1.6-2.6c-0.1-1,0.4-1.3,0.6-1.4c-2.3-5.9-0.2-11.8,7-11.8c1.9,0,3.8,0.9,4.4,2.3c4.1,0,3.4,5.9,2.6,9.4c0,0,0,0.1,0,0.1c0,0,1.1,0,0.7,1.7c-0.5,2.2-1.5,2.3-1.5,2.3C70.6,62.2,69,64,69,64v2.1c0,0.9,0.6,1.6,1.7,2.2C74.8,70.4,81.4,70.7,81.4,80.4z M12,91H8c-1.1,0-2-0.9-2-2c0-1.1,0.9-2,2-2h4V39h4v48h4c1.1,0,2,0.9,2,2c0,1.1-0.9,2-2,2h-4H12z M65,35.5c-15.7,0-28.5,12.8-28.5,28.5S49.3,92.5,65,92.5S93.5,79.7,93.5,64S80.7,35.5,65,35.5z M65,90.5c-14.6,0-26.5-11.9-26.5-26.5S50.4,37.5,65,37.5S91.5,49.4,91.5,64S79.6,90.5,65,90.5z"></path></g><g transform="scale(8)" id="group_1"><path d="M10.2,10H5.8c0-1.2,0.9-1.3,1.4-1.6c0.1-0.1,0.2-0.2,0.2-0.3V7.8c0,0-0.2-0.2-0.3-0.6c0,0-0.2,0-0.2-0.3C7,6.7,7,6.7,7.1,6.7C6.8,5.9,7,5.2,8,5.2c0.3,0,0.5,0.1,0.6,0.3c0.5,0,0.5,0.8,0.3,1.2c0,0,0,0,0,0c0,0,0.1,0,0.1,0.2C8.9,7.2,8.8,7.2,8.8,7.2C8.7,7.6,8.5,7.8,8.5,7.8v0.3c0,0.1,0.1,0.2,0.2,0.3C9.3,8.7,10.2,8.7,10.2,10z M0.5,5h1C1.8,5,2,4.8,2,4.5C2,4.2,1.8,4,1.5,4h-1C0.2,4,0,4.2,0,4.5C0,4.8,0.2,5,0.5,5z M2,11.5C2,11.2,1.8,11,1.5,11h-1C0.2,11,0,11.2,0,11.5C0,11.8,0.2,12,0.5,12h1C1.8,12,2,11.8,2,11.5z M16,2v12c0,0.6-0.4,1-1,1h-1c0,0.6-0.4,1-1,1H2c-0.6,0-1-0.4-1-1v-2h0.5C2.3,13,3,12.3,3,11.5S2.3,10,1.5,10H1V6h0.5C2.3,6,3,5.3,3,4.5S2.3,3,1.5,3H1V1c0-0.6,0.4-1,1-1h11c0.6,0,1,0.4,1,1h1C15.6,1,16,1.4,16,2z M12,8c0-2.2-1.8-4-4-4S4,5.8,4,8c0,2.2,1.8,4,4,4S12,10.2,12,8z M15,2h-1v12h1V2z"></path></g><g transform="scale(4)" id="group_2"><path d="M20,20h-8c0-2.3,1.7-2.5,2.6-2.9c0.3-0.1,0.4-0.4,0.4-0.5V16c0,0-0.4-0.4-0.5-1.1c0,0-0.3,0-0.4-0.6c0-0.3,0.1-0.3,0.2-0.3C13.7,12.4,14.2,11,16,11c0.5,0,0.9,0.2,1.1,0.6c1,0,0.8,1.5,0.6,2.3c0,0,0,0,0,0c0,0,0.3,0,0.2,0.4c-0.1,0.5-0.4,0.6-0.4,0.6C17.4,15.6,17,16,17,16v0.5c0,0.2,0.2,0.4,0.4,0.5C18.4,17.6,20,17.6,20,20z M2,10h2c0.6,0,1-0.4,1-1c0-0.6-0.4-1-1-1H2C1.4,8,1,8.4,1,9C1,9.6,1.4,10,2,10z M5,23c0-0.6-0.4-1-1-1H2c-0.6,0-1,0.4-1,1c0,0.6,0.4,1,1,1h2C4.6,24,5,23.6,5,23z M31,8c0,0.2-0.1,0.5-0.2,0.6C30.9,8.8,31,9,31,9.2V12c0,0.2-0.1,0.5-0.2,0.6c0.1,0.2,0.2,0.4,0.2,0.6V16c0,0.2-0.1,0.5-0.2,0.6c0.1,0.2,0.2,0.4,0.2,0.6V20c0,0.2-0.1,0.5-0.2,0.6c0.1,0.2,0.2,0.4,0.2,0.6V24c0,0.2-0.1,0.5-0.2,0.6c0.1,0.2,0.2,0.4,0.2,0.6V28c0,0.6-0.4,1-1,1h-2v1c0,1.1-0.9,2-2,2H5c-1.1,0-2-0.9-2-2v-5h1c1.2,0,2.2-1.1,2-2.3c-0.2-1-1.1-1.7-2.1-1.7H3V11h1c1.2,0,2.2-1.1,2-2.3C5.8,7.7,4.9,7,3.9,7H3V2c0-1.1,0.9-2,2-2h21c1.1,0,2,0.9,2,2v2.2h2c0.6,0,1,0.4,1,1V8z M24.2,16c0-4.4-3.6-8-8-8s-8,3.6-8,8c0,4.4,3.6,8,8,8S24.2,20.4,24.2,16z M28,9.2V12h2V9.2H28z M28,13.2V16h2v-2.8H28z M28,17.2V20h2v-2.8H28z M28,21.2V24h2v-2.8H28z M28,5.2V8h2V5.2H28z M30,25.2h-2V28h2V25.2z"></path></g></svg>