<?xml version="1.0" encoding="utf-8"?><!-- Generator: Adobe Illustrator 17.1.0, SVG Export Plug-In . SVG Version: 6.00 Build 0)  --><!DOCTYPE svg PUBLIC "-//W3C//DTD SVG 1.0//EN" "http://www.w3.org/TR/2001/REC-SVG-20010904/DTD/svg10.dtd"><svg xmlns="http://www.w3.org/2000/svg" xmlns:xlink="http://www.w3.org/1999/xlink" version="1.0" viewBox="0 0 128 128" preserveAspectRatio="none"><style> svg * { background-size: cover; background-repeat: no-repeat; } @media all and (max-width: 32px) { #group_1 { opacity: 1; } #group_2, #group_3 { opacity: 0; } } @media all and (min-width: 33px) and (max-width: 127px) { #group_2 { opacity: 1; } #group_1, #group_3 { opacity: 0; } } @media all and (min-width: 128px) { #group_3 { opacity: 1; } #group_1, #group_2 { opacity: 0; } } </style><g id="group_3"><path d="M119.5,80.3c-0.2-0.5-0.6-0.9-1.1-1.1c1-0.7,1.6-1.9,1.6-3.2V17c0-2.2-1.8-4-4-4H12c-2.2,0-4,1.8-4,4v59c0,1.3,0.6,2.5,1.6,3.2c-0.5,0.2-0.9,0.6-1.1,1.1L0,104v5c0,1.1,0.9,2,2,2h124c1.1,0,2-0.9,2-2v-5L119.5,80.3z M17.9,87h6.2l-0.8,3H17L17.9,87z M14,86l0.9-3h6.2l-0.8,3H14z M21.8,86l0.8-3h6.1l-0.6,3H21.8z M25.6,87h6.1l-0.6,3h-6.3L25.6,87z M29.7,86l0.6-3h6.1L36,86H29.7z M33.3,87h6.1L39,90h-6.2L33.3,87z M37.6,86l0.5-3h6.1l-0.4,3H37.6z M41.1,87h6.1l-0.4,3h-6.2L41.1,87z M45.5,86l0.3-3h6.1l-0.2,3H45.5z M48.8,87h6.1l-0.2,3h-6.2L48.8,87z M53.3,86l0.2-3h6.1l-0.1,3H53.3z M56.5,87h6.6L63,90h-6.7L56.5,87z M61,86l0-3H67l0.1,3H61z M71.5,87l0.2,3h-6.9l-0.1-3H71.5z M68.4,86l-0.1-3h6.1l0.2,3H68.4z M79.2,87l0.3,3h-6.2l-0.2-3H79.2z M76.3,86l-0.2-3h6.1l0.3,3H76.3z M86.9,87l0.5,3h-6.2l-0.4-3H86.9z M84.2,86l-0.4-3h6.1l0.5,3H84.2z M94.7,87l0.6,3H89l-0.5-3H94.7z M92,86l-0.5-3h6.1l0.6,3H92z M102.4,87l0.8,3h-6.3l-0.6-3H102.4z M99.9,86l-0.6-3h6.1l0.8,3H99.9z M110.1,87l0.9,3h-6.3l-0.8-3H110.1z M107.7,86l-0.8-3h6.2l0.9,3H107.7z M64,14c0.6,0,1,0.4,1,1c0,0.6-0.4,1-1,1s-1-0.4-1-1C63,14.4,63.4,14,64,14z M12,17h104l0,59H12V17z M16.9,94h-6.4l1-3h6.3L16.9,94z M24.9,94h-6.4l0.8-3h6.3L24.9,94z M33,94h-6.4l0.7-3h6.3L33,94z M41,94h-6.4l0.5-3h6.3L41,94z M49,94h-6.4l0.4-3h6.2L49,94z M54,104l0.5-8h19l0.4,8H54z M50.7,94l0.3-3h26l0.3,3H50.7z M79,94l-0.3-3h6.2l0.4,3H79z M87,94l-0.5-3h6.3l0.5,3H87z M95,94l-0.6-3h6.3l0.7,3H95z M103.1,94l-0.7-3h6.3l0.8,3H103.1z M111.1,94l-0.9-3h6.3l1,3H111.1z"></path></g><g transform="scale(8)" id="group_1"><path d="M14.8,9.5L14.8,9.5C14.9,9.4,15,9.2,15,9V2c0-0.6-0.4-1-1-1H2C1.4,1,1,1.4,1,2v7c0,0.2,0.1,0.4,0.2,0.5h0L0,14v0.7C0,14.9,0.1,15,0.3,15h15.4c0.2,0,0.3-0.1,0.3-0.3V14L14.8,9.5z M2,9V2h12v7h0H2z M6.7,14l0.2-1h2.4l0.1,1H6.7z"></path></g><g transform="scale(4)" id="group_2"><path d="M29.7,19c0.2-0.3,0.3-0.6,0.3-1V4c0-1.1-0.9-2-2-2H4C2.9,2,2,2.9,2,4v14c0,0.4,0.1,0.7,0.3,1h0L0,26v1.4C0,27.7,0.3,28,0.6,28h30.7c0.4,0,0.6-0.3,0.6-0.6V26L29.7,19z M12.5,20l-0.1,1h-2.1l0.2-1H12.5z M13.5,20h2v1h-2.1L13.5,20z M16.5,20h2l0.1,1h-2.1V20z M19.5,20h2l0.2,1h-2.1L19.5,20z M4.5,20h2l-0.3,1h-2L4.5,20z M7.5,20h2l-0.2,1H7.3L7.5,20z M9.2,22L9,23H6.8L7,22H9.2z M10.2,22h2.2l-0.1,1H10L10.2,22z M13.3,22h2.2v1h-2.2L13.3,22z M16.5,22h2.2l0.1,1h-2.2V22z M19.7,22h2.2l0.2,1h-2.2L19.7,22z M22.8,22H25l0.3,1H23L22.8,22z M22.7,21l-0.2-1h2l0.3,1H22.7z M25.5,20h1.9l0.4,1h-2L25.5,20z M4,4h24l0,14H4V4z M3.7,22.4L3.9,22H6l-0.3,1H3.6L3.7,22.4z M13.5,26l0.1-2h4.7l0.1,2H13.5z M26.3,23L26,22h2l0.4,1H26.3z"></path></g></svg>