<?xml version="1.0" encoding="utf-8"?><!-- Generator: Adobe Illustrator 17.1.0, SVG Export Plug-In . SVG Version: 6.00 Build 0)  --><!DOCTYPE svg PUBLIC "-//W3C//DTD SVG 1.0//EN" "http://www.w3.org/TR/2001/REC-SVG-20010904/DTD/svg10.dtd"><svg xmlns="http://www.w3.org/2000/svg" xmlns:xlink="http://www.w3.org/1999/xlink" version="1.0" viewBox="0 0 128 128" preserveAspectRatio="none"><style> svg * { background-size: cover; background-repeat: no-repeat; } @media all and (max-width: 32px) { #group_1 { opacity: 1; } #group_2, #group_3 { opacity: 0; } } @media all and (min-width: 33px) and (max-width: 127px) { #group_2 { opacity: 1; } #group_1, #group_3 { opacity: 0; } } @media all and (min-width: 128px) { #group_3 { opacity: 1; } #group_1, #group_2 { opacity: 0; } } </style><g id="group_3"><polygon points="64,0.1 0.2,46.3 4.8,52.8 64,9.9 123.2,52.8 127.8,46.3 "></polygon><g><polygon points="111,32.3 111,5 96,5 96,21.4 "></polygon></g><path d="M120,52.3V128H8V52.3l56-40.6L120,52.3z M65,46h9v-9h-9V46z M65,57h9v-9h-9V57z M54,46h9v-9h-9V46z M54,57h9v-9h-9V57z M80,78H48v48h32V78z"></path><rect x="73" y="99" width="4" height="6"></rect></g><g transform="scale(8)" id="group_1"><path d="M14,3.4l-2-1.4V0h2V3.4zM15.4,6.6L15,6.3V16H1V6.3L0.6,6.6L0,5.8L8,0l8,5.8L15.4,6.6zM10,9H6v6h4V9z"></path></g><g transform="scale(4)" id="group_2"><path d="M32,11.6l-1.2,1.6L16,2.5L1.2,13.2L0,11.6L16,0L32,11.6z M28,1h-4v3.8l4,2.9V1z M16,3.5l14,10.1V32H2V13.6L16,3.5z M20,20h-8v11h8V20z M18,9h-4v4h4V9z"></path></g></svg>