<?xml version="1.0" encoding="utf-8"?><!-- Generator: Adobe Illustrator 17.1.0, SVG Export Plug-In . SVG Version: 6.00 Build 0)  --><!DOCTYPE svg PUBLIC "-//W3C//DTD SVG 1.0//EN" "http://www.w3.org/TR/2001/REC-SVG-20010904/DTD/svg10.dtd"><svg xmlns="http://www.w3.org/2000/svg" xmlns:xlink="http://www.w3.org/1999/xlink" version="1.0" viewBox="0 0 128 128" preserveAspectRatio="none"><style> svg * { background-size: cover; background-repeat: no-repeat; } @media all and (max-width: 32px) { #group_1 { opacity: 1; } #group_2, #group_3 { opacity: 0; } } @media all and (min-width: 33px) and (max-width: 127px) { #group_2 { opacity: 1; } #group_1, #group_3 { opacity: 0; } } @media all and (min-width: 128px) { #group_3 { opacity: 1; } #group_1, #group_2 { opacity: 0; } } </style><g id="group_3"><path d="M121,128H7c0-32.9,24.2-35.4,37.2-41.8C45.3,91.8,53.6,96,64,96c10.5,0,18.9-4.3,19.9-10C98.1,93.2,121,94.3,121,128z M37.1,45.9c1.3,9.4,5.6,9.1,5.6,9.1C44.2,65,50,71,50,71v7.7c0,2.5-1.2,4.8-3.3,6.2c-0.2,0.1-0.4,0.2-0.6,0.4C46.4,90,54.5,94,64,94c9.7,0,17.9-4.1,18-9.1c-0.2-0.1-0.4-0.3-0.7-0.4c-2.1-1.3-3.3-3.7-3.3-6.1V71c0,0,5.7-6.2,7.3-16c0,0,3.5-0.3,5.4-8c1.4-6-2.4-6-2.4-6c0-0.1,0-0.2,0-0.3C91,28.7,93.4,8,79,8c-2-5-8.6-8-15.3-8C38.6,0,31.4,20.5,39.2,41.1C38.3,41.4,36.6,42.3,37.1,45.9z"></path></g><g transform="scale(8)" id="group_1"><path d="M15,16H1c0-4.1,2.2-4.8,3.9-5.6C5.3,11.4,6.5,12,8,12c1.5,0,2.7-0.6,3.1-1.6C12.9,11.2,15,11.8,15,16z M4.5,5.7c0.2,1.2,0.7,1.1,0.7,1.1C5.3,7.7,5.7,8.3,6,8.6v0.7c0,0.2-0.1,0.4-0.3,0.6C5.9,10.5,6.9,11,8,11c1.1,0,2.1-0.5,2.3-1.1C10.1,9.7,10,9.5,10,9.3V8.6c0.3-0.3,0.6-0.9,0.8-1.7c0,0,0.4,0,0.7-1c0.2-0.7-0.3-0.7-0.3-0.7C11.5,3.6,11.7,1,9.9,1C9.6,0.4,8.8,0,8,0C4.9,0,4,2.6,4.9,5.1c0,0,0,0,0,0C4.9,5.1,4.4,5.1,4.5,5.7z"></path></g><g transform="scale(4)" id="group_2"><path d="M30,32H2c0-8.2,5.8-8.8,9-10.4c0.1,0,0.1-0.1,0.2-0.1c0.6,1.5,2.5,2.5,4.8,2.5c2.4,0,4.3-1.1,4.8-2.6c0.1,0,0.1,0.1,0.2,0.1C24.5,23.3,30,23.6,30,32z M9,11.5c0.3,2.4,1.4,2.3,1.4,2.3c0.4,2.5,2.1,4,2.1,4v1.9c0,0.4-0.2,0.9-0.4,1.2C12.3,22,14,23,16,23c2,0,3.7-1,3.9-2.2c-0.3-0.3-0.4-0.8-0.4-1.2v-1.8c0,0,1.6-1.5,2-4c0,0,0.9-0.1,1.3-2c0.3-1.4-0.5-1.5-0.6-1.5C23,7.3,23.4,2,19.8,2c-0.5-1.2-2.2-2-3.8-2c-6.2,0-8,5.2-6.2,10.2c0,0,0,0,0,0C9.7,10.2,8.9,10.3,9,11.5z"></path></g></svg>