<?xml version="1.0" encoding="utf-8"?>
<!-- Generator: Adobe Illustrator 18.1.1, SVG Export Plug-In . SVG Version: 6.00 Build 0)  -->
<svg version="1.1" id="Layer_1" xmlns="http://www.w3.org/2000/svg" xmlns:xlink="http://www.w3.org/1999/xlink" x="0px" y="0px"
	 viewBox="0 0 128 128" enable-background="new 0 0 128 128" xml:space="preserve">
<path fill="none" stroke="#000000" stroke-width="4" stroke-linecap="round" stroke-miterlimit="10" d="M115,126H23
	c-6.6,0-12-5.4-12-12"/>
<line fill="none" stroke="#000000" stroke-width="2" stroke-linecap="round" stroke-miterlimit="10" x1="114" y1="108" x2="20" y2="108"/>
<line fill="none" stroke="#000000" stroke-width="2" stroke-linecap="round" stroke-miterlimit="10" x1="113" y1="112" x2="17" y2="112"/>
<line fill="none" stroke="#000000" stroke-width="2" stroke-linecap="round" stroke-miterlimit="10" x1="113" y1="116" x2="17" y2="116"/>
<line fill="none" stroke="#000000" stroke-width="2" stroke-linecap="round" stroke-miterlimit="10" x1="114" y1="120" x2="20" y2="120"/>
<path d="M117,4c0-2.2-1.8-4-4-4H23C15.3,0,9,6.3,9,14v100h4c0-5.5,4.5-10,10-10h90c2.2,0,4-1.8,4-4L117,4z M26,99h-1V5h1V99z M98,36
	H42v-4h56V36z M93,44H47v-4h46V44z"/>
</svg>
