<?xml version="1.0" encoding="utf-8"?>
<!-- Generator: Adobe Illustrator 18.1.1, SVG Export Plug-In . SVG Version: 6.00 Build 0)  -->
<svg version="1.1" id="Layer_1" xmlns="http://www.w3.org/2000/svg" xmlns:xlink="http://www.w3.org/1999/xlink" x="0px" y="0px"
	 viewBox="0 0 128 128" enable-background="new 0 0 128 128" xml:space="preserve">
<rect x="1" y="31" fill="none" stroke="#000000" stroke-width="2" stroke-miterlimit="10" width="126" height="96"/>
<rect x="16" y="43" fill="none" stroke="#000000" stroke-width="2" stroke-miterlimit="10" width="96" height="64"/>
<line fill="none" stroke="#000000" stroke-width="2" stroke-miterlimit="10" x1="16" y1="75" x2="112" y2="75"/>
<line fill="none" stroke="#000000" stroke-width="2" stroke-miterlimit="10" x1="16" y1="59" x2="112" y2="59"/>
<line fill="none" stroke="#000000" stroke-width="2" stroke-miterlimit="10" x1="16" y1="91" x2="112" y2="91"/>
<line fill="none" stroke="#000000" stroke-width="2" stroke-miterlimit="10" x1="64" y1="43" x2="64" y2="107"/>
<line fill="none" stroke="#000000" stroke-width="2" stroke-miterlimit="10" x1="80" y1="43" x2="80" y2="107"/>
<line fill="none" stroke="#000000" stroke-width="2" stroke-miterlimit="10" x1="96" y1="43" x2="96" y2="107"/>
<line fill="none" stroke="#000000" stroke-width="2" stroke-miterlimit="10" x1="32" y1="43" x2="32" y2="107"/>
<line fill="none" stroke="#000000" stroke-width="2" stroke-miterlimit="10" x1="48" y1="43" x2="48" y2="107"/>
<line fill="none" stroke="#000000" stroke-width="2" stroke-miterlimit="10" x1="127" y1="123" x2="1" y2="123"/>
<line fill="none" stroke="#000000" stroke-width="2" stroke-miterlimit="10" x1="127" y1="119" x2="1" y2="119"/>
<path d="M110,8v9c0,3.3-2.7,6-6,6s-6-2.7-6-6V8H30v9c0,3.3-2.7,6-6,6s-6-2.7-6-6V8H0v24h128V8H110z"/>
<rect x="67" y="78" width="10" height="10"/>
<path d="M104,0L104,0c2.2,0,4,1.8,4,4v13c0,2.2-1.8,4-4,4h0c-2.2,0-4-1.8-4-4V4C100,1.8,101.8,0,104,0z M20,4v13c0,2.2,1.8,4,4,4h0
	c2.2,0,4-1.8,4-4V4c0-2.2-1.8-4-4-4h0C21.8,0,20,1.8,20,4z"/>
</svg>
