<?xml version="1.0" encoding="utf-8"?>
<!-- Generator: Adobe Illustrator 18.1.1, SVG Export Plug-In . SVG Version: 6.00 Build 0)  -->
<svg version="1.1" id="Layer_1" xmlns="http://www.w3.org/2000/svg" xmlns:xlink="http://www.w3.org/1999/xlink" x="0px" y="0px"
	 viewBox="0 0 128 128" enable-background="new 0 0 128 128" xml:space="preserve">
<path d="M70,102c16.6,0,30-13.4,30-30c0-16.6-13.4-30-30-30S40,55.4,40,72C40,88.6,53.4,102,70,102z M70,47c13.8,0,25,11.2,25,25
	S83.8,97,70,97S45,85.8,45,72S56.2,47,70,47z"/>
<path d="M70,94c12.2,0,22-9.8,22-22c0-12.2-9.8-22-22-22s-22,9.8-22,22C48,84.2,57.8,94,70,94z"/>
<path d="M34,23H13v-4c0-1.1,0.9-2,2-2h17c1.1,0,2,0.9,2,2V23z"/>
<path d="M107,23h-7v-2c0-0.6,0.4-1,1-1h5c0.6,0,1,0.4,1,1V23z"/>
<path d="M116,23h-7v-2c0-0.6,0.4-1,1-1h5c0.6,0,1,0.4,1,1V23z"/>
<path d="M116,24H97.1L86.8,10.4C85.7,8.9,83.9,8,82,8H58c-1.9,0-3.7,0.9-4.8,2.4L42.9,24H12C5.4,24,0,29.4,0,36v72
	c0,6.6,5.4,12,12,12h104c6.6,0,12-5.4,12-12V36C128,29.4,122.6,24,116,24z M13,35c-3.3,0-6-1.6-6-3.5c0-1.9,2.7-3.5,6-3.5
	c3.3,0,6,1.6,6,3.5C19,33.4,16.3,35,13,35z M27,107h-1V37h1V107z M70,104c-17.7,0-32-14.3-32-32c0-17.7,14.3-32,32-32s32,14.3,32,32
	C102,89.7,87.7,104,70,104z M99,46c-1.7,0-3-1.3-3-3c0-1.7,1.3-3,3-3c1.7,0,3,1.3,3,3C102,44.7,100.7,46,99,46z M104.4,78.5
	c0.4-2.1,0.6-4.3,0.6-6.5s-0.2-4.4-0.6-6.5c3.4,0.2,6.1,3,6.1,6.5C110.5,75.5,107.8,78.3,104.4,78.5z"/>
</svg>
