<?xml version="1.0" encoding="utf-8"?>
<!-- Generator: Adobe Illustrator 18.1.1, SVG Export Plug-In . SVG Version: 6.00 Build 0)  -->
<svg version="1.1" id="Layer_1" xmlns="http://www.w3.org/2000/svg" xmlns:xlink="http://www.w3.org/1999/xlink" x="0px" y="0px"
	 viewBox="0 0 32 32" enable-background="new 0 0 32 32" xml:space="preserve">
<path d="M24.4,6.8l-3.6-4.1C20.4,2.2,19.9,2,19.3,2h-6.6c-0.6,0-1.1,0.2-1.5,0.7L7.6,6.8H24.4z"/>
<path d="M28,6H4c-2.2,0-4,1.8-4,4v16c0,2.2,1.8,4,4,4h24c2.2,0,4-1.8,4-4V10C32,7.8,30.2,6,28,6z M16,26c-4.4,0-8-3.6-8-8
	c0-4.4,3.6-8,8-8s8,3.6,8,8C24,22.4,20.4,26,16,26z M5.5,12C4.7,12,4,11.3,4,10.5C4,9.7,4.7,9,5.5,9S7,9.7,7,10.5
	C7,11.3,6.3,12,5.5,12z"/>
<circle cx="16" cy="18" r="6"/>
</svg>
