<?xml version="1.0" encoding="utf-8"?>
<!-- Generator: Adobe Illustrator 18.1.1, SVG Export Plug-In . SVG Version: 6.00 Build 0)  -->
<svg version="1.1" id="Layer_1" xmlns="http://www.w3.org/2000/svg" xmlns:xlink="http://www.w3.org/1999/xlink" x="0px" y="0px"
	 viewBox="0 0 32 32" enable-background="new 0 0 32 32" xml:space="preserve">
<ellipse fill="none" stroke="#000000" stroke-width="2" stroke-miterlimit="10" cx="21" cy="5" rx="10" ry="4"/>
<path fill="none" stroke="#000000" stroke-width="2" stroke-miterlimit="10" d="M11,5c0,0.7,0,3.3,0,4c0,2.2,4.5,4,10,4s10-1.8,10-4
	c0-0.7,0-3.3,0-4"/>
<path fill="none" stroke="#000000" stroke-width="2" stroke-miterlimit="10" d="M19.6,17c0.5,0,0.9,0,1.4,0c5.5,0,10-1.8,10-4
	c0-0.7,0-3.3,0-4"/>
<path fill="none" stroke="#000000" stroke-width="2" stroke-miterlimit="10" d="M11,9c0,0.7,0,5.3,0,6"/>
<path fill="none" stroke="#000000" stroke-width="2" stroke-miterlimit="10" d="M21,21c5.5,0,10-1.8,10-4c0-0.7,0-3.3,0-4"/>
<path fill="none" stroke="#000000" stroke-width="2" stroke-miterlimit="10" d="M21,25c5.5,0,10-1.8,10-4c0-0.7,0-3.3,0-4"/>
<g>
	<path d="M19.2,5.3C19.2,5.3,19.2,5.3,19.2,5.3C19.2,5.3,19.2,5.3,19.2,5.3c0,0.1,0.1,0.1,0.2,0.2c0.1,0,0.3,0.1,0.5,0.1
		c0.2,0,0.4,0.1,0.7,0.1c0.2,0,0.5,0,0.7,0c0.2,0,0.4,0,0.5,0s0.4,0,0.5-0.1c0.2,0,0.3-0.1,0.4-0.1c0.1-0.1,0.1-0.1,0.1-0.2
		c0-0.1-0.1-0.2-0.2-0.2C22.6,5,22.4,5,22.3,4.9s-0.3-0.1-0.5-0.1c-0.2,0-0.4,0-0.6,0c-0.1,0-0.2,0-0.3,0c-0.2,0-0.3,0-0.5,0
		s-0.3,0-0.4,0.1c-0.1,0-0.2,0.1-0.2,0.1c0,0,0,0,0,0l-0.1,0l-1.4-0.6c0.1,0,0.2-0.1,0.2-0.1c0,0,0.1,0,0.1-0.1V3.8
		c0-0.1-0.1-0.1-0.2-0.1V3.6h4.7c0.1,0,0.2,0,0.2,0c0.1,0,0.1,0,0.1-0.1h0.1v0.6h-0.1c0-0.1,0-0.1-0.1-0.1c-0.1,0-0.2,0-0.2,0h-3.5
		v0.5c0.3,0,0.6-0.1,0.9-0.1c0.3,0,0.6,0,0.9,0c0.3,0,0.6,0,0.9,0c0.3,0,0.6,0.1,0.9,0.1c0.3,0.1,0.5,0.2,0.6,0.3s0.2,0.2,0.2,0.4
		c0,0.2-0.1,0.3-0.3,0.4c-0.2,0.1-0.4,0.2-0.7,0.3c-0.3,0.1-0.6,0.1-1,0.1c-0.4,0-0.7,0-1,0c-0.4,0-0.8,0-1.1-0.1
		c-0.3,0-0.6-0.1-0.8-0.1c-0.3-0.1-0.4-0.1-0.5-0.1c-0.1,0-0.2-0.1-0.2-0.1c0,0,0,0-0.1,0c0,0-0.1,0-0.1,0l-0.1,0l0.9-0.5L19.2,5.3z
		"/>
</g>
<ellipse fill="none" stroke="#000000" stroke-width="2" stroke-miterlimit="10" cx="11" cy="19" rx="10" ry="4"/>
<path fill="none" stroke="#000000" stroke-width="2" stroke-miterlimit="10" d="M1,19c0,0.7,0,3.3,0,4c0,2.2,4.5,4,10,4s10-1.8,10-4
	c0-0.7,0-3.3,0-4"/>
<path fill="none" stroke="#000000" stroke-width="2" stroke-miterlimit="10" d="M1,23c0,0.7,0,3.3,0,4c0,2.2,4.5,4,10,4s10-1.8,10-4
	c0-0.7,0-3.3,0-4"/>
<g>
	<path d="M7.3,19.8c0.1,0,0.1,0,0.2,0c0.1,0,0.1,0,0.1-0.1v-1.5c0,0-0.1,0-0.2,0c-0.1,0-0.1,0-0.2,0c-0.1,0-0.1,0-0.2,0
		c-0.1,0-0.1,0-0.1,0.1H6.8v-0.5h0.1c0,0,0,0,0.1,0.1c0.1,0,0.1,0,0.2,0c0.1,0,0.2,0,0.3,0c0.1,0,0.1-0.1,0.1-0.1c0,0,0-0.1-0.1-0.1
		c0,0-0.1,0-0.2,0v-0.1H9v0.1c-0.1,0-0.2,0-0.2,0c-0.1,0-0.1,0-0.1,0.1v2c0,0,0,0.1,0.1,0.1c0.1,0,0.1,0,0.2,0v0.1L7.3,19.8
		L7.3,19.8z"/>
	<path d="M12.7,17.6c0.4,0,0.8,0,1.1,0.1c0.4,0.1,0.7,0.1,0.9,0.2c0.3,0.1,0.5,0.2,0.6,0.4c0.2,0.1,0.2,0.3,0.2,0.5
		c0,0.2-0.1,0.3-0.2,0.5c-0.2,0.1-0.4,0.3-0.6,0.4c-0.3,0.1-0.6,0.2-0.9,0.2c-0.4,0.1-0.7,0.1-1.1,0.1s-0.8,0-1.1-0.1
		c-0.4-0.1-0.7-0.1-0.9-0.2c-0.3-0.1-0.5-0.2-0.6-0.4c-0.2-0.1-0.2-0.3-0.2-0.5c0-0.2,0.1-0.3,0.2-0.5c0.2-0.1,0.4-0.3,0.6-0.4
		c0.3-0.1,0.6-0.2,0.9-0.2C12,17.6,12.3,17.6,12.7,17.6z M12.7,17.9c-0.2,0-0.5,0-0.7,0.1c-0.2,0-0.4,0.1-0.5,0.2
		c-0.2,0.1-0.3,0.2-0.4,0.3c-0.1,0.1-0.1,0.2-0.1,0.3c0,0.1,0,0.2,0.1,0.3c0.1,0.1,0.2,0.2,0.4,0.3s0.3,0.1,0.5,0.2
		c0.2,0,0.4,0.1,0.7,0.1c0.2,0,0.5,0,0.7-0.1c0.2,0,0.4-0.1,0.5-0.2s0.3-0.2,0.4-0.3c0.1-0.1,0.1-0.2,0.1-0.3c0-0.1,0-0.2-0.1-0.3
		c-0.1-0.1-0.2-0.2-0.4-0.3c-0.2-0.1-0.3-0.1-0.5-0.2C13.2,18,13,17.9,12.7,17.9z"/>
</g>
</svg>
