<?xml version="1.0" encoding="utf-8"?>
<!-- Generator: Adobe Illustrator 18.1.1, SVG Export Plug-In . SVG Version: 6.00 Build 0)  -->
<svg version="1.1" id="Layer_1" xmlns="http://www.w3.org/2000/svg" xmlns:xlink="http://www.w3.org/1999/xlink" x="0px" y="0px"
	 viewBox="0 0 128 128" enable-background="new 0 0 128 128" xml:space="preserve">
<path fill="none" stroke="#000000" stroke-width="2" stroke-miterlimit="10" d="M43,27c0,1.2,0,8.8,0,10c0,8.3,18.8,15,42,15
	s42-6.7,42-15c0-1.2,0-8.8,0-10"/>
<path fill="none" stroke="#000000" stroke-width="2" stroke-miterlimit="10" d="M43,38c0,1.2,0,8.8,0,10c0,8.3,18.8,15,42,15
	s42-6.7,42-15c0-1.2,0-8.8,0-10"/>
<g>
	<path d="M29.7,83.5c0.3,0,0.5,0,0.7-0.1c0.2-0.1,0.3-0.2,0.3-0.3v-4.7c-0.2,0-0.4,0-0.7,0s-0.5,0-0.7,0c-0.2,0-0.5,0.1-0.7,0.1
		c-0.2,0-0.3,0.1-0.4,0.2h-0.5v-1.8h0.5c0,0.1,0.1,0.1,0.4,0.2c0.2,0,0.5,0,0.7,0c0.5,0,0.8,0,1.1-0.1c0.3-0.1,0.5-0.2,0.5-0.4
		c0-0.1-0.1-0.2-0.3-0.3c-0.2,0-0.4-0.1-0.7-0.1v-0.2h6.5v0.2c-0.3,0-0.6,0.1-0.8,0.1c-0.2,0-0.3,0.1-0.3,0.2v6.5
		c0,0.2,0.1,0.3,0.3,0.3c0.2,0.1,0.5,0.1,0.7,0.1v0.2h-6.7V83.5z"/>
	<path d="M50.7,76.1c1.6,0,3,0.1,4.4,0.3c1.4,0.2,2.5,0.5,3.5,0.8c1,0.3,1.8,0.7,2.4,1.2c0.6,0.5,0.9,1,0.9,1.5
		c0,0.6-0.3,1.1-0.9,1.5c-0.6,0.5-1.4,0.9-2.4,1.2c-1,0.3-2.2,0.6-3.5,0.8c-1.4,0.2-2.8,0.3-4.4,0.3s-3-0.1-4.4-0.3
		c-1.4-0.2-2.5-0.4-3.6-0.8c-1-0.3-1.8-0.7-2.4-1.2c-0.6-0.5-0.9-1-0.9-1.5c0-0.6,0.3-1.1,0.9-1.5c0.6-0.5,1.4-0.9,2.4-1.2
		c1-0.3,2.2-0.6,3.6-0.8C47.7,76.2,49.2,76.1,50.7,76.1z M50.7,77.3c-0.9,0-1.8,0.1-2.6,0.2c-0.8,0.1-1.5,0.3-2.1,0.5
		c-0.6,0.2-1,0.5-1.4,0.8c-0.3,0.3-0.5,0.7-0.5,1c0,0.4,0.2,0.7,0.5,1c0.3,0.3,0.8,0.6,1.4,0.8c0.6,0.2,1.3,0.4,2.1,0.5
		c0.8,0.1,1.7,0.2,2.6,0.2c0.9,0,1.8-0.1,2.6-0.2c0.8-0.1,1.5-0.3,2.1-0.5c0.6-0.2,1-0.5,1.4-0.8c0.3-0.3,0.5-0.7,0.5-1
		c0-0.4-0.2-0.7-0.5-1c-0.3-0.3-0.8-0.6-1.4-0.8s-1.3-0.4-2.1-0.5C52.5,77.4,51.7,77.3,50.7,77.3z"/>
</g>
<ellipse fill="none" stroke="#000000" stroke-width="2" stroke-miterlimit="10" cx="85" cy="16" rx="42" ry="15"/>
<ellipse fill="none" stroke="#000000" stroke-width="2" stroke-miterlimit="10" cx="85" cy="16" rx="36" ry="11"/>
<g>
	
		<ellipse fill="none" stroke="#000000" stroke-linecap="round" stroke-linejoin="round" stroke-dasharray="0.2482,1.9855" cx="85" cy="16.5" rx="31.5" ry="8.5"/>
</g>
<path fill="none" stroke="#000000" stroke-width="2" stroke-miterlimit="10" d="M43,16c0,1.2,0,8.8,0,10c0,8.3,18.8,15,42,15
	s42-6.7,42-15c0-1.2,0-8.8,0-10"/>
<g>
	<path d="M78.4,17.8C78.4,17.9,78.4,17.9,78.4,17.8c0,0.1,0,0.1,0,0.2c0,0.1,0.2,0.3,0.7,0.5c0.5,0.2,1.1,0.3,1.8,0.4
		c0.7,0.1,1.5,0.2,2.4,0.3c0.9,0.1,1.8,0.1,2.7,0.1c0.7,0,1.3,0,2-0.1s1.3-0.1,1.9-0.3c0.6-0.1,1-0.3,1.4-0.5
		c0.4-0.2,0.6-0.5,0.6-0.8c0-0.3-0.2-0.6-0.6-0.8c-0.4-0.2-0.9-0.4-1.4-0.5c-0.6-0.1-1.2-0.2-1.9-0.3c-0.7,0-1.4-0.1-2-0.1
		c-0.3,0-0.7,0-1.3,0c-0.6,0-1.1,0.1-1.7,0.1c-0.6,0.1-1.1,0.1-1.5,0.2s-0.6,0.2-0.6,0.4c0,0.1,0,0.1,0.1,0.2l-0.3,0.1l-5.3-2
		c0.3-0.1,0.6-0.2,0.7-0.2c0.1,0,0.2-0.1,0.2-0.2v-2.2c0-0.2-0.3-0.3-0.8-0.3v-0.2h17.5c0.3,0,0.6,0,0.9,0c0.3,0,0.4-0.1,0.4-0.2
		h0.5v2.2h-0.5c0-0.2-0.1-0.3-0.4-0.3c-0.3,0-0.6-0.1-0.9-0.1H80.1v1.8c1.1-0.2,2.2-0.3,3.2-0.3c1.1-0.1,2.2-0.1,3.4-0.1
		c1.1,0,2.2,0.1,3.4,0.2c1.1,0.1,2.2,0.3,3.2,0.5c0.9,0.2,1.7,0.5,2.3,0.9c0.6,0.4,0.9,0.8,0.9,1.3c0,0.6-0.4,1-1,1.4
		c-0.7,0.4-1.6,0.7-2.7,0.9c-1.1,0.2-2.3,0.4-3.6,0.5c-1.3,0.1-2.6,0.1-3.8,0.1c-1.6,0-2.9-0.1-4-0.2c-1.1-0.1-2-0.3-2.8-0.4
		c-1-0.2-1.6-0.3-2-0.5c-0.3-0.1-0.6-0.2-0.8-0.2c-0.1,0-0.1,0-0.3,0c-0.1,0-0.2,0-0.4,0l-0.5-0.2l3.4-1.7L78.4,17.8z"/>
</g>
<path fill="none" stroke="#000000" stroke-width="2" stroke-miterlimit="10" d="M1,91c0,1.2,0,8.8,0,10c0,8.3,18.8,15,42,15
	s42-6.7,42-15c0-1.2,0-8.8,0-10"/>
<path fill="none" stroke="#000000" stroke-width="2" stroke-miterlimit="10" d="M1,102c0,1.2,0,8.8,0,10c0,8.3,18.8,15,42,15
	s42-6.7,42-15c0-1.2,0-8.8,0-10"/>
<ellipse fill="none" stroke="#000000" stroke-width="2" stroke-miterlimit="10" cx="43" cy="80" rx="42" ry="15"/>
<ellipse fill="none" stroke="#000000" stroke-width="2" stroke-miterlimit="10" cx="43" cy="80" rx="36" ry="11"/>
<g>
	
		<ellipse fill="none" stroke="#000000" stroke-linecap="round" stroke-linejoin="round" stroke-dasharray="0.2482,1.9855" cx="43" cy="80.5" rx="31.5" ry="8.5"/>
</g>
<path fill="none" stroke="#000000" stroke-width="2" stroke-miterlimit="10" d="M1,80c0,1.2,0,8.8,0,10c0,8.3,18.8,15,42,15
	s42-6.7,42-15c0-1.2,0-8.8,0-10"/>
<path fill="none" stroke="#000000" stroke-width="2" stroke-linecap="round" stroke-miterlimit="10" d="M81.6,74c1.1,0,2.2,0,3.4,0
	c23.2,0,42-6.7,42-15c0-1.2,0-8.8,0-10"/>
<path fill="none" stroke="#000000" stroke-width="2" stroke-linecap="round" stroke-miterlimit="10" d="M43,49c0,1.2,0,8.8,0,10
	c0,2,1.1,3.9,3,5.6"/>
<path fill="none" stroke="#000000" stroke-width="2" stroke-miterlimit="10" d="M85,85c23.2,0,42-6.7,42-15c0-1.2,0-8.8,0-10"/>
<path fill="none" stroke="#000000" stroke-width="2" stroke-miterlimit="10" d="M43,60c0,1.2,0,3.8,0,5"/>
<path fill="none" stroke="#000000" stroke-width="2" stroke-miterlimit="10" d="M85,96c23.2,0,42-6.7,42-15c0-1.2,0-8.8,0-10"/>
</svg>
