<?xml version="1.0" encoding="utf-8"?>
<!-- Generator: Adobe Illustrator 18.1.1, SVG Export Plug-In . SVG Version: 6.00 Build 0)  -->
<svg version="1.1" id="Layer_1" xmlns="http://www.w3.org/2000/svg" xmlns:xlink="http://www.w3.org/1999/xlink" x="0px" y="0px"
	 viewBox="0 0 16 16" enable-background="new 0 0 16 16" xml:space="preserve">
<ellipse fill="none" stroke="#000000" stroke-miterlimit="10" cx="10.5" cy="2.5" rx="5" ry="2"/>
<path fill="none" stroke="#000000" stroke-miterlimit="10" d="M5.5,2.5c0,0.4,0,1.6,0,2c0,1.1,2.2,2,5,2s5-0.9,5-2c0-0.4,0-1.6,0-2"
	/>
<path fill="none" stroke="#000000" stroke-miterlimit="10" d="M9.8,8.5c0.2,0,0.5,0,0.7,0c2.8,0,5-0.9,5-2c0-0.4,0-1.6,0-2"/>
<path fill="none" stroke="#000000" stroke-miterlimit="10" d="M5.5,4.5c0,0.4,0,2.6,0,3"/>
<path fill="none" stroke="#000000" stroke-miterlimit="10" d="M10.5,10.5c2.8,0,5-0.9,5-2c0-0.4,0-1.6,0-2"/>
<path fill="none" stroke="#000000" stroke-miterlimit="10" d="M10.5,12.5c2.8,0,5-0.9,5-2c0-0.4,0-1.6,0-2"/>
<ellipse fill="none" stroke="#000000" stroke-miterlimit="10" cx="5.5" cy="9.5" rx="5" ry="2"/>
<path fill="none" stroke="#000000" stroke-miterlimit="10" d="M0.5,9.5c0,0.4,0,1.6,0,2c0,1.1,2.2,2,5,2s5-0.9,5-2c0-0.4,0-1.6,0-2"
	/>
<path fill="none" stroke="#000000" stroke-miterlimit="10" d="M0.5,11.5c0,0.4,0,1.6,0,2c0,1.1,2.2,2,5,2s5-0.9,5-2c0-0.4,0-1.6,0-2
	"/>
</svg>
