<?xml version="1.0" encoding="utf-8"?>
<!-- Generator: Adobe Illustrator 18.1.1, SVG Export Plug-In . SVG Version: 6.00 Build 0)  -->
<svg version="1.1" id="Layer_1" xmlns="http://www.w3.org/2000/svg" xmlns:xlink="http://www.w3.org/1999/xlink" x="0px" y="0px"
	 viewBox="0 0 16 16" enable-background="new 0 0 16 16" xml:space="preserve">
<path d="M8.8,8.4C8.6,8.3,8.5,8.2,8.5,8.1V7.8c0,0,0.2-0.2,0.3-0.6c0,0,0.1,0,0.2-0.3c0.1-0.2-0.1-0.2-0.1-0.2c0-0.2-0.3-0.8-0.4-1
	C8.1,6,7.1,5.6,7.1,6.7c0,0-0.1,0-0.1,0.2c0,0.4,0.2,0.3,0.2,0.3c0.1,0.4,0.3,0.6,0.3,0.6v0.3c0,0.1-0.1,0.2-0.2,0.3
	C6.8,8.7,5.8,8.8,5.8,10h4.3C10.2,8.7,9.3,8.7,8.8,8.4z"/>
<g>
	<path d="M7.1,6.8C7.1,6.1,7.7,6,8,6c0.4,0,0.5-0.1,0.5-0.2c0,0.2,0.3,0.4,0.3,1h0.1C9,6.4,9.2,5.5,8.6,5.5C8.5,5.3,8.2,5.2,8,5.2
		C7,5.2,6.8,6,7.1,6.8L7.1,6.8z"/>
</g>
<path d="M1.5,5h-1C0.2,5,0,4.8,0,4.5v0C0,4.2,0.2,4,0.5,4h1C1.8,4,2,4.2,2,4.5v0C2,4.8,1.8,5,1.5,5z"/>
<path d="M1.5,12h-1C0.2,12,0,11.8,0,11.5v0C0,11.2,0.2,11,0.5,11h1C1.8,11,2,11.2,2,11.5v0C2,11.8,1.8,12,1.5,12z"/>
<g>
	<path d="M15,2v12h-1V2H15 M15,1h-2v14h2c0.6,0,1-0.4,1-1V2C16,1.4,15.6,1,15,1L15,1z"/>
</g>
<path d="M13,0H2C1.4,0,1,0.4,1,1v2h0.5C2.3,3,3,3.7,3,4.5S2.3,6,1.5,6H1v4h0.5C2.3,10,3,10.7,3,11.5S2.3,13,1.5,13H1v2
	c0,0.6,0.4,1,1,1h11c0.6,0,1-0.4,1-1V1C14,0.4,13.6,0,13,0z M8,12c-2.2,0-4-1.8-4-4c0-2.2,1.8-4,4-4s4,1.8,4,4C12,10.2,10.2,12,8,12
	z"/>
</svg>
