<?xml version="1.0" encoding="utf-8"?>
<!-- Generator: Adobe Illustrator 18.1.1, SVG Export Plug-In . SVG Version: 6.00 Build 0)  -->
<svg version="1.1" id="Layer_1" xmlns="http://www.w3.org/2000/svg" xmlns:xlink="http://www.w3.org/1999/xlink" x="0px" y="0px"
	 viewBox="0 0 128 128" enable-background="new 0 0 128 128" xml:space="preserve">
<path d="M119,17v10.1c0.8,0.2,1.5,0.6,2,1.2V17c0-1.7-1.3-3-3-3h-7v2h7C118.6,16,119,16.4,119,17z"/>
<path fill="none" stroke="#000000" stroke-width="2" stroke-miterlimit="10" d="M111,99h7c1.1,0,2,0.9,2,2v11c0,1.1-0.9,2-2,2h-7"/>
<path d="M119,31v10.1c0.8,0.2,1.5,0.6,2,1.2V31c0-1.7-1.3-3-3-3h-7v2h7C118.6,30,119,30.4,119,31z"/>
<path d="M119,45v10.1c0.8,0.2,1.5,0.6,2,1.2V45c0-1.7-1.3-3-3-3h-7v2h7C118.6,44,119,44.4,119,45z"/>
<path d="M119,59v10.1c0.8,0.2,1.5,0.6,2,1.2V59c0-1.7-1.3-3-3-3h-7v2h7C118.6,58,119,58.4,119,59z"/>
<path d="M119,73v10.1c0.8,0.2,1.5,0.6,2,1.2V73c0-1.7-1.3-3-3-3h-7v2h7C118.6,72,119,72.4,119,73z"/>
<path d="M119,87v10.1c0.8,0.2,1.5,0.6,2,1.2V87c0-1.7-1.3-3-3-3h-7v2h7C118.6,86,119,86.4,119,87z"/>
<path d="M70.7,68.3C69.7,67.7,69,67,69,66.1V64c0,0,1.6-1.8,2.1-4.6c0,0,1-0.1,1.5-2.3c0.4-1.7-0.7-1.7-0.7-1.7c0-1.5-2-5.8-3.1-7.3
	c-3.2,2.2-10.5-0.8-10.8,7.3c0,0-1,0-0.8,1.4c0.4,2.7,1.6,2.6,1.6,2.6C59.3,62.3,61,64,61,64v2.2c0,0.7-0.5,1.6-1.7,2.2
	c-3.7,1.8-10.7,2.6-10.7,12h32.7C81.4,70.7,74.8,70.4,70.7,68.3z"/>
<g>
	<path d="M58.4,56c0-5.4,4.2-6.3,6.6-6.3c2.7,0,3.5-1,3.8-1.2c0,1.2,2.6,3.2,2.6,7.8h0.4c0.9-3.1,2.1-10.3-2.4-10.3
		c-0.6-1.4-2.5-2.3-4.4-2.3c-7.4,0-9.4,6.3-6.8,12.3H58.4z"/>
</g>
<g>
	<rect x="12" y="39" width="4" height="52"/>
	<path d="M109,0H16c-2.2,0-4,1.8-4,4v33h4V5h1v27.4c0.7-0.8,1.8-1.4,3-1.4c2.2,0,4,1.8,4,4c0,2-1.4,3.6-3.3,3.9
		C20.5,39,20.3,39,20,39h-3v47.4c0.7-0.8,1.8-1.4,3-1.4c2.2,0,4,1.8,4,4c0,2-1.4,3.6-3.3,3.9C20.5,93,20.3,93,20,93h-3v29h-1V93h-4
		v31c0,2.2,1.8,4,4,4h93c2.2,0,4-1.8,4-4V4C113,1.8,111.2,0,109,0z M65,94c-16.6,0-30-13.4-30-30c0-16.6,13.4-30,30-30
		s30,13.4,30,30C95,80.6,81.6,94,65,94z"/>
</g>
<path d="M20,91H8c-1.1,0-2-0.9-2-2l0,0c0-1.1,0.9-2,2-2h12c1.1,0,2,0.9,2,2l0,0C22,90.1,21.1,91,20,91z"/>
<path d="M20,37H8c-1.1,0-2-0.9-2-2v0c0-1.1,0.9-2,2-2h12c1.1,0,2,0.9,2,2v0C22,36.1,21.1,37,20,37z"/>
<circle fill="none" stroke="#000000" stroke-width="2" stroke-miterlimit="10" cx="65" cy="64" r="27.5"/>
</svg>
