<?xml version="1.0" encoding="utf-8"?>
<!-- Generator: Adobe Illustrator 18.1.1, SVG Export Plug-In . SVG Version: 6.00 Build 0)  -->
<svg version="1.1" id="Layer_1" xmlns="http://www.w3.org/2000/svg" xmlns:xlink="http://www.w3.org/1999/xlink" x="0px" y="0px"
	 viewBox="0 0 128 128" enable-background="new 0 0 128 128" xml:space="preserve">
<path d="M126,99h-9c-1.1,0-2-0.9-2-2v-7h12c0.6,0,1,0.4,1,1v6C128,98.1,127.1,99,126,99z"/>
<g>
	<path d="M96,89c-3.9,0-7,3.1-7,7c0,3.9,3.1,7,7,7c3.9,0,7-3.1,7-7C103,92.1,99.9,89,96,89z M96,98c-1.1,0-2-0.9-2-2
		c0-1.1,0.9-2,2-2c1.1,0,2,0.9,2,2C98,97.1,97.1,98,96,98z M96,92c-0.6,0-1-0.4-1-1c0-0.6,0.4-1,1-1c0.6,0,1,0.4,1,1
		C97,91.6,96.6,92,96,92z M96,102c-0.6,0-1-0.4-1-1c0-0.6,0.4-1,1-1c0.6,0,1,0.4,1,1C97,101.6,96.6,102,96,102z M100,96
		c0-0.6,0.4-1,1-1c0.6,0,1,0.4,1,1c0,0.6-0.4,1-1,1C100.4,97,100,96.6,100,96z M90,96c0-0.6,0.4-1,1-1c0.6,0,1,0.4,1,1
		c0,0.6-0.4,1-1,1C90.4,97,90,96.6,90,96z M98.8,98.8c0.4-0.4,1-0.4,1.4,0c0.4,0.4,0.4,1,0,1.4c-0.4,0.4-1,0.4-1.4,0
		C98.4,99.9,98.4,99.2,98.8,98.8z M91.8,91.8c0.4-0.4,1-0.4,1.4,0c0.4,0.4,0.4,1,0,1.4c-0.4,0.4-1,0.4-1.4,0
		C91.4,92.8,91.4,92.1,91.8,91.8z M93.2,98.8c0.4,0.4,0.4,1,0,1.4c-0.4,0.4-1,0.4-1.4,0c-0.4-0.4-0.4-1,0-1.4
		C92.1,98.4,92.8,98.4,93.2,98.8z M100.2,91.8c0.4,0.4,0.4,1,0,1.4c-0.4,0.4-1,0.4-1.4,0c-0.4-0.4-0.4-1,0-1.4
		C99.2,91.4,99.9,91.4,100.2,91.8z"/>
</g>
<path d="M96,59h-5c-0.6,0-1-0.4-1-1v-8h2.4c0.9,0,1.7,0.7,2,1.6L96,59z"/>
<path d="M127.6,67.4L121,42.7c-0.1-0.4-0.3-0.8-0.5-1.2c0-0.1-0.1-0.1-0.1-0.2c-0.1-0.1-0.2-0.3-0.3-0.4c-0.1-0.1-0.1-0.2-0.2-0.2
	c-0.1-0.1-0.2-0.2-0.3-0.3c-0.1-0.1-0.2-0.2-0.2-0.2c-0.1-0.1-0.2-0.2-0.3-0.2c-0.1-0.1-0.2-0.1-0.3-0.2c-0.1-0.1-0.2-0.1-0.3-0.2
	c-0.1-0.1-0.3-0.1-0.4-0.2c-0.1,0-0.2-0.1-0.3-0.1c-0.2-0.1-0.3-0.1-0.5-0.1c-0.1,0-0.2,0-0.3-0.1c-0.3,0-0.5-0.1-0.8-0.1H82
	c-1.7,0-3,1.3-3,3v53c0,1.1,0.9,2,2,2h1.1c0-0.3-0.1-0.7-0.1-1c0-7.7,6.3-14,14-14c7.7,0,14,6.3,14,14c0,0.3,0,0.7-0.1,1H126l1.9-26
	v0l0-0.3C128,69.6,127.9,68.5,127.6,67.4z M112.7,66.8c-2.3-4.2-6.7-6.8-11.4-6.8H91c-1.1,0-2-0.9-2-2V46c0-1.1,0.9-2,2-2h24.7
	c0.9,0,1.6,0.6,1.9,1.4l5.4,20.4V69c0,1.1-0.9,2-2,2h-6L112.7,66.8z M117.4,84h-0.9c-0.3,0-0.6-0.3-0.6-0.6v-3.9
	c0-0.3,0.3-0.6,0.6-0.6h0.9c0.3,0,0.6,0.3,0.6,0.6v3.9C118,83.7,117.7,84,117.4,84z M124.5,89H121c-0.6,0-1-0.4-1-1v-8
	c0-0.6,0.4-1,1-1h4.3L124.5,89z"/>
<g>
	<g>
		<path fill="none" stroke="#000000" stroke-linecap="round" stroke-miterlimit="10" stroke-dasharray="1.0132,1.5198" d="M108.5,96
			c0,6.9-5.6,12.5-12.5,12.5c-6.9,0-12.5-5.6-12.5-12.5S89.1,83.5,96,83.5C102.9,83.5,108.5,89.1,108.5,96z"/>
	</g>
</g>
<g>
	<path d="M96,83.5c-6.9,0-12.5,5.6-12.5,12.5s5.6,12.5,12.5,12.5c6.9,0,12.5-5.6,12.5-12.5S102.9,83.5,96,83.5z M96,104
		c-4.4,0-8-3.6-8-8c0-4.4,3.6-8,8-8c4.4,0,8,3.6,8,8C104,100.4,100.4,104,96,104z"/>
</g>
<g>
	<path d="M28,89c-3.9,0-7,3.1-7,7c0,3.9,3.1,7,7,7c3.9,0,7-3.1,7-7C35,92.1,31.9,89,28,89z M28,98c-1.1,0-2-0.9-2-2c0-1.1,0.9-2,2-2
		c1.1,0,2,0.9,2,2C30,97.1,29.1,98,28,98z M28,92c-0.6,0-1-0.4-1-1c0-0.6,0.4-1,1-1c0.6,0,1,0.4,1,1C29,91.6,28.6,92,28,92z M28,102
		c-0.6,0-1-0.4-1-1c0-0.6,0.4-1,1-1c0.6,0,1,0.4,1,1C29,101.6,28.6,102,28,102z M32,96c0-0.6,0.4-1,1-1c0.6,0,1,0.4,1,1
		c0,0.6-0.4,1-1,1C32.4,97,32,96.6,32,96z M22,96c0-0.6,0.4-1,1-1c0.6,0,1,0.4,1,1c0,0.6-0.4,1-1,1C22.4,97,22,96.6,22,96z
		 M30.8,98.8c0.4-0.4,1-0.4,1.4,0c0.4,0.4,0.4,1,0,1.4c-0.4,0.4-1,0.4-1.4,0C30.4,99.9,30.4,99.2,30.8,98.8z M23.8,91.8
		c0.4-0.4,1-0.4,1.4,0c0.4,0.4,0.4,1,0,1.4c-0.4,0.4-1,0.4-1.4,0C23.4,92.8,23.4,92.1,23.8,91.8z M25.2,98.8c0.4,0.4,0.4,1,0,1.4
		c-0.4,0.4-1,0.4-1.4,0c-0.4-0.4-0.4-1,0-1.4C24.1,98.4,24.8,98.4,25.2,98.8z M32.2,91.8c0.4,0.4,0.4,1,0,1.4c-0.4,0.4-1,0.4-1.4,0
		c-0.4-0.4-0.4-1,0-1.4C31.2,91.4,31.9,91.4,32.2,91.8z"/>
</g>
<g>
	<g>
		<path fill="none" stroke="#000000" stroke-linecap="round" stroke-miterlimit="10" stroke-dasharray="1.0132,1.5198" d="M40.5,96
			c0,6.9-5.6,12.5-12.5,12.5c-6.9,0-12.5-5.6-12.5-12.5S21.1,83.5,28,83.5C34.9,83.5,40.5,89.1,40.5,96z"/>
	</g>
</g>
<g>
	<path d="M28,83.5c-6.9,0-12.5,5.6-12.5,12.5s5.6,12.5,12.5,12.5c6.9,0,12.5-5.6,12.5-12.5S34.9,83.5,28,83.5z M28,104
		c-4.4,0-8-3.6-8-8c0-4.4,3.6-8,8-8c4.4,0,8,3.6,8,8C36,100.4,32.4,104,28,104z"/>
</g>
<path d="M5,80v15c0,1.1,0.9,2,2,2h7.1c0-0.3-0.1-0.7-0.1-1c0-7.7,6.3-14,14-14c7.7,0,14,6.3,14,14c0,0.3,0,0.7-0.1,1H76
	c1.1,0,2-0.9,2-2V80H5z"/>
<line fill="none" stroke="#000000" stroke-width="2" stroke-linejoin="round" stroke-miterlimit="10" x1="0" y1="22" x2="26" y2="22"/>
<line fill="none" stroke="#000000" stroke-width="2" stroke-linejoin="round" stroke-miterlimit="10" x1="0" y1="31" x2="21" y2="31"/>
<line fill="none" stroke="#000000" stroke-width="2" stroke-linejoin="round" stroke-miterlimit="10" x1="0" y1="40" x2="16" y2="40"/>
<line fill="none" stroke="#000000" stroke-width="2" stroke-linejoin="round" stroke-miterlimit="10" x1="0" y1="49" x2="11" y2="49"/>
<line fill="none" stroke="#000000" stroke-width="2" stroke-linejoin="round" stroke-miterlimit="10" x1="0" y1="58" x2="6" y2="58"/>
<path d="M76,21H7c-1.1,0-2,0.9-2,2h23v2H5v7h18v2H5v7h13v2H5v7h8v2H5v7h3v2H5v18h73V23C78,21.9,77.1,21,76,21z"/>
</svg>
