<?xml version="1.0" encoding="utf-8"?>
<!-- Generator: Adobe Illustrator 18.1.1, SVG Export Plug-In . SVG Version: 6.00 Build 0)  -->
<svg version="1.1" id="Layer_1" xmlns="http://www.w3.org/2000/svg" xmlns:xlink="http://www.w3.org/1999/xlink" x="0px" y="0px"
	 viewBox="0 0 16 16" enable-background="new 0 0 16 16" xml:space="preserve">
<line fill="none" stroke="#000000" stroke-linejoin="round" stroke-miterlimit="10" x1="0" y1="2.5" x2="2" y2="2.5"/>
<line fill="none" stroke="#000000" stroke-linejoin="round" stroke-miterlimit="10" x1="0" y1="4.5" x2="2" y2="4.5"/>
<line fill="none" stroke="#000000" stroke-linejoin="round" stroke-miterlimit="10" x1="0" y1="6.5" x2="2" y2="6.5"/>
<g>
	<path d="M13,11c0.6,0,1,0.4,1,1s-0.4,1-1,1s-1-0.4-1-1S12.4,11,13,11 M13,10c-1.1,0-2,0.9-2,2s0.9,2,2,2c1.1,0,2-0.9,2-2
		S14.1,10,13,10L13,10z"/>
</g>
<g>
	<path d="M4,11c0.6,0,1,0.4,1,1s-0.4,1-1,1s-1-0.4-1-1S3.4,11,4,11 M4,10c-1.1,0-2,0.9-2,2s0.9,2,2,2c1.1,0,2-0.9,2-2S5.1,10,4,10
		L4,10z"/>
</g>
<path d="M15.9,8.8l-1.7-3.4C14.1,5.2,13.8,5,13.5,5h-2.7C10.4,5,10,5.4,10,5.8V12h1c0-1.1,0.9-2,2-2c1.1,0,2,0.9,2,2h0.3
	c0.4,0,0.7-0.3,0.7-0.7V9.2C16,9.1,16,8.9,15.9,8.8z M15,9h-3V6h1.5L15,9z"/>
<path d="M8.3,2H1v1h2v1H1v1h1v1H1v6h1c0-1.1,0.9-2,2-2c1.1,0,2,0.9,2,2h3V2.7C9,2.3,8.7,2,8.3,2z"/>
</svg>
