<?xml version="1.0" encoding="utf-8"?>
<!-- Generator: Adobe Illustrator 18.1.1, SVG Export Plug-In . SVG Version: 6.00 Build 0)  -->
<svg version="1.1" id="Layer_1" xmlns="http://www.w3.org/2000/svg" xmlns:xlink="http://www.w3.org/1999/xlink" x="0px" y="0px"
	 viewBox="0 0 32 32" enable-background="new 0 0 32 32" xml:space="preserve">
<line fill="none" stroke="#000000" stroke-linejoin="round" stroke-miterlimit="10" x1="0" y1="5.5" x2="3.5" y2="5.5"/>
<line fill="none" stroke="#000000" stroke-linejoin="round" stroke-miterlimit="10" x1="0" y1="8.5" x2="3.5" y2="8.5"/>
<line fill="none" stroke="#000000" stroke-linejoin="round" stroke-miterlimit="10" x1="0" y1="11.5" x2="3.5" y2="11.5"/>
<line fill="none" stroke="#000000" stroke-linejoin="round" stroke-miterlimit="10" x1="0" y1="14.5" x2="3.5" y2="14.5"/>
<g>
	<path d="M8,21c-1.7,0-3,1.3-3,3s1.3,3,3,3c1.7,0,3-1.3,3-3S9.7,21,8,21z M8,25.1c-0.6,0-1.1-0.5-1.1-1.1c0-0.6,0.5-1.1,1.1-1.1
		c0.6,0,1.2,0.5,1.2,1.1C9.2,24.6,8.6,25.1,8,25.1z"/>
</g>
<g>
	<path d="M24,21c-1.7,0-3,1.3-3,3s1.3,3,3,3c1.7,0,3-1.3,3-3S25.7,21,24,21z M24,25.1c-0.6,0-1.1-0.5-1.1-1.1c0-0.6,0.5-1.1,1.1-1.1
		c0.6,0,1.1,0.5,1.1,1.1C25.2,24.6,24.6,25.1,24,25.1z"/>
</g>
<path d="M28.4,9H21c-0.6,0-1,0.4-1,1v14c0-2.2,1.8-4,4-4c2.2,0,4,1.8,4,4h3c0.6,0,1-0.4,1-1v-5.5c0-0.3,0-0.7-0.1-1l-1.5-6
	C30.2,9.6,29.4,9,28.4,9z M29.4,17c-0.4,0-1.8,0-1.8,0c-0.4,0-0.7-0.2-0.9-0.6l-0.4-0.9c-0.2-0.3-0.5-0.6-0.9-0.6H23
	c-0.6,0-1-0.4-1-1v-2c0-0.6,0.4-1,1-1h5.3c0.5,0,0.8,0.3,1,0.7l1,4.2C30.4,16.6,29.9,17,29.4,17z"/>
<path d="M2,5v1h4v1H2v2h3v1H2v2h2v1H2v2h1v1H2v8h2c0-2.2,1.8-4,4-4c2.2,0,4,1.8,4,4h7V5H2z"/>
</svg>
