<?xml version="1.0" encoding="utf-8"?>
<!-- Generator: Adobe Illustrator 18.1.1, SVG Export Plug-In . SVG Version: 6.00 Build 0)  -->
<svg version="1.1" id="Layer_1" xmlns="http://www.w3.org/2000/svg" xmlns:xlink="http://www.w3.org/1999/xlink" x="0px" y="0px"
	 viewBox="0 0 128 128" enable-background="new 0 0 128 128" xml:space="preserve">
<g>
	<path d="M122.6,16.5l4.2-4.2c1.6-1.6,1.6-4.3,0-5.9l-5.1-5.1c-1.6-1.6-4.3-1.6-5.9,0l-4.2,4.2L122.6,16.5z"/>
</g>
<rect x="101" y="8.2" transform="matrix(0.7071 0.7071 -0.7071 0.7071 44.8634 -72.7094)" fill="none" stroke="#000000" stroke-width="2" stroke-linecap="round" stroke-linejoin="round" stroke-miterlimit="10" width="18.5" height="19.2"/>
<line fill="none" stroke="#000000" stroke-width="1.4" stroke-linejoin="round" stroke-miterlimit="10" x1="120.4" y1="19.8" x2="113.7" y2="13.1"/>
<line fill="none" stroke="#000000" stroke-width="1.4" stroke-linejoin="round" stroke-miterlimit="10" x1="118.5" y1="21.7" x2="111.8" y2="15"/>
<line fill="none" stroke="#000000" stroke-width="1.4" stroke-linejoin="round" stroke-miterlimit="10" x1="114.2" y1="26.1" x2="107.4" y2="19.4"/>
<line fill="none" stroke="#000000" stroke-width="1.4" stroke-linejoin="round" stroke-miterlimit="10" x1="112.2" y1="28" x2="105.5" y2="21.3"/>
<line fill="none" stroke="#000000" stroke-width="1.4" stroke-linejoin="round" stroke-miterlimit="10" x1="110.4" y1="9.8" x2="107.9" y2="7.3"/>
<line fill="none" stroke="#000000" stroke-width="1.4" stroke-linejoin="round" stroke-miterlimit="10" x1="108.5" y1="11.7" x2="106" y2="9.2"/>
<line fill="none" stroke="#000000" stroke-width="1.4" stroke-linejoin="round" stroke-miterlimit="10" x1="104.1" y1="16.1" x2="101.6" y2="13.5"/>
<line fill="none" stroke="#000000" stroke-width="1.4" stroke-linejoin="round" stroke-miterlimit="10" x1="102.2" y1="18" x2="99.7" y2="15.5"/>
<polyline fill="none" stroke="#000000" stroke-width="2" stroke-linecap="round" stroke-linejoin="round" stroke-miterlimit="10" points="
	24.2,116.1 22.8,117.6 1,127 10.5,105.3 12.4,103.5 "/>
<polygon points="5,118.5 1,127 9.6,122.8 "/>
<path d="M110.4,31.5L96.6,17.7L9.7,104.7c0,0,3.2,0.7,3.8,3.9l84.9-84.9l1.1,1.1l-84.6,84.6c1.8,0.1,3.4,1.6,3.5,3.3l84.5-84.5
	l1.1,1.1L19,114.3c0.6-0.6,4.3,0.9,4.6,4.1L110.4,31.5z"/>
</svg>
