<?xml version="1.0" encoding="utf-8"?>
<!-- Generator: Adobe Illustrator 18.1.1, SVG Export Plug-In . SVG Version: 6.00 Build 0)  -->
<svg version="1.1" id="Layer_1" xmlns="http://www.w3.org/2000/svg" xmlns:xlink="http://www.w3.org/1999/xlink" x="0px" y="0px"
	 viewBox="0 0 32 32" enable-background="new 0 0 32 32" xml:space="preserve">
<path d="M30,0v1h-3V0H5v1H2V0H0v32h2v-1h3v1h22v-1h3v1h2V0H30z M5,29H2v-2h3V29z M5,25H2v-2h3V25z M5,21H2v-2h3V21z M5,17H2v-2h3V17
	z M5,13H2v-2h3V13z M5,9H2V7h3V9z M5,5H2V3h3V5z M30,29h-3v-2h3V29z M30,25h-3v-2h3V25z M30,21h-3v-2h3V21z M30,17h-3v-2h3V17z
	 M30,13h-3v-2h3V13z M30,9h-3V7h3V9z M30,5h-3V3h3V5z"/>
</svg>
