<?xml version="1.0" encoding="utf-8"?>
<!-- Generator: Adobe Illustrator 18.1.1, SVG Export Plug-In . SVG Version: 6.00 Build 0)  -->
<svg version="1.1" id="Layer_1" xmlns="http://www.w3.org/2000/svg" xmlns:xlink="http://www.w3.org/1999/xlink" x="0px" y="0px"
	 viewBox="0 0 128 128" enable-background="new 0 0 128 128" xml:space="preserve">
<g>
	<path d="M110.9,46.9c-0.4,0-0.7,0-1,0.1c-0.3,0.1-0.4,0.3-0.4,0.6c0,0.3,0.1,0.4,0.4,0.6s0.6,0.2,1.1,0.2c0.4,0,0.6,0,0.9-0.1
		c0.3-0.1,0.5-0.3,0.5-0.6c0-0.2-0.1-0.4-0.3-0.5C111.8,46.9,111.4,46.9,110.9,46.9z"/>
	<path d="M109,0v1c0,0.6-0.4,1-1,1h-8c-0.6,0-1-0.4-1-1V0H29v1c0,0.6-0.4,1-1,1h-8c-0.6,0-1-0.4-1-1V0h-5v128h5v-1c0-0.6,0.4-1,1-1
		h8c0.6,0,1,0.4,1,1v1h70v-1c0-0.6,0.4-1,1-1h8c0.6,0,1,0.4,1,1v1h5V0H109z M29,122c0,0.6-0.4,1-1,1h-8c-0.6,0-1-0.4-1-1v-6
		c0-0.6,0.4-1,1-1h8c0.6,0,1,0.4,1,1V122z M29,111c0,0.6-0.4,1-1,1h-8c-0.6,0-1-0.4-1-1v-6c0-0.6,0.4-1,1-1h8c0.6,0,1,0.4,1,1V111z
		 M29,100c0,0.6-0.4,1-1,1h-8c-0.6,0-1-0.4-1-1v-6c0-0.6,0.4-1,1-1h8c0.6,0,1,0.4,1,1V100z M29,89c0,0.6-0.4,1-1,1h-8
		c-0.6,0-1-0.4-1-1v-6c0-0.6,0.4-1,1-1h8c0.6,0,1,0.4,1,1V89z M29,78c0,0.6-0.4,1-1,1h-8c-0.6,0-1-0.4-1-1v-6c0-0.6,0.4-1,1-1h8
		c0.6,0,1,0.4,1,1V78z M29,67c0,0.6-0.4,1-1,1h-8c-0.6,0-1-0.4-1-1v-6c0-0.6,0.4-1,1-1h8c0.6,0,1,0.4,1,1V67z M29,56
		c0,0.6-0.4,1-1,1h-8c-0.6,0-1-0.4-1-1v-6c0-0.6,0.4-1,1-1h8c0.6,0,1,0.4,1,1V56z M29,45c0,0.6-0.4,1-1,1h-8c-0.6,0-1-0.4-1-1v-6
		c0-0.6,0.4-1,1-1h8c0.6,0,1,0.4,1,1V45z M29,34c0,0.6-0.4,1-1,1h-8c-0.6,0-1-0.4-1-1v-6c0-0.6,0.4-1,1-1h8c0.6,0,1,0.4,1,1V34z
		 M29,23c0,0.6-0.4,1-1,1h-8c-0.6,0-1-0.4-1-1v-6c0-0.6,0.4-1,1-1h8c0.6,0,1,0.4,1,1V23z M29,12c0,0.6-0.4,1-1,1h-8
		c-0.6,0-1-0.4-1-1V6c0-0.6,0.4-1,1-1h8c0.6,0,1,0.4,1,1V12z M94.9,14L94,14.2v0.5l2.2,0.5L94,15.7V16l1.7,0.4L94,16.8v0.3l2,0.5
		l-2,0.5v0l3,0.7l-3,0.7v0.3l0.9,0.2L94,20.2v0.5l2.2,0.5L94,21.7v0.3l1.5,0.3L94,22.8v0.4l2,0.5L94.2,24l3.3,0.8L94,25.6v0.2
		l0.9,0.2L94,26.2v0.6l1.5,0.3L94,27.6v0.4l2,0.5l-2,0.5v0.5l0.9,0.2L94,29.8v0.6l1.5,0.3L94,31.2v0.4l2,0.5l-2,0.5V33l0.9,0.2
		L94,33.4v0.5l2.2,0.5L94,34.9v0.3l1.7,0.4L94,36v0.3l2,0.5l-2,0.5v0l3,0.7l-3,0.7V39l0.9,0.2L94,39.4v0.5l2.2,0.5L94,40.9v0.3
		l1.5,0.3L94,42v0.4l2,0.5l-1.8,0.4l3.3,0.8L94,44.8V45l0.9,0.2L94,45.4v0.5l2.2,0.5L94,46.9v0.3l1.7,0.4L94,48v0.3l2,0.5l-2,0.5v0
		l3,0.7l-3,0.7V51l0.9,0.2L94,51.4v0.5l2.2,0.5L94,52.9v0.3l1.5,0.3L94,54v0.4l2,0.5l-1.8,0.4l3.3,0.8L94,56.8V57l0.9,0.2L94,57.4
		v0.6l1.5,0.3L94,58.8v0.4l2,0.5l-2,0.5v0.5l0.9,0.2L94,61v0.6l1.5,0.3L94,62.4v0.4l2,0.5l-2,0.5v0.5l0.9,0.2L94,64.6v0.5l2.2,0.5
		L94,66.1v0.3l1.7,0.4L94,67.2v0.3l2,0.5l-2,0.5v0l3,0.7l-3,0.7v0.3l0.9,0.2L94,70.6v0.5l2.2,0.5L94,72.2v0.3l1.5,0.3L94,73.2v0.4
		l2,0.5l-1.8,0.4l3.3,0.8L94,76.1v0.2l0.9,0.2L94,76.6v0.5l2.2,0.5L94,78.2v0.3l1.7,0.4L94,79.2v0.3l2,0.5l-2,0.5v0l3,0.7l-3,0.7
		v0.3l0.9,0.2L94,82.6v0.5l2.2,0.5L94,84.2v0.3l1.5,0.3L94,85.2v0.4l2,0.5l-1.8,0.4l3.3,0.8L94,88.1v0.2l0.9,0.2L94,88.7v0.6
		l1.5,0.3L94,90v0.4l2,0.5l-2,0.5v0.5l0.9,0.2L94,92.3v0.6l1.5,0.3L94,93.6V94l2,0.5l-2,0.5v0.5l0.9,0.2L94,95.9v0.5l2.2,0.5
		L94,97.4v0.3l1.7,0.4L94,98.4v0.3l2,0.5l-2,0.5v0l3,0.7l-3,0.7v0.3l0.9,0.2l-0.9,0.2v0.5l2.2,0.5l-2.2,0.5v0.3l1.5,0.3l-1.5,0.3
		v0.4l2,0.5l-1.8,0.4l3.3,0.8l-3.4,0.8v0.2l0.9,0.2l-0.9,0.2v0.5l2.2,0.5l-2.2,0.5v0.3l1.7,0.4l-1.7,0.4v0.3l2,0.5l-2,0.5v0l3,0.7
		l-3,0.7v0.3l0.9,0.2l-0.9,0.2v0.5l2.2,0.5l-2.2,0.5v0.3l1.5,0.3l-1.5,0.3v0.4l2,0.5l-1.8,0.4l3.3,0.8l-3.4,0.8v0.2l0.9,0.2
		l-0.9,0.2v0.6l1.5,0.3l-1.5,0.3v0.4l2,0.5l-2,0.5v0.5l0.9,0.2l-0.9,0.2v0.6l1.5,0.3l-1.5,0.3v0.4l2,0.5l-2.5,0.6l-2.5-0.6l2-0.5
		v-0.4l-1.4-0.3l1.4-0.3v-0.7l-0.9-0.2l0.9-0.2v-0.5l-2-0.5l2-0.5v-0.4l-1.4-0.3l1.4-0.3v-0.7l-0.9-0.2l0.9-0.2v-0.2l-3.4-0.8
		l3.3-0.8l-1.8-0.4l2-0.5v-0.4l-1.4-0.3l1.4-0.3v-0.3l-2.2-0.5l2.2-0.5v-0.5l-0.9-0.2l0.9-0.2v-0.3l-3-0.7l3-0.7v0l-2-0.5l2-0.5
		v-0.3l-1.7-0.4l1.7-0.4v-0.3l-2.2-0.5l2.2-0.5v-0.5l-0.9-0.2l0.9-0.2v-0.2l-3.4-0.8l3.3-0.8l-1.8-0.4l2-0.5v-0.4l-1.4-0.3l1.4-0.3
		v-0.3l-2.2-0.5l2.2-0.5v-0.5l-0.9-0.2l0.9-0.2v-0.3l-3-0.7l3-0.7v0l-2-0.5l2-0.5v-0.3L91.3,98l1.7-0.4v-0.3l-2.2-0.5l2.2-0.5v-0.5
		l-0.9-0.2l0.9-0.2v-0.5l-2-0.5l2-0.5v-0.4l-1.4-0.3l1.4-0.3v-0.7L92.1,92l0.9-0.2v-0.5l-2-0.5l2-0.5V90l-1.4-0.3l1.4-0.3v-0.7
		l-0.9-0.2l0.9-0.2v-0.2l-3.4-0.8l3.3-0.8L91,86l2-0.5v-0.4l-1.4-0.3l1.4-0.3v-0.3l-2.2-0.5l2.2-0.5v-0.5l-0.9-0.2l0.9-0.2v-0.3
		l-3-0.7l3-0.7v0L91,80l2-0.5v-0.3l-1.7-0.4l1.7-0.4v-0.3l-2.2-0.5l2.2-0.5v-0.5l-0.9-0.2l0.9-0.2v-0.2l-3.4-0.8l3.3-0.8L91,74
		l2-0.5v-0.4l-1.4-0.3l1.4-0.3v-0.3l-2.2-0.5l2.2-0.5v-0.5l-0.9-0.2l0.9-0.2v-0.3l-3-0.7l3-0.7v0L91,68l2-0.5v-0.3l-1.7-0.4l1.7-0.4
		v-0.3l-2.2-0.5l2.2-0.5v-0.5l-0.9-0.2l0.9-0.2v-0.5l-2-0.5l2-0.5v-0.4L91.6,62l1.4-0.3V61l-0.9-0.2l0.9-0.2v-0.5l-2-0.5l2-0.5v-0.4
		l-1.4-0.3l1.4-0.3v-0.7l-0.9-0.2L93,57v-0.2L89.6,56l3.3-0.8L91,54.8l2-0.5V54l-1.4-0.3l1.4-0.3v-0.3l-2.2-0.5l2.2-0.5v-0.5
		l-0.9-0.2L93,51v-0.3L90,50l3-0.7v0l-2-0.5l2-0.5V48l-1.7-0.4l1.7-0.4v-0.3l-2.2-0.5l2.2-0.5v-0.5l-0.9-0.2L93,45v-0.2L89.6,44
		l3.3-0.8L91,42.8l2-0.5V42l-1.4-0.3l1.4-0.3v-0.3l-2.2-0.5l2.2-0.5v-0.5l-0.9-0.2L93,39v-0.3L90,38l3-0.7v0l-2-0.5l2-0.5V36
		l-1.7-0.4l1.7-0.4v-0.3l-2.2-0.5l2.2-0.5v-0.5l-0.9-0.2L93,33v-0.5L91,32l2-0.5v-0.4l-1.4-0.3l1.4-0.3v-0.7l-0.9-0.2l0.9-0.2v-0.5
		l-2-0.5l2-0.5v-0.4l-1.4-0.3l1.4-0.3v-0.7L92.1,26l0.9-0.2v-0.2l-3.4-0.8l3.3-0.8L91,23.6l2-0.5v-0.4l-1.4-0.3l1.4-0.3v-0.3
		l-2.2-0.5l2.2-0.5v-0.5L92.1,20l0.9-0.2v-0.3l-3-0.7l3-0.7v0l-2-0.5l2-0.5v-0.3l-1.7-0.4L93,16v-0.3l-2.2-0.5l2.2-0.5v-0.5L92.1,14
		l0.9-0.2v-0.2l-3.4-0.8l3.3-0.8L91,11.6l2-0.5v-0.4l-1.4-0.3l1.4-0.3V9.7l-2.2-0.5L93,8.7V8.2L92.1,8L93,7.8V7.5l-3-0.7l3-0.7v0
		l-2-0.5l2-0.5V4.8l-1.7-0.4L93,4V3.7l-2.2-0.5L93,2.7V2.2L92.1,2l1.4-0.3L94.9,2L94,2.2v0.5l2.2,0.5L94,3.7V4l1.7,0.4L94,4.8v0.3
		l2,0.5l-2,0.5v0l3,0.7l-3,0.7v0.3L94.9,8L94,8.2v0.5l2.2,0.5L94,9.7v0.3l1.5,0.3L94,10.7v0.4l2,0.5L94.2,12l3.3,0.8L94,13.6v0.2
		L94.9,14z M109,122c0,0.6-0.4,1-1,1h-8c-0.6,0-1-0.4-1-1v-6c0-0.6,0.4-1,1-1h8c0.6,0,1,0.4,1,1V122z M109,111c0,0.6-0.4,1-1,1h-8
		c-0.6,0-1-0.4-1-1v-6c0-0.6,0.4-1,1-1h8c0.6,0,1,0.4,1,1V111z M109,100c0,0.6-0.4,1-1,1h-8c-0.6,0-1-0.4-1-1v-6c0-0.6,0.4-1,1-1h8
		c0.6,0,1,0.4,1,1V100z M109,89c0,0.6-0.4,1-1,1h-8c-0.6,0-1-0.4-1-1v-6c0-0.6,0.4-1,1-1h8c0.6,0,1,0.4,1,1V89z M109,78
		c0,0.6-0.4,1-1,1h-8c-0.6,0-1-0.4-1-1v-6c0-0.6,0.4-1,1-1h8c0.6,0,1,0.4,1,1V78z M109,67c0,0.6-0.4,1-1,1h-8c-0.6,0-1-0.4-1-1v-6
		c0-0.6,0.4-1,1-1h8c0.6,0,1,0.4,1,1V67z M109,56c0,0.6-0.4,1-1,1h-8c-0.6,0-1-0.4-1-1v-6c0-0.6,0.4-1,1-1h8c0.6,0,1,0.4,1,1V56z
		 M109,45c0,0.6-0.4,1-1,1h-8c-0.6,0-1-0.4-1-1v-6c0-0.6,0.4-1,1-1h8c0.6,0,1,0.4,1,1V45z M109,34c0,0.6-0.4,1-1,1h-8
		c-0.6,0-1-0.4-1-1v-6c0-0.6,0.4-1,1-1h8c0.6,0,1,0.4,1,1V34z M109,23c0,0.6-0.4,1-1,1h-8c-0.6,0-1-0.4-1-1v-6c0-0.6,0.4-1,1-1h8
		c0.6,0,1,0.4,1,1V23z M109,12c0,0.6-0.4,1-1,1h-8c-0.6,0-1-0.4-1-1V6c0-0.6,0.4-1,1-1h8c0.6,0,1,0.4,1,1V12z M110.9,24.1l1.3,2.7
		l-1.3-0.5l-1.3,0.5L110.9,24.1z M112.4,92.5c-0.2,0.2-0.5,0.3-0.8,0.3v-0.5c0.2,0,0.4-0.1,0.5-0.1c0.2-0.1,0.3-0.3,0.3-0.6
		c0-0.2-0.1-0.4-0.2-0.6c-0.1-0.1-0.3-0.2-0.5-0.2c-0.2,0-0.4,0.1-0.5,0.2s-0.1,0.4-0.1,0.6c0,0,0,0.1,0,0.1s0,0.1,0,0.1h-0.4
		c0,0,0-0.1,0-0.1c0,0,0-0.1,0-0.1c0-0.2,0-0.3-0.1-0.4c-0.1-0.2-0.3-0.3-0.5-0.3c-0.2,0-0.3,0.1-0.4,0.2s-0.1,0.3-0.1,0.4
		c0,0.3,0.1,0.5,0.3,0.6c0.1,0.1,0.3,0.1,0.5,0.1v0.4c-0.3,0-0.5-0.1-0.7-0.2c-0.3-0.2-0.5-0.5-0.5-0.9c0-0.4,0.1-0.6,0.2-0.8
		c0.2-0.2,0.4-0.3,0.7-0.3c0.2,0,0.4,0.1,0.5,0.2c0.1,0.1,0.1,0.2,0.2,0.3c0.1-0.2,0.1-0.3,0.3-0.4c0.1-0.1,0.3-0.2,0.5-0.2
		c0.3,0,0.6,0.1,0.8,0.3c0.2,0.2,0.3,0.5,0.3,0.9C112.7,92,112.6,92.3,112.4,92.5z M112.2,70.4c-0.3,0.2-0.7,0.3-1.2,0.3
		c-0.4,0-0.7-0.1-1-0.2c-0.5-0.2-0.8-0.5-0.8-1c0-0.5,0.2-0.8,0.6-1c0.3-0.2,0.7-0.2,1.2-0.2c0.5,0,0.9,0.1,1.2,0.2
		c0.4,0.2,0.7,0.5,0.7,1C112.7,69.9,112.5,70.2,112.2,70.4z M112.2,48.5c-0.3,0.2-0.7,0.3-1.2,0.3c-0.4,0-0.7-0.1-1-0.2
		c-0.5-0.2-0.8-0.5-0.8-1c0-0.5,0.2-0.8,0.6-1c0.3-0.2,0.7-0.2,1.2-0.2c0.5,0,0.9,0.1,1.2,0.2c0.4,0.2,0.7,0.5,0.7,1
		C112.7,48,112.5,48.3,112.2,48.5z"/>
	<path d="M110.9,68.7c-0.4,0-0.7,0-1,0.1c-0.3,0.1-0.4,0.3-0.4,0.6c0,0.3,0.1,0.4,0.4,0.6s0.6,0.2,1.1,0.2c0.4,0,0.6,0,0.9-0.1
		c0.3-0.1,0.5-0.3,0.5-0.6c0-0.2-0.1-0.4-0.3-0.5C111.8,68.8,111.4,68.7,110.9,68.7z"/>
</g>
</svg>
