<?xml version="1.0" encoding="utf-8"?>
<!-- Generator: Adobe Illustrator 18.1.1, SVG Export Plug-In . SVG Version: 6.00 Build 0)  -->
<svg version="1.1" id="Layer_1" xmlns="http://www.w3.org/2000/svg" xmlns:xlink="http://www.w3.org/1999/xlink" x="0px" y="0px"
	 viewBox="0 0 16 16" enable-background="new 0 0 16 16" xml:space="preserve">
<path d="M15,0v1h-2V0H3v1H1V0H0v16h1v-1h2v1h10v-1h2v1h1V0H15z M3,13H1v-2h2V13z M3,9H1V7h2V9z M3,5H1V3h2V5z M15,13h-2v-2h2V13z
	 M15,9h-2V7h2V9z M15,5h-2V3h2V5z"/>
</svg>
