<?xml version="1.0" encoding="utf-8"?>
<!-- Generator: Adobe Illustrator 18.1.1, SVG Export Plug-In . SVG Version: 6.00 Build 0)  -->
<svg version="1.1" id="Layer_1" xmlns="http://www.w3.org/2000/svg" xmlns:xlink="http://www.w3.org/1999/xlink" x="0px" y="0px"
	 viewBox="0 0 128 128" enable-background="new 0 0 128 128" xml:space="preserve">
<path d="M114.5,0l-101,0C11.6,0,10,1.6,10,3.5v0C10,5.4,11.6,7,13.5,7h101c1.9,0,3.5-1.6,3.5-3.5v0C118,1.6,116.4,0,114.5,0z"/>
<polygon points="74,60 54,60 14,9 28,9 59,57 34,9 114,9 "/>
<path d="M105,24l-2.6,3.3c3.8,1.1,6.6,4.5,6.6,8.7c0,5-4,9-9,9c-3.4,0-6.3-1.9-7.8-4.6l-2.6,3.3c2.4,3.2,6.2,5.3,10.4,5.3
	c7.2,0,13-5.8,13-13C113,30.6,109.7,26,105,24z"/>
<polygon points="61,62 61,115 58,113 58,62 54,62 54,115 74,128 74,62 "/>
</svg>
