<?xml version="1.0" encoding="utf-8"?>
<!-- Generator: Adobe Illustrator 18.1.1, SVG Export Plug-In . SVG Version: 6.00 Build 0)  -->
<svg version="1.1" id="Layer_1" xmlns="http://www.w3.org/2000/svg" xmlns:xlink="http://www.w3.org/1999/xlink" x="0px" y="0px"
	 viewBox="0 0 16 16" enable-background="new 0 0 16 16" xml:space="preserve">
<g>
	<rect x="6.5" y="2" width="3" height="2"/>
</g>
<g>
	<path d="M4,1c0.5,0,1,0.8,1.5,1.8c0,0.1,0.1,0.1,0.1,0.2H4C3.4,3,3,2.6,3,2S3.4,1,4,1 M4,0C2.9,0,2,0.9,2,2s0.9,2,2,2
		c0.6,0,3.7,0,3.7,0C6.4,4,6.1,0,4,0L4,0z"/>
</g>
<g>
	<path d="M12,1c0.6,0,1,0.4,1,1s-0.4,1-1,1h-1.5c0-0.1,0.1-0.1,0.1-0.2C11,1.8,11.5,1,12,1 M12,0C9.9,0,9.6,4,8.3,4c0,0,3.1,0,3.7,0
		c1.1,0,2-0.9,2-2S13.1,0,12,0L12,0z"/>
</g>
<path d="M13,16H9V7h6v7C15,15.1,14.1,16,13,16z"/>
<path d="M16,6H9V4h6c0.6,0,1,0.4,1,1V6z"/>
<path d="M3,16h4V7H1v7C1,15.1,1.9,16,3,16z"/>
<path d="M0,6h7V4H1C0.4,4,0,4.4,0,5L0,6z"/>
</svg>
