<?xml version="1.0" encoding="utf-8"?>
<!-- Generator: Adobe Illustrator 18.1.1, SVG Export Plug-In . SVG Version: 6.00 Build 0)  -->
<svg version="1.1" id="Layer_1" xmlns="http://www.w3.org/2000/svg" xmlns:xlink="http://www.w3.org/1999/xlink" x="0px" y="0px"
	 viewBox="0 0 32 32" enable-background="new 0 0 32 32" xml:space="preserve">
<g>
	<path d="M18.5,3h-5C13.2,3,13,3.2,13,3.5V7h6V3.5C19,3.2,18.8,3,18.5,3z"/>
</g>
<g>
	<path d="M13,7H2C0.9,7,0,7.9,0,9v3h13V7z"/>
	<path d="M1,13v17c0,1.1,0.9,2,2,2h10V13H1z"/>
	<path d="M30,7H19v5h13V9C32,7.9,31.1,7,30,7z"/>
	<path d="M19,32h10c1.1,0,2-0.9,2-2V13H19V32z"/>
</g>
<g>
	<path d="M24.5,1.6c1,0,1.9,0.9,1.9,1.9s-0.9,1.9-1.9,1.9h-3.8c0.1-0.1,0.2-0.3,0.3-0.4C22,3.4,23.2,1.6,24.5,1.6 M24.5,0
		c-3.7,0-5.2,6.2-7.5,7c0,0,6.4,0,7.5,0C26.4,7,28,5.4,28,3.5S26.4,0,24.5,0L24.5,0z"/>
</g>
<g>
	<path d="M7.5,1.6c1.3,0,2.5,1.8,3.6,3.4c0.1,0.1,0.2,0.3,0.3,0.4H7.5c-1,0-1.9-0.9-1.9-1.9S6.5,1.6,7.5,1.6 M7.5,0
		C5.6,0,4,1.6,4,3.5S5.6,7,7.5,7C8.6,7,15,7,15,7C12.7,6.2,11.2,0,7.5,0L7.5,0z"/>
</g>
</svg>
