<?xml version="1.0" encoding="utf-8"?>
<!-- Generator: Adobe Illustrator 18.1.1, SVG Export Plug-In . SVG Version: 6.00 Build 0)  -->
<svg version="1.1" id="Layer_1" xmlns="http://www.w3.org/2000/svg" xmlns:xlink="http://www.w3.org/1999/xlink" x="0px" y="0px"
	 viewBox="0 0 128 128" enable-background="new 0 0 128 128" xml:space="preserve">
<path d="M45.8,48L8,85.8V66.2L26.2,48H45.8z M45.8,128l5.2-5.2v-18.6L27.2,128H45.8z M8,124c0,0.5,0.1,1,0.3,1.5L51,82.8V64.2
	l-43,43V124z M12,128h13.8L51,102.8V84.2L8.8,126.4C9.5,127.4,10.7,128,12,128z M51,128v-3.8l-3.8,3.8H51z M77,48v8.8l8.8-8.8H77z
	 M8,48v16.8L24.8,48H8z M87.2,48L77,58.2v18.6L105.8,48H87.2z M107.2,48L77,78.2v18.6l43-43V48H107.2z M77,128h8.8L120,93.8V75.2
	l-43,43V128z M77,116.8l43-43V55.2l-43,43V116.8z M105.8,128l14.2-14.2V95.2L87.2,128H105.8z M116,128c2.2,0,4-1.8,4-4v-8.8
	L107.2,128H116z M8,87.2v18.6l43-43V48h-3.8L8,87.2z M73,128h2V48h-2V128z M53,128h2V48h-2V128z"/>
<path d="M47.2,28H51v3.8L47.2,28z M9,28c-0.5,0-1,0.1-1.5,0.3L25.2,46h18.6l-18-18H9z M27.2,28l18,18H51V33.2L45.8,28H27.2z M123,32
	c0-2.2-1.8-4-4-4h-11.8L123,43.8V32z M5,32v12c0,1.1,0.9,2,2,2h16.8L6.6,28.8C5.6,29.5,5,30.7,5,32z M53,46h2V28h-2V46z M73,46h2V28
	h-2V46z M77,28v9.8l8.2,8.2h18.6l-18-18H77z M105.8,28H87.2l18,18H121c0.8,0,1.4-0.4,1.8-1.1L105.8,28z M77,46h6.8L77,39.2V46z"/>
<rect x="12" y="45" width="104" height="1"/>
<rect x="12" y="48" width="104" height="1"/>
<rect x="12" y="127" width="104" height="1"/>
<rect x="12" y="28" width="104" height="1"/>
<g>
	<path d="M77,19v8H51v-8H77 M77,17H51c-1.1,0-2,0.9-2,2v10h30V19C79,17.9,78.1,17,77,17L77,17z"/>
</g>
<rect x="53" y="18" width="2" height="10"/>
<rect x="73" y="18" width="2" height="10"/>
<path fill="none" stroke="#000000" stroke-width="2" stroke-linecap="round" stroke-linejoin="round" stroke-miterlimit="10" d="
	M79,28c0,0,15.8,0,20.5,0c7.5,0,13.5-6,13.5-13.5S107,1,99.5,1C83.8,1,87,20.5,79,20.5"/>
<path fill="none" stroke="#000000" stroke-width="2" stroke-linecap="round" stroke-linejoin="round" stroke-miterlimit="10" d="
	M79,24c0,0,16.7,0,20,0c5.2,0,9.5-4.3,9.5-9.5S104.3,5,99,5C87.9,5,90.7,24,79,24"/>
<path fill="none" stroke="#000000" stroke-width="2" stroke-linecap="round" stroke-linejoin="round" stroke-miterlimit="10" d="
	M49,28c0,0-15.8,0-20.5,0C21,28,15,22,15,14.5S21,1,28.5,1C44.2,1,41,20.5,49,20.5"/>
<path fill="none" stroke="#000000" stroke-width="2" stroke-linecap="round" stroke-linejoin="round" stroke-miterlimit="10" d="
	M49,24c0,0-16.7,0-20,0c-5.2,0-9.5-4.3-9.5-9.5S23.7,5,29,5C40.1,5,37.3,24,49,24"/>
</svg>
