<?xml version="1.0" encoding="utf-8"?>
<!-- Generator: Adobe Illustrator 18.1.1, SVG Export Plug-In . SVG Version: 6.00 Build 0)  -->
<svg version="1.1" id="Layer_1" xmlns="http://www.w3.org/2000/svg" xmlns:xlink="http://www.w3.org/1999/xlink" x="0px" y="0px"
	 viewBox="0 0 128 128" enable-background="new 0 0 128 128" xml:space="preserve">
<g>
	<path d="M65.7,13.7c3.1,0.3,5.6,1.6,7.5,3.9c5,6.3,3.4,18.6,1.8,26.3c0.4,0.3,0.8,0.6,1.1,1c1.1,1.4,1.4,3.5,0.8,6.1
		c-1,4.2-2.6,6.4-3.9,7.5c0.2,0.2,0.3,0.4,0.3,0.4v5.9c0,1.9-1,3.7-2.6,4.8c-0.2,0.1-0.3,0.2-0.5,0.3c0.9,3.7,6.8,6.6,13.9,6.6
		c7.1,0,12.9-2.8,13.9-6.5c0-0.1,0-0.1,0-0.2c-0.2-0.1-0.3-0.2-0.5-0.3c-1.6-1-2.6-2.8-2.6-4.7v-5.7c0,0,4.4-4.8,5.6-12.4
		c0,0,2.7-0.2,4.1-6.2c1.1-4.6-1.9-4.6-1.9-4.6c0-0.1,0-0.2,0-0.2c2.2-9.3,4-25.3-7.1-25.3C94.1,6.3,88.9,4,83.8,4
		c-9.2,0-15.3,3.6-18.5,9C65.4,13.2,65.6,13.5,65.7,13.7z"/>
	<path d="M84,78.3c-7.8,0-14.2-3.2-15.7-7.6c-0.6,0.3-1.3,0.6-1.9,0.9c-0.3,0.5-0.6,0.9-0.9,1.1v5.9c0,1.6,0.8,3,2,3.8
		c0.1,0.1,0.2,0.1,0.4,0.2l1.1,0.6l0.7,0.4c2.3,1.2,4.8,2.1,7.5,3.2c7.9,3,17,6.5,22.3,16H128c0-25.7-17.3-26.8-28.3-32.2
		C98.3,75.1,91.9,78.3,84,78.3z"/>
</g>
<path d="M68.8,85.4c-0.9,5.1-8.4,9-17.8,9c-9.3,0-16.7-3.8-17.8-8.8C21.6,91.4,0,93.6,0,123h102C102,92.9,81.5,91.9,68.8,85.4z"/>
<path d="M72.7,45.2c-0.1-4.8-6.1-18-9.6-22.9c-9.8,6.9-32.6-2.6-33.8,22.9c0,0-3,0.1-2.4,4.4c1.1,8.4,5,8.1,5,8.1
	c1.4,8.9,6.5,14.3,6.5,14.3v6.9c0,2.2-1.1,4.3-3,5.5c-0.2,0.1-0.4,0.2-0.6,0.3c0.3,4.3,7.5,7.9,16.1,7.9c8.7,0,16-3.7,16.1-8.1
	c-0.2-0.1-0.4-0.2-0.6-0.4c-1.9-1.2-3-3.3-3-5.5V72c0,0,5.1-5.5,6.5-14.3c0,0,3.1-0.3,4.8-7.2C76.1,45.2,72.7,45.2,72.7,45.2z"/>
<g>
	<path d="M30.4,46.9c0-16.8,13-19.7,20.6-19.7c8.6,0,11-3.2,11.7-3.6c0,3.9,8,9.9,8,24.2h1.2c2.7-9.8,6.7-32.2-7.5-32.2
		c-1.8-4.5-7.7-7.2-13.7-7.2C27.6,8.5,21.4,28,29.5,46.9H30.4z"/>
</g>
</svg>
