<?xml version="1.0" encoding="utf-8"?>
<!-- Generator: Adobe Illustrator 18.1.1, SVG Export Plug-In . SVG Version: 6.00 Build 0)  -->
<svg version="1.1" id="Layer_1" xmlns="http://www.w3.org/2000/svg" xmlns:xlink="http://www.w3.org/1999/xlink" x="0px" y="0px"
	 viewBox="0 0 128 128" enable-background="new 0 0 128 128" xml:space="preserve">
<polygon points="64,0.1 0.2,46.3 4.8,52.8 64,9.9 123.2,52.8 127.8,46.3 "/>
<g>
	<polygon points="111,32.3 111,5 96,5 96,21.4 	"/>
</g>
<path d="M120,52.3V128H8V52.3l56-40.6L120,52.3z M65,46h9v-9h-9V46z M65,57h9v-9h-9V57z M54,46h9v-9h-9V46z M54,57h9v-9h-9V57z
	 M80,78H48v48h32V78z"/>
<rect x="73" y="99" width="4" height="6"/>
</svg>
