<?xml version="1.0" encoding="utf-8"?>
<!-- Generator: Adobe Illustrator 18.1.1, SVG Export Plug-In . SVG Version: 6.00 Build 0)  -->
<svg version="1.1" id="Layer_1" xmlns="http://www.w3.org/2000/svg" xmlns:xlink="http://www.w3.org/1999/xlink" x="0px" y="0px"
	 viewBox="0 0 16 16" enable-background="new 0 0 16 16" xml:space="preserve">
<path d="M12.5,0h-9C2.7,0,2,0.7,2,1.5v13C2,15.3,2.7,16,3.5,16h9c0.8,0,1.5-0.7,1.5-1.5v-13C14,0.7,13.3,0,12.5,0z M8,15.2
	c-0.4,0-0.7-0.3-0.7-0.7s0.3-0.7,0.7-0.7c0.4,0,0.7,0.3,0.7,0.7S8.4,15.2,8,15.2z M13,13H3V2h10V13z"/>
</svg>
