<?xml version="1.0" encoding="utf-8"?>
<!-- Generator: Adobe Illustrator 18.1.1, SVG Export Plug-In . SVG Version: 6.00 Build 0)  -->
<svg version="1.1" id="Layer_1" xmlns="http://www.w3.org/2000/svg" xmlns:xlink="http://www.w3.org/1999/xlink" x="0px" y="0px"
	 viewBox="0 0 16 16" enable-background="new 0 0 16 16" xml:space="preserve">
<path d="M10.5,0h-5C4.7,0,4,0.7,4,1.5v13C4,15.3,4.7,16,5.5,16h5c0.8,0,1.5-0.7,1.5-1.5v-13C12,0.7,11.3,0,10.5,0z M8,15.2
	c-0.4,0-0.7-0.3-0.7-0.7s0.3-0.7,0.7-0.7c0.4,0,0.7,0.3,0.7,0.7S8.4,15.2,8,15.2z M11,13H5V2h6V13z"/>
</svg>
