<?xml version="1.0" encoding="utf-8"?>
<!-- Generator: Adobe Illustrator 18.1.1, SVG Export Plug-In . SVG Version: 6.00 Build 0)  -->
<svg version="1.1" id="Layer_1" xmlns="http://www.w3.org/2000/svg" xmlns:xlink="http://www.w3.org/1999/xlink" x="0px" y="0px"
	 viewBox="0 0 32 32" enable-background="new 0 0 32 32" xml:space="preserve">
<path d="M9.3,16.5l6.2,6.2c0.4,0.4,1,0.4,1.4,0l2-2L11.3,13l-2,2C8.9,15.4,8.9,16.1,9.3,16.5z"/>
<path d="M21,0c-6.1,0-11,4.9-11,11c0,6.1,4.9,11,11,11s11-4.9,11-11C32,4.9,27.1,0,21,0z M25,10c-1.7,0-3-1.3-3-3c0-1.7,1.3-3,3-3
	s3,1.3,3,3C28,8.7,26.7,10,25,10z"/>
<polygon points="7,28 9.3,28 11,26.3 11,24 13.3,24 17.7,19.6 12.4,14.3 0,26.7 0,30.7 0.6,31.2 12.6,19.2 13.5,20.2 1.7,32 5.3,32 
	7,30.3 "/>
</svg>
