<?xml version="1.0" encoding="utf-8"?>
<!-- Generator: Adobe Illustrator 18.1.1, SVG Export Plug-In . SVG Version: 6.00 Build 0)  -->
<svg version="1.1" id="Layer_1" xmlns="http://www.w3.org/2000/svg" xmlns:xlink="http://www.w3.org/1999/xlink" x="0px" y="0px"
	 viewBox="0 0 128 128" enable-background="new 0 0 128 128" xml:space="preserve">
<polygon points="49.6,57.3 0,107 0,118 39.7,78.3 40.7,79.3 0,120 0,122.6 3.3,125.9 51.2,77.9 54,80.8 6.8,128 21,128 32,117 
	32,111 38,111 49,100 49,94 55,94 70.7,78.4 "/>
<path d="M39.7,63.7l24.7,24.7c1.6,1.6,4.1,1.6,5.7,0l8.1-8.1L47.7,49.9L39.7,58C38.1,59.6,38.1,62.1,39.7,63.7z"/>
<circle fill="none" stroke="#000000" stroke-width="2" stroke-miterlimit="10" cx="100" cy="28" r="10"/>
<circle cx="52" cy="48" r="2"/>
<circle cx="56" cy="44" r="2"/>
<circle cx="56" cy="52" r="2"/>
<circle cx="60" cy="48" r="2"/>
<circle cx="64" cy="44" r="2"/>
<circle cx="64" cy="52" r="2"/>
<circle cx="68" cy="48" r="2"/>
<circle cx="72" cy="44" r="2"/>
<circle cx="72" cy="52" r="2"/>
<circle cx="76" cy="48" r="2"/>
<circle cx="80" cy="44" r="2"/>
<circle cx="80" cy="52" r="2"/>
<circle cx="84" cy="48" r="2"/>
<circle cx="56" cy="60" r="2"/>
<circle cx="60" cy="56" r="2"/>
<circle cx="64" cy="60" r="2"/>
<circle cx="68" cy="56" r="2"/>
<circle cx="72" cy="60" r="2"/>
<circle cx="76" cy="56" r="2"/>
<circle cx="80" cy="60" r="2"/>
<circle cx="84" cy="56" r="2"/>
<circle cx="60" cy="64" r="2"/>
<circle cx="64" cy="68" r="2"/>
<circle cx="68" cy="64" r="2"/>
<circle cx="72" cy="68" r="2"/>
<circle cx="76" cy="64" r="2"/>
<circle cx="80" cy="68" r="2"/>
<circle cx="84" cy="64" r="2"/>
<circle cx="76" cy="72" r="2"/>
<circle cx="84" cy="72" r="2"/>
<circle cx="88" cy="44" r="2"/>
<circle cx="88" cy="52" r="2"/>
<circle cx="92" cy="48" r="2"/>
<circle cx="96" cy="52" r="2"/>
<circle cx="88" cy="60" r="2"/>
<circle cx="92" cy="56" r="2"/>
<circle cx="96" cy="60" r="2"/>
<circle cx="100" cy="56" r="2"/>
<circle cx="104" cy="60" r="2"/>
<circle cx="56" cy="28" r="2"/>
<circle cx="56" cy="36" r="2"/>
<circle cx="60" cy="32" r="2"/>
<circle cx="64" cy="28" r="2"/>
<circle cx="64" cy="36" r="2"/>
<circle cx="68" cy="32" r="2"/>
<circle cx="72" cy="28" r="2"/>
<circle cx="72" cy="36" r="2"/>
<circle cx="76" cy="32" r="2"/>
<circle cx="80" cy="36" r="2"/>
<circle cx="52" cy="40" r="2"/>
<circle cx="60" cy="40" r="2"/>
<circle cx="68" cy="40" r="2"/>
<circle cx="76" cy="40" r="2"/>
<circle cx="84" cy="40" r="2"/>
<circle cx="60" cy="24" r="2"/>
<circle cx="64" cy="20" r="2"/>
<circle cx="68" cy="24" r="2"/>
<circle cx="88" cy="68" r="2"/>
<circle cx="92" cy="64" r="2"/>
<circle cx="96" cy="68" r="2"/>
<circle cx="100" cy="64" r="2"/>
<circle cx="104" cy="68" r="2"/>
<circle cx="108" cy="64" r="2"/>
<circle cx="88" cy="76" r="2"/>
<circle cx="92" cy="72" r="2"/>
<circle cx="100" cy="72" r="2"/>
<path d="M86,0C62.8,0,44,18.8,44,42c0,23.2,18.8,42,42,42s42-18.8,42-42C128,18.8,109.2,0,86,0z M62.7,65.3
	c-12.9-12.9-12.9-33.8,0-46.7l46.7,46.7C96.4,78.2,75.6,78.2,62.7,65.3z M100,41c-7.2,0-13-5.8-13-13c0-7.2,5.8-13,13-13
	s13,5.8,13,13C113,35.2,107.2,41,100,41z"/>
</svg>
