<?xml version="1.0" encoding="utf-8"?>
<!-- Generator: Adobe Illustrator 18.1.1, SVG Export Plug-In . SVG Version: 6.00 Build 0)  -->
<svg version="1.1" id="Layer_1" xmlns="http://www.w3.org/2000/svg" xmlns:xlink="http://www.w3.org/1999/xlink" x="0px" y="0px"
	 viewBox="0 0 16 16" enable-background="new 0 0 16 16" xml:space="preserve">
<path d="M5.1,7.7l3.1,3.1C8.5,11,8.8,11,9,10.9l1.6-1.6L6.7,5.4L5.1,7C5,7.2,5,7.5,5.1,7.7z"/>
<path d="M11,0C8.2,0,6,2.2,6,5c0,2.8,2.2,5,5,5s5-2.2,5-5C16,2.2,13.8,0,11,0z M12.5,5C11.7,5,11,4.3,11,3.5C11,2.7,11.7,2,12.5,2
	S14,2.7,14,3.5C14,4.3,13.3,5,12.5,5z"/>
<polygon points="8.8,9.8 6.2,7.2 0,13.4 0,15.3 0.7,16 2.6,16 "/>
</svg>
