<?xml version="1.0" encoding="utf-8"?>
<!-- Generator: Adobe Illustrator 18.1.1, SVG Export Plug-In . SVG Version: 6.00 Build 0)  -->
<svg version="1.1" id="Layer_1" xmlns="http://www.w3.org/2000/svg" xmlns:xlink="http://www.w3.org/1999/xlink" x="0px" y="0px"
	 viewBox="0 0 16 16" enable-background="new 0 0 16 16" xml:space="preserve">
<path d="M14.8,9.5H1.1L0,14v0.7C0,14.9,0.1,15,0.3,15h15.4c0.2,0,0.3-0.1,0.3-0.3V14L14.8,9.5z M6.7,14l0.2-1h2.4l0.1,1H6.7z"/>
<path fill="none" stroke="#000000" stroke-miterlimit="10" d="M14,1.5H2C1.7,1.5,1.5,1.7,1.5,2v7c0,0.3,0.2,0.5,0.5,0.5h12
	c0.3,0,0.5-0.2,0.5-0.5V2C14.5,1.7,14.3,1.5,14,1.5z"/>
</svg>
