<?xml version="1.0" encoding="utf-8"?>
<!-- Generator: Adobe Illustrator 18.1.1, SVG Export Plug-In . SVG Version: 6.00 Build 0)  -->
<svg version="1.1" id="Layer_1" xmlns="http://www.w3.org/2000/svg" xmlns:xlink="http://www.w3.org/1999/xlink" x="0px" y="0px"
	 viewBox="0 0 128 128" enable-background="new 0 0 128 128" xml:space="preserve">
<path d="M119.5,80.3c-0.3-0.8-1-1.3-1.9-1.3H10.4c-0.8,0-1.6,0.5-1.9,1.3L0,104v5c0,1.1,0.9,2,2,2h124c1.1,0,2-0.9,2-2v-5
	L119.5,80.3z M54,104l0.5-8h19l0.4,8H54z M50.7,94l0.3-3h26l0.3,3H50.7z M79,94l-0.3-3h6.2l0.4,3H79z M87,94l-0.5-3h6.3l0.5,3H87z
	 M95,94l-0.6-3h6.3l0.7,3H95z M103.1,94l-0.7-3h6.3l0.8,3H103.1z M111.1,94l-0.9-3h6.3l1,3H111.1z M73.3,90l-0.2-3h6.1l0.3,3H73.3z
	 M64.8,90l-0.1-3h6.7l0.2,3H64.8z M81.2,90l-0.4-3h6.1l0.5,3H81.2z M89,90l-0.5-3h6.1l0.6,3H89z M96.9,90l-0.6-3h6.1l0.8,3H96.9z
	 M104.7,90l-0.8-3h6.2l0.9,3H104.7z M42.7,94l0.4-3h6.2L49,94H42.7z M34.6,94l0.5-3h6.3L41,94H34.6z M26.6,94l0.7-3h6.3L33,94H26.6z
	 M18.5,94l0.8-3h6.3l-0.7,3H18.5z M10.5,94l1-3h6.3l-0.9,3H10.5z M48.5,90l0.3-3h6.1l-0.2,3H48.5z M56.3,90l0.2-3h6.6L63,90H56.3z
	 M40.6,90l0.5-3h6.1l-0.4,3H40.6z M32.7,90l0.6-3h6.1L39,90H32.7z M24.8,90l0.8-3h6.1l-0.6,3H24.8z M17,90l0.9-3h6.2l-0.8,3H17z
	 M76.3,86l-0.2-3h6.1l0.3,3H76.3z M68.4,86l-0.1-3h6.1l0.2,3H68.4z M61,86l0-3H67l0.1,3H61z M84.2,86l-0.4-3h6.1l0.5,3H84.2z M92,86
	l-0.5-3h6.1l0.6,3H92z M99.9,86l-0.6-3h6.1l0.8,3H99.9z M107.7,86l-0.8-3h6.2l0.9,3H107.7z M45.5,86l0.3-3h6.1l-0.2,3H45.5z
	 M53.3,86l0.2-3h6.1l-0.1,3H53.3z M37.6,86l0.5-3h6.1l-0.4,3H37.6z M29.7,86l0.6-3h6.1L36,86H29.7z M21.8,86l0.8-3h6.1l-0.6,3H21.8z
	 M14,86l0.9-3h6.2l-0.8,3H14z"/>
<path d="M116,13H12c-2.2,0-4,1.8-4,4v59c0,2.2,1.8,4,4,4h104c2.2,0,4-1.8,4-4V17C120,14.8,118.2,13,116,13z M64,14c0.6,0,1,0.4,1,1
	c0,0.6-0.4,1-1,1s-1-0.4-1-1C63,14.4,63.4,14,64,14z M12,76V17h104l0,59H12z"/>
</svg>
