<?xml version="1.0" encoding="utf-8"?>
<!-- Generator: Adobe Illustrator 18.1.1, SVG Export Plug-In . SVG Version: 6.00 Build 0)  -->
<svg version="1.1" id="Layer_1" xmlns="http://www.w3.org/2000/svg" xmlns:xlink="http://www.w3.org/1999/xlink" x="0px" y="0px"
	 viewBox="0 0 32 32" enable-background="new 0 0 32 32" xml:space="preserve">
<path d="M29.7,19H2.3L0,26v1.4C0,27.7,0.3,28,0.6,28h30.7c0.4,0,0.6-0.3,0.6-0.6V26L29.7,19z M13.5,26l0.1-2h4.7l0.1,2H13.5z
	 M3.6,23l0.2-1h24.2l0.4,1H3.6z M4,21l0.2-1h23.1l0.4,1H4z"/>
<path fill="none" stroke="#000000" stroke-width="2" stroke-miterlimit="10" d="M28,3H4C3.4,3,3,3.4,3,4v14c0,0.6,0.4,1,1,1h24
	c0.6,0,1-0.4,1-1V4C29,3.4,28.6,3,28,3z"/>
<g>
	<line fill="none" stroke="#000000" stroke-miterlimit="10" x1="30" y1="25.9" x2="27.6" y2="19"/>
	<line fill="none" stroke="#000000" stroke-miterlimit="10" x1="26.5" y1="25.9" x2="24.7" y2="19"/>
	<line fill="none" stroke="#000000" stroke-miterlimit="10" x1="23" y1="25.9" x2="21.8" y2="19"/>
	<line fill="none" stroke="#000000" stroke-miterlimit="10" x1="19.5" y1="25.9" x2="18.9" y2="19"/>
	<line fill="none" stroke="#000000" stroke-miterlimit="10" x1="16" y1="23.5" x2="16" y2="19"/>
	<line fill="none" stroke="#000000" stroke-miterlimit="10" x1="12.5" y1="25.9" x2="13.1" y2="19"/>
	<line fill="none" stroke="#000000" stroke-miterlimit="10" x1="9" y1="25.9" x2="10.2" y2="19"/>
	<line fill="none" stroke="#000000" stroke-miterlimit="10" x1="5.5" y1="25.9" x2="7.3" y2="19"/>
	<line fill="none" stroke="#000000" stroke-miterlimit="10" x1="2" y1="25.9" x2="4.4" y2="19"/>
</g>
</svg>
