<?xml version="1.0" encoding="utf-8"?>
<!-- Generator: Adobe Illustrator 18.1.1, SVG Export Plug-In . SVG Version: 6.00 Build 0)  -->
<svg version="1.1" id="Layer_1" xmlns="http://www.w3.org/2000/svg" xmlns:xlink="http://www.w3.org/1999/xlink" x="0px" y="0px"
	 viewBox="0 0 128 128" enable-background="new 0 0 128 128" xml:space="preserve">
<rect y="124" width="128" height="4"/>
<rect x="4" y="120" width="120" height="4"/>
<rect x="8" y="116" width="112" height="4"/>
<path d="M63,115H47v-3h16V115z M61,44H49c-1.1,0-2,0.9-2,2c0,1.1,0.9,2,2,2v64h3V48h1v64h4V48h1v64h3V48c1.1,0,2-0.9,2-2
	C63,44.9,62.1,44,61,44z"/>
<path d="M81,115H65v-3h16V115z M79,44H67c-1.1,0-2,0.9-2,2c0,1.1,0.9,2,2,2v64h3V48h1v64h4V48h1v64h3V48c1.1,0,2-0.9,2-2
	C81,44.9,80.1,44,79,44z"/>
<path d="M99,115H83v-3h16V115z M97,44H85c-1.1,0-2,0.9-2,2c0,1.1,0.9,2,2,2v64h3V48h1v64h4V48h1v64h3V48c1.1,0,2-0.9,2-2
	C99,44.9,98.1,44,97,44z"/>
<path d="M117,115h-16v-3h16V115z M115,44h-12c-1.1,0-2,0.9-2,2c0,1.1,0.9,2,2,2v64h3V48h1v64h4V48h1v64h3V48c1.1,0,2-0.9,2-2
	C117,44.9,116.1,44,115,44z"/>
<path d="M27,115H11v-3h16V115z M25,44H13c-1.1,0-2,0.9-2,2c0,1.1,0.9,2,2,2v64h3V48h1v64h4V48h1v64h3V48c1.1,0,2-0.9,2-2
	C27,44.9,26.1,44,25,44z"/>
<path d="M45,115H29v-3h16V115z M43,44H31c-1.1,0-2,0.9-2,2c0,1.1,0.9,2,2,2v64h3V48h1v64h4V48h1v64h3V48c1.1,0,2-0.9,2-2
	C45,44.9,44.1,44,43,44z"/>
<polygon fill="none" stroke="#000000" stroke-width="4" stroke-miterlimit="10" points="7,37 64,3 121,37 121,41 7,41 "/>
<path d="M64,7L12,38h104L64,7z M64,31c-3.9,0-7-3.1-7-7s3.1-7,7-7s7,3.1,7,7S67.9,31,64,31z"/>
<circle fill="none" stroke="#000000" stroke-width="2" stroke-miterlimit="10" cx="64" cy="24" r="5"/>
</svg>
