<?xml version="1.0" encoding="utf-8"?>
<!-- Generator: Adobe Illustrator 18.1.1, SVG Export Plug-In . SVG Version: 6.00 Build 0)  -->
<svg version="1.1" id="Layer_1" xmlns="http://www.w3.org/2000/svg" xmlns:xlink="http://www.w3.org/1999/xlink" x="0px" y="0px"
	 viewBox="0 0 128 128" enable-background="new 0 0 128 128" xml:space="preserve">
<path fill="none" stroke="#000000" stroke-width="4" stroke-miterlimit="10" d="M120,108H8c-3.3,0-6-2.7-6-6V26c0-3.3,2.7-6,6-6h112
	c3.3,0,6,2.7,6,6v76C126,105.3,123.3,108,120,108z"/>
<line fill="none" stroke="#000000" stroke-width="2" stroke-miterlimit="10" x1="125.6" y1="97.6" x2="85.1" y2="65.7"/>
<line fill="none" stroke="#000000" stroke-width="2" stroke-miterlimit="10" x1="42.9" y1="65.7" x2="2.4" y2="97.6"/>
<path d="M124.4,32.4L70.2,75.2c-3.6,2.9-8.7,2.9-12.4,0L3.6,32.4l-1.5,1.1l53.2,44.8c2.6,2,5.6,3,8.7,3s6.1-1,8.7-3l53.2-44.8
	L124.4,32.4z"/>
</svg>
