<?xml version="1.0" encoding="utf-8"?>
<!-- Generator: Adobe Illustrator 18.1.1, SVG Export Plug-In . SVG Version: 6.00 Build 0)  -->
<svg version="1.1" id="Layer_1" xmlns="http://www.w3.org/2000/svg" xmlns:xlink="http://www.w3.org/1999/xlink" x="0px" y="0px"
	 viewBox="0 0 32 32" enable-background="new 0 0 32 32" xml:space="preserve">
<path fill="none" stroke="#000000" stroke-width="2" stroke-miterlimit="10" d="M29,27H3c-1.1,0-2-0.9-2-2V7c0-1.1,0.9-2,2-2h26
	c1.1,0,2,0.9,2,2v18C31,26.1,30.1,27,29,27z"/>
<line fill="none" stroke="#000000" stroke-miterlimit="10" x1="31.4" y1="24.4" x2="21.3" y2="16.4"/>
<line fill="none" stroke="#000000" stroke-miterlimit="10" x1="10.7" y1="16.4" x2="0.6" y2="24.4"/>
<path d="M31.1,7.1L17.5,17.8c-0.9,0.7-2.2,0.7-3.1,0L0.9,7.1L0.5,7.8L13.8,20c0.6,0.5,1.4,0.8,2.2,0.8s1.5-0.3,2.2-0.8L31.5,7.8
	L31.1,7.1z"/>
</svg>
