<?xml version="1.0" encoding="utf-8"?>
<!-- Generator: Adobe Illustrator 18.1.1, SVG Export Plug-In . SVG Version: 6.00 Build 0)  -->
<svg version="1.1" id="Layer_1" xmlns="http://www.w3.org/2000/svg" xmlns:xlink="http://www.w3.org/1999/xlink" x="0px" y="0px"
	 viewBox="0 0 16 16" enable-background="new 0 0 16 16" xml:space="preserve">
<polyline fill="none" stroke="#000000" stroke-miterlimit="10" points="8.5,0.5 8.5,4.5 0,4.5 "/>
<polyline fill="none" stroke="#000000" stroke-miterlimit="10" points="11.5,0.5 11.5,4.5 15,4.5 "/>
<line fill="none" stroke="#000000" stroke-miterlimit="10" x1="8.5" y1="16" x2="8.5" y2="7.5"/>
<polyline fill="none" stroke="#000000" stroke-miterlimit="10" points="11.5,16 11.5,7.5 15,7.5 "/>
<g>
	<path d="M15,1v14H1V1H15 M16,0H0v16h16V0L16,0z"/>
</g>
<g>
	<path d="M1.6,7H0v1h1.3C1.3,7.6,1.4,7.3,1.6,7z"/>
	<path d="M7.4,7c0.2,0.3,0.3,0.6,0.3,1H9V7H7.4z"/>
</g>
<path d="M4.5,6C3.1,6,2,7.1,2,8.5c0,2.2,2.5,4.7,2.5,4.7S7,10.7,7,8.5C7,7.1,5.9,6,4.5,6z M4.5,9.5c-0.6,0-1-0.4-1-1s0.4-1,1-1
	s1,0.4,1,1S5.1,9.5,4.5,9.5z"/>
</svg>
