<?xml version="1.0" encoding="utf-8"?>
<!-- Generator: Adobe Illustrator 18.1.1, SVG Export Plug-In . SVG Version: 6.00 Build 0)  -->
<svg version="1.1" id="Layer_1" xmlns="http://www.w3.org/2000/svg" xmlns:xlink="http://www.w3.org/1999/xlink" x="0px" y="0px"
	 viewBox="0 0 32 32" enable-background="new 0 0 32 32" xml:space="preserve">
<line fill="none" stroke="#000000" stroke-width="2" stroke-miterlimit="10" x1="22" y1="0" x2="22" y2="8"/>
<polyline fill="none" stroke="#000000" stroke-width="2" stroke-miterlimit="10" points="27,0 27,8 32,8 "/>
<line fill="none" stroke="#000000" stroke-width="2" stroke-miterlimit="10" x1="22" y1="32" x2="22" y2="13"/>
<polyline fill="none" stroke="#000000" stroke-width="2" stroke-miterlimit="10" points="27,32 27,13 32,13 "/>
<line fill="none" stroke="#000000" stroke-width="1.0541" stroke-miterlimit="10" x1="32" y1="20.5" x2="27" y2="20.5"/>
<line fill="none" stroke="#000000" stroke-width="1.0541" stroke-miterlimit="10" x1="32" y1="23.5" x2="27" y2="23.5"/>
<line fill="none" stroke="#000000" stroke-miterlimit="10" x1="22" y1="20.5" x2="16" y2="20.5"/>
<line fill="none" stroke="#000000" stroke-miterlimit="10" x1="22" y1="23.5" x2="16" y2="23.5"/>
<g>
	<path d="M30,2v28H2V2H30 M32,0H0v32h32V0L32,0z"/>
</g>
<path fill="none" stroke="#000000" stroke-miterlimit="10" d="M16,20.5c-6.1,0-11,4.9-11,11"/>
<path fill="none" stroke="#000000" stroke-miterlimit="10" d="M16,23.5c-4.4,0-8,3.6-8,8"/>
<g>
	<path d="M5.4,7H0v2h5C5,8.3,5.2,7.6,5.4,7z"/>
	<path d="M5.7,12H0v2h6.8C6.4,13.4,6,12.7,5.7,12z"/>
	<path d="M14.6,7C14.8,7.6,15,8.3,15,9h8V7H14.6z"/>
	<path d="M13.2,14H23v-2h-8.7C14,12.7,13.6,13.4,13.2,14z"/>
</g>
<path d="M10,5C7.8,5,6,6.8,6,9c0,3.5,4,7.5,4,7.5s4-4,4-7.5C14,6.8,12.2,5,10,5z M10,10.5c-0.8,0-1.5-0.7-1.5-1.5S9.2,7.5,10,7.5
	s1.5,0.7,1.5,1.5S10.8,10.5,10,10.5z"/>
</svg>
