<?xml version="1.0" encoding="utf-8"?>
<!-- Generator: Adobe Illustrator 18.1.1, SVG Export Plug-In . SVG Version: 6.00 Build 0)  -->
<svg version="1.1" id="Layer_1" xmlns="http://www.w3.org/2000/svg" xmlns:xlink="http://www.w3.org/1999/xlink" x="0px" y="0px"
	 viewBox="0 0 32 32" enable-background="new 0 0 32 32" xml:space="preserve">
<line fill="none" stroke="#000000" stroke-width="4" stroke-miterlimit="10" x1="16" y1="31" x2="16" y2="29"/>
<line fill="none" stroke="#000000" stroke-width="2" stroke-miterlimit="10" x1="16" y1="28" x2="16" y2="24.5"/>
<path fill="none" stroke="#000000" stroke-width="2" stroke-linecap="round" stroke-miterlimit="10" d="M16,25c3.9,0,7-3.1,7-7
	c0-1.9,0-1.6,0-3.3c0-2.3,1-2.7,1-2.7"/>
<path fill="none" stroke="#000000" stroke-width="2" stroke-linecap="round" stroke-miterlimit="10" d="M16,25c-3.9,0-7-3.1-7-7
	c0-1.9,0-1.6,0-3.3C9,12.4,8,12,8,12"/>
<path d="M9.8,32c0-0.9,2.8-1.6,6.2-1.6s6.2,0.7,6.2,1.6H9.8z"/>
<path d="M11,13c0,0,0,4.5,0,5c0,2.8,2.2,5,5,5s5-2.2,5-5c0-0.5,0-5,0-5H11z M16,17c-0.6,0-1-0.4-1-1c0-0.6,0.4-1,1-1s1,0.4,1,1
	C17,16.6,16.6,17,16,17z"/>
<path d="M16,0c-2.8,0-5,2.2-5,5c0,0.5,0,7,0,7h10c0,0,0-6.5,0-7C21,2.2,18.8,0,16,0z M16,11c-0.6,0-1-0.4-1-1s0.4-1,1-1s1,0.4,1,1
	S16.6,11,16,11z M16,7c-0.6,0-1-0.4-1-1s0.4-1,1-1s1,0.4,1,1S16.6,7,16,7z M16,3c-0.6,0-1-0.4-1-1s0.4-1,1-1s1,0.4,1,1S16.6,3,16,3z
	 M18,5c-0.6,0-1-0.4-1-1s0.4-1,1-1s1,0.4,1,1S18.6,5,18,5z M17.7,1.1c0.2-0.2,0.6,0,0.9,0.3s0.5,0.7,0.3,0.9s-0.6,0-0.9-0.3
	S17.6,1.2,17.7,1.1z M13.9,1.9c-0.3,0.3-0.7,0.5-0.9,0.3s0-0.6,0.3-0.9s0.7-0.5,0.9-0.3S14.3,1.6,13.9,1.9z M19.5,7
	C19.2,7,19,6.6,19,6s0.2-1,0.5-1S20,5.4,20,6S19.8,7,19.5,7z M12.5,7C12.2,7,12,6.6,12,6s0.2-1,0.5-1S13,5.4,13,6S12.8,7,12.5,7z
	 M12.5,11c-0.3,0-0.5-0.4-0.5-1s0.2-1,0.5-1S13,9.4,13,10S12.8,11,12.5,11z M19.5,11c-0.3,0-0.5-0.4-0.5-1s0.2-1,0.5-1S20,9.4,20,10
	S19.8,11,19.5,11z M18,9c-0.6,0-1-0.4-1-1s0.4-1,1-1s1,0.4,1,1S18.6,9,18,9z M14,9c-0.6,0-1-0.4-1-1s0.4-1,1-1s1,0.4,1,1
	S14.6,9,14,9z M14,5c-0.6,0-1-0.4-1-1s0.4-1,1-1s1,0.4,1,1S14.6,5,14,5z"/>
</svg>
