<?xml version="1.0" encoding="utf-8"?>
<!-- Generator: Adobe Illustrator 18.1.1, SVG Export Plug-In . SVG Version: 6.00 Build 0)  -->
<svg version="1.1" id="Layer_1" xmlns="http://www.w3.org/2000/svg" xmlns:xlink="http://www.w3.org/1999/xlink" x="0px" y="0px"
	 viewBox="0 0 128 128" enable-background="new 0 0 128 128" xml:space="preserve">
<line fill="none" stroke="#000000" stroke-width="10" stroke-miterlimit="10" x1="64" y1="124" x2="64" y2="118"/>
<line fill="none" stroke="#000000" stroke-width="6" stroke-miterlimit="10" x1="64" y1="117" x2="64" y2="94"/>
<path fill="none" stroke="#000000" stroke-width="4" stroke-miterlimit="10" d="M64,95c12.7,0,23-10.3,23-23c0-6.4,0-5.2,0-11
	c0-7.6,4-10,4-10"/>
<path d="M39,128c0-3.5,11.2-6.2,25-6.2s25,2.8,25,6.2H39z"/>
<path d="M94,57h-3c-1.1,0-2-0.9-2-2v-6c0-1.1,0.9-2,2-2h3V57z"/>
<path d="M97,57h-2V47h2c0.6,0,1,0.4,1,1v8C98,56.6,97.6,57,97,57z"/>
<rect x="97" y="49" width="2" height="6"/>
<path fill="none" stroke="#000000" stroke-width="4" stroke-miterlimit="10" d="M64,95c-12.7,0-23-10.3-23-23c0-6.4,0-5.2,0-11
	c0-7.6-4-10-4-10"/>
<path d="M34,57h3c1.1,0,2-0.9,2-2v-6c0-1.1-0.9-2-2-2h-3V57z"/>
<path d="M31,57h2V47h-2c-0.6,0-1,0.4-1,1v8C30,56.6,30.4,57,31,57z"/>
<rect x="29" y="49" width="2" height="6"/>
<path d="M64,0C53.5,0,45,8.5,45,19c0,3.4,0,17,0,29h38c0-12,0-25.6,0-29C83,8.5,74.5,0,64,0z M64,46c-1.1,0-2-0.9-2-2
	c0-1.1,0.9-2,2-2s2,0.9,2,2C66,45.1,65.1,46,64,46z M64,38c-1.1,0-2-0.9-2-2c0-1.1,0.9-2,2-2s2,0.9,2,2C66,37.1,65.1,38,64,38z
	 M68,42c-1.1,0-2-0.9-2-2c0-1.1,0.9-2,2-2s2,0.9,2,2C70,41.1,69.1,42,68,42z M64,30c-1.1,0-2-0.9-2-2c0-1.1,0.9-2,2-2s2,0.9,2,2
	C66,29.1,65.1,30,64,30z M68,34c-1.1,0-2-0.9-2-2c0-1.1,0.9-2,2-2s2,0.9,2,2C70,33.1,69.1,34,68,34z M64,22c-1.1,0-2-0.9-2-2
	c0-1.1,0.9-2,2-2s2,0.9,2,2C66,21.1,65.1,22,64,22z M68,26c-1.1,0-2-0.9-2-2c0-1.1,0.9-2,2-2s2,0.9,2,2C70,25.1,69.1,26,68,26z
	 M64,14c-1.1,0-2-0.9-2-2c0-1.1,0.9-2,2-2s2,0.9,2,2C66,13.1,65.1,14,64,14z M68,18c-1.1,0-2-0.9-2-2c0-1.1,0.9-2,2-2s2,0.9,2,2
	C70,17.1,69.1,18,68,18z M64,6c-1.1,0-2-0.9-2-2c0-1.1,0.9-2,2-2s2,0.9,2,2C66,5.1,65.1,6,64,6z M72,46c-1.1,0-2-0.9-2-2
	c0-1.1,0.9-2,2-2s2,0.9,2,2C74,45.1,73.1,46,72,46z M72,38c-1.1,0-2-0.9-2-2c0-1.1,0.9-2,2-2s2,0.9,2,2C74,37.1,73.1,38,72,38z
	 M72,30c-1.1,0-2-0.9-2-2c0-1.1,0.9-2,2-2s2,0.9,2,2C74,29.1,73.1,30,72,30z M72,22c-1.1,0-2-0.9-2-2c0-1.1,0.9-2,2-2s2,0.9,2,2
	C74,21.1,73.1,22,72,22z M72,14c-1.1,0-2-0.9-2-2c0-1.1,0.9-2,2-2s2,0.9,2,2C74,13.1,73.1,14,72,14z M79.5,46c-0.8,0-1.5-0.9-1.5-2
	c0-1.1,0.7-2,1.5-2s1.5,0.9,1.5,2C81,45.1,80.3,46,79.5,46z M79.5,38c-0.8,0-1.5-0.9-1.5-2c0-1.1,0.7-2,1.5-2s1.5,0.9,1.5,2
	C81,37.1,80.3,38,79.5,38z M79.5,30c-0.8,0-1.5-0.9-1.5-2c0-1.1,0.7-2,1.5-2s1.5,0.9,1.5,2C81,29.1,80.3,30,79.5,30z M79.5,22
	c-0.8,0-1.5-0.9-1.5-2c0-1.1,0.7-2,1.5-2s1.5,0.9,1.5,2C81,21.1,80.3,22,79.5,22z M80.4,14c-0.5,0.3-1.4-0.2-1.8-1.1
	c-0.5-0.9-0.5-1.9,0.1-2.2c0.5-0.3,1.4,0.2,1.8,1.1C81,12.8,80.9,13.7,80.4,14z M71.3,5.7c-1-0.5-1.5-1.5-1.1-2.2
	c0.4-0.7,1.5-0.9,2.5-0.4c1,0.5,1.5,1.5,1.1,2.2C73.4,6.1,72.3,6.2,71.3,5.7z M68,10c-1.1,0-2-0.9-2-2c0-1.1,0.9-2,2-2s2,0.9,2,2
	C70,9.1,69.1,10,68,10z M76,42c-1.1,0-2-0.9-2-2c0-1.1,0.9-2,2-2s2,0.9,2,2C78,41.1,77.1,42,76,42z M76,34c-1.1,0-2-0.9-2-2
	c0-1.1,0.9-2,2-2s2,0.9,2,2C78,33.1,77.1,34,76,34z M76,26c-1.1,0-2-0.9-2-2c0-1.1,0.9-2,2-2s2,0.9,2,2C78,25.1,77.1,26,76,26z
	 M76,18c-1.1,0-2-0.9-2-2c0-1.1,0.9-2,2-2s2,0.9,2,2C78,17.1,77.1,18,76,18z M74.9,9c-0.8-0.8-0.9-1.9-0.3-2.5
	C75.2,6,76.4,6.2,77.1,7s0.9,1.9,0.3,2.5C76.8,10,75.6,9.8,74.9,9z M67.8,2.2C66.7,2,65.9,1.5,66,1.1c0.1-0.4,1-0.6,2.1-0.4
	s1.9,0.7,1.8,1.2C69.8,2.3,68.9,2.5,67.8,2.2z M58,40c0-1.1,0.9-2,2-2s2,0.9,2,2c0,1.1-0.9,2-2,2S58,41.1,58,40z M58,32
	c0-1.1,0.9-2,2-2s2,0.9,2,2c0,1.1-0.9,2-2,2S58,33.1,58,32z M58,24c0-1.1,0.9-2,2-2s2,0.9,2,2c0,1.1-0.9,2-2,2S58,25.1,58,24z
	 M58,16c0-1.1,0.9-2,2-2s2,0.9,2,2c0,1.1-0.9,2-2,2S58,17.1,58,16z M54,44c0-1.1,0.9-2,2-2s2,0.9,2,2c0,1.1-0.9,2-2,2S54,45.1,54,44
	z M54,36c0-1.1,0.9-2,2-2s2,0.9,2,2c0,1.1-0.9,2-2,2S54,37.1,54,36z M54,28c0-1.1,0.9-2,2-2s2,0.9,2,2c0,1.1-0.9,2-2,2
	S54,29.1,54,28z M54,20c0-1.1,0.9-2,2-2s2,0.9,2,2c0,1.1-0.9,2-2,2S54,21.1,54,20z M54,12c0-1.1,0.9-2,2-2s2,0.9,2,2
	c0,1.1-0.9,2-2,2S54,13.1,54,12z M47,44c0-1.1,0.7-2,1.5-2s1.5,0.9,1.5,2c0,1.1-0.7,2-1.5,2S47,45.1,47,44z M47,36
	c0-1.1,0.7-2,1.5-2s1.5,0.9,1.5,2c0,1.1-0.7,2-1.5,2S47,37.1,47,36z M47,28c0-1.1,0.7-2,1.5-2s1.5,0.9,1.5,2c0,1.1-0.7,2-1.5,2
	S47,29.1,47,28z M47,20c0-1.1,0.7-2,1.5-2s1.5,0.9,1.5,2c0,1.1-0.7,2-1.5,2S47,21.1,47,20z M47.5,11.9c0.5-0.9,1.3-1.4,1.8-1.1
	c0.5,0.3,0.6,1.3,0.1,2.2c-0.5,0.9-1.3,1.4-1.8,1.1C47.1,13.7,47,12.8,47.5,11.9z M54.2,5.4c-0.4-0.7,0.1-1.7,1.1-2.2
	c1-0.5,2.1-0.4,2.5,0.4c0.4,0.7-0.1,1.7-1.1,2.2C55.7,6.2,54.6,6.1,54.2,5.4z M58,8c0-1.1,0.9-2,2-2s2,0.9,2,2c0,1.1-0.9,2-2,2
	S58,9.1,58,8z M50,40c0-1.1,0.9-2,2-2s2,0.9,2,2c0,1.1-0.9,2-2,2S50,41.1,50,40z M50,32c0-1.1,0.9-2,2-2s2,0.9,2,2c0,1.1-0.9,2-2,2
	S50,33.1,50,32z M50,24c0-1.1,0.9-2,2-2s2,0.9,2,2c0,1.1-0.9,2-2,2S50,25.1,50,24z M50,16c0-1.1,0.9-2,2-2s2,0.9,2,2
	c0,1.1-0.9,2-2,2S50,17.1,50,16z M50.6,9.5C50,8.9,50.1,7.8,50.9,7c0.8-0.8,1.9-1,2.5-0.4C54,7.1,53.9,8.2,53.1,9
	C52.4,9.8,51.2,10,50.6,9.5z M58.1,1.8c-0.1-0.4,0.7-1,1.8-1.2s2,0,2.1,0.4c0.1,0.4-0.7,1-1.8,1.2C59.1,2.5,58.2,2.3,58.1,1.8z"/>
<path d="M45,50c0,0,0,19.1,0,21c0,10.5,8.5,19,19,19s19-8.5,19-19c0-1.9,0-21,0-21H45z M64,64c-2.8,0-5-2.2-5-5s2.2-5,5-5s5,2.2,5,5
	S66.8,64,64,64z"/>
<g>
	<path d="M64,58c0.6,0,1,0.4,1,1s-0.4,1-1,1s-1-0.4-1-1S63.4,58,64,58 M64,56c-1.7,0-3,1.3-3,3s1.3,3,3,3c1.7,0,3-1.3,3-3
		S65.7,56,64,56L64,56z"/>
</g>
</svg>
