<?xml version="1.0" encoding="utf-8"?>
<!-- Generator: Adobe Illustrator 18.1.1, SVG Export Plug-In . SVG Version: 6.00 Build 0)  -->
<svg version="1.1" id="Layer_1" xmlns="http://www.w3.org/2000/svg" xmlns:xlink="http://www.w3.org/1999/xlink" x="0px" y="0px"
	 viewBox="0 0 32 32" enable-background="new 0 0 32 32" xml:space="preserve">
<polyline fill="none" stroke="#000000" stroke-width="1.3" stroke-linecap="round" stroke-linejoin="round" stroke-miterlimit="10" points="
	7,15 11,11 16,13 20,7 25,14 "/>
<rect y="1" width="32" height="2"/>
<rect y="21" width="32" height="2"/>
<rect x="15" width="2" height="2"/>
<rect x="15" y="22" width="2" height="5"/>
<polyline fill="none" stroke="#000000" stroke-width="2" stroke-miterlimit="10" points="30,20 30,2 2,2 2,20 "/>
<circle cx="24" cy="31" r="1"/>
<polygon points="18,23.9 18,26 23.6,31.6 24.6,30.5 "/>
<circle cx="8" cy="31" r="1"/>
<circle cx="7" cy="15" r="1"/>
<circle cx="11" cy="11" r="1"/>
<circle cx="16" cy="13" r="1"/>
<circle cx="20" cy="7" r="1"/>
<circle cx="25" cy="14" r="1"/>
<polygon points="14,23.9 14,26 8.4,31.6 7.4,30.5 "/>
</svg>
