<?xml version="1.0" encoding="utf-8"?>
<!-- Generator: Adobe Illustrator 18.1.1, SVG Export Plug-In . SVG Version: 6.00 Build 0)  -->
<svg version="1.1" id="Layer_1" xmlns="http://www.w3.org/2000/svg" xmlns:xlink="http://www.w3.org/1999/xlink" x="0px" y="0px"
	 viewBox="0 0 32 32" enable-background="new 0 0 32 32" xml:space="preserve">
<polyline fill="none" stroke="#000000" stroke-width="2" stroke-linejoin="round" stroke-miterlimit="10" points="18.6,8 31,8 
	31,30 1,30 1,8 13,8 "/>
<polyline fill="none" stroke="#000000" stroke-width="2" stroke-linejoin="round" stroke-miterlimit="10" points="13.5,8 1,8 5.8,2 
	26.2,2 31,8 18.6,8 "/>
<polygon fill="none" stroke="#000000" stroke-linecap="round" stroke-linejoin="round" stroke-miterlimit="10" points="17.5,1.8 
	14.5,1.8 13.5,7.8 13.5,10.5 18.5,10.5 18.5,7.8 "/>
<line fill="none" stroke="#000000" stroke-linecap="round" stroke-linejoin="round" stroke-miterlimit="10" x1="13.6" y1="7.5" x2="18.4" y2="7.5"/>
<path d="M19,14h-6c-0.6,0-1-0.4-1-1v0c0-0.6,0.4-1,1-1h6c0.6,0,1,0.4,1,1v0C20,13.6,19.6,14,19,14z"/>
<line fill="none" stroke="#000000" stroke-miterlimit="10" x1="22" y1="26.5" x2="28" y2="26.5"/>
<polygon points="27.6,23 25.4,23 26.5,21.5 "/>
<line fill="none" stroke="#000000" stroke-miterlimit="10" x1="26.5" y1="25" x2="26.5" y2="22.2"/>
<polygon points="24.6,23 22.4,23 23.5,21.5 "/>
<line fill="none" stroke="#000000" stroke-miterlimit="10" x1="23.5" y1="25" x2="23.5" y2="22.2"/>
</svg>
