<?xml version="1.0" encoding="utf-8"?>
<!-- Generator: Adobe Illustrator 18.1.1, SVG Export Plug-In . SVG Version: 6.00 Build 0)  -->
<svg version="1.1" id="Layer_1" xmlns="http://www.w3.org/2000/svg" xmlns:xlink="http://www.w3.org/1999/xlink" x="0px" y="0px"
	 viewBox="0 0 32 32" enable-background="new 0 0 32 32" xml:space="preserve">
<path d="M31.3,28.3l-2.9,2.9c-0.2,0.2-0.5,0.2-0.7,0l-7.1-7.6c-0.2-0.2-0.2-0.5,0-0.7l2.4-2.4c0.2-0.2,0.5-0.2,0.7,0l7.6,7.1
	C31.5,27.8,31.5,28.1,31.3,28.3z"/>
<path d="M11.5,0C5.2,0,0,5.2,0,11.5S5.2,23,11.5,23S23,17.8,23,11.5S17.8,0,11.5,0z M11.5,21C6.3,21,2,16.7,2,11.5S6.3,2,11.5,2
	S21,6.3,21,11.5S16.7,21,11.5,21z"/>
<path d="M29,31.9c0.2,0.1,0.5,0.1,0.7,0.1c1.2,0,2.3-1,2.3-2.3c0-0.3,0-0.5-0.1-0.7L29,31.9z"/>
<path d="M16.9,21.1c0.3,0.1,0.7,0.2,1.1,0.2c1.8,0,3.3-1.5,3.3-3.3c0-0.4-0.1-0.7-0.2-1.1L16.9,21.1z"/>
<rect x="18.5" y="18.5" transform="matrix(0.7071 0.7071 -0.7071 0.7071 19.9882 -8.2794)" width="3.1" height="2.9"/>
</svg>
