<?xml version="1.0" encoding="utf-8"?>
<!-- Generator: Adobe Illustrator 18.1.1, SVG Export Plug-In . SVG Version: 6.00 Build 0)  -->
<svg version="1.1" id="Layer_1" xmlns="http://www.w3.org/2000/svg" xmlns:xlink="http://www.w3.org/1999/xlink" x="0px" y="0px"
	 viewBox="0 0 128 128" enable-background="new 0 0 128 128" xml:space="preserve">
<path d="M117.6,127.6c0.8,0.3,1.7,0.4,2.6,0.4c4.3,0,7.8-3.5,7.8-7.8c0-0.9-0.2-1.8-0.4-2.6L117.6,127.6z"/>
<rect x="73.8" y="74.2" transform="matrix(0.7071 0.7071 -0.7071 0.7071 79.953 -33.1176)" width="12.3" height="11.5"/>
<path d="M127.4,115.7l-11.7,11.7c-0.8,0.8-2.2,0.8-3-0.1L80.6,92.9c-0.8-0.8-0.7-2.1,0-2.9l9.4-9.4c0.8-0.8,2.1-0.8,2.9,0l34.5,32.2
	C128.2,113.6,128.2,114.9,127.4,115.7z"/>
<g>
	<path d="M46,0C20.6,0,0,20.6,0,46s20.6,46,46,46s46-20.6,46-46S71.4,0,46,0z M46,84C25,84,8,67,8,46S25,8,46,8s38,17,38,38
		S67,84,46,84z"/>
	<path d="M46,10c-19.9,0-36,16.1-36,36s16.1,36,36,36s36-16.1,36-36S65.9,10,46,10z M46,80c-18.8,0-34-15.3-34-34s15.3-34,34-34
		s34,15.3,34,34S64.8,80,46,80z"/>
</g>
<path d="M67.8,84.5c1.4,0.5,2.8,0.7,4.3,0.7c7.3,0,13.2-5.9,13.2-13.2c0-1.5-0.3-3-0.7-4.3L67.8,84.5z"/>
</svg>
