<?xml version="1.0" encoding="utf-8"?>
<!-- Generator: Adobe Illustrator 18.1.1, SVG Export Plug-In . SVG Version: 6.00 Build 0)  -->
<svg version="1.1" id="Layer_1" xmlns="http://www.w3.org/2000/svg" xmlns:xlink="http://www.w3.org/1999/xlink" x="0px" y="0px"
	 viewBox="0 0 128 128" enable-background="new 0 0 128 128" xml:space="preserve">
<path d="M128,71.9v-16l-16.2-2.6c-1.3-5.6-3.4-10.8-6.4-15.5l9.4-13.5L103.5,13l-13.3,9.6c-4.7-3-9.9-5.2-15.5-6.4L71.9,0h-16
	l-2.6,16.2c-5.5,1.2-10.7,3.4-15.4,6.4L24.5,13L13.2,24.3l9.4,13.5c-3,4.7-5.1,9.8-6.4,15.4L0,55.9v16l16.2,2.9
	c1.2,5.5,3.4,10.7,6.4,15.4L13,103.5l11.3,11.3l13.5-9.4c4.7,3,9.8,5.1,15.4,6.4l2.7,16.2h16l2.9-16.2c5.6-1.2,10.8-3.5,15.5-6.4
	l13.5,9.4l11.3-11.3l-9.6-13.3c3-4.7,5.2-9.9,6.4-15.5L128,71.9z M64,104c-22.1,0-40-17.9-40-40c0-22.1,17.9-40,40-40s40,17.9,40,40
	C104,86.1,86.1,104,64,104z"/>
<path d="M64,26c-21,0-38,17-38,38c0,21,17,38,38,38s38-17,38-38C102,43,85,26,64,26z M64,84c-11,0-20-9-20-20c0-11,9-20,20-20
	s20,9,20,20C84,75,75,84,64,84z"/>
<path fill="none" stroke="#000000" stroke-width="2" stroke-miterlimit="10" d="M81,64c0,9.4-7.6,17-17,17s-17-7.6-17-17
	c0-9.4,7.6-17,17-17S81,54.6,81,64"/>
</svg>
