<?xml version="1.0" encoding="utf-8"?>
<!-- Generator: Adobe Illustrator 18.1.1, SVG Export Plug-In . SVG Version: 6.00 Build 0)  -->
<svg version="1.1" id="Layer_1" xmlns="http://www.w3.org/2000/svg" xmlns:xlink="http://www.w3.org/1999/xlink" x="0px" y="0px"
	 viewBox="0 0 32 32" enable-background="new 0 0 32 32" xml:space="preserve">
<path fill="none" stroke="#000000" stroke-width="2" stroke-linecap="round" stroke-linejoin="round" stroke-miterlimit="10" d="
	M6.5,6l23.9,2c0.5,0,0.8,0.5,0.6,1l-4.1,10.2c-0.2,0.5-0.7,0.8-1.2,0.8H10.3"/>
<g>
	<circle cx="26" cy="29" r="2"/>
</g>
<g>
	<circle cx="14" cy="29" r="2"/>
</g>
<path fill="none" stroke="#000000" stroke-width="2" stroke-linecap="round" stroke-miterlimit="10" d="M1.5,3h2C5,3,5.9,4,6.3,5.5
	l5.2,19.2c0.2,0.7,0.9,1.3,1.6,1.3H28"/>
<circle cx="1.5" cy="3.5" r="1.5"/>
<line fill="none" stroke="#000000" stroke-miterlimit="10" x1="9.6" y1="15.5" x2="27.9" y2="15.5"/>
<line fill="none" stroke="#000000" stroke-miterlimit="10" x1="19.5" y1="7.4" x2="19.5" y2="19.6"/>
<line fill="none" stroke="#000000" stroke-miterlimit="10" x1="23.5" y1="7.4" x2="23.5" y2="19.6"/>
<line fill="none" stroke="#000000" stroke-miterlimit="10" x1="27.5" y1="7.4" x2="27.5" y2="17.6"/>
<line fill="none" stroke="#000000" stroke-miterlimit="10" x1="15.5" y1="7.4" x2="15.5" y2="19.6"/>
<line fill="none" stroke="#000000" stroke-miterlimit="10" x1="11.5" y1="6.4" x2="11.5" y2="19.6"/>
<line fill="none" stroke="#000000" stroke-miterlimit="10" x1="7.6" y1="11.5" x2="29.9" y2="11.5"/>
</svg>
