<?xml version="1.0" encoding="utf-8"?>
<!-- Generator: Adobe Illustrator 18.1.1, SVG Export Plug-In . SVG Version: 6.00 Build 0)  -->
<svg version="1.1" id="Layer_1" xmlns="http://www.w3.org/2000/svg" xmlns:xlink="http://www.w3.org/1999/xlink" x="0px" y="0px"
	 viewBox="0 0 128 128" enable-background="new 0 0 128 128" xml:space="preserve">
<path fill="none" stroke="#000000" stroke-width="4" stroke-linecap="round" stroke-linejoin="round" stroke-miterlimit="10" d="
	M27,25l96.4,8.1c1.9,0.2,3.1,2.1,2.4,3.8l-16.2,40.8c-0.8,2-2.7,3.3-4.8,3.3h-62"/>
<g>
	<path d="M106,111c1.7,0,3,1.3,3,3s-1.3,3-3,3s-3-1.3-3-3S104.3,111,106,111 M106,107c-3.9,0-7,3.1-7,7s3.1,7,7,7s7-3.1,7-7
		S109.9,107,106,107L106,107z"/>
</g>
<path fill="none" stroke="#000000" stroke-width="4" stroke-linecap="round" stroke-miterlimit="10" d="M4,10h9.9
	c6.1,0,9.5,4.1,11.1,10l20.7,77c0.8,3,3.5,5,6.6,5H112"/>
<path d="M10,8C8.8,8,5.4,8,4,8c-2.2,0-4,1.8-4,4c0,2.2,1.8,4,4,4c1.8,0,5.2-1.7,6-2c1.6-0.7,3-1.3,3-3S11.7,8,10,8z"/>
<path d="M105,115.2l-6.9-5.4c-0.7-0.5-1.1-1.4-1.1-2.2V105h6.4l3.6,8.5C107.6,114.8,106.1,116,105,115.2z"/>
<g>
	<path d="M50,111c1.7,0,3,1.3,3,3s-1.3,3-3,3s-3-1.3-3-3S48.3,111,50,111 M50,107c-3.9,0-7,3.1-7,7s3.1,7,7,7s7-3.1,7-7
		S53.9,107,50,107L50,107z"/>
</g>
<path d="M51,115.2l6.9-5.4c0.7-0.5,1.1-1.4,1.1-2.2V105h-6.4l-3.6,8.5C48.4,114.8,49.9,116,51,115.2z"/>
<polygon points="52,30.1 52,35 54,35 54,30.3 "/>
<polygon points="52,37 52,44 54,44 54,37.2 "/>
<polygon points="52,46 52,53 54,53 54,46.1 "/>
<polygon points="52,54.9 52,62 54,62 54,55 "/>
<polygon points="52,63.9 52,71 54,71 54,64 "/>
<rect x="52" y="73" width="2" height="7"/>
<polygon points="64,31.1 64,36 66,36 66,31.3 "/>
<polygon points="64,38 64,44 66,44 66,38.1 "/>
<polygon points="64,46.7 64,53 66,53 66,46.8 "/>
<polygon points="64,55.5 64,62 66,62 66,55.5 "/>
<polygon points="64,64.2 64,71 66,71 66,64.3 "/>
<rect x="64" y="73" width="2" height="7"/>
<polygon points="76,32.1 76,37 78,37 78,32.3 "/>
<polygon points="76,38.9 76,44.9 78,44.9 78,39 "/>
<polygon points="76,47.4 76,53.7 78,53.7 78,47.5 "/>
<polygon points="76,56 76,62.5 78,62.5 78,56 "/>
<polygon points="76,64.5 76,71.2 78,71.2 78,64.5 "/>
<rect x="76" y="73" width="2" height="7"/>
<polygon points="88,33.1 88,38 90,38 90,33.3 "/>
<polygon points="88,39.8 88,45.9 90,45.9 90,39.9 "/>
<polygon points="88,48.2 88,53.7 90,53.7 90,48.3 "/>
<polygon points="88,56.5 88,62.5 90,62.5 90,56.5 "/>
<polygon points="88,64.8 88,71.2 90,71.2 90,64.8 "/>
<rect x="88" y="73" width="2" height="7"/>
<polygon points="100,34.1 100,39 102,39 102,34.3 "/>
<polygon points="100,40.7 100,46.9 102,46.9 102,40.9 "/>
<polygon points="100,48.9 100,54.5 102,54.5 102,49 "/>
<polygon points="100,57 100,63 102,63 102,57.1 "/>
<polygon points="100,65 100,71.5 102,71.5 102,65 "/>
<polygon points="112,35.2 112,40 114,40 114,35.3 "/>
<polygon points="112,41.6 112,47.8 114,47.8 114,41.8 "/>
<polygon points="112,49.6 112,55.2 114,55.2 114,49.7 "/>
<polygon points="112,57.5 112,63.5 114,63.5 114,57.6 "/>
<rect x="100" y="73" width="2" height="7"/>
<polygon points="40,29.1 40,35 42,35 42,29.3 "/>
<polygon points="40,36.1 40,44 42,44 42,36.3 "/>
<polygon points="40,45.2 40,53 42,53 42,45.4 "/>
<polygon points="40,54.4 40,62 42,62 42,54.5 "/>
<polygon points="40,63.7 40,71 42,71 42,63.7 "/>
<rect x="40" y="73" width="2" height="7"/>
<g>
	
		<line fill="none" stroke="#000000" stroke-width="2" stroke-linecap="round" stroke-linejoin="round" stroke-miterlimit="10" x1="29.7" y1="33.3" x2="122.8" y2="40.4"/>
	
		<line fill="none" stroke="#000000" stroke-width="2" stroke-linecap="round" stroke-linejoin="round" stroke-miterlimit="10" x1="31.9" y1="42.7" x2="120.1" y2="48.1"/>
	
		<line fill="none" stroke="#000000" stroke-width="2" stroke-linecap="round" stroke-linejoin="round" stroke-miterlimit="10" x1="34.2" y1="52.2" x2="117.4" y2="55.7"/>
	
		<line fill="none" stroke="#000000" stroke-width="2" stroke-linecap="round" stroke-linejoin="round" stroke-miterlimit="10" x1="36.4" y1="61.6" x2="114.7" y2="63.4"/>
	
		<line fill="none" stroke="#000000" stroke-width="2" stroke-linecap="round" stroke-linejoin="round" stroke-miterlimit="10" x1="38.7" y1="71" x2="111.9" y2="71"/>
</g>
</svg>
