<?xml version="1.0" encoding="utf-8"?>
<!-- Generator: Adobe Illustrator 18.1.1, SVG Export Plug-In . SVG Version: 6.00 Build 0)  -->
<svg version="1.1" id="Layer_1" xmlns="http://www.w3.org/2000/svg" xmlns:xlink="http://www.w3.org/1999/xlink" x="0px" y="0px"
	 viewBox="0 0 16 16" enable-background="new 0 0 16 16" xml:space="preserve">
<line fill="none" stroke="#000000" stroke-linecap="round" stroke-miterlimit="10" x1="14.5" y1="6.6" x2="14.5" y2="13.5"/>
<g>
	<path d="M13,8.2C13,7.4,10.8,7,8,7S3,7.4,3,8.2c0,0.3,0,1.7,0,2C3,11.1,7,11,8,12c1-1,5-0.9,5-1.7C13,9.9,13,8.6,13,8.2z"/>
</g>
<path d="M15.7,6.1L8.9,3.2c-0.6-0.2-1.2-0.2-1.8,0L0.3,6.1c-0.4,0.2-0.4,0.8,0,1l2,0.9c0,0-0.1-2,5.7-2c5.9,0,5.8,2,5.8,2l1.9-0.8
	C16.1,7,16.1,6.3,15.7,6.1z"/>
</svg>
