<?xml version="1.0" encoding="utf-8"?>
<!-- Generator: Adobe Illustrator 18.1.1, SVG Export Plug-In . SVG Version: 6.00 Build 0)  -->
<svg version="1.1" id="Layer_1" xmlns="http://www.w3.org/2000/svg" xmlns:xlink="http://www.w3.org/1999/xlink" x="0px" y="0px"
	 viewBox="0 0 128 128" enable-background="new 0 0 128 128" xml:space="preserve">
<path d="M127.3,52l-9.3-3.9v8.7l9.3-2.7C128.2,53.7,128.2,52.3,127.3,52z"/>
<line fill="none" stroke="#000000" stroke-width="2" stroke-linecap="round" stroke-miterlimit="10" x1="116" y1="47.3" x2="116" y2="82"/>
<line fill="none" stroke="#000000" stroke-linecap="round" stroke-miterlimit="10" x1="115" y1="83" x2="117" y2="82.5"/>
<line fill="none" stroke="#000000" stroke-linecap="round" stroke-miterlimit="10" x1="115" y1="84.2" x2="117" y2="83.7"/>
<line fill="none" stroke="#000000" stroke-linecap="round" stroke-miterlimit="10" x1="115" y1="86.6" x2="117" y2="86.1"/>
<line fill="none" stroke="#000000" stroke-linecap="round" stroke-miterlimit="10" x1="115" y1="89" x2="117" y2="88.5"/>
<line fill="none" stroke="#000000" stroke-linecap="round" stroke-miterlimit="10" x1="115" y1="90.1" x2="117" y2="89.7"/>
<line fill="none" stroke="#000000" stroke-linecap="round" stroke-miterlimit="10" x1="115" y1="87.8" x2="117" y2="87.3"/>
<line fill="none" stroke="#000000" stroke-linecap="round" stroke-miterlimit="10" x1="115" y1="85.4" x2="117" y2="84.9"/>
<path d="M65.3,25.7c-0.9-0.3-1.8-0.3-2.7,0L0.7,52c-0.9,0.3-0.9,1.6,0,2L27,61.7v-0.3c0-3.3,3.9-6.1,11.3-8.2c6.9-2,16-3.1,25.7-3.1
	s18.8,1.1,25.7,3.1c7.4,2.1,11.3,5,11.3,8.2v0.3l15-4.4V47.2L65.3,25.7z"/>
<circle cx="116" cy="92" r="2"/>
<path d="M119,95c0,5.1-2,8-2,8l0.1-1.9c-1.2,1.9-3.1,2.9-3.1,2.9c1.7-5.1-1-5.8-1-9c0-1.7,1.3-3,3-3S119,93.3,119,95z"/>
<g>
	<path d="M100,61.5c0-5.7-16.1-10.3-36-10.3s-36,4.6-36,10.3c0,2.3,0,10.9,0,13.2C28,80.4,57,78,64,85c6.9-6.9,36-4.6,36-10.3
		C100,72.4,100,63.8,100,61.5z"/>
</g>
</svg>
