<?xml version="1.0" encoding="utf-8"?>
<!-- Generator: Adobe Illustrator 18.1.1, SVG Export Plug-In . SVG Version: 6.00 Build 0)  -->
<svg version="1.1" id="Layer_1" xmlns="http://www.w3.org/2000/svg" xmlns:xlink="http://www.w3.org/1999/xlink" x="0px" y="0px"
	 viewBox="0 0 32 32" enable-background="new 0 0 32 32" xml:space="preserve">
<line fill="none" stroke="#000000" stroke-linecap="round" stroke-miterlimit="10" x1="28.5" y1="11.3" x2="28.5" y2="20.5"/>
<circle cx="28.5" cy="20.5" r="1"/>
<path d="M29.2,21.7c0,1.3-0.5,2-0.5,2l0-0.5C28.5,23.8,28,24,28,24c0.4-1.3-0.2-1.5-0.2-2.2c0-0.4,0.3-0.8,0.8-0.8
	S29.2,21.3,29.2,21.7z"/>
<g>
	<path d="M25,15.6c0-1.4-4-2.6-9-2.6s-9,1.2-9,2.6c0,0.6,0,2.7,0,3.3c0,1.4,7.3,0.8,9,2.6c1.7-1.7,9-1.2,9-2.6
		C25,18.3,25,16.1,25,15.6z"/>
</g>
<path d="M31.7,12.6L30,11.9v2.3l1.7-0.6C32.1,13.4,32.1,12.8,31.7,12.6z"/>
<path d="M28.6,14.7v-3.5L16.8,6.2c-0.5-0.2-1.1-0.2-1.7,0L0.3,12.6c-0.4,0.2-0.4,0.8,0,1L6,15.7v-0.1c0-2.8,6.3-3.6,10-3.6
	s10,0.8,10,3.6v0.1L28.6,14.7z"/>
</svg>
