<?xml version="1.0" encoding="utf-8"?>
<!-- Generator: Adobe Illustrator 18.1.1, SVG Export Plug-In . SVG Version: 6.00 Build 0)  -->
<svg version="1.1" id="Layer_1" xmlns="http://www.w3.org/2000/svg" xmlns:xlink="http://www.w3.org/1999/xlink" x="0px" y="0px"
	 viewBox="0 0 128 128" enable-background="new 0 0 128 128" xml:space="preserve">
<path fill="none" stroke="#000000" stroke-width="4" stroke-linecap="round" stroke-linejoin="round" stroke-miterlimit="10" d="
	M23,52.8v13.4c0,0-9-1.5-9,10c0,6,5.3,10.8,11,11.4c2.7,18.7,19.6,38.4,39,38.4s37.3-19.7,40-38.4c5.7-0.6,10-5.4,10-11.4
	c0-11.5-9-10-9-10V52.8"/>
<path d="M114,59c0-25.9-10.5-54-50-54S16,36.3,16,60c0,3.6,0,5.4,0,9c0,0,4.4-5,9-5c0-43.5,44.7,1.5,62-34.9c0,31.7,16,7.2,16,36.5
	c5.2,0.6,11,4.4,11,4.4V59z"/>
<path d="M116,64h-11v25h11c4.4,0,8-3.6,8-8v-9C124,67.6,120.4,64,116,64z"/>
<path fill="none" stroke="#000000" stroke-width="4" stroke-linecap="round" stroke-linejoin="round" stroke-miterlimit="10" d="
	M66,106c37,0,50-2.2,50-32"/>
<path fill="none" stroke="#000000" stroke-width="4" stroke-linecap="round" stroke-linejoin="round" stroke-miterlimit="10" d="
	M118,67c0-39.4-15-65-52-65c-9.3,0-17,1-17,1"/>
<path d="M67,101c-0.7,0-3.3,0-4,0c-2.8,0-5,2.2-5,5s2.2,5,5,5c0.7,0,3.3,0,4,0c2.8,0,5-2.2,5-5S69.8,101,67,101z"/>
<path fill="none" stroke="#000000" stroke-width="2" stroke-miterlimit="10" d="M42,75c0-3.3,2.7-6,6-6s6,2.7,6,6"/>
<g>
	<path d="M51,74c0,1.7-1.3,2-3,2s-3-0.3-3-2s1.3-3,3-3S51,72.3,51,74z"/>
</g>
<path fill="none" stroke="#000000" stroke-width="2" stroke-linecap="round" stroke-linejoin="round" stroke-miterlimit="10" d="
	M71,93c-3-1-4.6,1-7,1s-4-2-7-1"/>
<path fill="none" stroke="#000000" stroke-width="2" stroke-linecap="round" stroke-linejoin="round" stroke-miterlimit="10" d="
	M64,107c-8.1,0-7.2-3.6-12.5-1.8"/>
<g>
	<path d="M53.5,64.5c0,0-0.3-0.1-0.7-0.2c-0.2-0.1-0.5-0.2-0.8-0.3c-0.3-0.1-0.6-0.2-1-0.3c-0.4-0.1-0.8-0.2-1.3-0.3
		c-0.5-0.1-0.9-0.2-1.4-0.3c-1-0.2-2.1-0.3-3.2-0.4c-2.2-0.2-4.4-0.2-6.1-0.1c-0.8,0-1.5,0.1-2,0.1c-0.5,0-0.7,0.1-0.7,0.1l-0.3-1.8
		c0,0,0.3-0.1,0.8-0.2c0.5-0.1,1.2-0.2,2.1-0.4c1.7-0.3,4-0.6,6.4-0.7c1.2-0.1,2.3-0.1,3.5,0c0.6,0,1.1,0,1.6,0.1
		c0.5,0,1,0.1,1.5,0.1c0.5,0.1,0.9,0.1,1.3,0.2c0.3,0.1,0.6,0.1,0.9,0.2c0.5,0.1,0.8,0.1,0.8,0.1L53.5,64.5z"/>
</g>
<path fill="none" stroke="#000000" stroke-width="2" stroke-miterlimit="10" d="M86,75c0-3.3-2.7-6-6-6s-6,2.7-6,6"/>
<g>
	<path d="M77,74c0,1.7,1.3,2,3,2s3-0.3,3-2s-1.3-3-3-3S77,72.3,77,74z"/>
</g>
<g>
	<path d="M73.5,60.5c0,0,0.3-0.1,0.8-0.1c0.2,0,0.5-0.1,0.9-0.2c0.4-0.1,0.8-0.1,1.3-0.2c0.5-0.1,0.9-0.1,1.5-0.1
		c0.5-0.1,1.1-0.1,1.6-0.1c1.1,0,2.3,0,3.5,0c2.3,0.1,4.6,0.4,6.4,0.7c0.9,0.1,1.6,0.3,2.1,0.4c0.5,0.1,0.8,0.2,0.8,0.2l-0.3,1.8
		c0,0-0.3,0-0.7-0.1c-0.5,0-1.2-0.1-2-0.1c-1.7-0.1-3.9-0.1-6.1,0.1c-1.1,0.1-2.2,0.2-3.2,0.4c-0.5,0.1-1,0.2-1.4,0.3
		c-0.4,0.1-0.9,0.2-1.3,0.3c-0.4,0.1-0.7,0.2-1,0.3c-0.3,0.1-0.6,0.2-0.8,0.3c-0.5,0.2-0.7,0.2-0.7,0.2L73.5,60.5z"/>
</g>
<path d="M19.1,75c0,0-0.1-0.5-0.1-1c0-1.9,1.2-3,2.5-3c1.2,0,2.2,0.6,2.9,3.3c0.5,2,1.6,1.3,1.6,2.6c0,0.8-1.6,0.7-1.6,1.8
	c0,1.4,1.6,1.1,1.6,2.6c0,0.4-0.2,1.6-1.4,1.6c-1.4,0-2.3-2.1-1.4-4.9c1.1-3.3-0.2-6.5-2-6.5C18.9,71.6,19.1,75,19.1,75z"/>
</svg>
