<?xml version="1.0" encoding="utf-8"?>
<!-- Generator: Adobe Illustrator 18.1.1, SVG Export Plug-In . SVG Version: 6.00 Build 0)  -->
<svg version="1.1" id="Layer_1" xmlns="http://www.w3.org/2000/svg" xmlns:xlink="http://www.w3.org/1999/xlink" x="0px" y="0px"
	 viewBox="0 0 32 32" enable-background="new 0 0 32 32" xml:space="preserve">
<path fill="none" stroke="#000000" stroke-width="2" stroke-linecap="round" stroke-linejoin="round" stroke-miterlimit="10" d="
	M6,12.7v3.4c0,0-2.5-0.4-2.5,2.5c0,1.5,1.3,2.7,2.8,2.9C6.9,26.1,11.2,31,16,31s9.3-4.9,10-9.6c1.4-0.1,2.5-1.4,2.5-2.9
	c0-2.9-2.5-2.5-2.5-2.5v-3.4"/>
<path d="M29,13.2C29,6.9,25.4,0,15.8,0S3,7.7,3,13.5c0,0.9,0,2.3,0,3.2c0,0,2.9-1.2,4-1.2C7,4.8,19.7,14,21.4,6.7
	c0.7,6.8,3.6,2.3,3.6,8.2c1.3,0.1,4,1.1,4,1.1V13.2z"/>
<path d="M29,15h-4v7h4c1.1,0,2-0.9,2-2v-3C31,15.9,30.1,15,29,15z"/>
<path fill="none" stroke="#000000" stroke-width="2" stroke-linecap="round" stroke-linejoin="round" stroke-miterlimit="10" d="
	M16.5,27c9.3,0,13.5-0.5,13.5-8"/>
<circle cx="11" cy="18" r="2"/>
<circle cx="20" cy="18" r="2"/>
<path d="M16.5,25c-0.2,0-0.8,0-1,0c-0.8,0-1.5,0.7-1.5,1.5s0.7,1.5,1.5,1.5c0.2,0,0.8,0,1,0c0.8,0,1.5-0.7,1.5-1.5S17.3,25,16.5,25z
	"/>
</svg>
