<?xml version="1.0" encoding="utf-8"?>
<!-- Generator: Adobe Illustrator 18.1.1, SVG Export Plug-In . SVG Version: 6.00 Build 0)  -->
<svg version="1.1" id="Layer_1" xmlns="http://www.w3.org/2000/svg" xmlns:xlink="http://www.w3.org/1999/xlink" x="0px" y="0px"
	 viewBox="0 0 16 16" enable-background="new 0 0 16 16" xml:space="preserve">
<path fill="none" stroke="#000000" stroke-linecap="round" stroke-linejoin="round" stroke-miterlimit="10" d="M2.8,4.3V8
	c0,0-1.3-0.2-1.3,1.2c0,0.7,0.7,1.4,1.4,1.4C3.3,13,5.5,15.5,8,15.5h1.9"/>
<path d="M15,6.6C15,3.4,13.8,0,7.9,0S1,4.2,1,9c0,0,1.4-1.3,2-1.3c0-5.3,7-0.7,7.9-4.4C11.3,6.7,13,4.5,13,7.4C13.7,7.5,15,8,15,8
	V6.6z"/>
<path d="M14,7h-1v4h1c1.1,0,2-0.9,2-2v0C16,7.9,15.1,7,14,7z"/>
<path fill="none" stroke="#000000" stroke-linecap="round" stroke-linejoin="round" stroke-miterlimit="10" d="M8,13.5
	c4.6,0,6.5-0.3,6.5-4"/>
<circle cx="5.5" cy="9" r="1"/>
<circle cx="10" cy="9" r="1"/>
<circle cx="8" cy="13" r="1"/>
</svg>
