<?xml version="1.0" encoding="utf-8"?>
<!-- Generator: Adobe Illustrator 18.1.1, SVG Export Plug-In . SVG Version: 6.00 Build 0)  -->
<svg version="1.1" id="Layer_1" xmlns="http://www.w3.org/2000/svg" xmlns:xlink="http://www.w3.org/1999/xlink" x="0px" y="0px"
	 viewBox="0 0 16 16" enable-background="new 0 0 16 16" xml:space="preserve">
<rect x="1" y="2" width="14" height="1"/>
<g>
	<path d="M13.5,2.2C13.2,1.5,10.6,0.9,8,0.9S2.8,1.5,2.5,2.2H13.5z"/>
</g>
<rect x="7" width="2" height="1"/>
<path d="M2,4l1.8,11.2c0.1,0.5,0.5,0.8,1,0.8h6.5c0.5,0,0.9-0.4,1-0.8L14,4H2z M10,14H9V6h1V14z M11.6,14H11l0.6-8h0.9L11.6,14z
	 M6,6h1v8H6V6z M3.4,6h1.1L5,14H4.4L3.4,6z"/>
</svg>
