<?xml version="1.0" encoding="utf-8"?>
<!-- Generator: Adobe Illustrator 18.1.1, SVG Export Plug-In . SVG Version: 6.00 Build 0)  -->
<svg version="1.1" id="Layer_1" xmlns="http://www.w3.org/2000/svg" xmlns:xlink="http://www.w3.org/1999/xlink" x="0px" y="0px"
	 viewBox="0 0 128 128" enable-background="new 0 0 128 128" xml:space="preserve">
<path d="M108,27H20c-0.6,0-1-0.4-1-1v-6h90v6C109,26.6,108.6,27,108,27z"/>
<path d="M109,19H19v-3c0-0.6,0.4-1,1-1h88c0.6,0,1,0.4,1,1V19z"/>
<path d="M92,128H36c-0.6,0-1-0.4-1-1v-2h58v2C93,127.6,92.6,128,92,128z"/>
<g>
	<path d="M105.8,14C103.9,8.9,83.7,5,64,5s-39.9,3.9-41.8,9H105.8z"/>
	<path d="M32.8,18"/>
</g>
<rect x="54.5" y="1.5" fill="none" stroke="#000000" stroke-width="3" stroke-linecap="round" stroke-linejoin="round" stroke-miterlimit="10" width="19" height="7"/>
<path d="M22,28l10.8,94.2c0.1,1,1,1.8,2,1.8h58.4c1,0,1.9-0.8,2-1.8L106,28H22z M37,118C37,118,37,118,37,118
	c-0.3,0-0.5-0.2-0.6-0.5l-8.5-81c0-0.3,0.2-0.5,0.4-0.6c0.3,0,0.5,0.2,0.6,0.5l8.5,81C37.5,117.7,37.3,118,37,118z M44.1,118
	C44,118,44,118,44.1,118c-0.6,0-1-0.4-1.1-0.9l-6.1-80c0-0.6,0.4-1,0.9-1.1c0.6,0,1,0.4,1.1,0.9l6.1,80C45,117.5,44.6,118,44.1,118z
	 M52.1,118C52,118,52,118,52.1,118c-0.9,0-1.5-0.6-1.6-1.4l-3.7-79c0-0.8,0.6-1.5,1.4-1.6c0.8,0,1.5,0.6,1.6,1.4l3.7,79
	C53.5,117.3,52.9,118,52.1,118z M60,118C60,118,60,118,60,118c-0.8,0-1.5-0.7-1.5-1.5l-1.2-79c0-0.8,0.6-1.5,1.5-1.5c0,0,0,0,0,0
	c0.8,0,1.5,0.7,1.5,1.5l1.2,79C61.5,117.3,60.8,118,60,118z M69.5,116.5c0,0.8-0.7,1.5-1.5,1.5c0,0,0,0,0,0c-0.8,0-1.5-0.7-1.5-1.5
	l1.2-79c0-0.8,0.7-1.5,1.5-1.5c0,0,0,0,0,0c0.8,0,1.5,0.7,1.5,1.5L69.5,116.5z M77.5,116.6c0,0.8-0.7,1.4-1.5,1.4c0,0,0,0-0.1,0
	c-0.8,0-1.5-0.7-1.4-1.6l3.7-79c0-0.8,0.8-1.5,1.6-1.4c0.8,0,1.5,0.7,1.4,1.6L77.5,116.6z M84,118C84,118,84,118,84,118
	c-0.6,0-1-0.5-1-1.1l6.1-80c0-0.6,0.5-1,1.1-0.9c0.6,0,1,0.5,0.9,1.1l-6.1,80C85,117.6,84.5,118,84,118z M91.5,117.5
	c0,0.3-0.2,0.5-0.5,0.5c0,0,0,0-0.1,0c-0.3,0-0.5-0.3-0.4-0.6l8.5-81c0-0.3,0.3-0.5,0.6-0.5c0.3,0,0.5,0.3,0.4,0.6L91.5,117.5z"/>
</svg>
