<?xml version="1.0" encoding="utf-8"?>
<!-- Generator: Adobe Illustrator 18.1.1, SVG Export Plug-In . SVG Version: 6.00 Build 0)  -->
<svg version="1.1" id="Layer_1" xmlns="http://www.w3.org/2000/svg" xmlns:xlink="http://www.w3.org/1999/xlink" x="0px" y="0px"
	 viewBox="0 0 32 32" enable-background="new 0 0 32 32" xml:space="preserve">
<rect x="4" y="5" width="24" height="2"/>
<g>
	<path d="M27,4c-0.5-1.1-5.8-2-11-2S5.5,2.9,5,4H27z"/>
</g>
<rect x="13.5" y="0.5" fill="none" stroke="#000000" stroke-linecap="round" stroke-linejoin="round" stroke-miterlimit="10" width="5" height="1.8"/>
<path d="M5,8l2.8,23.6c0,0.3,0.3,0.4,0.5,0.4h15.3c0.3,0,0.5-0.2,0.5-0.4L27,8H5z M11.3,29C11.3,29,11.3,29,11.3,29
	c-0.3,0-0.5-0.1-0.5-0.3L9.5,10.4c0-0.2,0.2-0.4,0.5-0.4c0.3,0,0.5,0.1,0.5,0.3l1.3,18.3C11.8,28.8,11.6,29,11.3,29z M14.4,29
	C14.4,29,14.4,29,14.4,29c-0.3,0-0.5-0.2-0.5-0.3l-0.4-18.3c0-0.2,0.2-0.4,0.5-0.4c0,0,0,0,0,0c0.3,0,0.5,0.2,0.5,0.3l0.4,18.3
	C14.9,28.8,14.7,29,14.4,29z M18.2,28.7c0,0.2-0.2,0.3-0.5,0.3c0,0,0,0,0,0c-0.3,0-0.5-0.2-0.5-0.4l0.4-18.3c0-0.2,0.2-0.3,0.5-0.3
	c0,0,0,0,0,0c0.3,0,0.5,0.2,0.5,0.4L18.2,28.7z M21.2,28.7c0,0.2-0.2,0.3-0.5,0.3c0,0,0,0,0,0c-0.3,0-0.5-0.2-0.5-0.4l1.3-18.3
	c0-0.2,0.3-0.3,0.5-0.3c0.3,0,0.5,0.2,0.5,0.4L21.2,28.7z"/>
</svg>
