<?xml version="1.0" encoding="utf-8"?>
<!-- Generator: Adobe Illustrator 18.1.1, SVG Export Plug-In . SVG Version: 6.00 Build 0)  -->
<svg version="1.1" id="Layer_1" xmlns="http://www.w3.org/2000/svg" xmlns:xlink="http://www.w3.org/1999/xlink" x="0px" y="0px"
	 viewBox="0 0 128 128" enable-background="new 0 0 128 128" xml:space="preserve">
<path d="M83.9,86c-1,5.7-9.4,10-19.9,10c-10.4,0-18.7-4.2-19.8-9.8C31.2,92.6,7,95.1,7,128h114C121,94.3,98.1,93.2,83.9,86z"/>
<path d="M88.2,41c-0.2-5.4-6.8-20.1-10.7-25.6c-11,7.7-36.4-2.9-37.7,25.6c0,0-3.3,0.1-2.7,4.9c1.3,9.4,5.6,9.1,5.6,9.1
	C44.2,65,50,71,50,71v7.7c0,2.5-1.2,4.8-3.3,6.2c-0.2,0.1-0.4,0.2-0.6,0.4C46.4,90,54.5,94,64,94c9.7,0,17.9-4.1,18-9.1
	c-0.2-0.1-0.4-0.3-0.7-0.4c-2.1-1.3-3.3-3.7-3.3-6.1V71c0,0,5.7-6.2,7.3-16c0,0,3.5-0.3,5.4-8C92.1,41,88.2,41,88.2,41z"/>
<g>
	<path d="M41,43c0-18.8,14.5-22,23-22c9.6,0,12.3-3.6,13.1-4c0,4.3,8.9,11.1,8.9,27h1.4c3-11,7.5-36-8.4-36c-2-5-8.6-8-15.3-8
		C37.8,0,30.9,21.8,40,43H41z"/>
</g>
</svg>
