<?xml version="1.0" encoding="utf-8"?>
<!-- Generator: Adobe Illustrator 18.1.1, SVG Export Plug-In . SVG Version: 6.00 Build 0)  -->
<svg version="1.1" id="Layer_1" xmlns="http://www.w3.org/2000/svg" xmlns:xlink="http://www.w3.org/1999/xlink" x="0px" y="0px"
	 viewBox="0 0 16 16" enable-background="new 0 0 16 16" xml:space="preserve">
<path d="M11.1,10.4C10.7,11.4,9.5,12,8,12c-1.5,0-2.7-0.6-3.1-1.6C3.2,11.2,1,11.9,1,16h14C15,11.8,12.9,11.2,11.1,10.4z"/>
<path d="M11.1,5.1c0,0-0.8-2.7-1.2-3.2c-1.4,0.9-4.1-0.3-5,3.2c0,0-0.4,0-0.3,0.6c0.2,1.2,0.7,1.1,0.7,1.1C5.3,7.7,5.7,8.3,6,8.6
	v0.7c0,0.2-0.1,0.4-0.3,0.6C5.9,10.5,6.9,11,8,11c1.1,0,2.1-0.5,2.3-1.1C10.1,9.7,10,9.5,10,9.3V8.6c0.3-0.3,0.6-0.9,0.8-1.7
	c0,0,0.4,0,0.7-1C11.6,5.1,11.1,5.1,11.1,5.1z"/>
<g>
	<path d="M5.1,5.5c0-2.3,1.8-2.9,2.9-2.9c1.2,0,1.5-0.4,1.6-0.5c0,0.5,1.3,1.4,1.3,3.4h0.2C11.4,4.1,11.9,1,9.9,1C9.6,0.4,8.8,0,8,0
		C4.7,0,3.9,2.8,5,5.5H5.1z"/>
</g>
</svg>
