<?xml version="1.0" encoding="utf-8"?>
<!-- Generator: Adobe Illustrator 18.1.1, SVG Export Plug-In . SVG Version: 6.00 Build 0)  -->
<svg version="1.1" id="Layer_1" xmlns="http://www.w3.org/2000/svg" xmlns:xlink="http://www.w3.org/1999/xlink" x="0px" y="0px"
	 viewBox="0 0 32 32" enable-background="new 0 0 32 32" xml:space="preserve">
<path d="M21,21.5c-0.1,0-0.1-0.1-0.2-0.1C20.3,22.9,18.4,24,16,24c-2.3,0-4.2-1.1-4.8-2.5c-0.1,0-0.1,0.1-0.2,0.1
	C7.8,23.2,2,23.8,2,32h28C30,23.6,24.5,23.3,21,21.5z"/>
<path d="M22.9,11.7c0.4-1.5-0.6-1.5-0.6-1.5s-1.6-5.3-2.5-6.4c-2.9,1.8-8.2-0.6-10.1,6.4c0,0-0.8,0-0.7,1.2c0.3,2.4,1.4,2.3,1.4,2.3
	c0.4,2.5,2.1,4,2.1,4v1.9c0,0.4-0.2,0.9-0.4,1.2C12.3,22,14,23,16,23c2,0,3.7-1,3.9-2.2c-0.3-0.3-0.4-0.8-0.4-1.2v-1.8
	c0,0,1.6-1.5,2-4C21.5,13.8,22.4,13.7,22.9,11.7z"/>
<g>
	<path d="M10.2,11c0-4.7,3.6-5.8,5.8-5.8c2.4,0,3.1-0.9,3.3-1c0,1.1,2.5,2.8,2.5,6.8h0.3c0.7-2.7,1.6-9-2.4-9c-0.5-1.2-2.2-2-3.8-2
		C9.5,0,7.7,5.7,10,11H10.2z"/>
</g>
</svg>
